<?xml version="1.0" encoding="UTF-8" standalone="no"?>
<!DOCTYPE svg PUBLIC "-//W3C//DTD SVG 1.1//EN" "http://www.w3.org/Graphics/SVG/1.1/DTD/svg11.dtd">
<svg width="100%" height="100%" viewBox="0 0 2550 3300" version="1.1" xmlns="http://www.w3.org/2000/svg" xmlns:xlink="http://www.w3.org/1999/xlink" xml:space="preserve" xmlns:serif="http://www.serif.com/" style="fill-rule:evenodd;clip-rule:evenodd;stroke-linecap:round;stroke-linejoin:round;stroke-miterlimit:1.5;">
    <path d="M1230.98,563C1230.98,563 1985,499.4 1985,1027C1985,1588.6 1261,1519.96 1261,1519.96C1261,1519.96 1769,1446.07 1769,1037C1769,613.93 1230.98,563 1230.98,563Z" style="fill:rgb(36,36,96);stroke:black;stroke-width:1px;"/>
    <g transform="matrix(-1,-1.22465e-16,1.22465e-16,-1,2475.95,3039.91)">
        <path d="M1230.98,563C1230.98,563 1985,499.4 1985,1027C1985,1588.6 1274.98,1517.31 1274.98,1517.31C1274.98,1517.31 1769,1446.07 1769,1037C1769,613.93 1230.98,563 1230.98,563Z" style="fill:rgb(36,36,96);stroke:black;stroke-width:1px;"/>
    </g>
    <g transform="matrix(1.36334,0,0,1.01235,-477.254,-12.0153)">
        <path d="M1275,597.652C1275,581.287 1265.13,568 1252.98,568C1240.83,568 1230.96,581.287 1230.96,597.652L1230.96,2886.35C1230.96,2902.71 1240.83,2916 1252.98,2916C1265.13,2916 1275,2902.71 1275,2886.35L1275,597.652Z" style="fill:rgb(25,79,15);"/>
    </g>
</svg>
