<?xml version="1.0"?>
<!DOCTYPE svg PUBLIC "-//W3C//DTD SVG 1.1//EN" "http://www.w3.org/Graphics/SVG/1.1/DTD/svg11.dtd">
<svg width="790.5913580281085mm" height="790.5913580281085mm" viewBox="0 0 790.5913580281085 790.5913580281085" xmlns="http://www.w3.org/2000/svg" version="1.1">
<g id="Sketch002" transform="translate(395.295679,395.295679) scale(1,-1)">
<path id="Sketch002_w0000"  d="M 20.50000000000019 358.0709084794162 L 20.50000000000019 387.544783347112 A 388.087 388.087 0 0 0 387.545 20.5L 358.0709084794162 20.49999999999987 L 358.0709084794162 -20.50000000000026 L 387.544783347112 -20.500000000000256 A 388.087 388.087 0 0 0 20.5 -387.545L 20.500000000000064 -358.0709084794162 L -20.499999999999886 -358.0709084794162 L -20.499999999999886 -387.544783347112 A 388.087 388.087 0 0 0 -387.545 -20.5L -358.0709084794162 -20.500000000000053 L -358.0709084794162 20.50000000000004 L -387.544783347112 20.50000000000004 A 388.087 388.087 0 0 0 -20.5 387.545L -20.49999999999962 358.0709084794162 L 20.50000000000019 358.0709084794162 " stroke="#000000" stroke-width="0.35 px" style="stroke-width:0.35;stroke-miterlimit:4;stroke-dasharray:none;stroke-linecap:square;fill:none;fill-opacity:1;fill-rule: evenodd"/>
<title>b'Sketch002'</title>
</g>
</svg>