<?xml version="1.0" encoding="UTF-8" standalone="no"?>
<!DOCTYPE svg PUBLIC "-//W3C//DTD SVG 1.1//EN" "http://www.w3.org/Graphics/SVG/1.1/DTD/svg11.dtd">
<svg width="100%" height="100%" viewBox="0 0 1282 401" version="1.1" xmlns="http://www.w3.org/2000/svg" xmlns:xlink="http://www.w3.org/1999/xlink" xml:space="preserve" xmlns:serif="http://www.serif.com/" style="fill-rule:evenodd;clip-rule:evenodd;stroke-linejoin:round;stroke-miterlimit:2;">
    <g transform="matrix(1,0,0,1,-562.331,-835.559)">
        <path d="M1077.6,1166.44C962.206,1167.37 862.851,1168.16 862.856,1168.16C860.578,1168.21 836.279,1168.32 816.726,1148.21C804.035,1135.16 792.891,1113.2 792.891,1075.64C792.891,1055.21 797.397,1039.8 804.077,1028.11C703.312,1029.32 624.179,1030.18 601.642,1030.18C584.138,1030.18 575.04,1025.22 570.129,1020.93C562.728,1014.46 562.411,1007.7 562.411,1007.7C561.701,1001.99 565.756,996.785 571.461,996.074C576.832,995.405 581.764,998.961 582.915,1004.14C583.395,1004.61 588.589,1009.35 601.642,1009.35C625.538,1009.35 713.079,1008.38 822.56,1007.05C843.486,991.266 868.271,990.843 871.373,990.855C874.738,990.799 979.857,989.063 1116.67,986.741L1122.67,959.177C1123.89,953.559 1129.44,949.99 1135.06,951.211C1140.68,952.433 1144.25,957.986 1143.03,963.603L1138.07,986.377C1149.98,986.175 1162.09,985.969 1174.35,985.759L1180.13,959.177C1181.35,953.559 1186.91,949.99 1192.52,951.211C1198.14,952.433 1201.71,957.986 1200.49,963.603L1195.75,985.393C1207.73,985.188 1219.84,984.981 1232.03,984.771L1237.6,959.177C1238.82,953.559 1244.37,949.99 1249.99,951.211C1255.61,952.433 1259.17,957.986 1257.95,963.603L1253.43,984.402C1422.93,981.48 1604.71,978.25 1697.38,976.294C1727.25,975.664 1757.49,968.236 1780.17,947.96C1802.99,927.564 1817.73,894.327 1817.76,843.152C1817.77,828.252 1838.06,839.685 1838.32,840.78C1838.33,840.805 1838.57,841.544 1838.59,843.017C1838.6,843.474 1838.65,846.438 1838.73,851.449C1839.52,901.35 1843.46,1155.12 1843.46,1155.12C1843.55,1160.71 1839.2,1165.37 1833.62,1165.68C1828.04,1165.99 1823.21,1161.84 1822.67,1156.27C1822.67,1156.27 1817.94,1109.46 1775.59,1072.55C1746.49,1047.18 1699.92,1026.83 1625.95,1028.07C1620.2,1028.17 1615.45,1023.58 1615.36,1017.83C1615.26,1012.09 1619.85,1007.34 1625.6,1007.24C1706.64,1005.88 1757.4,1029.05 1789.28,1056.84C1803.44,1069.18 1813.93,1082.49 1821.69,1095.2C1820.97,1048.79 1819.96,983.928 1819.15,931.65C1812.19,944.4 1803.66,954.904 1794.06,963.492C1767.63,987.113 1732.62,996.389 1697.82,997.123C1639.42,998.355 1545.65,1000.09 1441.85,1001.94C1467.01,1007.63 1504.67,1025.49 1504.67,1081.36C1504.67,1106.36 1497.61,1123.63 1488.11,1135.67C1466.66,1162.88 1431.69,1163.64 1428.04,1163.64C1428.04,1163.64 1329.14,1164.43 1214.09,1165.35L1200.49,1227.89C1199.27,1233.51 1193.71,1237.08 1188.1,1235.85C1182.48,1234.63 1178.91,1229.08 1180.13,1223.46L1192.73,1165.52C1180.75,1165.62 1168.65,1165.72 1156.52,1165.81L1143.03,1227.89C1141.8,1233.51 1136.25,1237.08 1130.63,1235.85C1125.02,1234.63 1121.45,1229.08 1122.67,1223.46L1135.17,1165.98C1123.04,1166.08 1110.94,1166.18 1098.96,1166.27L1085.56,1227.89C1084.34,1233.51 1078.79,1237.08 1073.17,1235.85C1067.55,1234.63 1063.98,1229.08 1065.2,1223.46L1077.6,1166.44ZM1108.52,1024.26C1016.27,1025.46 916.861,1026.73 830.313,1027.79C828.898,1029.19 827.531,1030.72 826.232,1032.38C818.769,1041.92 813.724,1055.77 813.724,1075.64C813.724,1105.52 821.568,1123.31 831.663,1133.69C845.309,1147.73 862.263,1147.33 862.263,1147.33C862.363,1147.33 862.463,1147.33 862.563,1147.33L1082.14,1145.57L1108.52,1024.26ZM1166.14,1023.51C1154.25,1023.66 1142.15,1023.82 1129.9,1023.98L1103.5,1145.4L1139.7,1145.11L1166.14,1023.51ZM1223.77,1022.75C1212,1022.9 1199.9,1023.06 1187.53,1023.23L1161.06,1144.94L1197.27,1144.65L1223.77,1022.75ZM1218.62,1144.48L1427.87,1142.81C1427.97,1142.81 1428.08,1142.81 1428.18,1142.81C1428.18,1142.81 1455.42,1143.48 1471.75,1122.77C1478.96,1113.62 1483.83,1100.36 1483.83,1081.36C1483.83,1018.62 1420.22,1020.12 1420.22,1020.12C1420.19,1020.12 1420.16,1020.12 1420.13,1020.12C1420.13,1020.12 1347.41,1021.11 1245.15,1022.46L1218.62,1144.48Z"/>
    </g>
</svg>
