ISO-10303-21;
HEADER;
FILE_DESCRIPTION(('FreeCAD Model'),'2;1');
FILE_NAME('Open CASCADE Shape Model','2024-10-22T18:54:33',(''),(''),
  'Open CASCADE STEP processor 7.6','FreeCAD','Unknown');
FILE_SCHEMA(('AUTOMOTIVE_DESIGN { 1 0 10303 214 1 1 1 1 }'));
ENDSEC;
DATA;
#1 = APPLICATION_PROTOCOL_DEFINITION('international standard',
  'automotive_design',2000,#2);
#2 = APPLICATION_CONTEXT(
  'core data for automotive mechanical design processes');
#3 = SHAPE_DEFINITION_REPRESENTATION(#4,#10);
#4 = PRODUCT_DEFINITION_SHAPE('','',#5);
#5 = PRODUCT_DEFINITION('design','',#6,#9);
#6 = PRODUCT_DEFINITION_FORMATION('','',#7);
#7 = PRODUCT('Plug','Plug','',(#8));
#8 = PRODUCT_CONTEXT('',#2,'mechanical');
#9 = PRODUCT_DEFINITION_CONTEXT('part definition',#2,'design');
#10 = SHAPE_REPRESENTATION('',(#11,#15),#19);
#11 = AXIS2_PLACEMENT_3D('',#12,#13,#14);
#12 = CARTESIAN_POINT('',(0.,0.,0.));
#13 = DIRECTION('',(0.,0.,1.));
#14 = DIRECTION('',(1.,0.,-0.));
#15 = AXIS2_PLACEMENT_3D('',#16,#17,#18);
#16 = CARTESIAN_POINT('',(0.,0.,0.));
#17 = DIRECTION('',(0.,0.,1.));
#18 = DIRECTION('',(1.,0.,0.));
#19 = ( GEOMETRIC_REPRESENTATION_CONTEXT(3) 
GLOBAL_UNCERTAINTY_ASSIGNED_CONTEXT((#23)) GLOBAL_UNIT_ASSIGNED_CONTEXT(
(#20,#21,#22)) REPRESENTATION_CONTEXT('Context #1',
  '3D Context with UNIT and UNCERTAINTY') );
#20 = ( LENGTH_UNIT() NAMED_UNIT(*) SI_UNIT(.MILLI.,.METRE.) );
#21 = ( NAMED_UNIT(*) PLANE_ANGLE_UNIT() SI_UNIT($,.RADIAN.) );
#22 = ( NAMED_UNIT(*) SI_UNIT($,.STERADIAN.) SOLID_ANGLE_UNIT() );
#23 = UNCERTAINTY_MEASURE_WITH_UNIT(LENGTH_MEASURE(1.E-07),#20,
  'distance_accuracy_value','confusion accuracy');
#24 = PRODUCT_RELATED_PRODUCT_CATEGORY('part',$,(#7));
#25 = SHAPE_DEFINITION_REPRESENTATION(#26,#32);
#26 = PRODUCT_DEFINITION_SHAPE('','',#27);
#27 = PRODUCT_DEFINITION('design','',#28,#31);
#28 = PRODUCT_DEFINITION_FORMATION('','',#29);
#29 = PRODUCT('Body002','Body002','',(#30));
#30 = PRODUCT_CONTEXT('',#2,'mechanical');
#31 = PRODUCT_DEFINITION_CONTEXT('part definition',#2,'design');
#32 = ADVANCED_BREP_SHAPE_REPRESENTATION('',(#11,#33),#1768);
#33 = MANIFOLD_SOLID_BREP('',#34);
#34 = CLOSED_SHELL('',(#35,#123,#178,#213,#217,#276,#738,#818,#877,#935,
    #985,#1038,#1112,#1170,#1220,#1273,#1347,#1405,#1455,#1508,#1562,
    #1615,#1643,#1671,#1747,#1754,#1761));
#35 = ADVANCED_FACE('',(#36),#50,.T.);
#36 = FACE_BOUND('',#37,.F.);
#37 = EDGE_LOOP('',(#38,#68,#95,#96));
#38 = ORIENTED_EDGE('',*,*,#39,.T.);
#39 = EDGE_CURVE('',#40,#42,#44,.T.);
#40 = VERTEX_POINT('',#41);
#41 = CARTESIAN_POINT('',(56.613718922636,1.8E-14,2.704100155371));
#42 = VERTEX_POINT('',#43);
#43 = CARTESIAN_POINT('',(56.617616146766,1.7E-14,2.713309479129));
#44 = SEAM_CURVE('',#45,(#49,#61),.PCURVE_S1.);
#45 = LINE('',#46,#47);
#46 = CARTESIAN_POINT('',(56.613718922636,1.768E-14,2.704100155371));
#47 = VECTOR('',#48,1.);
#48 = DIRECTION('',(0.389722413022,-1.E-17,0.920932375796));
#49 = PCURVE('',#50,#55);
#50 = CYLINDRICAL_SURFACE('',#51,8.75);
#51 = AXIS2_PLACEMENT_3D('',#52,#53,#54);
#52 = CARTESIAN_POINT('',(48.555560634426,1.765E-14,6.114171269313));
#53 = DIRECTION('',(-0.389722413022,1.E-17,-0.920932375796));
#54 = DIRECTION('',(0.920932375796,0.,-0.389722413022));
#55 = DEFINITIONAL_REPRESENTATION('',(#56),#60);
#56 = LINE('',#57,#58);
#57 = CARTESIAN_POINT('',(-0.,0.));
#58 = VECTOR('',#59,1.);
#59 = DIRECTION('',(-0.,-1.));
#60 = ( GEOMETRIC_REPRESENTATION_CONTEXT(2) 
PARAMETRIC_REPRESENTATION_CONTEXT() REPRESENTATION_CONTEXT('2D SPACE',''
  ) );
#61 = PCURVE('',#50,#62);
#62 = DEFINITIONAL_REPRESENTATION('',(#63),#67);
#63 = LINE('',#64,#65);
#64 = CARTESIAN_POINT('',(-6.28318530718,0.));
#65 = VECTOR('',#66,1.);
#66 = DIRECTION('',(-0.,-1.));
#67 = ( GEOMETRIC_REPRESENTATION_CONTEXT(2) 
PARAMETRIC_REPRESENTATION_CONTEXT() REPRESENTATION_CONTEXT('2D SPACE',''
  ) );
#68 = ORIENTED_EDGE('',*,*,#69,.T.);
#69 = EDGE_CURVE('',#42,#42,#70,.T.);
#70 = SURFACE_CURVE('',#71,(#76,#83),.PCURVE_S1.);
#71 = CIRCLE('',#72,8.75);
#72 = AXIS2_PLACEMENT_3D('',#73,#74,#75);
#73 = CARTESIAN_POINT('',(48.559457858556,1.766E-14,6.123380593071));
#74 = DIRECTION('',(0.389722413022,2.E-16,0.920932375796));
#75 = DIRECTION('',(0.920932375796,-4.E-17,-0.389722413022));
#76 = PCURVE('',#50,#77);
#77 = DEFINITIONAL_REPRESENTATION('',(#78),#82);
#78 = LINE('',#79,#80);
#79 = CARTESIAN_POINT('',(-0.,-9.999999999998E-03));
#80 = VECTOR('',#81,1.);
#81 = DIRECTION('',(-1.,0.));
#82 = ( GEOMETRIC_REPRESENTATION_CONTEXT(2) 
PARAMETRIC_REPRESENTATION_CONTEXT() REPRESENTATION_CONTEXT('2D SPACE',''
  ) );
#83 = PCURVE('',#84,#89);
#84 = CONICAL_SURFACE('',#85,8.75,0.785398163397);
#85 = AXIS2_PLACEMENT_3D('',#86,#87,#88);
#86 = CARTESIAN_POINT('',(48.559457858556,1.766E-14,6.123380593071));
#87 = DIRECTION('',(-0.389722413022,-2.E-16,-0.920932375796));
#88 = DIRECTION('',(0.920932375796,-4.E-17,-0.389722413022));
#89 = DEFINITIONAL_REPRESENTATION('',(#90),#94);
#90 = LINE('',#91,#92);
#91 = CARTESIAN_POINT('',(-0.,-0.));
#92 = VECTOR('',#93,1.);
#93 = DIRECTION('',(-1.,-0.));
#94 = ( GEOMETRIC_REPRESENTATION_CONTEXT(2) 
PARAMETRIC_REPRESENTATION_CONTEXT() REPRESENTATION_CONTEXT('2D SPACE',''
  ) );
#95 = ORIENTED_EDGE('',*,*,#39,.F.);
#96 = ORIENTED_EDGE('',*,*,#97,.F.);
#97 = EDGE_CURVE('',#40,#40,#98,.T.);
#98 = SURFACE_CURVE('',#99,(#104,#111),.PCURVE_S1.);
#99 = CIRCLE('',#100,8.75);
#100 = AXIS2_PLACEMENT_3D('',#101,#102,#103);
#101 = CARTESIAN_POINT('',(48.555560634426,1.77E-14,6.114171269313));
#102 = DIRECTION('',(0.389722413022,-0.,0.920932375796));
#103 = DIRECTION('',(0.920932375796,0.,-0.389722413022));
#104 = PCURVE('',#50,#105);
#105 = DEFINITIONAL_REPRESENTATION('',(#106),#110);
#106 = LINE('',#107,#108);
#107 = CARTESIAN_POINT('',(-0.,0.));
#108 = VECTOR('',#109,1.);
#109 = DIRECTION('',(-1.,0.));
#110 = ( GEOMETRIC_REPRESENTATION_CONTEXT(2) 
PARAMETRIC_REPRESENTATION_CONTEXT() REPRESENTATION_CONTEXT('2D SPACE',''
  ) );
#111 = PCURVE('',#112,#117);
#112 = PLANE('',#113);
#113 = AXIS2_PLACEMENT_3D('',#114,#115,#116);
#114 = CARTESIAN_POINT('',(48.555560634426,1.947E-14,6.114171269313));
#115 = DIRECTION('',(0.389722413022,2.E-16,0.920932375796));
#116 = DIRECTION('',(0.920932375796,0.,-0.389722413022));
#117 = DEFINITIONAL_REPRESENTATION('',(#118),#122);
#118 = CIRCLE('',#119,8.75);
#119 = AXIS2_PLACEMENT_2D('',#120,#121);
#120 = CARTESIAN_POINT('',(-7.235904171317E-15,-1.77E-15));
#121 = DIRECTION('',(1.,1.479114197289E-31));
#122 = ( GEOMETRIC_REPRESENTATION_CONTEXT(2) 
PARAMETRIC_REPRESENTATION_CONTEXT() REPRESENTATION_CONTEXT('2D SPACE',''
  ) );
#123 = ADVANCED_FACE('',(#124),#84,.T.);
#124 = FACE_BOUND('',#125,.T.);
#125 = EDGE_LOOP('',(#126,#149,#150,#151));
#126 = ORIENTED_EDGE('',*,*,#127,.F.);
#127 = EDGE_CURVE('',#42,#128,#130,.T.);
#128 = VERTEX_POINT('',#129);
#129 = CARTESIAN_POINT('',(55.560508320847,1.8E-14,5.321512508876));
#130 = SEAM_CURVE('',#131,(#135,#142),.PCURVE_S1.);
#131 = LINE('',#132,#133);
#132 = CARTESIAN_POINT('',(56.617616146766,1.726E-14,2.713309479129));
#133 = VECTOR('',#134,1.);
#134 = DIRECTION('',(-0.375622166911,1.8E-16,0.926772888967));
#135 = PCURVE('',#84,#136);
#136 = DEFINITIONAL_REPRESENTATION('',(#137),#141);
#137 = LINE('',#138,#139);
#138 = CARTESIAN_POINT('',(-0.,-0.));
#139 = VECTOR('',#140,1.);
#140 = DIRECTION('',(-0.,-1.));
#141 = ( GEOMETRIC_REPRESENTATION_CONTEXT(2) 
PARAMETRIC_REPRESENTATION_CONTEXT() REPRESENTATION_CONTEXT('2D SPACE',''
  ) );
#142 = PCURVE('',#84,#143);
#143 = DEFINITIONAL_REPRESENTATION('',(#144),#148);
#144 = LINE('',#145,#146);
#145 = CARTESIAN_POINT('',(-6.28318530718,-0.));
#146 = VECTOR('',#147,1.);
#147 = DIRECTION('',(-0.,-1.));
#148 = ( GEOMETRIC_REPRESENTATION_CONTEXT(2) 
PARAMETRIC_REPRESENTATION_CONTEXT() REPRESENTATION_CONTEXT('2D SPACE',''
  ) );
#149 = ORIENTED_EDGE('',*,*,#69,.T.);
#150 = ORIENTED_EDGE('',*,*,#127,.T.);
#151 = ORIENTED_EDGE('',*,*,#152,.F.);
#152 = EDGE_CURVE('',#128,#128,#153,.T.);
#153 = SURFACE_CURVE('',#154,(#159,#166),.PCURVE_S1.);
#154 = CIRCLE('',#155,6.76);
#155 = AXIS2_PLACEMENT_3D('',#156,#157,#158);
#156 = CARTESIAN_POINT('',(49.335005460469,1.806E-14,7.956036020904));
#157 = DIRECTION('',(0.389722413022,2.E-16,0.920932375796));
#158 = DIRECTION('',(0.920932375796,-4.E-17,-0.389722413022));
#159 = PCURVE('',#84,#160);
#160 = DEFINITIONAL_REPRESENTATION('',(#161),#165);
#161 = LINE('',#162,#163);
#162 = CARTESIAN_POINT('',(-0.,-1.99));
#163 = VECTOR('',#164,1.);
#164 = DIRECTION('',(-1.,-0.));
#165 = ( GEOMETRIC_REPRESENTATION_CONTEXT(2) 
PARAMETRIC_REPRESENTATION_CONTEXT() REPRESENTATION_CONTEXT('2D SPACE',''
  ) );
#166 = PCURVE('',#167,#172);
#167 = PLANE('',#168);
#168 = AXIS2_PLACEMENT_3D('',#169,#170,#171);
#169 = CARTESIAN_POINT('',(49.335005460469,1.947E-14,7.956036020904));
#170 = DIRECTION('',(0.389722413022,2.E-16,0.920932375796));
#171 = DIRECTION('',(0.920932375796,0.,-0.389722413022));
#172 = DEFINITIONAL_REPRESENTATION('',(#173),#177);
#173 = CIRCLE('',#174,6.76);
#174 = AXIS2_PLACEMENT_2D('',#175,#176);
#175 = CARTESIAN_POINT('',(-7.582047208237E-15,-1.41E-15));
#176 = DIRECTION('',(1.,-4.E-17));
#177 = ( GEOMETRIC_REPRESENTATION_CONTEXT(2) 
PARAMETRIC_REPRESENTATION_CONTEXT() REPRESENTATION_CONTEXT('2D SPACE',''
  ) );
#178 = ADVANCED_FACE('',(#179,#182),#112,.F.);
#179 = FACE_BOUND('',#180,.F.);
#180 = EDGE_LOOP('',(#181));
#181 = ORIENTED_EDGE('',*,*,#97,.T.);
#182 = FACE_BOUND('',#183,.F.);
#183 = EDGE_LOOP('',(#184));
#184 = ORIENTED_EDGE('',*,*,#185,.F.);
#185 = EDGE_CURVE('',#186,#186,#188,.T.);
#186 = VERTEX_POINT('',#187);
#187 = CARTESIAN_POINT('',(52.929989419454,2.E-14,4.262989807459));
#188 = SURFACE_CURVE('',#189,(#194,#201),.PCURVE_S1.);
#189 = CIRCLE('',#190,4.75);
#190 = AXIS2_PLACEMENT_3D('',#191,#192,#193);
#191 = CARTESIAN_POINT('',(48.555560634426,1.973E-14,6.114171269313));
#192 = DIRECTION('',(0.389722413022,-0.,0.920932375796));
#193 = DIRECTION('',(0.920932375796,0.,-0.389722413022));
#194 = PCURVE('',#112,#195);
#195 = DEFINITIONAL_REPRESENTATION('',(#196),#200);
#196 = CIRCLE('',#197,4.75);
#197 = AXIS2_PLACEMENT_2D('',#198,#199);
#198 = CARTESIAN_POINT('',(2.343842769855E-14,2.6E-16));
#199 = DIRECTION('',(1.,-1.109335647967E-31));
#200 = ( GEOMETRIC_REPRESENTATION_CONTEXT(2) 
PARAMETRIC_REPRESENTATION_CONTEXT() REPRESENTATION_CONTEXT('2D SPACE',''
  ) );
#201 = PCURVE('',#202,#207);
#202 = CYLINDRICAL_SURFACE('',#203,4.75);
#203 = AXIS2_PLACEMENT_3D('',#204,#205,#206);
#204 = CARTESIAN_POINT('',(48.243782704008,1.754E-14,5.377425368677));
#205 = DIRECTION('',(-0.389722413022,-1.4E-16,-0.920932375796));
#206 = DIRECTION('',(0.920932375796,-6.E-17,-0.389722413022));
#207 = DEFINITIONAL_REPRESENTATION('',(#208),#212);
#208 = LINE('',#209,#210);
#209 = CARTESIAN_POINT('',(-0.,-0.8));
#210 = VECTOR('',#211,1.);
#211 = DIRECTION('',(-1.,0.));
#212 = ( GEOMETRIC_REPRESENTATION_CONTEXT(2) 
PARAMETRIC_REPRESENTATION_CONTEXT() REPRESENTATION_CONTEXT('2D SPACE',''
  ) );
#213 = ADVANCED_FACE('',(#214),#167,.T.);
#214 = FACE_BOUND('',#215,.T.);
#215 = EDGE_LOOP('',(#216));
#216 = ORIENTED_EDGE('',*,*,#152,.T.);
#217 = ADVANCED_FACE('',(#218),#202,.T.);
#218 = FACE_BOUND('',#219,.F.);
#219 = EDGE_LOOP('',(#220,#243,#244,#245));
#220 = ORIENTED_EDGE('',*,*,#221,.T.);
#221 = EDGE_CURVE('',#222,#186,#224,.T.);
#222 = VERTEX_POINT('',#223);
#223 = CARTESIAN_POINT('',(52.618211489037,2.E-14,3.526243906823));
#224 = SEAM_CURVE('',#225,(#229,#236),.PCURVE_S1.);
#225 = LINE('',#226,#227);
#226 = CARTESIAN_POINT('',(52.618211489037,1.726E-14,3.526243906823));
#227 = VECTOR('',#228,1.);
#228 = DIRECTION('',(0.389722413022,1.4E-16,0.920932375796));
#229 = PCURVE('',#202,#230);
#230 = DEFINITIONAL_REPRESENTATION('',(#231),#235);
#231 = LINE('',#232,#233);
#232 = CARTESIAN_POINT('',(-0.,0.));
#233 = VECTOR('',#234,1.);
#234 = DIRECTION('',(-0.,-1.));
#235 = ( GEOMETRIC_REPRESENTATION_CONTEXT(2) 
PARAMETRIC_REPRESENTATION_CONTEXT() REPRESENTATION_CONTEXT('2D SPACE',''
  ) );
#236 = PCURVE('',#202,#237);
#237 = DEFINITIONAL_REPRESENTATION('',(#238),#242);
#238 = LINE('',#239,#240);
#239 = CARTESIAN_POINT('',(-6.28318530718,0.));
#240 = VECTOR('',#241,1.);
#241 = DIRECTION('',(-0.,-1.));
#242 = ( GEOMETRIC_REPRESENTATION_CONTEXT(2) 
PARAMETRIC_REPRESENTATION_CONTEXT() REPRESENTATION_CONTEXT('2D SPACE',''
  ) );
#243 = ORIENTED_EDGE('',*,*,#185,.T.);
#244 = ORIENTED_EDGE('',*,*,#221,.F.);
#245 = ORIENTED_EDGE('',*,*,#246,.F.);
#246 = EDGE_CURVE('',#222,#222,#247,.T.);
#247 = SURFACE_CURVE('',#248,(#253,#260),.PCURVE_S1.);
#248 = CIRCLE('',#249,4.75);
#249 = AXIS2_PLACEMENT_3D('',#250,#251,#252);
#250 = CARTESIAN_POINT('',(48.243782704008,1.973E-14,5.377425368677));
#251 = DIRECTION('',(0.389722413022,-0.,0.920932375796));
#252 = DIRECTION('',(0.920932375796,0.,-0.389722413022));
#253 = PCURVE('',#202,#254);
#254 = DEFINITIONAL_REPRESENTATION('',(#255),#259);
#255 = LINE('',#256,#257);
#256 = CARTESIAN_POINT('',(-0.,0.));
#257 = VECTOR('',#258,1.);
#258 = DIRECTION('',(-1.,0.));
#259 = ( GEOMETRIC_REPRESENTATION_CONTEXT(2) 
PARAMETRIC_REPRESENTATION_CONTEXT() REPRESENTATION_CONTEXT('2D SPACE',''
  ) );
#260 = PCURVE('',#261,#266);
#261 = PLANE('',#262);
#262 = AXIS2_PLACEMENT_3D('',#263,#264,#265);
#263 = CARTESIAN_POINT('',(48.243782704008,1.891E-14,5.377425368677));
#264 = DIRECTION('',(-0.389722413022,-1.4E-16,-0.920932375796));
#265 = DIRECTION('',(-0.920932375796,-6.162975822039E-33,0.389722413022)
  );
#266 = DEFINITIONAL_REPRESENTATION('',(#267),#275);
#267 = ( BOUNDED_CURVE() B_SPLINE_CURVE(2,(#268,#269,#270,#271,#272,#273
,#274),.UNSPECIFIED.,.T.,.F.) B_SPLINE_CURVE_WITH_KNOTS((1,2,2,2,2,1),(
    -2.094395102393,0.,2.094395102393,4.188790204786,6.28318530718,
8.377580409573),.UNSPECIFIED.) CURVE() GEOMETRIC_REPRESENTATION_ITEM() 
RATIONAL_B_SPLINE_CURVE((1.,0.5,1.,0.5,1.,0.5,1.)) REPRESENTATION_ITEM(
  '') );
#268 = CARTESIAN_POINT('',(-4.75,8.2E-16));
#269 = CARTESIAN_POINT('',(-4.75,8.227241335952));
#270 = CARTESIAN_POINT('',(2.375,4.113620667976));
#271 = CARTESIAN_POINT('',(9.5,1.98341445919E-15));
#272 = CARTESIAN_POINT('',(2.375,-4.113620667976));
#273 = CARTESIAN_POINT('',(-4.75,-8.227241335952));
#274 = CARTESIAN_POINT('',(-4.75,8.2E-16));
#275 = ( GEOMETRIC_REPRESENTATION_CONTEXT(2) 
PARAMETRIC_REPRESENTATION_CONTEXT() REPRESENTATION_CONTEXT('2D SPACE',''
  ) );
#276 = ADVANCED_FACE('',(#277,#735),#261,.F.);
#277 = FACE_BOUND('',#278,.F.);
#278 = EDGE_LOOP('',(#279,#309,#338,#366,#395,#423,#452,#480,#509,#537,
    #566,#594,#623,#651,#680,#708));
#279 = ORIENTED_EDGE('',*,*,#280,.T.);
#280 = EDGE_CURVE('',#281,#283,#285,.T.);
#281 = VERTEX_POINT('',#282);
#282 = CARTESIAN_POINT('',(43.866194807545,0.25,7.229943711027));
#283 = VERTEX_POINT('',#284);
#284 = CARTESIAN_POINT('',(43.27608020327,0.25,7.479669851167));
#285 = SURFACE_CURVE('',#286,(#290,#297),.PCURVE_S1.);
#286 = LINE('',#287,#288);
#287 = CARTESIAN_POINT('',(45.134056379981,0.25,6.693406952874));
#288 = VECTOR('',#289,1.);
#289 = DIRECTION('',(-0.920932375796,-4.231824434289E-18,0.389722413022)
  );
#290 = PCURVE('',#261,#291);
#291 = DEFINITIONAL_REPRESENTATION('',(#292),#296);
#292 = LINE('',#293,#294);
#293 = CARTESIAN_POINT('',(3.376715170146,0.25));
#294 = VECTOR('',#295,1.);
#295 = DIRECTION('',(1.,-4.231824434289E-18));
#296 = ( GEOMETRIC_REPRESENTATION_CONTEXT(2) 
PARAMETRIC_REPRESENTATION_CONTEXT() REPRESENTATION_CONTEXT('2D SPACE',''
  ) );
#297 = PCURVE('',#298,#303);
#298 = PLANE('',#299);
#299 = AXIS2_PLACEMENT_3D('',#300,#301,#302);
#300 = CARTESIAN_POINT('',(41.732038246188,0.25,7.318689255224));
#301 = DIRECTION('',(-7.703719777549E-34,1.,1.085856058797E-17));
#302 = DIRECTION('',(0.920932375796,4.231824434289E-18,-0.389722413022)
  );
#303 = DEFINITIONAL_REPRESENTATION('',(#304),#308);
#304 = LINE('',#305,#306);
#305 = CARTESIAN_POINT('',(3.376715170146,-0.75));
#306 = VECTOR('',#307,1.);
#307 = DIRECTION('',(-1.,-9.436895709314E-16));
#308 = ( GEOMETRIC_REPRESENTATION_CONTEXT(2) 
PARAMETRIC_REPRESENTATION_CONTEXT() REPRESENTATION_CONTEXT('2D SPACE',''
  ) );
#309 = ORIENTED_EDGE('',*,*,#310,.T.);
#310 = EDGE_CURVE('',#283,#311,#313,.T.);
#311 = VERTEX_POINT('',#312);
#312 = CARTESIAN_POINT('',(48.013549610059,5.394209858728,5.474855971932
    ));
#313 = SURFACE_CURVE('',#314,(#319,#326),.PCURVE_S1.);
#314 = CIRCLE('',#315,5.4);
#315 = AXIS2_PLACEMENT_3D('',#316,#317,#318);
#316 = CARTESIAN_POINT('',(48.243782704008,1.836E-14,5.377425368677));
#317 = DIRECTION('',(-0.389722413022,1.E-17,-0.920932375796));
#318 = DIRECTION('',(0.920932375796,4.231824434289E-18,-0.389722413022)
  );
#319 = PCURVE('',#261,#320);
#320 = DEFINITIONAL_REPRESENTATION('',(#321),#325);
#321 = CIRCLE('',#322,5.4);
#322 = AXIS2_PLACEMENT_2D('',#323,#324);
#323 = CARTESIAN_POINT('',(7.235904171317E-15,-5.5E-16));
#324 = DIRECTION('',(-1.,4.231824434289E-18));
#325 = ( GEOMETRIC_REPRESENTATION_CONTEXT(2) 
PARAMETRIC_REPRESENTATION_CONTEXT() REPRESENTATION_CONTEXT('2D SPACE',''
  ) );
#326 = PCURVE('',#327,#332);
#327 = CYLINDRICAL_SURFACE('',#328,5.4);
#328 = AXIS2_PLACEMENT_3D('',#329,#330,#331);
#329 = CARTESIAN_POINT('',(47.951490894242,1.83675E-14,4.68672608683));
#330 = DIRECTION('',(-0.389722413022,1.E-17,-0.920932375796));
#331 = DIRECTION('',(0.920932375796,4.231824434289E-18,-0.389722413022)
  );
#332 = DEFINITIONAL_REPRESENTATION('',(#333),#337);
#333 = LINE('',#334,#335);
#334 = CARTESIAN_POINT('',(7.940812588249E-34,-0.75));
#335 = VECTOR('',#336,1.);
#336 = DIRECTION('',(1.,0.));
#337 = ( GEOMETRIC_REPRESENTATION_CONTEXT(2) 
PARAMETRIC_REPRESENTATION_CONTEXT() REPRESENTATION_CONTEXT('2D SPACE',''
  ) );
#338 = ORIENTED_EDGE('',*,*,#339,.T.);
#339 = EDGE_CURVE('',#311,#340,#342,.T.);
#340 = VERTEX_POINT('',#341);
#341 = CARTESIAN_POINT('',(48.013549610059,4.753430340291,5.474855971932
    ));
#342 = SURFACE_CURVE('',#343,(#347,#354),.PCURVE_S1.);
#343 = LINE('',#344,#345);
#344 = CARTESIAN_POINT('',(48.013549610059,2.376715170146,5.474855971932
    ));
#345 = VECTOR('',#346,1.);
#346 = DIRECTION('',(-1.110223024625E-16,-1.,-9.992007221626E-16));
#347 = PCURVE('',#261,#348);
#348 = DEFINITIONAL_REPRESENTATION('',(#349),#353);
#349 = LINE('',#350,#351);
#350 = CARTESIAN_POINT('',(0.25,2.376715170146));
#351 = VECTOR('',#352,1.);
#352 = DIRECTION('',(-2.871668837614E-16,-1.));
#353 = ( GEOMETRIC_REPRESENTATION_CONTEXT(2) 
PARAMETRIC_REPRESENTATION_CONTEXT() REPRESENTATION_CONTEXT('2D SPACE',''
  ) );
#354 = PCURVE('',#355,#360);
#355 = PLANE('',#356);
#356 = AXIS2_PLACEMENT_3D('',#357,#358,#359);
#357 = CARTESIAN_POINT('',(47.721257800293,4.753430340291,4.784156690086
    ));
#358 = DIRECTION('',(-0.920932375796,-4.249817070279E-17,0.389722413022)
  );
#359 = DIRECTION('',(-2.22044604925E-16,1.,1.665334536938E-16));
#360 = DEFINITIONAL_REPRESENTATION('',(#361),#365);
#361 = LINE('',#362,#363);
#362 = CARTESIAN_POINT('',(-2.376715170146,-0.75));
#363 = VECTOR('',#364,1.);
#364 = DIRECTION('',(-1.,9.436895709314E-16));
#365 = ( GEOMETRIC_REPRESENTATION_CONTEXT(2) 
PARAMETRIC_REPRESENTATION_CONTEXT() REPRESENTATION_CONTEXT('2D SPACE',''
  ) );
#366 = ORIENTED_EDGE('',*,*,#367,.T.);
#367 = EDGE_CURVE('',#340,#368,#370,.T.);
#368 = VERTEX_POINT('',#369);
#369 = CARTESIAN_POINT('',(48.474015797957,4.753430340291,5.279994765421
    ));
#370 = SURFACE_CURVE('',#371,(#376,#383),.PCURVE_S1.);
#371 = CIRCLE('',#372,4.76);
#372 = AXIS2_PLACEMENT_3D('',#373,#374,#375);
#373 = CARTESIAN_POINT('',(48.243782704008,5.684341886081E-14,
    5.377425368677));
#374 = DIRECTION('',(-0.389722413022,6.683028992975E-17,-0.920932375796)
  );
#375 = DIRECTION('',(2.22044604925E-16,-1.,-1.665334536938E-16));
#376 = PCURVE('',#261,#377);
#377 = DEFINITIONAL_REPRESENTATION('',(#378),#382);
#378 = CIRCLE('',#379,4.76);
#379 = AXIS2_PLACEMENT_2D('',#380,#381);
#380 = CARTESIAN_POINT('',(-1.585638049031E-14,3.793341886081E-14));
#381 = DIRECTION('',(-2.693898849686E-16,-1.));
#382 = ( GEOMETRIC_REPRESENTATION_CONTEXT(2) 
PARAMETRIC_REPRESENTATION_CONTEXT() REPRESENTATION_CONTEXT('2D SPACE',''
  ) );
#383 = PCURVE('',#384,#389);
#384 = CYLINDRICAL_SURFACE('',#385,4.76);
#385 = AXIS2_PLACEMENT_3D('',#386,#387,#388);
#386 = CARTESIAN_POINT('',(47.951490894242,5.684341886081E-14,
    4.68672608683));
#387 = DIRECTION('',(-0.389722413022,0.,-0.920932375796));
#388 = DIRECTION('',(2.22044604925E-16,-1.,-1.665334536938E-16));
#389 = DEFINITIONAL_REPRESENTATION('',(#390),#394);
#390 = LINE('',#391,#392);
#391 = CARTESIAN_POINT('',(7.940812588249E-34,-0.75));
#392 = VECTOR('',#393,1.);
#393 = DIRECTION('',(1.,0.));
#394 = ( GEOMETRIC_REPRESENTATION_CONTEXT(2) 
PARAMETRIC_REPRESENTATION_CONTEXT() REPRESENTATION_CONTEXT('2D SPACE',''
  ) );
#395 = ORIENTED_EDGE('',*,*,#396,.T.);
#396 = EDGE_CURVE('',#368,#397,#399,.T.);
#397 = VERTEX_POINT('',#398);
#398 = CARTESIAN_POINT('',(48.474015797957,5.394209858728,5.279994765421
    ));
#399 = SURFACE_CURVE('',#400,(#404,#411),.PCURVE_S1.);
#400 = LINE('',#401,#402);
#401 = CARTESIAN_POINT('',(48.474015797957,3.376715170146,5.279994765421
    ));
#402 = VECTOR('',#403,1.);
#403 = DIRECTION('',(1.110223024625E-16,1.,9.992007221626E-16));
#404 = PCURVE('',#261,#405);
#405 = DEFINITIONAL_REPRESENTATION('',(#406),#410);
#406 = LINE('',#407,#408);
#407 = CARTESIAN_POINT('',(-0.25,3.376715170146));
#408 = VECTOR('',#409,1.);
#409 = DIRECTION('',(2.871668837614E-16,1.));
#410 = ( GEOMETRIC_REPRESENTATION_CONTEXT(2) 
PARAMETRIC_REPRESENTATION_CONTEXT() REPRESENTATION_CONTEXT('2D SPACE',''
  ) );
#411 = PCURVE('',#412,#417);
#412 = PLANE('',#413);
#413 = AXIS2_PLACEMENT_3D('',#414,#415,#416);
#414 = CARTESIAN_POINT('',(48.18172398819,6.753430340291,4.589295483575)
  );
#415 = DIRECTION('',(0.920932375796,4.249817070279E-17,-0.389722413022)
  );
#416 = DIRECTION('',(2.22044604925E-16,-1.,-1.665334536938E-16));
#417 = DEFINITIONAL_REPRESENTATION('',(#418),#422);
#418 = LINE('',#419,#420);
#419 = CARTESIAN_POINT('',(3.376715170146,-0.75));
#420 = VECTOR('',#421,1.);
#421 = DIRECTION('',(-1.,-9.436895709314E-16));
#422 = ( GEOMETRIC_REPRESENTATION_CONTEXT(2) 
PARAMETRIC_REPRESENTATION_CONTEXT() REPRESENTATION_CONTEXT('2D SPACE',''
  ) );
#423 = ORIENTED_EDGE('',*,*,#424,.T.);
#424 = EDGE_CURVE('',#397,#425,#427,.T.);
#425 = VERTEX_POINT('',#426);
#426 = CARTESIAN_POINT('',(53.211485204746,0.25,3.275180886187));
#427 = SURFACE_CURVE('',#428,(#433,#440),.PCURVE_S1.);
#428 = CIRCLE('',#429,5.4);
#429 = AXIS2_PLACEMENT_3D('',#430,#431,#432);
#430 = CARTESIAN_POINT('',(48.243782704008,1.836E-14,5.377425368677));
#431 = DIRECTION('',(-0.389722413022,1.E-17,-0.920932375796));
#432 = DIRECTION('',(0.920932375796,4.231824434289E-18,-0.389722413022)
  );
#433 = PCURVE('',#261,#434);
#434 = DEFINITIONAL_REPRESENTATION('',(#435),#439);
#435 = CIRCLE('',#436,5.4);
#436 = AXIS2_PLACEMENT_2D('',#437,#438);
#437 = CARTESIAN_POINT('',(7.235904171317E-15,-5.5E-16));
#438 = DIRECTION('',(-1.,4.231824434289E-18));
#439 = ( GEOMETRIC_REPRESENTATION_CONTEXT(2) 
PARAMETRIC_REPRESENTATION_CONTEXT() REPRESENTATION_CONTEXT('2D SPACE',''
  ) );
#440 = PCURVE('',#441,#446);
#441 = CYLINDRICAL_SURFACE('',#442,5.4);
#442 = AXIS2_PLACEMENT_3D('',#443,#444,#445);
#443 = CARTESIAN_POINT('',(47.951490894242,1.83675E-14,4.68672608683));
#444 = DIRECTION('',(-0.389722413022,1.E-17,-0.920932375796));
#445 = DIRECTION('',(0.920932375796,4.231824434289E-18,-0.389722413022)
  );
#446 = DEFINITIONAL_REPRESENTATION('',(#447),#451);
#447 = LINE('',#448,#449);
#448 = CARTESIAN_POINT('',(7.940812588249E-34,-0.75));
#449 = VECTOR('',#450,1.);
#450 = DIRECTION('',(1.,0.));
#451 = ( GEOMETRIC_REPRESENTATION_CONTEXT(2) 
PARAMETRIC_REPRESENTATION_CONTEXT() REPRESENTATION_CONTEXT('2D SPACE',''
  ) );
#452 = ORIENTED_EDGE('',*,*,#453,.T.);
#453 = EDGE_CURVE('',#425,#454,#456,.T.);
#454 = VERTEX_POINT('',#455);
#455 = CARTESIAN_POINT('',(52.621370600471,0.25,3.524907026327));
#456 = SURFACE_CURVE('',#457,(#461,#468),.PCURVE_S1.);
#457 = LINE('',#458,#459);
#458 = CARTESIAN_POINT('',(50.432576652239,0.25,4.451166197502));
#459 = VECTOR('',#460,1.);
#460 = DIRECTION('',(-0.920932375796,-1.26696504349E-16,0.389722413022)
  );
#461 = PCURVE('',#261,#462);
#462 = DEFINITIONAL_REPRESENTATION('',(#463),#467);
#463 = LINE('',#464,#465);
#464 = CARTESIAN_POINT('',(-2.376715170146,0.25));
#465 = VECTOR('',#466,1.);
#466 = DIRECTION('',(1.,-1.26696504349E-16));
#467 = ( GEOMETRIC_REPRESENTATION_CONTEXT(2) 
PARAMETRIC_REPRESENTATION_CONTEXT() REPRESENTATION_CONTEXT('2D SPACE',''
  ) );
#468 = PCURVE('',#469,#474);
#469 = PLANE('',#470);
#470 = AXIS2_PLACEMENT_3D('',#471,#472,#473);
#471 = CARTESIAN_POINT('',(52.329078790704,0.25,2.83420774448));
#472 = DIRECTION('',(-1.162746365219E-16,1.,5.033179113316E-17));
#473 = DIRECTION('',(0.920932375796,1.26696504349E-16,-0.389722413022));
#474 = DEFINITIONAL_REPRESENTATION('',(#475),#479);
#475 = LINE('',#476,#477);
#476 = CARTESIAN_POINT('',(-2.376715170146,-0.75));
#477 = VECTOR('',#478,1.);
#478 = DIRECTION('',(-1.,9.436895709314E-16));
#479 = ( GEOMETRIC_REPRESENTATION_CONTEXT(2) 
PARAMETRIC_REPRESENTATION_CONTEXT() REPRESENTATION_CONTEXT('2D SPACE',''
  ) );
#480 = ORIENTED_EDGE('',*,*,#481,.T.);
#481 = EDGE_CURVE('',#454,#482,#484,.T.);
#482 = VERTEX_POINT('',#483);
#483 = CARTESIAN_POINT('',(52.621370600471,-0.25,3.524907026327));
#484 = SURFACE_CURVE('',#485,(#490,#497),.PCURVE_S1.);
#485 = CIRCLE('',#486,4.76);
#486 = AXIS2_PLACEMENT_3D('',#487,#488,#489);
#487 = CARTESIAN_POINT('',(48.243782704008,1.916422199195E-14,
    5.377425368677));
#488 = DIRECTION('',(-0.389722413022,1.037344067736E-18,-0.920932375796)
  );
#489 = DIRECTION('',(-0.920932375796,-1.26696504349E-16,0.389722413022)
  );
#490 = PCURVE('',#261,#491);
#491 = DEFINITIONAL_REPRESENTATION('',(#492),#496);
#492 = CIRCLE('',#493,4.76);
#493 = AXIS2_PLACEMENT_2D('',#494,#495);
#494 = CARTESIAN_POINT('',(-5.376661653149E-14,2.542219919492E-16));
#495 = DIRECTION('',(1.,-1.26696504349E-16));
#496 = ( GEOMETRIC_REPRESENTATION_CONTEXT(2) 
PARAMETRIC_REPRESENTATION_CONTEXT() REPRESENTATION_CONTEXT('2D SPACE',''
  ) );
#497 = PCURVE('',#498,#503);
#498 = CYLINDRICAL_SURFACE('',#499,4.76);
#499 = AXIS2_PLACEMENT_3D('',#500,#501,#502);
#500 = CARTESIAN_POINT('',(47.951490894242,1.9165E-14,4.68672608683));
#501 = DIRECTION('',(-0.389722413022,1.037344067736E-18,-0.920932375796)
  );
#502 = DIRECTION('',(-0.920932375796,-1.26696504349E-16,0.389722413022)
  );
#503 = DEFINITIONAL_REPRESENTATION('',(#504),#508);
#504 = LINE('',#505,#506);
#505 = CARTESIAN_POINT('',(7.940812588249E-34,-0.75));
#506 = VECTOR('',#507,1.);
#507 = DIRECTION('',(1.,0.));
#508 = ( GEOMETRIC_REPRESENTATION_CONTEXT(2) 
PARAMETRIC_REPRESENTATION_CONTEXT() REPRESENTATION_CONTEXT('2D SPACE',''
  ) );
#509 = ORIENTED_EDGE('',*,*,#510,.T.);
#510 = EDGE_CURVE('',#482,#511,#513,.T.);
#511 = VERTEX_POINT('',#512);
#512 = CARTESIAN_POINT('',(53.211485204746,-0.25,3.275180886187));
#513 = SURFACE_CURVE('',#514,(#518,#525),.PCURVE_S1.);
#514 = LINE('',#515,#516);
#515 = CARTESIAN_POINT('',(51.353509028035,-0.25,4.06144378448));
#516 = VECTOR('',#517,1.);
#517 = DIRECTION('',(0.920932375796,1.26696504349E-16,-0.389722413022));
#518 = PCURVE('',#261,#519);
#519 = DEFINITIONAL_REPRESENTATION('',(#520),#524);
#520 = LINE('',#521,#522);
#521 = CARTESIAN_POINT('',(-3.376715170146,-0.25));
#522 = VECTOR('',#523,1.);
#523 = DIRECTION('',(-1.,1.26696504349E-16));
#524 = ( GEOMETRIC_REPRESENTATION_CONTEXT(2) 
PARAMETRIC_REPRESENTATION_CONTEXT() REPRESENTATION_CONTEXT('2D SPACE',''
  ) );
#525 = PCURVE('',#526,#531);
#526 = PLANE('',#527);
#527 = AXIS2_PLACEMENT_3D('',#528,#529,#530);
#528 = CARTESIAN_POINT('',(54.170943542295,-0.25,2.054762918436));
#529 = DIRECTION('',(1.162746365219E-16,-1.,-5.033179113316E-17));
#530 = DIRECTION('',(-0.920932375796,-1.26696504349E-16,0.389722413022)
  );
#531 = DEFINITIONAL_REPRESENTATION('',(#532),#536);
#532 = LINE('',#533,#534);
#533 = CARTESIAN_POINT('',(3.376715170146,-0.75));
#534 = VECTOR('',#535,1.);
#535 = DIRECTION('',(-1.,-9.436895709314E-16));
#536 = ( GEOMETRIC_REPRESENTATION_CONTEXT(2) 
PARAMETRIC_REPRESENTATION_CONTEXT() REPRESENTATION_CONTEXT('2D SPACE',''
  ) );
#537 = ORIENTED_EDGE('',*,*,#538,.T.);
#538 = EDGE_CURVE('',#511,#539,#541,.T.);
#539 = VERTEX_POINT('',#540);
#540 = CARTESIAN_POINT('',(48.474015797957,-5.394209858728,
    5.279994765421));
#541 = SURFACE_CURVE('',#542,(#547,#554),.PCURVE_S1.);
#542 = CIRCLE('',#543,5.4);
#543 = AXIS2_PLACEMENT_3D('',#544,#545,#546);
#544 = CARTESIAN_POINT('',(48.243782704008,1.836E-14,5.377425368677));
#545 = DIRECTION('',(-0.389722413022,1.E-17,-0.920932375796));
#546 = DIRECTION('',(0.920932375796,4.231824434289E-18,-0.389722413022)
  );
#547 = PCURVE('',#261,#548);
#548 = DEFINITIONAL_REPRESENTATION('',(#549),#553);
#549 = CIRCLE('',#550,5.4);
#550 = AXIS2_PLACEMENT_2D('',#551,#552);
#551 = CARTESIAN_POINT('',(7.235904171317E-15,-5.5E-16));
#552 = DIRECTION('',(-1.,4.231824434289E-18));
#553 = ( GEOMETRIC_REPRESENTATION_CONTEXT(2) 
PARAMETRIC_REPRESENTATION_CONTEXT() REPRESENTATION_CONTEXT('2D SPACE',''
  ) );
#554 = PCURVE('',#555,#560);
#555 = CYLINDRICAL_SURFACE('',#556,5.4);
#556 = AXIS2_PLACEMENT_3D('',#557,#558,#559);
#557 = CARTESIAN_POINT('',(47.951490894242,1.83675E-14,4.68672608683));
#558 = DIRECTION('',(-0.389722413022,1.E-17,-0.920932375796));
#559 = DIRECTION('',(0.920932375796,4.231824434289E-18,-0.389722413022)
  );
#560 = DEFINITIONAL_REPRESENTATION('',(#561),#565);
#561 = LINE('',#562,#563);
#562 = CARTESIAN_POINT('',(7.940812588249E-34,-0.75));
#563 = VECTOR('',#564,1.);
#564 = DIRECTION('',(1.,0.));
#565 = ( GEOMETRIC_REPRESENTATION_CONTEXT(2) 
PARAMETRIC_REPRESENTATION_CONTEXT() REPRESENTATION_CONTEXT('2D SPACE',''
  ) );
#566 = ORIENTED_EDGE('',*,*,#567,.T.);
#567 = EDGE_CURVE('',#539,#568,#570,.T.);
#568 = VERTEX_POINT('',#569);
#569 = CARTESIAN_POINT('',(48.474015797957,-4.753430340291,
    5.279994765421));
#570 = SURFACE_CURVE('',#571,(#575,#582),.PCURVE_S1.);
#571 = LINE('',#572,#573);
#572 = CARTESIAN_POINT('',(48.474015797957,-2.376715170146,
    5.279994765421));
#573 = VECTOR('',#574,1.);
#574 = DIRECTION('',(-5.273559366969E-16,1.,-8.326672684689E-16));
#575 = PCURVE('',#261,#576);
#576 = DEFINITIONAL_REPRESENTATION('',(#577),#581);
#577 = LINE('',#578,#579);
#578 = CARTESIAN_POINT('',(-0.25,-2.376715170146));
#579 = VECTOR('',#580,1.);
#580 = DIRECTION('',(1.611500585601E-16,1.));
#581 = ( GEOMETRIC_REPRESENTATION_CONTEXT(2) 
PARAMETRIC_REPRESENTATION_CONTEXT() REPRESENTATION_CONTEXT('2D SPACE',''
  ) );
#582 = PCURVE('',#583,#588);
#583 = PLANE('',#584);
#584 = AXIS2_PLACEMENT_3D('',#585,#586,#587);
#585 = CARTESIAN_POINT('',(48.18172398819,-4.753430340291,4.589295483575
    ));
#586 = DIRECTION('',(0.920932375796,2.734713773601E-16,-0.389722413022)
  );
#587 = DIRECTION('',(1.665334536938E-16,-1.,0.));
#588 = DEFINITIONAL_REPRESENTATION('',(#589),#593);
#589 = LINE('',#590,#591);
#590 = CARTESIAN_POINT('',(-2.376715170146,-0.75));
#591 = VECTOR('',#592,1.);
#592 = DIRECTION('',(-1.,9.992007221626E-16));
#593 = ( GEOMETRIC_REPRESENTATION_CONTEXT(2) 
PARAMETRIC_REPRESENTATION_CONTEXT() REPRESENTATION_CONTEXT('2D SPACE',''
  ) );
#594 = ORIENTED_EDGE('',*,*,#595,.T.);
#595 = EDGE_CURVE('',#568,#596,#598,.T.);
#596 = VERTEX_POINT('',#597);
#597 = CARTESIAN_POINT('',(48.013549610059,-4.753430340291,
    5.474855971932));
#598 = SURFACE_CURVE('',#599,(#604,#611),.PCURVE_S1.);
#599 = CIRCLE('',#600,4.76);
#600 = AXIS2_PLACEMENT_3D('',#601,#602,#603);
#601 = CARTESIAN_POINT('',(48.243782704008,-1.42108547152E-14,
    5.377425368677));
#602 = DIRECTION('',(-0.389722413022,-6.490181942242E-17,-0.920932375796
    ));
#603 = DIRECTION('',(-1.665334536938E-16,1.,0.));
#604 = PCURVE('',#261,#605);
#605 = DEFINITIONAL_REPRESENTATION('',(#606),#610);
#606 = CIRCLE('',#607,4.76);
#607 = AXIS2_PLACEMENT_2D('',#608,#609);
#608 = CARTESIAN_POINT('',(-1.585638049031E-14,-3.31208547152E-14));
#609 = DIRECTION('',(1.533660491596E-16,1.));
#610 = ( GEOMETRIC_REPRESENTATION_CONTEXT(2) 
PARAMETRIC_REPRESENTATION_CONTEXT() REPRESENTATION_CONTEXT('2D SPACE',''
  ) );
#611 = PCURVE('',#612,#617);
#612 = CYLINDRICAL_SURFACE('',#613,4.76);
#613 = AXIS2_PLACEMENT_3D('',#614,#615,#616);
#614 = CARTESIAN_POINT('',(47.951490894242,-1.42108547152E-14,
    4.68672608683));
#615 = DIRECTION('',(-0.389722413022,5.551115123126E-17,-0.920932375796)
  );
#616 = DIRECTION('',(-1.665334536938E-16,1.,0.));
#617 = DEFINITIONAL_REPRESENTATION('',(#618),#622);
#618 = LINE('',#619,#620);
#619 = CARTESIAN_POINT('',(7.940812588249E-34,-0.75));
#620 = VECTOR('',#621,1.);
#621 = DIRECTION('',(1.,0.));
#622 = ( GEOMETRIC_REPRESENTATION_CONTEXT(2) 
PARAMETRIC_REPRESENTATION_CONTEXT() REPRESENTATION_CONTEXT('2D SPACE',''
  ) );
#623 = ORIENTED_EDGE('',*,*,#624,.T.);
#624 = EDGE_CURVE('',#596,#625,#627,.T.);
#625 = VERTEX_POINT('',#626);
#626 = CARTESIAN_POINT('',(48.013549610059,-5.394209858728,
    5.474855971932));
#627 = SURFACE_CURVE('',#628,(#632,#639),.PCURVE_S1.);
#628 = LINE('',#629,#630);
#629 = CARTESIAN_POINT('',(48.013549610059,-3.376715170146,
    5.474855971932));
#630 = VECTOR('',#631,1.);
#631 = DIRECTION('',(5.273559366969E-16,-1.,8.326672684689E-16));
#632 = PCURVE('',#261,#633);
#633 = DEFINITIONAL_REPRESENTATION('',(#634),#638);
#634 = LINE('',#635,#636);
#635 = CARTESIAN_POINT('',(0.25,-3.376715170146));
#636 = VECTOR('',#637,1.);
#637 = DIRECTION('',(-1.611500585601E-16,-1.));
#638 = ( GEOMETRIC_REPRESENTATION_CONTEXT(2) 
PARAMETRIC_REPRESENTATION_CONTEXT() REPRESENTATION_CONTEXT('2D SPACE',''
  ) );
#639 = PCURVE('',#640,#645);
#640 = PLANE('',#641);
#641 = AXIS2_PLACEMENT_3D('',#642,#643,#644);
#642 = CARTESIAN_POINT('',(47.721257800293,-6.753430340291,
    4.784156690086));
#643 = DIRECTION('',(-0.920932375796,-2.734713773601E-16,0.389722413022)
  );
#644 = DIRECTION('',(-1.665334536938E-16,1.,0.));
#645 = DEFINITIONAL_REPRESENTATION('',(#646),#650);
#646 = LINE('',#647,#648);
#647 = CARTESIAN_POINT('',(3.376715170146,-0.75));
#648 = VECTOR('',#649,1.);
#649 = DIRECTION('',(-1.,-9.992007221626E-16));
#650 = ( GEOMETRIC_REPRESENTATION_CONTEXT(2) 
PARAMETRIC_REPRESENTATION_CONTEXT() REPRESENTATION_CONTEXT('2D SPACE',''
  ) );
#651 = ORIENTED_EDGE('',*,*,#652,.T.);
#652 = EDGE_CURVE('',#625,#653,#655,.T.);
#653 = VERTEX_POINT('',#654);
#654 = CARTESIAN_POINT('',(43.27608020327,-0.25,7.479669851167));
#655 = SURFACE_CURVE('',#656,(#661,#668),.PCURVE_S1.);
#656 = CIRCLE('',#657,5.4);
#657 = AXIS2_PLACEMENT_3D('',#658,#659,#660);
#658 = CARTESIAN_POINT('',(48.243782704008,1.836E-14,5.377425368677));
#659 = DIRECTION('',(-0.389722413022,1.E-17,-0.920932375796));
#660 = DIRECTION('',(0.920932375796,4.231824434289E-18,-0.389722413022)
  );
#661 = PCURVE('',#261,#662);
#662 = DEFINITIONAL_REPRESENTATION('',(#663),#667);
#663 = CIRCLE('',#664,5.4);
#664 = AXIS2_PLACEMENT_2D('',#665,#666);
#665 = CARTESIAN_POINT('',(7.235904171317E-15,-5.5E-16));
#666 = DIRECTION('',(-1.,4.231824434289E-18));
#667 = ( GEOMETRIC_REPRESENTATION_CONTEXT(2) 
PARAMETRIC_REPRESENTATION_CONTEXT() REPRESENTATION_CONTEXT('2D SPACE',''
  ) );
#668 = PCURVE('',#669,#674);
#669 = CYLINDRICAL_SURFACE('',#670,5.4);
#670 = AXIS2_PLACEMENT_3D('',#671,#672,#673);
#671 = CARTESIAN_POINT('',(47.951490894242,1.83675E-14,4.68672608683));
#672 = DIRECTION('',(-0.389722413022,1.E-17,-0.920932375796));
#673 = DIRECTION('',(0.920932375796,4.231824434289E-18,-0.389722413022)
  );
#674 = DEFINITIONAL_REPRESENTATION('',(#675),#679);
#675 = LINE('',#676,#677);
#676 = CARTESIAN_POINT('',(7.940812588249E-34,-0.75));
#677 = VECTOR('',#678,1.);
#678 = DIRECTION('',(1.,0.));
#679 = ( GEOMETRIC_REPRESENTATION_CONTEXT(2) 
PARAMETRIC_REPRESENTATION_CONTEXT() REPRESENTATION_CONTEXT('2D SPACE',''
  ) );
#680 = ORIENTED_EDGE('',*,*,#681,.T.);
#681 = EDGE_CURVE('',#653,#682,#684,.T.);
#682 = VERTEX_POINT('',#683);
#683 = CARTESIAN_POINT('',(43.866194807545,-0.25,7.229943711027));
#684 = SURFACE_CURVE('',#685,(#689,#696),.PCURVE_S1.);
#685 = LINE('',#686,#687);
#686 = CARTESIAN_POINT('',(46.054988755777,-0.25,6.303684539852));
#687 = VECTOR('',#688,1.);
#688 = DIRECTION('',(0.920932375796,4.231824434289E-18,-0.389722413022)
  );
#689 = PCURVE('',#261,#690);
#690 = DEFINITIONAL_REPRESENTATION('',(#691),#695);
#691 = LINE('',#692,#693);
#692 = CARTESIAN_POINT('',(2.376715170146,-0.25));
#693 = VECTOR('',#694,1.);
#694 = DIRECTION('',(-1.,4.231824434289E-18));
#695 = ( GEOMETRIC_REPRESENTATION_CONTEXT(2) 
PARAMETRIC_REPRESENTATION_CONTEXT() REPRESENTATION_CONTEXT('2D SPACE',''
  ) );
#696 = PCURVE('',#697,#702);
#697 = PLANE('',#698);
#698 = AXIS2_PLACEMENT_3D('',#699,#700,#701);
#699 = CARTESIAN_POINT('',(43.573902997779,-0.25,6.53924442918));
#700 = DIRECTION('',(7.703719777549E-34,-1.,-1.085856058797E-17));
#701 = DIRECTION('',(-0.920932375796,-4.231824434289E-18,0.389722413022)
  );
#702 = DEFINITIONAL_REPRESENTATION('',(#703),#707);
#703 = LINE('',#704,#705);
#704 = CARTESIAN_POINT('',(-2.376715170146,-0.75));
#705 = VECTOR('',#706,1.);
#706 = DIRECTION('',(-1.,9.436895709314E-16));
#707 = ( GEOMETRIC_REPRESENTATION_CONTEXT(2) 
PARAMETRIC_REPRESENTATION_CONTEXT() REPRESENTATION_CONTEXT('2D SPACE',''
  ) );
#708 = ORIENTED_EDGE('',*,*,#709,.T.);
#709 = EDGE_CURVE('',#682,#281,#710,.T.);
#710 = SURFACE_CURVE('',#711,(#716,#723),.PCURVE_S1.);
#711 = CIRCLE('',#712,4.76);
#712 = AXIS2_PLACEMENT_3D('',#713,#714,#715);
#713 = CARTESIAN_POINT('',(48.243782704008,1.75625E-14,5.377425368677));
#714 = DIRECTION('',(-0.389722413022,1.E-17,-0.920932375796));
#715 = DIRECTION('',(0.920932375796,4.231824434289E-18,-0.389722413022)
  );
#716 = PCURVE('',#261,#717);
#717 = DEFINITIONAL_REPRESENTATION('',(#718),#722);
#718 = CIRCLE('',#719,4.76);
#719 = AXIS2_PLACEMENT_2D('',#720,#721);
#720 = CARTESIAN_POINT('',(1.516409441647E-14,-1.3475E-15));
#721 = DIRECTION('',(-1.,4.231824434289E-18));
#722 = ( GEOMETRIC_REPRESENTATION_CONTEXT(2) 
PARAMETRIC_REPRESENTATION_CONTEXT() REPRESENTATION_CONTEXT('2D SPACE',''
  ) );
#723 = PCURVE('',#724,#729);
#724 = CYLINDRICAL_SURFACE('',#725,4.76);
#725 = AXIS2_PLACEMENT_3D('',#726,#727,#728);
#726 = CARTESIAN_POINT('',(47.951490894242,1.757E-14,4.68672608683));
#727 = DIRECTION('',(-0.389722413022,1.E-17,-0.920932375796));
#728 = DIRECTION('',(0.920932375796,4.231824434289E-18,-0.389722413022)
  );
#729 = DEFINITIONAL_REPRESENTATION('',(#730),#734);
#730 = LINE('',#731,#732);
#731 = CARTESIAN_POINT('',(7.940812588249E-34,-0.75));
#732 = VECTOR('',#733,1.);
#733 = DIRECTION('',(1.,0.));
#734 = ( GEOMETRIC_REPRESENTATION_CONTEXT(2) 
PARAMETRIC_REPRESENTATION_CONTEXT() REPRESENTATION_CONTEXT('2D SPACE',''
  ) );
#735 = FACE_BOUND('',#736,.F.);
#736 = EDGE_LOOP('',(#737));
#737 = ORIENTED_EDGE('',*,*,#246,.T.);
#738 = ADVANCED_FACE('',(#739),#298,.F.);
#739 = FACE_BOUND('',#740,.F.);
#740 = EDGE_LOOP('',(#741,#764,#796,#817));
#741 = ORIENTED_EDGE('',*,*,#742,.F.);
#742 = EDGE_CURVE('',#743,#281,#745,.T.);
#743 = VERTEX_POINT('',#744);
#744 = CARTESIAN_POINT('',(43.573902997779,0.25,6.53924442918));
#745 = SURFACE_CURVE('',#746,(#750,#757),.PCURVE_S1.);
#746 = LINE('',#747,#748);
#747 = CARTESIAN_POINT('',(43.573902997779,0.25,6.53924442918));
#748 = VECTOR('',#749,1.);
#749 = DIRECTION('',(0.389722413022,-1.E-17,0.920932375796));
#750 = PCURVE('',#298,#751);
#751 = DEFINITIONAL_REPRESENTATION('',(#752),#756);
#752 = LINE('',#753,#754);
#753 = CARTESIAN_POINT('',(2.,-2.22044604925E-16));
#754 = VECTOR('',#755,1.);
#755 = DIRECTION('',(0.,-1.));
#756 = ( GEOMETRIC_REPRESENTATION_CONTEXT(2) 
PARAMETRIC_REPRESENTATION_CONTEXT() REPRESENTATION_CONTEXT('2D SPACE',''
  ) );
#757 = PCURVE('',#724,#758);
#758 = DEFINITIONAL_REPRESENTATION('',(#759),#763);
#759 = LINE('',#760,#761);
#760 = CARTESIAN_POINT('',(3.194137838166,0.));
#761 = VECTOR('',#762,1.);
#762 = DIRECTION('',(0.,-1.));
#763 = ( GEOMETRIC_REPRESENTATION_CONTEXT(2) 
PARAMETRIC_REPRESENTATION_CONTEXT() REPRESENTATION_CONTEXT('2D SPACE',''
  ) );
#764 = ORIENTED_EDGE('',*,*,#765,.F.);
#765 = EDGE_CURVE('',#766,#743,#768,.T.);
#766 = VERTEX_POINT('',#767);
#767 = CARTESIAN_POINT('',(43.172744714969,0.25,7.235483236373));
#768 = SURFACE_CURVE('',#769,(#774,#781),.PCURVE_S1.);
#769 = HYPERBOLA('',#770,0.189393939394,0.25);
#770 = AXIS2_PLACEMENT_3D('',#771,#772,#773);
#771 = CARTESIAN_POINT('',(46.546128253344,0.25,1.365788125628));
#772 = DIRECTION('',(0.,1.,1.085856058797E-17));
#773 = DIRECTION('',(0.389722413022,-1.E-17,0.920932375796));
#774 = PCURVE('',#298,#775);
#775 = DEFINITIONAL_REPRESENTATION('',(#776),#780);
#776 = HYPERBOLA('',#777,0.189393939394,0.25);
#777 = AXIS2_PLACEMENT_2D('',#778,#779);
#778 = CARTESIAN_POINT('',(6.753430340291,3.606060606061));
#779 = DIRECTION('',(0.,-1.));
#780 = ( GEOMETRIC_REPRESENTATION_CONTEXT(2) 
PARAMETRIC_REPRESENTATION_CONTEXT() REPRESENTATION_CONTEXT('2D SPACE',''
  ) );
#781 = PCURVE('',#782,#787);
#782 = CONICAL_SURFACE('',#783,4.76,0.922464337708);
#783 = AXIS2_PLACEMENT_3D('',#784,#785,#786);
#784 = CARTESIAN_POINT('',(47.951490894242,1.757E-14,4.68672608683));
#785 = DIRECTION('',(0.389722413022,1.E-17,0.920932375796));
#786 = DIRECTION('',(0.920932375796,0.,-0.389722413022));
#787 = DEFINITIONAL_REPRESENTATION('',(#788),#795);
#788 = B_SPLINE_CURVE_WITH_KNOTS('',5,(#789,#790,#791,#792,#793,#794),
  .UNSPECIFIED.,.F.,.F.,(6,6),(-3.765304227292,-3.638998881396),
  .PIECEWISE_BEZIER_KNOTS.);
#789 = CARTESIAN_POINT('',(3.09527980315,0.484848484848));
#790 = CARTESIAN_POINT('',(3.094110309207,0.381618554236));
#791 = CARTESIAN_POINT('',(3.092903926531,0.281651745045));
#792 = CARTESIAN_POINT('',(3.091659107004,0.184810824488));
#793 = CARTESIAN_POINT('',(3.09037420584,9.096722171602E-02));
#794 = CARTESIAN_POINT('',(3.089047469013,-1.710028462667E-15));
#795 = ( GEOMETRIC_REPRESENTATION_CONTEXT(2) 
PARAMETRIC_REPRESENTATION_CONTEXT() REPRESENTATION_CONTEXT('2D SPACE',''
  ) );
#796 = ORIENTED_EDGE('',*,*,#797,.F.);
#797 = EDGE_CURVE('',#283,#766,#798,.T.);
#798 = SURFACE_CURVE('',#799,(#803,#810),.PCURVE_S1.);
#799 = LINE('',#800,#801);
#800 = CARTESIAN_POINT('',(42.983788393503,0.25,6.788970569321));
#801 = VECTOR('',#802,1.);
#802 = DIRECTION('',(-0.389722413022,1.E-17,-0.920932375796));
#803 = PCURVE('',#298,#804);
#804 = DEFINITIONAL_REPRESENTATION('',(#805),#809);
#805 = LINE('',#806,#807);
#806 = CARTESIAN_POINT('',(1.359220481563,-2.22044604925E-16));
#807 = VECTOR('',#808,1.);
#808 = DIRECTION('',(0.,1.));
#809 = ( GEOMETRIC_REPRESENTATION_CONTEXT(2) 
PARAMETRIC_REPRESENTATION_CONTEXT() REPRESENTATION_CONTEXT('2D SPACE',''
  ) );
#810 = PCURVE('',#327,#811);
#811 = DEFINITIONAL_REPRESENTATION('',(#812),#816);
#812 = LINE('',#813,#814);
#813 = CARTESIAN_POINT('',(3.187905504029,4.440892098501E-16));
#814 = VECTOR('',#815,1.);
#815 = DIRECTION('',(0.,1.));
#816 = ( GEOMETRIC_REPRESENTATION_CONTEXT(2) 
PARAMETRIC_REPRESENTATION_CONTEXT() REPRESENTATION_CONTEXT('2D SPACE',''
  ) );
#817 = ORIENTED_EDGE('',*,*,#280,.F.);
#818 = ADVANCED_FACE('',(#819),#724,.T.);
#819 = FACE_BOUND('',#820,.T.);
#820 = EDGE_LOOP('',(#821,#854,#875,#876));
#821 = ORIENTED_EDGE('',*,*,#822,.F.);
#822 = EDGE_CURVE('',#823,#743,#825,.T.);
#823 = VERTEX_POINT('',#824);
#824 = CARTESIAN_POINT('',(43.573902997779,-0.25,6.53924442918));
#825 = SURFACE_CURVE('',#826,(#831,#838),.PCURVE_S1.);
#826 = CIRCLE('',#827,4.76);
#827 = AXIS2_PLACEMENT_3D('',#828,#829,#830);
#828 = CARTESIAN_POINT('',(47.951490894242,1.757E-14,4.68672608683));
#829 = DIRECTION('',(-0.389722413022,1.E-17,-0.920932375796));
#830 = DIRECTION('',(0.920932375796,4.231824434289E-18,-0.389722413022)
  );
#831 = PCURVE('',#724,#832);
#832 = DEFINITIONAL_REPRESENTATION('',(#833),#837);
#833 = LINE('',#834,#835);
#834 = CARTESIAN_POINT('',(0.,0.));
#835 = VECTOR('',#836,1.);
#836 = DIRECTION('',(1.,0.));
#837 = ( GEOMETRIC_REPRESENTATION_CONTEXT(2) 
PARAMETRIC_REPRESENTATION_CONTEXT() REPRESENTATION_CONTEXT('2D SPACE',''
  ) );
#838 = PCURVE('',#839,#844);
#839 = PLANE('',#840);
#840 = AXIS2_PLACEMENT_3D('',#841,#842,#843);
#841 = CARTESIAN_POINT('',(47.951490894242,1.796E-14,4.68672608683));
#842 = DIRECTION('',(0.389722413022,-1.E-17,0.920932375796));
#843 = DIRECTION('',(0.920932375796,0.,-0.389722413022));
#844 = DEFINITIONAL_REPRESENTATION('',(#845),#853);
#845 = ( BOUNDED_CURVE() B_SPLINE_CURVE(2,(#846,#847,#848,#849,#850,#851
,#852),.UNSPECIFIED.,.T.,.F.) B_SPLINE_CURVE_WITH_KNOTS((1,2,2,2,2,1),(
    -2.094395102393,0.,2.094395102393,4.188790204786,6.28318530718,
8.377580409573),.UNSPECIFIED.) CURVE() GEOMETRIC_REPRESENTATION_ITEM() 
RATIONAL_B_SPLINE_CURVE((1.,0.5,1.,0.5,1.,0.5,1.)) REPRESENTATION_ITEM(
  '') );
#846 = CARTESIAN_POINT('',(4.76,-3.698565156928E-16));
#847 = CARTESIAN_POINT('',(4.76,-8.244561844028));
#848 = CARTESIAN_POINT('',(-2.38,-4.122280922014));
#849 = CARTESIAN_POINT('',(-9.52,-1.596150721403E-15));
#850 = CARTESIAN_POINT('',(-2.38,4.122280922014));
#851 = CARTESIAN_POINT('',(4.76,8.244561844028));
#852 = CARTESIAN_POINT('',(4.76,-3.698565156928E-16));
#853 = ( GEOMETRIC_REPRESENTATION_CONTEXT(2) 
PARAMETRIC_REPRESENTATION_CONTEXT() REPRESENTATION_CONTEXT('2D SPACE',''
  ) );
#854 = ORIENTED_EDGE('',*,*,#855,.T.);
#855 = EDGE_CURVE('',#823,#682,#856,.T.);
#856 = SURFACE_CURVE('',#857,(#861,#868),.PCURVE_S1.);
#857 = LINE('',#858,#859);
#858 = CARTESIAN_POINT('',(43.573902997779,-0.25,6.53924442918));
#859 = VECTOR('',#860,1.);
#860 = DIRECTION('',(0.389722413022,-1.E-17,0.920932375796));
#861 = PCURVE('',#724,#862);
#862 = DEFINITIONAL_REPRESENTATION('',(#863),#867);
#863 = LINE('',#864,#865);
#864 = CARTESIAN_POINT('',(3.089047469013,0.));
#865 = VECTOR('',#866,1.);
#866 = DIRECTION('',(0.,-1.));
#867 = ( GEOMETRIC_REPRESENTATION_CONTEXT(2) 
PARAMETRIC_REPRESENTATION_CONTEXT() REPRESENTATION_CONTEXT('2D SPACE',''
  ) );
#868 = PCURVE('',#697,#869);
#869 = DEFINITIONAL_REPRESENTATION('',(#870),#874);
#870 = LINE('',#871,#872);
#871 = CARTESIAN_POINT('',(0.,0.));
#872 = VECTOR('',#873,1.);
#873 = DIRECTION('',(0.,-1.));
#874 = ( GEOMETRIC_REPRESENTATION_CONTEXT(2) 
PARAMETRIC_REPRESENTATION_CONTEXT() REPRESENTATION_CONTEXT('2D SPACE',''
  ) );
#875 = ORIENTED_EDGE('',*,*,#709,.T.);
#876 = ORIENTED_EDGE('',*,*,#742,.F.);
#877 = ADVANCED_FACE('',(#878),#697,.F.);
#878 = FACE_BOUND('',#879,.F.);
#879 = EDGE_LOOP('',(#880,#912,#913,#914));
#880 = ORIENTED_EDGE('',*,*,#881,.F.);
#881 = EDGE_CURVE('',#823,#882,#884,.T.);
#882 = VERTEX_POINT('',#883);
#883 = CARTESIAN_POINT('',(43.172744714969,-0.25,7.235483236373));
#884 = SURFACE_CURVE('',#885,(#890,#897),.PCURVE_S1.);
#885 = HYPERBOLA('',#886,0.189393939394,0.25);
#886 = AXIS2_PLACEMENT_3D('',#887,#888,#889);
#887 = CARTESIAN_POINT('',(46.546128253344,-0.25,1.365788125628));
#888 = DIRECTION('',(0.,-1.,-1.085856058797E-17));
#889 = DIRECTION('',(0.389722413022,-1.E-17,0.920932375796));
#890 = PCURVE('',#697,#891);
#891 = DEFINITIONAL_REPRESENTATION('',(#892),#896);
#892 = HYPERBOLA('',#893,0.189393939394,0.25);
#893 = AXIS2_PLACEMENT_2D('',#894,#895);
#894 = CARTESIAN_POINT('',(-4.753430340291,3.606060606061));
#895 = DIRECTION('',(0.,-1.));
#896 = ( GEOMETRIC_REPRESENTATION_CONTEXT(2) 
PARAMETRIC_REPRESENTATION_CONTEXT() REPRESENTATION_CONTEXT('2D SPACE',''
  ) );
#897 = PCURVE('',#898,#903);
#898 = CONICAL_SURFACE('',#899,4.76,0.922464337708);
#899 = AXIS2_PLACEMENT_3D('',#900,#901,#902);
#900 = CARTESIAN_POINT('',(47.951490894242,1.757E-14,4.68672608683));
#901 = DIRECTION('',(0.389722413022,1.E-17,0.920932375796));
#902 = DIRECTION('',(0.920932375796,0.,-0.389722413022));
#903 = DEFINITIONAL_REPRESENTATION('',(#904),#911);
#904 = B_SPLINE_CURVE_WITH_KNOTS('',5,(#905,#906,#907,#908,#909,#910),
  .UNSPECIFIED.,.F.,.F.,(6,6),(3.638998881396,3.765304227292),
  .PIECEWISE_BEZIER_KNOTS.);
#905 = CARTESIAN_POINT('',(3.194137838167,-4.275071156666E-16));
#906 = CARTESIAN_POINT('',(3.19281110134,9.096722171602E-02));
#907 = CARTESIAN_POINT('',(3.191526200176,0.184810824488));
#908 = CARTESIAN_POINT('',(3.190281380649,0.281651745045));
#909 = CARTESIAN_POINT('',(3.189074997973,0.381618554236));
#910 = CARTESIAN_POINT('',(3.187905504029,0.484848484848));
#911 = ( GEOMETRIC_REPRESENTATION_CONTEXT(2) 
PARAMETRIC_REPRESENTATION_CONTEXT() REPRESENTATION_CONTEXT('2D SPACE',''
  ) );
#912 = ORIENTED_EDGE('',*,*,#855,.T.);
#913 = ORIENTED_EDGE('',*,*,#681,.F.);
#914 = ORIENTED_EDGE('',*,*,#915,.T.);
#915 = EDGE_CURVE('',#653,#882,#916,.T.);
#916 = SURFACE_CURVE('',#917,(#921,#928),.PCURVE_S1.);
#917 = LINE('',#918,#919);
#918 = CARTESIAN_POINT('',(42.983788393503,-0.25,6.788970569321));
#919 = VECTOR('',#920,1.);
#920 = DIRECTION('',(-0.389722413022,1.E-17,-0.920932375796));
#921 = PCURVE('',#697,#922);
#922 = DEFINITIONAL_REPRESENTATION('',(#923),#927);
#923 = LINE('',#924,#925);
#924 = CARTESIAN_POINT('',(0.640779518437,3.885780586188E-16));
#925 = VECTOR('',#926,1.);
#926 = DIRECTION('',(0.,1.));
#927 = ( GEOMETRIC_REPRESENTATION_CONTEXT(2) 
PARAMETRIC_REPRESENTATION_CONTEXT() REPRESENTATION_CONTEXT('2D SPACE',''
  ) );
#928 = PCURVE('',#669,#929);
#929 = DEFINITIONAL_REPRESENTATION('',(#930),#934);
#930 = LINE('',#931,#932);
#931 = CARTESIAN_POINT('',(3.09527980315,1.33226762955E-15));
#932 = VECTOR('',#933,1.);
#933 = DIRECTION('',(0.,1.));
#934 = ( GEOMETRIC_REPRESENTATION_CONTEXT(2) 
PARAMETRIC_REPRESENTATION_CONTEXT() REPRESENTATION_CONTEXT('2D SPACE',''
  ) );
#935 = ADVANCED_FACE('',(#936),#669,.T.);
#936 = FACE_BOUND('',#937,.T.);
#937 = EDGE_LOOP('',(#938,#962,#983,#984));
#938 = ORIENTED_EDGE('',*,*,#939,.F.);
#939 = EDGE_CURVE('',#940,#882,#942,.T.);
#940 = VERTEX_POINT('',#941);
#941 = CARTESIAN_POINT('',(47.910214121758,-5.394209858728,
    5.230669357138));
#942 = SURFACE_CURVE('',#943,(#948,#955),.PCURVE_S1.);
#943 = CIRCLE('',#944,5.4);
#944 = AXIS2_PLACEMENT_3D('',#945,#946,#947);
#945 = CARTESIAN_POINT('',(48.140447215707,1.749303030303E-14,
    5.133238753883));
#946 = DIRECTION('',(-0.389722413022,1.E-17,-0.920932375796));
#947 = DIRECTION('',(0.920932375796,0.,-0.389722413022));
#948 = PCURVE('',#669,#949);
#949 = DEFINITIONAL_REPRESENTATION('',(#950),#954);
#950 = LINE('',#951,#952);
#951 = CARTESIAN_POINT('',(4.231824434289E-18,-0.484848484848));
#952 = VECTOR('',#953,1.);
#953 = DIRECTION('',(1.,0.));
#954 = ( GEOMETRIC_REPRESENTATION_CONTEXT(2) 
PARAMETRIC_REPRESENTATION_CONTEXT() REPRESENTATION_CONTEXT('2D SPACE',''
  ) );
#955 = PCURVE('',#898,#956);
#956 = DEFINITIONAL_REPRESENTATION('',(#957),#961);
#957 = LINE('',#958,#959);
#958 = CARTESIAN_POINT('',(6.28318530718,0.484848484848));
#959 = VECTOR('',#960,1.);
#960 = DIRECTION('',(-1.,0.));
#961 = ( GEOMETRIC_REPRESENTATION_CONTEXT(2) 
PARAMETRIC_REPRESENTATION_CONTEXT() REPRESENTATION_CONTEXT('2D SPACE',''
  ) );
#962 = ORIENTED_EDGE('',*,*,#963,.F.);
#963 = EDGE_CURVE('',#625,#940,#964,.T.);
#964 = SURFACE_CURVE('',#965,(#969,#976),.PCURVE_S1.);
#965 = LINE('',#966,#967);
#966 = CARTESIAN_POINT('',(47.721257800293,-5.394209858728,
    4.784156690086));
#967 = VECTOR('',#968,1.);
#968 = DIRECTION('',(-0.389722413022,5.551115123126E-17,-0.920932375796)
  );
#969 = PCURVE('',#669,#970);
#970 = DEFINITIONAL_REPRESENTATION('',(#971),#975);
#971 = LINE('',#972,#973);
#972 = CARTESIAN_POINT('',(1.617109177234,-7.077671781985E-16));
#973 = VECTOR('',#974,1.);
#974 = DIRECTION('',(0.,1.));
#975 = ( GEOMETRIC_REPRESENTATION_CONTEXT(2) 
PARAMETRIC_REPRESENTATION_CONTEXT() REPRESENTATION_CONTEXT('2D SPACE',''
  ) );
#976 = PCURVE('',#640,#977);
#977 = DEFINITIONAL_REPRESENTATION('',(#978),#982);
#978 = LINE('',#979,#980);
#979 = CARTESIAN_POINT('',(1.359220481563,-1.665334536938E-16));
#980 = VECTOR('',#981,1.);
#981 = DIRECTION('',(1.110223024625E-16,1.));
#982 = ( GEOMETRIC_REPRESENTATION_CONTEXT(2) 
PARAMETRIC_REPRESENTATION_CONTEXT() REPRESENTATION_CONTEXT('2D SPACE',''
  ) );
#983 = ORIENTED_EDGE('',*,*,#652,.T.);
#984 = ORIENTED_EDGE('',*,*,#915,.T.);
#985 = ADVANCED_FACE('',(#986),#640,.F.);
#986 = FACE_BOUND('',#987,.F.);
#987 = EDGE_LOOP('',(#988,#1011,#1036,#1037));
#988 = ORIENTED_EDGE('',*,*,#989,.F.);
#989 = EDGE_CURVE('',#990,#596,#992,.T.);
#990 = VERTEX_POINT('',#991);
#991 = CARTESIAN_POINT('',(47.721257800293,-4.753430340291,
    4.784156690086));
#992 = SURFACE_CURVE('',#993,(#997,#1004),.PCURVE_S1.);
#993 = LINE('',#994,#995);
#994 = CARTESIAN_POINT('',(47.721257800293,-4.753430340291,
    4.784156690086));
#995 = VECTOR('',#996,1.);
#996 = DIRECTION('',(0.389722413022,-5.551115123126E-17,0.920932375796)
  );
#997 = PCURVE('',#640,#998);
#998 = DEFINITIONAL_REPRESENTATION('',(#999),#1003);
#999 = LINE('',#1000,#1001);
#1000 = CARTESIAN_POINT('',(2.,-2.22044604925E-16));
#1001 = VECTOR('',#1002,1.);
#1002 = DIRECTION('',(-1.110223024625E-16,-1.));
#1003 = ( GEOMETRIC_REPRESENTATION_CONTEXT(2) 
PARAMETRIC_REPRESENTATION_CONTEXT() REPRESENTATION_CONTEXT('2D SPACE',''
  ) );
#1004 = PCURVE('',#612,#1005);
#1005 = DEFINITIONAL_REPRESENTATION('',(#1006),#1010);
#1006 = LINE('',#1007,#1008);
#1007 = CARTESIAN_POINT('',(3.194137838166,0.));
#1008 = VECTOR('',#1009,1.);
#1009 = DIRECTION('',(0.,-1.));
#1010 = ( GEOMETRIC_REPRESENTATION_CONTEXT(2) 
PARAMETRIC_REPRESENTATION_CONTEXT() REPRESENTATION_CONTEXT('2D SPACE',''
  ) );
#1011 = ORIENTED_EDGE('',*,*,#1012,.F.);
#1012 = EDGE_CURVE('',#940,#990,#1013,.T.);
#1013 = SURFACE_CURVE('',#1014,(#1019,#1026),.PCURVE_S1.);
#1014 = HYPERBOLA('',#1015,0.189393939394,0.25);
#1015 = AXIS2_PLACEMENT_3D('',#1016,#1017,#1018);
#1016 = CARTESIAN_POINT('',(46.315895159395,-7.105427357601E-15,
    1.463218728884));
#1017 = DIRECTION('',(-0.920932375796,-1.533660491596E-16,0.389722413022
    ));
#1018 = DIRECTION('',(0.389722413022,-5.551115123126E-17,0.920932375796)
  );
#1019 = PCURVE('',#640,#1020);
#1020 = DEFINITIONAL_REPRESENTATION('',(#1021),#1025);
#1021 = HYPERBOLA('',#1022,0.189393939394,0.25);
#1022 = AXIS2_PLACEMENT_2D('',#1023,#1024);
#1023 = CARTESIAN_POINT('',(6.753430340291,3.606060606061));
#1024 = DIRECTION('',(-1.110223024625E-16,-1.));
#1025 = ( GEOMETRIC_REPRESENTATION_CONTEXT(2) 
PARAMETRIC_REPRESENTATION_CONTEXT() REPRESENTATION_CONTEXT('2D SPACE',''
  ) );
#1026 = PCURVE('',#898,#1027);
#1027 = DEFINITIONAL_REPRESENTATION('',(#1028),#1035);
#1028 = B_SPLINE_CURVE_WITH_KNOTS('',5,(#1029,#1030,#1031,#1032,#1033,
    #1034),.UNSPECIFIED.,.F.,.F.,(6,6),(-3.765304227292,-3.638998881396)
  ,.PIECEWISE_BEZIER_KNOTS.);
#1029 = CARTESIAN_POINT('',(4.666076129945,0.484848484849));
#1030 = CARTESIAN_POINT('',(4.664906636002,0.381618554236));
#1031 = CARTESIAN_POINT('',(4.663700253325,0.281651745045));
#1032 = CARTESIAN_POINT('',(4.662455433799,0.184810824488));
#1033 = CARTESIAN_POINT('',(4.661170532635,9.096722171603E-02));
#1034 = CARTESIAN_POINT('',(4.659843795808,6.840113850666E-15));
#1035 = ( GEOMETRIC_REPRESENTATION_CONTEXT(2) 
PARAMETRIC_REPRESENTATION_CONTEXT() REPRESENTATION_CONTEXT('2D SPACE',''
  ) );
#1036 = ORIENTED_EDGE('',*,*,#963,.F.);
#1037 = ORIENTED_EDGE('',*,*,#624,.F.);
#1038 = ADVANCED_FACE('',(#1039),#612,.T.);
#1039 = FACE_BOUND('',#1040,.T.);
#1040 = EDGE_LOOP('',(#1041,#1067,#1088,#1089,#1090));
#1041 = ORIENTED_EDGE('',*,*,#1042,.T.);
#1042 = EDGE_CURVE('',#1043,#1045,#1047,.T.);
#1043 = VERTEX_POINT('',#1044);
#1044 = CARTESIAN_POINT('',(47.951490894242,-4.76,4.68672608683));
#1045 = VERTEX_POINT('',#1046);
#1046 = CARTESIAN_POINT('',(48.18172398819,-4.753430340291,
    4.589295483575));
#1047 = SURFACE_CURVE('',#1048,(#1053,#1060),.PCURVE_S1.);
#1048 = CIRCLE('',#1049,4.76);
#1049 = AXIS2_PLACEMENT_3D('',#1050,#1051,#1052);
#1050 = CARTESIAN_POINT('',(47.951490894242,1.757E-14,4.68672608683));
#1051 = DIRECTION('',(0.389722413022,1.E-17,0.920932375796));
#1052 = DIRECTION('',(0.920932375796,0.,-0.389722413022));
#1053 = PCURVE('',#612,#1054);
#1054 = DEFINITIONAL_REPRESENTATION('',(#1055),#1059);
#1055 = LINE('',#1056,#1057);
#1056 = CARTESIAN_POINT('',(7.853981633974,0.));
#1057 = VECTOR('',#1058,1.);
#1058 = DIRECTION('',(-1.,-0.));
#1059 = ( GEOMETRIC_REPRESENTATION_CONTEXT(2) 
PARAMETRIC_REPRESENTATION_CONTEXT() REPRESENTATION_CONTEXT('2D SPACE',''
  ) );
#1060 = PCURVE('',#839,#1061);
#1061 = DEFINITIONAL_REPRESENTATION('',(#1062),#1066);
#1062 = CIRCLE('',#1063,4.76);
#1063 = AXIS2_PLACEMENT_2D('',#1064,#1065);
#1064 = CARTESIAN_POINT('',(0.,-3.9E-16));
#1065 = DIRECTION('',(1.,0.));
#1066 = ( GEOMETRIC_REPRESENTATION_CONTEXT(2) 
PARAMETRIC_REPRESENTATION_CONTEXT() REPRESENTATION_CONTEXT('2D SPACE',''
  ) );
#1067 = ORIENTED_EDGE('',*,*,#1068,.T.);
#1068 = EDGE_CURVE('',#1045,#568,#1069,.T.);
#1069 = SURFACE_CURVE('',#1070,(#1074,#1081),.PCURVE_S1.);
#1070 = LINE('',#1071,#1072);
#1071 = CARTESIAN_POINT('',(48.18172398819,-4.753430340291,
    4.589295483575));
#1072 = VECTOR('',#1073,1.);
#1073 = DIRECTION('',(0.389722413022,-5.551115123126E-17,0.920932375796)
  );
#1074 = PCURVE('',#612,#1075);
#1075 = DEFINITIONAL_REPRESENTATION('',(#1076),#1080);
#1076 = LINE('',#1077,#1078);
#1077 = CARTESIAN_POINT('',(3.089047469013,0.));
#1078 = VECTOR('',#1079,1.);
#1079 = DIRECTION('',(0.,-1.));
#1080 = ( GEOMETRIC_REPRESENTATION_CONTEXT(2) 
PARAMETRIC_REPRESENTATION_CONTEXT() REPRESENTATION_CONTEXT('2D SPACE',''
  ) );
#1081 = PCURVE('',#583,#1082);
#1082 = DEFINITIONAL_REPRESENTATION('',(#1083),#1087);
#1083 = LINE('',#1084,#1085);
#1084 = CARTESIAN_POINT('',(0.,-0.));
#1085 = VECTOR('',#1086,1.);
#1086 = DIRECTION('',(1.110223024625E-16,-1.));
#1087 = ( GEOMETRIC_REPRESENTATION_CONTEXT(2) 
PARAMETRIC_REPRESENTATION_CONTEXT() REPRESENTATION_CONTEXT('2D SPACE',''
  ) );
#1088 = ORIENTED_EDGE('',*,*,#595,.T.);
#1089 = ORIENTED_EDGE('',*,*,#989,.F.);
#1090 = ORIENTED_EDGE('',*,*,#1091,.T.);
#1091 = EDGE_CURVE('',#990,#1043,#1092,.T.);
#1092 = SURFACE_CURVE('',#1093,(#1098,#1105),.PCURVE_S1.);
#1093 = CIRCLE('',#1094,4.76);
#1094 = AXIS2_PLACEMENT_3D('',#1095,#1096,#1097);
#1095 = CARTESIAN_POINT('',(47.951490894242,1.757E-14,4.68672608683));
#1096 = DIRECTION('',(0.389722413022,1.E-17,0.920932375796));
#1097 = DIRECTION('',(0.920932375796,0.,-0.389722413022));
#1098 = PCURVE('',#612,#1099);
#1099 = DEFINITIONAL_REPRESENTATION('',(#1100),#1104);
#1100 = LINE('',#1101,#1102);
#1101 = CARTESIAN_POINT('',(7.853981633974,0.));
#1102 = VECTOR('',#1103,1.);
#1103 = DIRECTION('',(-1.,-0.));
#1104 = ( GEOMETRIC_REPRESENTATION_CONTEXT(2) 
PARAMETRIC_REPRESENTATION_CONTEXT() REPRESENTATION_CONTEXT('2D SPACE',''
  ) );
#1105 = PCURVE('',#839,#1106);
#1106 = DEFINITIONAL_REPRESENTATION('',(#1107),#1111);
#1107 = CIRCLE('',#1108,4.76);
#1108 = AXIS2_PLACEMENT_2D('',#1109,#1110);
#1109 = CARTESIAN_POINT('',(0.,-3.9E-16));
#1110 = DIRECTION('',(1.,0.));
#1111 = ( GEOMETRIC_REPRESENTATION_CONTEXT(2) 
PARAMETRIC_REPRESENTATION_CONTEXT() REPRESENTATION_CONTEXT('2D SPACE',''
  ) );
#1112 = ADVANCED_FACE('',(#1113),#583,.F.);
#1113 = FACE_BOUND('',#1114,.F.);
#1114 = EDGE_LOOP('',(#1115,#1147,#1148,#1149));
#1115 = ORIENTED_EDGE('',*,*,#1116,.F.);
#1116 = EDGE_CURVE('',#1045,#1117,#1119,.T.);
#1117 = VERTEX_POINT('',#1118);
#1118 = CARTESIAN_POINT('',(48.370680309656,-5.394209858728,
    5.035808150627));
#1119 = SURFACE_CURVE('',#1120,(#1125,#1132),.PCURVE_S1.);
#1120 = HYPERBOLA('',#1121,0.189393939394,0.25);
#1121 = AXIS2_PLACEMENT_3D('',#1122,#1123,#1124);
#1122 = CARTESIAN_POINT('',(46.776361347293,-7.105427357601E-15,
    1.268357522373));
#1123 = DIRECTION('',(0.920932375796,1.533660491596E-16,-0.389722413022)
  );
#1124 = DIRECTION('',(0.389722413022,-5.551115123126E-17,0.920932375796)
  );
#1125 = PCURVE('',#583,#1126);
#1126 = DEFINITIONAL_REPRESENTATION('',(#1127),#1131);
#1127 = HYPERBOLA('',#1128,0.189393939394,0.25);
#1128 = AXIS2_PLACEMENT_2D('',#1129,#1130);
#1129 = CARTESIAN_POINT('',(-4.753430340291,3.606060606061));
#1130 = DIRECTION('',(1.110223024625E-16,-1.));
#1131 = ( GEOMETRIC_REPRESENTATION_CONTEXT(2) 
PARAMETRIC_REPRESENTATION_CONTEXT() REPRESENTATION_CONTEXT('2D SPACE',''
  ) );
#1132 = PCURVE('',#1133,#1138);
#1133 = CONICAL_SURFACE('',#1134,4.76,0.922464337708);
#1134 = AXIS2_PLACEMENT_3D('',#1135,#1136,#1137);
#1135 = CARTESIAN_POINT('',(47.951490894242,1.757E-14,4.68672608683));
#1136 = DIRECTION('',(0.389722413022,1.E-17,0.920932375796));
#1137 = DIRECTION('',(0.920932375796,0.,-0.389722413022));
#1138 = DEFINITIONAL_REPRESENTATION('',(#1139),#1146);
#1139 = B_SPLINE_CURVE_WITH_KNOTS('',5,(#1140,#1141,#1142,#1143,#1144,
    #1145),.UNSPECIFIED.,.F.,.F.,(6,6),(3.638998881396,3.765304227292),
  .PIECEWISE_BEZIER_KNOTS.);
#1140 = CARTESIAN_POINT('',(4.764934164961,8.550142313333E-15));
#1141 = CARTESIAN_POINT('',(4.763607428135,9.096722171603E-02));
#1142 = CARTESIAN_POINT('',(4.762322526971,0.184810824488));
#1143 = CARTESIAN_POINT('',(4.761077707444,0.281651745045));
#1144 = CARTESIAN_POINT('',(4.759871324768,0.381618554236));
#1145 = CARTESIAN_POINT('',(4.758701830824,0.484848484849));
#1146 = ( GEOMETRIC_REPRESENTATION_CONTEXT(2) 
PARAMETRIC_REPRESENTATION_CONTEXT() REPRESENTATION_CONTEXT('2D SPACE',''
  ) );
#1147 = ORIENTED_EDGE('',*,*,#1068,.T.);
#1148 = ORIENTED_EDGE('',*,*,#567,.F.);
#1149 = ORIENTED_EDGE('',*,*,#1150,.T.);
#1150 = EDGE_CURVE('',#539,#1117,#1151,.T.);
#1151 = SURFACE_CURVE('',#1152,(#1156,#1163),.PCURVE_S1.);
#1152 = LINE('',#1153,#1154);
#1153 = CARTESIAN_POINT('',(48.18172398819,-5.394209858728,
    4.589295483575));
#1154 = VECTOR('',#1155,1.);
#1155 = DIRECTION('',(-0.389722413022,5.551115123126E-17,-0.920932375796
    ));
#1156 = PCURVE('',#583,#1157);
#1157 = DEFINITIONAL_REPRESENTATION('',(#1158),#1162);
#1158 = LINE('',#1159,#1160);
#1159 = CARTESIAN_POINT('',(0.640779518437,3.608224830032E-16));
#1160 = VECTOR('',#1161,1.);
#1161 = DIRECTION('',(-1.110223024625E-16,1.));
#1162 = ( GEOMETRIC_REPRESENTATION_CONTEXT(2) 
PARAMETRIC_REPRESENTATION_CONTEXT() REPRESENTATION_CONTEXT('2D SPACE',''
  ) );
#1163 = PCURVE('',#555,#1164);
#1164 = DEFINITIONAL_REPRESENTATION('',(#1165),#1169);
#1165 = LINE('',#1166,#1167);
#1166 = CARTESIAN_POINT('',(1.524483476355,2.359223927328E-15));
#1167 = VECTOR('',#1168,1.);
#1168 = DIRECTION('',(0.,1.));
#1169 = ( GEOMETRIC_REPRESENTATION_CONTEXT(2) 
PARAMETRIC_REPRESENTATION_CONTEXT() REPRESENTATION_CONTEXT('2D SPACE',''
  ) );
#1170 = ADVANCED_FACE('',(#1171),#555,.T.);
#1171 = FACE_BOUND('',#1172,.T.);
#1172 = EDGE_LOOP('',(#1173,#1197,#1218,#1219));
#1173 = ORIENTED_EDGE('',*,*,#1174,.F.);
#1174 = EDGE_CURVE('',#1175,#1117,#1177,.T.);
#1175 = VERTEX_POINT('',#1176);
#1176 = CARTESIAN_POINT('',(53.108149716445,-0.25,3.030994271392));
#1177 = SURFACE_CURVE('',#1178,(#1183,#1190),.PCURVE_S1.);
#1178 = CIRCLE('',#1179,5.4);
#1179 = AXIS2_PLACEMENT_3D('',#1180,#1181,#1182);
#1180 = CARTESIAN_POINT('',(48.140447215707,1.749303030303E-14,
    5.133238753883));
#1181 = DIRECTION('',(-0.389722413022,1.E-17,-0.920932375796));
#1182 = DIRECTION('',(0.920932375796,0.,-0.389722413022));
#1183 = PCURVE('',#555,#1184);
#1184 = DEFINITIONAL_REPRESENTATION('',(#1185),#1189);
#1185 = LINE('',#1186,#1187);
#1186 = CARTESIAN_POINT('',(4.231824434289E-18,-0.484848484848));
#1187 = VECTOR('',#1188,1.);
#1188 = DIRECTION('',(1.,0.));
#1189 = ( GEOMETRIC_REPRESENTATION_CONTEXT(2) 
PARAMETRIC_REPRESENTATION_CONTEXT() REPRESENTATION_CONTEXT('2D SPACE',''
  ) );
#1190 = PCURVE('',#1133,#1191);
#1191 = DEFINITIONAL_REPRESENTATION('',(#1192),#1196);
#1192 = LINE('',#1193,#1194);
#1193 = CARTESIAN_POINT('',(6.28318530718,0.484848484848));
#1194 = VECTOR('',#1195,1.);
#1195 = DIRECTION('',(-1.,0.));
#1196 = ( GEOMETRIC_REPRESENTATION_CONTEXT(2) 
PARAMETRIC_REPRESENTATION_CONTEXT() REPRESENTATION_CONTEXT('2D SPACE',''
  ) );
#1197 = ORIENTED_EDGE('',*,*,#1198,.F.);
#1198 = EDGE_CURVE('',#511,#1175,#1199,.T.);
#1199 = SURFACE_CURVE('',#1200,(#1204,#1211),.PCURVE_S1.);
#1200 = LINE('',#1201,#1202);
#1201 = CARTESIAN_POINT('',(52.91919339498,-0.25,2.58448160434));
#1202 = VECTOR('',#1203,1.);
#1203 = DIRECTION('',(-0.389722413022,1.037344067736E-18,-0.920932375796
    ));
#1204 = PCURVE('',#555,#1205);
#1205 = DEFINITIONAL_REPRESENTATION('',(#1206),#1210);
#1206 = LINE('',#1207,#1208);
#1207 = CARTESIAN_POINT('',(4.631285043953E-02,-4.662936703426E-15));
#1208 = VECTOR('',#1209,1.);
#1209 = DIRECTION('',(0.,1.));
#1210 = ( GEOMETRIC_REPRESENTATION_CONTEXT(2) 
PARAMETRIC_REPRESENTATION_CONTEXT() REPRESENTATION_CONTEXT('2D SPACE',''
  ) );
#1211 = PCURVE('',#526,#1212);
#1212 = DEFINITIONAL_REPRESENTATION('',(#1213),#1217);
#1213 = LINE('',#1214,#1215);
#1214 = CARTESIAN_POINT('',(1.359220481563,-2.22044604925E-16));
#1215 = VECTOR('',#1216,1.);
#1216 = DIRECTION('',(0.,1.));
#1217 = ( GEOMETRIC_REPRESENTATION_CONTEXT(2) 
PARAMETRIC_REPRESENTATION_CONTEXT() REPRESENTATION_CONTEXT('2D SPACE',''
  ) );
#1218 = ORIENTED_EDGE('',*,*,#538,.T.);
#1219 = ORIENTED_EDGE('',*,*,#1150,.T.);
#1220 = ADVANCED_FACE('',(#1221),#526,.F.);
#1221 = FACE_BOUND('',#1222,.F.);
#1222 = EDGE_LOOP('',(#1223,#1246,#1271,#1272));
#1223 = ORIENTED_EDGE('',*,*,#1224,.F.);
#1224 = EDGE_CURVE('',#1225,#482,#1227,.T.);
#1225 = VERTEX_POINT('',#1226);
#1226 = CARTESIAN_POINT('',(52.329078790704,-0.25,2.83420774448));
#1227 = SURFACE_CURVE('',#1228,(#1232,#1239),.PCURVE_S1.);
#1228 = LINE('',#1229,#1230);
#1229 = CARTESIAN_POINT('',(52.329078790704,-0.25,2.83420774448));
#1230 = VECTOR('',#1231,1.);
#1231 = DIRECTION('',(0.389722413022,-1.037344067736E-18,0.920932375796)
  );
#1232 = PCURVE('',#526,#1233);
#1233 = DEFINITIONAL_REPRESENTATION('',(#1234),#1238);
#1234 = LINE('',#1235,#1236);
#1235 = CARTESIAN_POINT('',(2.,-2.22044604925E-16));
#1236 = VECTOR('',#1237,1.);
#1237 = DIRECTION('',(0.,-1.));
#1238 = ( GEOMETRIC_REPRESENTATION_CONTEXT(2) 
PARAMETRIC_REPRESENTATION_CONTEXT() REPRESENTATION_CONTEXT('2D SPACE',''
  ) );
#1239 = PCURVE('',#498,#1240);
#1240 = DEFINITIONAL_REPRESENTATION('',(#1241),#1245);
#1241 = LINE('',#1242,#1243);
#1242 = CARTESIAN_POINT('',(3.194137838166,0.));
#1243 = VECTOR('',#1244,1.);
#1244 = DIRECTION('',(0.,-1.));
#1245 = ( GEOMETRIC_REPRESENTATION_CONTEXT(2) 
PARAMETRIC_REPRESENTATION_CONTEXT() REPRESENTATION_CONTEXT('2D SPACE',''
  ) );
#1246 = ORIENTED_EDGE('',*,*,#1247,.F.);
#1247 = EDGE_CURVE('',#1175,#1225,#1248,.T.);
#1248 = SURFACE_CURVE('',#1249,(#1254,#1261),.PCURVE_S1.);
#1249 = HYPERBOLA('',#1250,0.189393939394,0.25);
#1250 = AXIS2_PLACEMENT_3D('',#1251,#1252,#1253);
#1251 = CARTESIAN_POINT('',(46.546128253344,-0.25,1.365788125628));
#1252 = DIRECTION('',(1.162746365219E-16,-1.,-5.033179113316E-17));
#1253 = DIRECTION('',(0.389722413022,-1.037344067736E-18,0.920932375796)
  );
#1254 = PCURVE('',#526,#1255);
#1255 = DEFINITIONAL_REPRESENTATION('',(#1256),#1260);
#1256 = HYPERBOLA('',#1257,0.189393939394,0.25);
#1257 = AXIS2_PLACEMENT_2D('',#1258,#1259);
#1258 = CARTESIAN_POINT('',(6.753430340291,3.606060606061));
#1259 = DIRECTION('',(0.,-1.));
#1260 = ( GEOMETRIC_REPRESENTATION_CONTEXT(2) 
PARAMETRIC_REPRESENTATION_CONTEXT() REPRESENTATION_CONTEXT('2D SPACE',''
  ) );
#1261 = PCURVE('',#1133,#1262);
#1262 = DEFINITIONAL_REPRESENTATION('',(#1263),#1270);
#1263 = B_SPLINE_CURVE_WITH_KNOTS('',5,(#1264,#1265,#1266,#1267,#1268,
    #1269),.UNSPECIFIED.,.F.,.F.,(6,6),(-3.765304227292,-3.638998881396)
  ,.PIECEWISE_BEZIER_KNOTS.);
#1264 = CARTESIAN_POINT('',(6.23687245674,0.484848484849));
#1265 = CARTESIAN_POINT('',(6.235702962797,0.381618554236));
#1266 = CARTESIAN_POINT('',(6.23449658012,0.281651745045));
#1267 = CARTESIAN_POINT('',(6.233251760594,0.184810824488));
#1268 = CARTESIAN_POINT('',(6.23196685943,9.096722171604E-02));
#1269 = CARTESIAN_POINT('',(6.230640122603,2.010578919741E-14));
#1270 = ( GEOMETRIC_REPRESENTATION_CONTEXT(2) 
PARAMETRIC_REPRESENTATION_CONTEXT() REPRESENTATION_CONTEXT('2D SPACE',''
  ) );
#1271 = ORIENTED_EDGE('',*,*,#1198,.F.);
#1272 = ORIENTED_EDGE('',*,*,#510,.F.);
#1273 = ADVANCED_FACE('',(#1274),#498,.T.);
#1274 = FACE_BOUND('',#1275,.T.);
#1275 = EDGE_LOOP('',(#1276,#1302,#1323,#1324,#1325));
#1276 = ORIENTED_EDGE('',*,*,#1277,.T.);
#1277 = EDGE_CURVE('',#1278,#1280,#1282,.T.);
#1278 = VERTEX_POINT('',#1279);
#1279 = CARTESIAN_POINT('',(52.335129003028,1.8E-14,2.831647400846));
#1280 = VERTEX_POINT('',#1281);
#1281 = CARTESIAN_POINT('',(52.329078790704,0.25,2.83420774448));
#1282 = SURFACE_CURVE('',#1283,(#1288,#1295),.PCURVE_S1.);
#1283 = CIRCLE('',#1284,4.76);
#1284 = AXIS2_PLACEMENT_3D('',#1285,#1286,#1287);
#1285 = CARTESIAN_POINT('',(47.951490894242,1.757E-14,4.68672608683));
#1286 = DIRECTION('',(0.389722413022,1.E-17,0.920932375796));
#1287 = DIRECTION('',(0.920932375796,0.,-0.389722413022));
#1288 = PCURVE('',#498,#1289);
#1289 = DEFINITIONAL_REPRESENTATION('',(#1290),#1294);
#1290 = LINE('',#1291,#1292);
#1291 = CARTESIAN_POINT('',(3.14159265359,0.));
#1292 = VECTOR('',#1293,1.);
#1293 = DIRECTION('',(-1.,-0.));
#1294 = ( GEOMETRIC_REPRESENTATION_CONTEXT(2) 
PARAMETRIC_REPRESENTATION_CONTEXT() REPRESENTATION_CONTEXT('2D SPACE',''
  ) );
#1295 = PCURVE('',#839,#1296);
#1296 = DEFINITIONAL_REPRESENTATION('',(#1297),#1301);
#1297 = CIRCLE('',#1298,4.76);
#1298 = AXIS2_PLACEMENT_2D('',#1299,#1300);
#1299 = CARTESIAN_POINT('',(0.,-3.9E-16));
#1300 = DIRECTION('',(1.,0.));
#1301 = ( GEOMETRIC_REPRESENTATION_CONTEXT(2) 
PARAMETRIC_REPRESENTATION_CONTEXT() REPRESENTATION_CONTEXT('2D SPACE',''
  ) );
#1302 = ORIENTED_EDGE('',*,*,#1303,.T.);
#1303 = EDGE_CURVE('',#1280,#454,#1304,.T.);
#1304 = SURFACE_CURVE('',#1305,(#1309,#1316),.PCURVE_S1.);
#1305 = LINE('',#1306,#1307);
#1306 = CARTESIAN_POINT('',(52.329078790704,0.25,2.83420774448));
#1307 = VECTOR('',#1308,1.);
#1308 = DIRECTION('',(0.389722413022,-1.037344067736E-18,0.920932375796)
  );
#1309 = PCURVE('',#498,#1310);
#1310 = DEFINITIONAL_REPRESENTATION('',(#1311),#1315);
#1311 = LINE('',#1312,#1313);
#1312 = CARTESIAN_POINT('',(3.089047469013,0.));
#1313 = VECTOR('',#1314,1.);
#1314 = DIRECTION('',(0.,-1.));
#1315 = ( GEOMETRIC_REPRESENTATION_CONTEXT(2) 
PARAMETRIC_REPRESENTATION_CONTEXT() REPRESENTATION_CONTEXT('2D SPACE',''
  ) );
#1316 = PCURVE('',#469,#1317);
#1317 = DEFINITIONAL_REPRESENTATION('',(#1318),#1322);
#1318 = LINE('',#1319,#1320);
#1319 = CARTESIAN_POINT('',(0.,0.));
#1320 = VECTOR('',#1321,1.);
#1321 = DIRECTION('',(0.,-1.));
#1322 = ( GEOMETRIC_REPRESENTATION_CONTEXT(2) 
PARAMETRIC_REPRESENTATION_CONTEXT() REPRESENTATION_CONTEXT('2D SPACE',''
  ) );
#1323 = ORIENTED_EDGE('',*,*,#481,.T.);
#1324 = ORIENTED_EDGE('',*,*,#1224,.F.);
#1325 = ORIENTED_EDGE('',*,*,#1326,.T.);
#1326 = EDGE_CURVE('',#1225,#1278,#1327,.T.);
#1327 = SURFACE_CURVE('',#1328,(#1333,#1340),.PCURVE_S1.);
#1328 = CIRCLE('',#1329,4.76);
#1329 = AXIS2_PLACEMENT_3D('',#1330,#1331,#1332);
#1330 = CARTESIAN_POINT('',(47.951490894242,1.757E-14,4.68672608683));
#1331 = DIRECTION('',(0.389722413022,1.E-17,0.920932375796));
#1332 = DIRECTION('',(0.920932375796,0.,-0.389722413022));
#1333 = PCURVE('',#498,#1334);
#1334 = DEFINITIONAL_REPRESENTATION('',(#1335),#1339);
#1335 = LINE('',#1336,#1337);
#1336 = CARTESIAN_POINT('',(9.424777960769,0.));
#1337 = VECTOR('',#1338,1.);
#1338 = DIRECTION('',(-1.,-0.));
#1339 = ( GEOMETRIC_REPRESENTATION_CONTEXT(2) 
PARAMETRIC_REPRESENTATION_CONTEXT() REPRESENTATION_CONTEXT('2D SPACE',''
  ) );
#1340 = PCURVE('',#839,#1341);
#1341 = DEFINITIONAL_REPRESENTATION('',(#1342),#1346);
#1342 = CIRCLE('',#1343,4.76);
#1343 = AXIS2_PLACEMENT_2D('',#1344,#1345);
#1344 = CARTESIAN_POINT('',(0.,-3.9E-16));
#1345 = DIRECTION('',(1.,0.));
#1346 = ( GEOMETRIC_REPRESENTATION_CONTEXT(2) 
PARAMETRIC_REPRESENTATION_CONTEXT() REPRESENTATION_CONTEXT('2D SPACE',''
  ) );
#1347 = ADVANCED_FACE('',(#1348),#469,.F.);
#1348 = FACE_BOUND('',#1349,.F.);
#1349 = EDGE_LOOP('',(#1350,#1382,#1383,#1384));
#1350 = ORIENTED_EDGE('',*,*,#1351,.F.);
#1351 = EDGE_CURVE('',#1280,#1352,#1354,.T.);
#1352 = VERTEX_POINT('',#1353);
#1353 = CARTESIAN_POINT('',(53.108149716445,0.25,3.030994271392));
#1354 = SURFACE_CURVE('',#1355,(#1360,#1367),.PCURVE_S1.);
#1355 = HYPERBOLA('',#1356,0.189393939394,0.25);
#1356 = AXIS2_PLACEMENT_3D('',#1357,#1358,#1359);
#1357 = CARTESIAN_POINT('',(46.546128253344,0.25,1.365788125628));
#1358 = DIRECTION('',(-1.162746365219E-16,1.,5.033179113316E-17));
#1359 = DIRECTION('',(0.389722413022,-1.037344067736E-18,0.920932375796)
  );
#1360 = PCURVE('',#469,#1361);
#1361 = DEFINITIONAL_REPRESENTATION('',(#1362),#1366);
#1362 = HYPERBOLA('',#1363,0.189393939394,0.25);
#1363 = AXIS2_PLACEMENT_2D('',#1364,#1365);
#1364 = CARTESIAN_POINT('',(-4.753430340291,3.606060606061));
#1365 = DIRECTION('',(0.,-1.));
#1366 = ( GEOMETRIC_REPRESENTATION_CONTEXT(2) 
PARAMETRIC_REPRESENTATION_CONTEXT() REPRESENTATION_CONTEXT('2D SPACE',''
  ) );
#1367 = PCURVE('',#1368,#1373);
#1368 = CONICAL_SURFACE('',#1369,4.76,0.922464337708);
#1369 = AXIS2_PLACEMENT_3D('',#1370,#1371,#1372);
#1370 = CARTESIAN_POINT('',(47.951490894242,1.757E-14,4.68672608683));
#1371 = DIRECTION('',(0.389722413022,1.E-17,0.920932375796));
#1372 = DIRECTION('',(0.920932375796,0.,-0.389722413022));
#1373 = DEFINITIONAL_REPRESENTATION('',(#1374),#1381);
#1374 = B_SPLINE_CURVE_WITH_KNOTS('',5,(#1375,#1376,#1377,#1378,#1379,
    #1380),.UNSPECIFIED.,.F.,.F.,(6,6),(3.638998881396,3.765304227292),
  .PIECEWISE_BEZIER_KNOTS.);
#1375 = CARTESIAN_POINT('',(5.254518457671E-02,2.181581766008E-14));
#1376 = CARTESIAN_POINT('',(5.121844775007E-02,9.096722171605E-02));
#1377 = CARTESIAN_POINT('',(4.993354658607E-02,0.184810824488));
#1378 = CARTESIAN_POINT('',(4.868872705926E-02,0.281651745045));
#1379 = CARTESIAN_POINT('',(4.748234438302E-02,0.381618554236));
#1380 = CARTESIAN_POINT('',(4.631285043954E-02,0.484848484849));
#1381 = ( GEOMETRIC_REPRESENTATION_CONTEXT(2) 
PARAMETRIC_REPRESENTATION_CONTEXT() REPRESENTATION_CONTEXT('2D SPACE',''
  ) );
#1382 = ORIENTED_EDGE('',*,*,#1303,.T.);
#1383 = ORIENTED_EDGE('',*,*,#453,.F.);
#1384 = ORIENTED_EDGE('',*,*,#1385,.T.);
#1385 = EDGE_CURVE('',#425,#1352,#1386,.T.);
#1386 = SURFACE_CURVE('',#1387,(#1391,#1398),.PCURVE_S1.);
#1387 = LINE('',#1388,#1389);
#1388 = CARTESIAN_POINT('',(52.91919339498,0.25,2.58448160434));
#1389 = VECTOR('',#1390,1.);
#1390 = DIRECTION('',(-0.389722413022,1.037344067736E-18,-0.920932375796
    ));
#1391 = PCURVE('',#469,#1392);
#1392 = DEFINITIONAL_REPRESENTATION('',(#1393),#1397);
#1393 = LINE('',#1394,#1395);
#1394 = CARTESIAN_POINT('',(0.640779518437,3.885780586188E-16));
#1395 = VECTOR('',#1396,1.);
#1396 = DIRECTION('',(0.,1.));
#1397 = ( GEOMETRIC_REPRESENTATION_CONTEXT(2) 
PARAMETRIC_REPRESENTATION_CONTEXT() REPRESENTATION_CONTEXT('2D SPACE',''
  ) );
#1398 = PCURVE('',#441,#1399);
#1399 = DEFINITIONAL_REPRESENTATION('',(#1400),#1404);
#1400 = LINE('',#1401,#1402);
#1401 = CARTESIAN_POINT('',(6.23687245674,-4.662936703426E-15));
#1402 = VECTOR('',#1403,1.);
#1403 = DIRECTION('',(0.,1.));
#1404 = ( GEOMETRIC_REPRESENTATION_CONTEXT(2) 
PARAMETRIC_REPRESENTATION_CONTEXT() REPRESENTATION_CONTEXT('2D SPACE',''
  ) );
#1405 = ADVANCED_FACE('',(#1406),#441,.T.);
#1406 = FACE_BOUND('',#1407,.T.);
#1407 = EDGE_LOOP('',(#1408,#1409,#1433,#1454));
#1408 = ORIENTED_EDGE('',*,*,#1385,.T.);
#1409 = ORIENTED_EDGE('',*,*,#1410,.F.);
#1410 = EDGE_CURVE('',#1411,#1352,#1413,.T.);
#1411 = VERTEX_POINT('',#1412);
#1412 = CARTESIAN_POINT('',(48.370680309656,5.394209858728,
    5.035808150627));
#1413 = SURFACE_CURVE('',#1414,(#1419,#1426),.PCURVE_S1.);
#1414 = CIRCLE('',#1415,5.4);
#1415 = AXIS2_PLACEMENT_3D('',#1416,#1417,#1418);
#1416 = CARTESIAN_POINT('',(48.140447215707,1.749303030303E-14,
    5.133238753883));
#1417 = DIRECTION('',(-0.389722413022,1.E-17,-0.920932375796));
#1418 = DIRECTION('',(0.920932375796,0.,-0.389722413022));
#1419 = PCURVE('',#441,#1420);
#1420 = DEFINITIONAL_REPRESENTATION('',(#1421),#1425);
#1421 = LINE('',#1422,#1423);
#1422 = CARTESIAN_POINT('',(4.231824434289E-18,-0.484848484848));
#1423 = VECTOR('',#1424,1.);
#1424 = DIRECTION('',(1.,0.));
#1425 = ( GEOMETRIC_REPRESENTATION_CONTEXT(2) 
PARAMETRIC_REPRESENTATION_CONTEXT() REPRESENTATION_CONTEXT('2D SPACE',''
  ) );
#1426 = PCURVE('',#1368,#1427);
#1427 = DEFINITIONAL_REPRESENTATION('',(#1428),#1432);
#1428 = LINE('',#1429,#1430);
#1429 = CARTESIAN_POINT('',(6.28318530718,0.484848484848));
#1430 = VECTOR('',#1431,1.);
#1431 = DIRECTION('',(-1.,0.));
#1432 = ( GEOMETRIC_REPRESENTATION_CONTEXT(2) 
PARAMETRIC_REPRESENTATION_CONTEXT() REPRESENTATION_CONTEXT('2D SPACE',''
  ) );
#1433 = ORIENTED_EDGE('',*,*,#1434,.F.);
#1434 = EDGE_CURVE('',#397,#1411,#1435,.T.);
#1435 = SURFACE_CURVE('',#1436,(#1440,#1447),.PCURVE_S1.);
#1436 = LINE('',#1437,#1438);
#1437 = CARTESIAN_POINT('',(48.18172398819,5.394209858728,4.589295483575
    ));
#1438 = VECTOR('',#1439,1.);
#1439 = DIRECTION('',(-0.389722413022,0.,-0.920932375796));
#1440 = PCURVE('',#441,#1441);
#1441 = DEFINITIONAL_REPRESENTATION('',(#1442),#1446);
#1442 = LINE('',#1443,#1444);
#1443 = CARTESIAN_POINT('',(4.758701830824,-5.551115123126E-17));
#1444 = VECTOR('',#1445,1.);
#1445 = DIRECTION('',(0.,1.));
#1446 = ( GEOMETRIC_REPRESENTATION_CONTEXT(2) 
PARAMETRIC_REPRESENTATION_CONTEXT() REPRESENTATION_CONTEXT('2D SPACE',''
  ) );
#1447 = PCURVE('',#412,#1448);
#1448 = DEFINITIONAL_REPRESENTATION('',(#1449),#1453);
#1449 = LINE('',#1450,#1451);
#1450 = CARTESIAN_POINT('',(1.359220481563,-2.22044604925E-16));
#1451 = VECTOR('',#1452,1.);
#1452 = DIRECTION('',(0.,1.));
#1453 = ( GEOMETRIC_REPRESENTATION_CONTEXT(2) 
PARAMETRIC_REPRESENTATION_CONTEXT() REPRESENTATION_CONTEXT('2D SPACE',''
  ) );
#1454 = ORIENTED_EDGE('',*,*,#424,.T.);
#1455 = ADVANCED_FACE('',(#1456),#412,.F.);
#1456 = FACE_BOUND('',#1457,.F.);
#1457 = EDGE_LOOP('',(#1458,#1481,#1506,#1507));
#1458 = ORIENTED_EDGE('',*,*,#1459,.F.);
#1459 = EDGE_CURVE('',#1460,#368,#1462,.T.);
#1460 = VERTEX_POINT('',#1461);
#1461 = CARTESIAN_POINT('',(48.18172398819,4.753430340291,4.589295483575
    ));
#1462 = SURFACE_CURVE('',#1463,(#1467,#1474),.PCURVE_S1.);
#1463 = LINE('',#1464,#1465);
#1464 = CARTESIAN_POINT('',(48.18172398819,4.753430340291,4.589295483575
    ));
#1465 = VECTOR('',#1466,1.);
#1466 = DIRECTION('',(0.389722413022,0.,0.920932375796));
#1467 = PCURVE('',#412,#1468);
#1468 = DEFINITIONAL_REPRESENTATION('',(#1469),#1473);
#1469 = LINE('',#1470,#1471);
#1470 = CARTESIAN_POINT('',(2.,-2.22044604925E-16));
#1471 = VECTOR('',#1472,1.);
#1472 = DIRECTION('',(0.,-1.));
#1473 = ( GEOMETRIC_REPRESENTATION_CONTEXT(2) 
PARAMETRIC_REPRESENTATION_CONTEXT() REPRESENTATION_CONTEXT('2D SPACE',''
  ) );
#1474 = PCURVE('',#384,#1475);
#1475 = DEFINITIONAL_REPRESENTATION('',(#1476),#1480);
#1476 = LINE('',#1477,#1478);
#1477 = CARTESIAN_POINT('',(3.194137838166,0.));
#1478 = VECTOR('',#1479,1.);
#1479 = DIRECTION('',(0.,-1.));
#1480 = ( GEOMETRIC_REPRESENTATION_CONTEXT(2) 
PARAMETRIC_REPRESENTATION_CONTEXT() REPRESENTATION_CONTEXT('2D SPACE',''
  ) );
#1481 = ORIENTED_EDGE('',*,*,#1482,.F.);
#1482 = EDGE_CURVE('',#1411,#1460,#1483,.T.);
#1483 = SURFACE_CURVE('',#1484,(#1489,#1496),.PCURVE_S1.);
#1484 = HYPERBOLA('',#1485,0.189393939394,0.25);
#1485 = AXIS2_PLACEMENT_3D('',#1486,#1487,#1488);
#1486 = CARTESIAN_POINT('',(46.776361347293,4.973799150321E-14,
    1.268357522373));
#1487 = DIRECTION('',(0.920932375796,2.693898849686E-16,-0.389722413022)
  );
#1488 = DIRECTION('',(0.389722413022,0.,0.920932375796));
#1489 = PCURVE('',#412,#1490);
#1490 = DEFINITIONAL_REPRESENTATION('',(#1491),#1495);
#1491 = HYPERBOLA('',#1492,0.189393939394,0.25);
#1492 = AXIS2_PLACEMENT_2D('',#1493,#1494);
#1493 = CARTESIAN_POINT('',(6.753430340291,3.606060606061));
#1494 = DIRECTION('',(0.,-1.));
#1495 = ( GEOMETRIC_REPRESENTATION_CONTEXT(2) 
PARAMETRIC_REPRESENTATION_CONTEXT() REPRESENTATION_CONTEXT('2D SPACE',''
  ) );
#1496 = PCURVE('',#1368,#1497);
#1497 = DEFINITIONAL_REPRESENTATION('',(#1498),#1505);
#1498 = B_SPLINE_CURVE_WITH_KNOTS('',5,(#1499,#1500,#1501,#1502,#1503,
    #1504),.UNSPECIFIED.,.F.,.F.,(6,6),(-3.765304227292,-3.638998881396)
  ,.PIECEWISE_BEZIER_KNOTS.);
#1499 = CARTESIAN_POINT('',(1.524483476355,0.484848484849));
#1500 = CARTESIAN_POINT('',(1.523313982412,0.381618554236));
#1501 = CARTESIAN_POINT('',(1.522107599736,0.281651745045));
#1502 = CARTESIAN_POINT('',(1.520862780209,0.184810824488));
#1503 = CARTESIAN_POINT('',(1.519577879045,9.096722171604E-02));
#1504 = CARTESIAN_POINT('',(1.518251142218,1.283816823108E-14));
#1505 = ( GEOMETRIC_REPRESENTATION_CONTEXT(2) 
PARAMETRIC_REPRESENTATION_CONTEXT() REPRESENTATION_CONTEXT('2D SPACE',''
  ) );
#1506 = ORIENTED_EDGE('',*,*,#1434,.F.);
#1507 = ORIENTED_EDGE('',*,*,#396,.F.);
#1508 = ADVANCED_FACE('',(#1509),#384,.T.);
#1509 = FACE_BOUND('',#1510,.T.);
#1510 = EDGE_LOOP('',(#1511,#1539,#1560,#1561));
#1511 = ORIENTED_EDGE('',*,*,#1512,.F.);
#1512 = EDGE_CURVE('',#1513,#1460,#1515,.T.);
#1513 = VERTEX_POINT('',#1514);
#1514 = CARTESIAN_POINT('',(47.721257800293,4.753430340291,
    4.784156690086));
#1515 = SURFACE_CURVE('',#1516,(#1521,#1528),.PCURVE_S1.);
#1516 = CIRCLE('',#1517,4.76);
#1517 = AXIS2_PLACEMENT_3D('',#1518,#1519,#1520);
#1518 = CARTESIAN_POINT('',(47.951490894242,4.263256414561E-14,
    4.68672608683));
#1519 = DIRECTION('',(-0.389722413022,7.468442670135E-17,-0.920932375796
    ));
#1520 = DIRECTION('',(2.269256504842E-16,-1.,-1.771274884801E-16));
#1521 = PCURVE('',#384,#1522);
#1522 = DEFINITIONAL_REPRESENTATION('',(#1523),#1527);
#1523 = LINE('',#1524,#1525);
#1524 = CARTESIAN_POINT('',(0.,0.));
#1525 = VECTOR('',#1526,1.);
#1526 = DIRECTION('',(1.,0.));
#1527 = ( GEOMETRIC_REPRESENTATION_CONTEXT(2) 
PARAMETRIC_REPRESENTATION_CONTEXT() REPRESENTATION_CONTEXT('2D SPACE',''
  ) );
#1528 = PCURVE('',#839,#1529);
#1529 = DEFINITIONAL_REPRESENTATION('',(#1530),#1538);
#1530 = ( BOUNDED_CURVE() B_SPLINE_CURVE(2,(#1531,#1532,#1533,#1534,
#1535,#1536,#1537),.UNSPECIFIED.,.T.,.F.) B_SPLINE_CURVE_WITH_KNOTS((1,2
    ,2,2,2,1),(-2.094395102393,0.,2.094395102393,4.188790204786,
6.28318530718,8.377580409573),.UNSPECIFIED.) CURVE() 
GEOMETRIC_REPRESENTATION_ITEM() RATIONAL_B_SPLINE_CURVE((1.,0.5,1.,0.5,
1.,0.5,1.)) REPRESENTATION_ITEM('') );
#1531 = CARTESIAN_POINT('',(3.199767722777E-14,-4.76));
#1532 = CARTESIAN_POINT('',(-8.244561844028,-4.76));
#1533 = CARTESIAN_POINT('',(-4.122280922014,2.38));
#1534 = CARTESIAN_POINT('',(2.686177740127E-14,9.52));
#1535 = CARTESIAN_POINT('',(4.122280922014,2.38));
#1536 = CARTESIAN_POINT('',(8.244561844028,-4.76));
#1537 = CARTESIAN_POINT('',(3.199767722777E-14,-4.76));
#1538 = ( GEOMETRIC_REPRESENTATION_CONTEXT(2) 
PARAMETRIC_REPRESENTATION_CONTEXT() REPRESENTATION_CONTEXT('2D SPACE',''
  ) );
#1539 = ORIENTED_EDGE('',*,*,#1540,.T.);
#1540 = EDGE_CURVE('',#1513,#340,#1541,.T.);
#1541 = SURFACE_CURVE('',#1542,(#1546,#1553),.PCURVE_S1.);
#1542 = LINE('',#1543,#1544);
#1543 = CARTESIAN_POINT('',(47.721257800293,4.753430340291,
    4.784156690086));
#1544 = VECTOR('',#1545,1.);
#1545 = DIRECTION('',(0.389722413022,0.,0.920932375796));
#1546 = PCURVE('',#384,#1547);
#1547 = DEFINITIONAL_REPRESENTATION('',(#1548),#1552);
#1548 = LINE('',#1549,#1550);
#1549 = CARTESIAN_POINT('',(3.089047469013,0.));
#1550 = VECTOR('',#1551,1.);
#1551 = DIRECTION('',(0.,-1.));
#1552 = ( GEOMETRIC_REPRESENTATION_CONTEXT(2) 
PARAMETRIC_REPRESENTATION_CONTEXT() REPRESENTATION_CONTEXT('2D SPACE',''
  ) );
#1553 = PCURVE('',#355,#1554);
#1554 = DEFINITIONAL_REPRESENTATION('',(#1555),#1559);
#1555 = LINE('',#1556,#1557);
#1556 = CARTESIAN_POINT('',(0.,0.));
#1557 = VECTOR('',#1558,1.);
#1558 = DIRECTION('',(0.,-1.));
#1559 = ( GEOMETRIC_REPRESENTATION_CONTEXT(2) 
PARAMETRIC_REPRESENTATION_CONTEXT() REPRESENTATION_CONTEXT('2D SPACE',''
  ) );
#1560 = ORIENTED_EDGE('',*,*,#367,.T.);
#1561 = ORIENTED_EDGE('',*,*,#1459,.F.);
#1562 = ADVANCED_FACE('',(#1563),#355,.F.);
#1563 = FACE_BOUND('',#1564,.F.);
#1564 = EDGE_LOOP('',(#1565,#1592,#1593,#1594));
#1565 = ORIENTED_EDGE('',*,*,#1566,.F.);
#1566 = EDGE_CURVE('',#1513,#1567,#1569,.T.);
#1567 = VERTEX_POINT('',#1568);
#1568 = CARTESIAN_POINT('',(47.910214121758,5.394209858728,
    5.230669357138));
#1569 = SURFACE_CURVE('',#1570,(#1575,#1582),.PCURVE_S1.);
#1570 = HYPERBOLA('',#1571,0.189393939394,0.25);
#1571 = AXIS2_PLACEMENT_3D('',#1572,#1573,#1574);
#1572 = CARTESIAN_POINT('',(46.315895159395,4.973799150321E-14,
    1.463218728884));
#1573 = DIRECTION('',(-0.920932375796,-2.693898849686E-16,0.389722413022
    ));
#1574 = DIRECTION('',(0.389722413022,0.,0.920932375796));
#1575 = PCURVE('',#355,#1576);
#1576 = DEFINITIONAL_REPRESENTATION('',(#1577),#1581);
#1577 = HYPERBOLA('',#1578,0.189393939394,0.25);
#1578 = AXIS2_PLACEMENT_2D('',#1579,#1580);
#1579 = CARTESIAN_POINT('',(-4.753430340291,3.606060606061));
#1580 = DIRECTION('',(0.,-1.));
#1581 = ( GEOMETRIC_REPRESENTATION_CONTEXT(2) 
PARAMETRIC_REPRESENTATION_CONTEXT() REPRESENTATION_CONTEXT('2D SPACE',''
  ) );
#1582 = PCURVE('',#782,#1583);
#1583 = DEFINITIONAL_REPRESENTATION('',(#1584),#1591);
#1584 = B_SPLINE_CURVE_WITH_KNOTS('',5,(#1585,#1586,#1587,#1588,#1589,
    #1590),.UNSPECIFIED.,.F.,.F.,(6,6),(3.638998881396,3.765304227292),
  .PIECEWISE_BEZIER_KNOTS.);
#1585 = CARTESIAN_POINT('',(1.623341511372,1.111518500733E-14));
#1586 = CARTESIAN_POINT('',(1.622014774545,9.096722171604E-02));
#1587 = CARTESIAN_POINT('',(1.620729873381,0.184810824488));
#1588 = CARTESIAN_POINT('',(1.619485053854,0.281651745045));
#1589 = CARTESIAN_POINT('',(1.618278671178,0.381618554236));
#1590 = CARTESIAN_POINT('',(1.617109177234,0.484848484849));
#1591 = ( GEOMETRIC_REPRESENTATION_CONTEXT(2) 
PARAMETRIC_REPRESENTATION_CONTEXT() REPRESENTATION_CONTEXT('2D SPACE',''
  ) );
#1592 = ORIENTED_EDGE('',*,*,#1540,.T.);
#1593 = ORIENTED_EDGE('',*,*,#339,.F.);
#1594 = ORIENTED_EDGE('',*,*,#1595,.T.);
#1595 = EDGE_CURVE('',#311,#1567,#1596,.T.);
#1596 = SURFACE_CURVE('',#1597,(#1601,#1608),.PCURVE_S1.);
#1597 = LINE('',#1598,#1599);
#1598 = CARTESIAN_POINT('',(47.721257800293,5.394209858728,
    4.784156690086));
#1599 = VECTOR('',#1600,1.);
#1600 = DIRECTION('',(-0.389722413022,0.,-0.920932375796));
#1601 = PCURVE('',#355,#1602);
#1602 = DEFINITIONAL_REPRESENTATION('',(#1603),#1607);
#1603 = LINE('',#1604,#1605);
#1604 = CARTESIAN_POINT('',(0.640779518437,3.885780586188E-16));
#1605 = VECTOR('',#1606,1.);
#1606 = DIRECTION('',(0.,1.));
#1607 = ( GEOMETRIC_REPRESENTATION_CONTEXT(2) 
PARAMETRIC_REPRESENTATION_CONTEXT() REPRESENTATION_CONTEXT('2D SPACE',''
  ) );
#1608 = PCURVE('',#327,#1609);
#1609 = DEFINITIONAL_REPRESENTATION('',(#1610),#1614);
#1610 = LINE('',#1611,#1612);
#1611 = CARTESIAN_POINT('',(4.666076129945,1.665334536938E-16));
#1612 = VECTOR('',#1613,1.);
#1613 = DIRECTION('',(0.,1.));
#1614 = ( GEOMETRIC_REPRESENTATION_CONTEXT(2) 
PARAMETRIC_REPRESENTATION_CONTEXT() REPRESENTATION_CONTEXT('2D SPACE',''
  ) );
#1615 = ADVANCED_FACE('',(#1616),#327,.T.);
#1616 = FACE_BOUND('',#1617,.T.);
#1617 = EDGE_LOOP('',(#1618,#1619,#1641,#1642));
#1618 = ORIENTED_EDGE('',*,*,#1595,.T.);
#1619 = ORIENTED_EDGE('',*,*,#1620,.F.);
#1620 = EDGE_CURVE('',#766,#1567,#1621,.T.);
#1621 = SURFACE_CURVE('',#1622,(#1627,#1634),.PCURVE_S1.);
#1622 = CIRCLE('',#1623,5.4);
#1623 = AXIS2_PLACEMENT_3D('',#1624,#1625,#1626);
#1624 = CARTESIAN_POINT('',(48.140447215707,1.749303030303E-14,
    5.133238753883));
#1625 = DIRECTION('',(-0.389722413022,1.E-17,-0.920932375796));
#1626 = DIRECTION('',(0.920932375796,0.,-0.389722413022));
#1627 = PCURVE('',#327,#1628);
#1628 = DEFINITIONAL_REPRESENTATION('',(#1629),#1633);
#1629 = LINE('',#1630,#1631);
#1630 = CARTESIAN_POINT('',(4.231824434289E-18,-0.484848484848));
#1631 = VECTOR('',#1632,1.);
#1632 = DIRECTION('',(1.,0.));
#1633 = ( GEOMETRIC_REPRESENTATION_CONTEXT(2) 
PARAMETRIC_REPRESENTATION_CONTEXT() REPRESENTATION_CONTEXT('2D SPACE',''
  ) );
#1634 = PCURVE('',#782,#1635);
#1635 = DEFINITIONAL_REPRESENTATION('',(#1636),#1640);
#1636 = LINE('',#1637,#1638);
#1637 = CARTESIAN_POINT('',(6.28318530718,0.484848484848));
#1638 = VECTOR('',#1639,1.);
#1639 = DIRECTION('',(-1.,0.));
#1640 = ( GEOMETRIC_REPRESENTATION_CONTEXT(2) 
PARAMETRIC_REPRESENTATION_CONTEXT() REPRESENTATION_CONTEXT('2D SPACE',''
  ) );
#1641 = ORIENTED_EDGE('',*,*,#797,.F.);
#1642 = ORIENTED_EDGE('',*,*,#310,.T.);
#1643 = ADVANCED_FACE('',(#1644),#782,.T.);
#1644 = FACE_BOUND('',#1645,.T.);
#1645 = EDGE_LOOP('',(#1646,#1647,#1669,#1670));
#1646 = ORIENTED_EDGE('',*,*,#1566,.F.);
#1647 = ORIENTED_EDGE('',*,*,#1648,.T.);
#1648 = EDGE_CURVE('',#1513,#743,#1649,.T.);
#1649 = SURFACE_CURVE('',#1650,(#1655,#1662),.PCURVE_S1.);
#1650 = CIRCLE('',#1651,4.76);
#1651 = AXIS2_PLACEMENT_3D('',#1652,#1653,#1654);
#1652 = CARTESIAN_POINT('',(47.951490894242,1.757E-14,4.68672608683));
#1653 = DIRECTION('',(0.389722413022,1.E-17,0.920932375796));
#1654 = DIRECTION('',(0.920932375796,0.,-0.389722413022));
#1655 = PCURVE('',#782,#1656);
#1656 = DEFINITIONAL_REPRESENTATION('',(#1657),#1661);
#1657 = LINE('',#1658,#1659);
#1658 = CARTESIAN_POINT('',(0.,0.));
#1659 = VECTOR('',#1660,1.);
#1660 = DIRECTION('',(1.,0.));
#1661 = ( GEOMETRIC_REPRESENTATION_CONTEXT(2) 
PARAMETRIC_REPRESENTATION_CONTEXT() REPRESENTATION_CONTEXT('2D SPACE',''
  ) );
#1662 = PCURVE('',#839,#1663);
#1663 = DEFINITIONAL_REPRESENTATION('',(#1664),#1668);
#1664 = CIRCLE('',#1665,4.76);
#1665 = AXIS2_PLACEMENT_2D('',#1666,#1667);
#1666 = CARTESIAN_POINT('',(0.,-3.9E-16));
#1667 = DIRECTION('',(1.,0.));
#1668 = ( GEOMETRIC_REPRESENTATION_CONTEXT(2) 
PARAMETRIC_REPRESENTATION_CONTEXT() REPRESENTATION_CONTEXT('2D SPACE',''
  ) );
#1669 = ORIENTED_EDGE('',*,*,#765,.F.);
#1670 = ORIENTED_EDGE('',*,*,#1620,.T.);
#1671 = ADVANCED_FACE('',(#1672),#839,.F.);
#1672 = FACE_BOUND('',#1673,.F.);
#1673 = EDGE_LOOP('',(#1674,#1675,#1697,#1698,#1699,#1700,#1722,#1723,
    #1724,#1746));
#1674 = ORIENTED_EDGE('',*,*,#1277,.T.);
#1675 = ORIENTED_EDGE('',*,*,#1676,.T.);
#1676 = EDGE_CURVE('',#1280,#1460,#1677,.T.);
#1677 = SURFACE_CURVE('',#1678,(#1683,#1690),.PCURVE_S1.);
#1678 = CIRCLE('',#1679,4.76);
#1679 = AXIS2_PLACEMENT_3D('',#1680,#1681,#1682);
#1680 = CARTESIAN_POINT('',(47.951490894242,1.757E-14,4.68672608683));
#1681 = DIRECTION('',(0.389722413022,1.E-17,0.920932375796));
#1682 = DIRECTION('',(0.920932375796,0.,-0.389722413022));
#1683 = PCURVE('',#839,#1684);
#1684 = DEFINITIONAL_REPRESENTATION('',(#1685),#1689);
#1685 = CIRCLE('',#1686,4.76);
#1686 = AXIS2_PLACEMENT_2D('',#1687,#1688);
#1687 = CARTESIAN_POINT('',(0.,-3.9E-16));
#1688 = DIRECTION('',(1.,0.));
#1689 = ( GEOMETRIC_REPRESENTATION_CONTEXT(2) 
PARAMETRIC_REPRESENTATION_CONTEXT() REPRESENTATION_CONTEXT('2D SPACE',''
  ) );
#1690 = PCURVE('',#1368,#1691);
#1691 = DEFINITIONAL_REPRESENTATION('',(#1692),#1696);
#1692 = LINE('',#1693,#1694);
#1693 = CARTESIAN_POINT('',(0.,0.));
#1694 = VECTOR('',#1695,1.);
#1695 = DIRECTION('',(1.,0.));
#1696 = ( GEOMETRIC_REPRESENTATION_CONTEXT(2) 
PARAMETRIC_REPRESENTATION_CONTEXT() REPRESENTATION_CONTEXT('2D SPACE',''
  ) );
#1697 = ORIENTED_EDGE('',*,*,#1512,.F.);
#1698 = ORIENTED_EDGE('',*,*,#1648,.T.);
#1699 = ORIENTED_EDGE('',*,*,#822,.F.);
#1700 = ORIENTED_EDGE('',*,*,#1701,.T.);
#1701 = EDGE_CURVE('',#823,#990,#1702,.T.);
#1702 = SURFACE_CURVE('',#1703,(#1708,#1715),.PCURVE_S1.);
#1703 = CIRCLE('',#1704,4.76);
#1704 = AXIS2_PLACEMENT_3D('',#1705,#1706,#1707);
#1705 = CARTESIAN_POINT('',(47.951490894242,1.757E-14,4.68672608683));
#1706 = DIRECTION('',(0.389722413022,1.E-17,0.920932375796));
#1707 = DIRECTION('',(0.920932375796,0.,-0.389722413022));
#1708 = PCURVE('',#839,#1709);
#1709 = DEFINITIONAL_REPRESENTATION('',(#1710),#1714);
#1710 = CIRCLE('',#1711,4.76);
#1711 = AXIS2_PLACEMENT_2D('',#1712,#1713);
#1712 = CARTESIAN_POINT('',(0.,-3.9E-16));
#1713 = DIRECTION('',(1.,0.));
#1714 = ( GEOMETRIC_REPRESENTATION_CONTEXT(2) 
PARAMETRIC_REPRESENTATION_CONTEXT() REPRESENTATION_CONTEXT('2D SPACE',''
  ) );
#1715 = PCURVE('',#898,#1716);
#1716 = DEFINITIONAL_REPRESENTATION('',(#1717),#1721);
#1717 = LINE('',#1718,#1719);
#1718 = CARTESIAN_POINT('',(0.,0.));
#1719 = VECTOR('',#1720,1.);
#1720 = DIRECTION('',(1.,0.));
#1721 = ( GEOMETRIC_REPRESENTATION_CONTEXT(2) 
PARAMETRIC_REPRESENTATION_CONTEXT() REPRESENTATION_CONTEXT('2D SPACE',''
  ) );
#1722 = ORIENTED_EDGE('',*,*,#1091,.T.);
#1723 = ORIENTED_EDGE('',*,*,#1042,.T.);
#1724 = ORIENTED_EDGE('',*,*,#1725,.T.);
#1725 = EDGE_CURVE('',#1045,#1225,#1726,.T.);
#1726 = SURFACE_CURVE('',#1727,(#1732,#1739),.PCURVE_S1.);
#1727 = CIRCLE('',#1728,4.76);
#1728 = AXIS2_PLACEMENT_3D('',#1729,#1730,#1731);
#1729 = CARTESIAN_POINT('',(47.951490894242,1.757E-14,4.68672608683));
#1730 = DIRECTION('',(0.389722413022,1.E-17,0.920932375796));
#1731 = DIRECTION('',(0.920932375796,0.,-0.389722413022));
#1732 = PCURVE('',#839,#1733);
#1733 = DEFINITIONAL_REPRESENTATION('',(#1734),#1738);
#1734 = CIRCLE('',#1735,4.76);
#1735 = AXIS2_PLACEMENT_2D('',#1736,#1737);
#1736 = CARTESIAN_POINT('',(0.,-3.9E-16));
#1737 = DIRECTION('',(1.,0.));
#1738 = ( GEOMETRIC_REPRESENTATION_CONTEXT(2) 
PARAMETRIC_REPRESENTATION_CONTEXT() REPRESENTATION_CONTEXT('2D SPACE',''
  ) );
#1739 = PCURVE('',#1133,#1740);
#1740 = DEFINITIONAL_REPRESENTATION('',(#1741),#1745);
#1741 = LINE('',#1742,#1743);
#1742 = CARTESIAN_POINT('',(0.,0.));
#1743 = VECTOR('',#1744,1.);
#1744 = DIRECTION('',(1.,0.));
#1745 = ( GEOMETRIC_REPRESENTATION_CONTEXT(2) 
PARAMETRIC_REPRESENTATION_CONTEXT() REPRESENTATION_CONTEXT('2D SPACE',''
  ) );
#1746 = ORIENTED_EDGE('',*,*,#1326,.T.);
#1747 = ADVANCED_FACE('',(#1748),#898,.T.);
#1748 = FACE_BOUND('',#1749,.T.);
#1749 = EDGE_LOOP('',(#1750,#1751,#1752,#1753));
#1750 = ORIENTED_EDGE('',*,*,#881,.F.);
#1751 = ORIENTED_EDGE('',*,*,#1701,.T.);
#1752 = ORIENTED_EDGE('',*,*,#1012,.F.);
#1753 = ORIENTED_EDGE('',*,*,#939,.T.);
#1754 = ADVANCED_FACE('',(#1755),#1133,.T.);
#1755 = FACE_BOUND('',#1756,.T.);
#1756 = EDGE_LOOP('',(#1757,#1758,#1759,#1760));
#1757 = ORIENTED_EDGE('',*,*,#1116,.F.);
#1758 = ORIENTED_EDGE('',*,*,#1725,.T.);
#1759 = ORIENTED_EDGE('',*,*,#1247,.F.);
#1760 = ORIENTED_EDGE('',*,*,#1174,.T.);
#1761 = ADVANCED_FACE('',(#1762),#1368,.T.);
#1762 = FACE_BOUND('',#1763,.T.);
#1763 = EDGE_LOOP('',(#1764,#1765,#1766,#1767));
#1764 = ORIENTED_EDGE('',*,*,#1351,.F.);
#1765 = ORIENTED_EDGE('',*,*,#1676,.T.);
#1766 = ORIENTED_EDGE('',*,*,#1482,.F.);
#1767 = ORIENTED_EDGE('',*,*,#1410,.T.);
#1768 = ( GEOMETRIC_REPRESENTATION_CONTEXT(3) 
GLOBAL_UNCERTAINTY_ASSIGNED_CONTEXT((#1772)) 
GLOBAL_UNIT_ASSIGNED_CONTEXT((#1769,#1770,#1771)) REPRESENTATION_CONTEXT
('Context #1','3D Context with UNIT and UNCERTAINTY') );
#1769 = ( LENGTH_UNIT() NAMED_UNIT(*) SI_UNIT(.MILLI.,.METRE.) );
#1770 = ( NAMED_UNIT(*) PLANE_ANGLE_UNIT() SI_UNIT($,.RADIAN.) );
#1771 = ( NAMED_UNIT(*) SI_UNIT($,.STERADIAN.) SOLID_ANGLE_UNIT() );
#1772 = UNCERTAINTY_MEASURE_WITH_UNIT(LENGTH_MEASURE(1.E-07),#1769,
  'distance_accuracy_value','confusion accuracy');
#1773 = CONTEXT_DEPENDENT_SHAPE_REPRESENTATION(#1774,#1776);
#1774 = ( REPRESENTATION_RELATIONSHIP('','',#32,#10) 
REPRESENTATION_RELATIONSHIP_WITH_TRANSFORMATION(#1775) 
SHAPE_REPRESENTATION_RELATIONSHIP() );
#1775 = ITEM_DEFINED_TRANSFORMATION('','',#11,#15);
#1776 = PRODUCT_DEFINITION_SHAPE('Placement','Placement of an item',
  #1777);
#1777 = NEXT_ASSEMBLY_USAGE_OCCURRENCE('1','Body002','',#5,#27,$);
#1778 = PRODUCT_RELATED_PRODUCT_CATEGORY('part',$,(#29));
#1779 = MECHANICAL_DESIGN_GEOMETRIC_PRESENTATION_REPRESENTATION('',(
    #1780),#1768);
#1780 = STYLED_ITEM('color',(#1781),#33);
#1781 = PRESENTATION_STYLE_ASSIGNMENT((#1782,#1788));
#1782 = SURFACE_STYLE_USAGE(.BOTH.,#1783);
#1783 = SURFACE_SIDE_STYLE('',(#1784));
#1784 = SURFACE_STYLE_FILL_AREA(#1785);
#1785 = FILL_AREA_STYLE('',(#1786));
#1786 = FILL_AREA_STYLE_COLOUR('',#1787);
#1787 = COLOUR_RGB('',0.800000010877,0.800000010877,0.800000010877);
#1788 = CURVE_STYLE('',#1789,POSITIVE_LENGTH_MEASURE(0.1),#1790);
#1789 = DRAUGHTING_PRE_DEFINED_CURVE_FONT('continuous');
#1790 = COLOUR_RGB('',9.803921802644E-02,9.803921802644E-02,
  9.803921802644E-02);
ENDSEC;
END-ISO-10303-21;
