<?xml version="1.0" encoding="UTF-8" standalone="no"?>
<!DOCTYPE svg PUBLIC "-//W3C//DTD SVG 1.1//EN" "http://www.w3.org/Graphics/SVG/1.1/DTD/svg11.dtd">
<svg width="100%" height="100%" viewBox="0 0 2550 3300" version="1.1" xmlns="http://www.w3.org/2000/svg" xmlns:xlink="http://www.w3.org/1999/xlink" xml:space="preserve" xmlns:serif="http://www.serif.com/" style="fill-rule:evenodd;clip-rule:evenodd;stroke-linecap:round;stroke-linejoin:round;stroke-miterlimit:1.5;">
    <path d="M1261,563C1261,563 1985,499.4 1985,1027C1985,1588.6 1261,1519.96 1261,1519.96L1261,1458.73C1261,1458.73 1842.78,1464.48 1843.54,1025.4C1844.24,620.007 1261,623.551 1261,623.551L1261,563Z" style="fill:rgb(36,36,96);stroke:black;stroke-width:1px;"/>
    <g transform="matrix(-1,-1.22465e-16,1.22465e-16,-1,2438.18,2982.92)">
        <path d="M1261,563C1261,563 1985,499.4 1985,1027C1985,1588.6 1261,1519.96 1261,1519.96L1261,1458.73C1261,1458.73 1842.78,1464.48 1843.54,1025.4C1844.24,620.007 1261,623.551 1261,623.551L1261,563Z" style="fill:rgb(36,36,96);stroke:black;stroke-width:1px;"/>
    </g>
    <g transform="matrix(1.90348,0,0,1.01235,-1165.94,-12.0153)">
        <rect x="1230.96" y="568" width="44.036" height="2348" style="fill:rgb(25,79,15);"/>
    </g>
</svg>
