ISO-10303-21;
HEADER;
FILE_DESCRIPTION(('FreeCAD Model'),'2;1');
FILE_NAME('Open CASCADE Shape Model','2026-08-02T18:07:41',(''),(''),
  'Open CASCADE STEP processor 7.8','FreeCAD','Unknown');
FILE_SCHEMA(('AUTOMOTIVE_DESIGN { 1 0 10303 214 1 1 1 1 }'));
ENDSEC;
DATA;
#1 = APPLICATION_PROTOCOL_DEFINITION('international standard',
  'automotive_design',2000,#2);
#2 = APPLICATION_CONTEXT(
  'core data for automotive mechanical design processes');
#3 = SHAPE_DEFINITION_REPRESENTATION(#4,#10);
#4 = PRODUCT_DEFINITION_SHAPE('','',#5);
#5 = PRODUCT_DEFINITION('design','',#6,#9);
#6 = PRODUCT_DEFINITION_FORMATION('','',#7);
#7 = PRODUCT('Body001','Body001','',(#8));
#8 = PRODUCT_CONTEXT('',#2,'mechanical');
#9 = PRODUCT_DEFINITION_CONTEXT('part definition',#2,'design');
#10 = ADVANCED_BREP_SHAPE_REPRESENTATION('',(#11,#15),#1195);
#11 = AXIS2_PLACEMENT_3D('',#12,#13,#14);
#12 = CARTESIAN_POINT('',(0.,0.,0.));
#13 = DIRECTION('',(0.,0.,1.));
#14 = DIRECTION('',(1.,0.,-0.));
#15 = MANIFOLD_SOLID_BREP('',#16);
#16 = CLOSED_SHELL('',(#17,#641,#757,#761,#765,#833,#922,#1164,#1190));
#17 = ADVANCED_FACE('',(#18),#32,.T.);
#18 = FACE_BOUND('',#19,.F.);
#19 = EDGE_LOOP('',(#20,#50,#77,#78,#202,#464,#487,#514,#515));
#20 = ORIENTED_EDGE('',*,*,#21,.F.);
#21 = EDGE_CURVE('',#22,#24,#26,.T.);
#22 = VERTEX_POINT('',#23);
#23 = CARTESIAN_POINT('',(11.7,0.,-15.));
#24 = VERTEX_POINT('',#25);
#25 = CARTESIAN_POINT('',(11.7,-2.865673510005E-15,-2.75));
#26 = SEAM_CURVE('',#27,(#31,#43),.PCURVE_S1.);
#27 = LINE('',#28,#29);
#28 = CARTESIAN_POINT('',(11.7,0.,-15.));
#29 = VECTOR('',#30,1.);
#30 = DIRECTION('',(0.,0.,1.));
#31 = PCURVE('',#32,#37);
#32 = CYLINDRICAL_SURFACE('',#33,11.7);
#33 = AXIS2_PLACEMENT_3D('',#34,#35,#36);
#34 = CARTESIAN_POINT('',(0.,0.,-15.));
#35 = DIRECTION('',(-0.,-0.,-1.));
#36 = DIRECTION('',(1.,0.,0.));
#37 = DEFINITIONAL_REPRESENTATION('',(#38),#42);
#38 = LINE('',#39,#40);
#39 = CARTESIAN_POINT('',(-6.28318530718,0.));
#40 = VECTOR('',#41,1.);
#41 = DIRECTION('',(-0.,-1.));
#42 = ( GEOMETRIC_REPRESENTATION_CONTEXT(2) 
PARAMETRIC_REPRESENTATION_CONTEXT() REPRESENTATION_CONTEXT('2D SPACE',''
  ) );
#43 = PCURVE('',#32,#44);
#44 = DEFINITIONAL_REPRESENTATION('',(#45),#49);
#45 = LINE('',#46,#47);
#46 = CARTESIAN_POINT('',(-0.,0.));
#47 = VECTOR('',#48,1.);
#48 = DIRECTION('',(-0.,-1.));
#49 = ( GEOMETRIC_REPRESENTATION_CONTEXT(2) 
PARAMETRIC_REPRESENTATION_CONTEXT() REPRESENTATION_CONTEXT('2D SPACE',''
  ) );
#50 = ORIENTED_EDGE('',*,*,#51,.F.);
#51 = EDGE_CURVE('',#22,#22,#52,.T.);
#52 = SURFACE_CURVE('',#53,(#58,#65),.PCURVE_S1.);
#53 = CIRCLE('',#54,11.7);
#54 = AXIS2_PLACEMENT_3D('',#55,#56,#57);
#55 = CARTESIAN_POINT('',(0.,0.,-15.));
#56 = DIRECTION('',(0.,0.,1.));
#57 = DIRECTION('',(1.,0.,0.));
#58 = PCURVE('',#32,#59);
#59 = DEFINITIONAL_REPRESENTATION('',(#60),#64);
#60 = LINE('',#61,#62);
#61 = CARTESIAN_POINT('',(-0.,0.));
#62 = VECTOR('',#63,1.);
#63 = DIRECTION('',(-1.,0.));
#64 = ( GEOMETRIC_REPRESENTATION_CONTEXT(2) 
PARAMETRIC_REPRESENTATION_CONTEXT() REPRESENTATION_CONTEXT('2D SPACE',''
  ) );
#65 = PCURVE('',#66,#71);
#66 = PLANE('',#67);
#67 = AXIS2_PLACEMENT_3D('',#68,#69,#70);
#68 = CARTESIAN_POINT('',(-9.35001800027E-16,4.573895483595E-16,-15.));
#69 = DIRECTION('',(0.,0.,1.));
#70 = DIRECTION('',(1.,0.,0.));
#71 = DEFINITIONAL_REPRESENTATION('',(#72),#76);
#72 = CIRCLE('',#73,11.7);
#73 = AXIS2_PLACEMENT_2D('',#74,#75);
#74 = CARTESIAN_POINT('',(9.35001800027E-16,-4.573895483595E-16));
#75 = DIRECTION('',(1.,0.));
#76 = ( GEOMETRIC_REPRESENTATION_CONTEXT(2) 
PARAMETRIC_REPRESENTATION_CONTEXT() REPRESENTATION_CONTEXT('2D SPACE',''
  ) );
#77 = ORIENTED_EDGE('',*,*,#21,.T.);
#78 = ORIENTED_EDGE('',*,*,#79,.T.);
#79 = EDGE_CURVE('',#24,#80,#82,.T.);
#80 = VERTEX_POINT('',#81);
#81 = CARTESIAN_POINT('',(11.398889185235,2.637295080711,0.));
#82 = SURFACE_CURVE('',#83,(#96,#158),.PCURVE_S1.);
#83 = ( BOUNDED_CURVE() B_SPLINE_CURVE(6,(#84,#85,#86,#87,#88,#89,#90,
    #91,#92,#93,#94,#95),.UNSPECIFIED.,.F.,.F.) 
B_SPLINE_CURVE_WITH_KNOTS((7,5,7),(7.093165921282,8.687026049524,
10.634194076106),.UNSPECIFIED.) CURVE() GEOMETRIC_REPRESENTATION_ITEM() 
RATIONAL_B_SPLINE_CURVE((1.,1.,1.,1.,1.,1.,1.,1.,1.,1.,1.,1.)) 
REPRESENTATION_ITEM('') );
#84 = CARTESIAN_POINT('',(11.7,0.,-2.75));
#85 = CARTESIAN_POINT('',(11.699999998587,0.388625724445,-2.749999993406
    ));
#86 = CARTESIAN_POINT('',(11.684536731095,0.77167498311,-2.678403804172)
  );
#87 = CARTESIAN_POINT('',(11.654238831545,1.123621516546,-2.538791647757
    ));
#88 = CARTESIAN_POINT('',(11.617365113032,1.429082415742,-2.353134025737
    ));
#89 = CARTESIAN_POINT('',(11.579627143794,1.687800570682,-2.137257119314
    ));
#90 = CARTESIAN_POINT('',(11.501864671912,2.160188157601,-1.625341553074
    ));
#91 = CARTESIAN_POINT('',(11.462496613702,2.35565714813,-1.317502288848)
  );
#92 = CARTESIAN_POINT('',(11.431172148873,2.497895762194,-0.996323962427
    ));
#93 = CARTESIAN_POINT('',(11.409633944634,2.590815753378,-0.666473355059
    ));
#94 = CARTESIAN_POINT('',(11.398889972436,2.637291678278,-0.333320155501
    ));
#95 = CARTESIAN_POINT('',(11.398889185235,2.637295080711,0.));
#96 = PCURVE('',#32,#97);
#97 = DEFINITIONAL_REPRESENTATION('',(#98),#157);
#98 = B_SPLINE_CURVE_WITH_KNOTS('',9,(#99,#100,#101,#102,#103,#104,#105,
    #106,#107,#108,#109,#110,#111,#112,#113,#114,#115,#116,#117,#118,
    #119,#120,#121,#122,#123,#124,#125,#126,#127,#128,#129,#130,#131,
    #132,#133,#134,#135,#136,#137,#138,#139,#140,#141,#142,#143,#144,
    #145,#146,#147,#148,#149,#150,#151,#152,#153,#154,#155,#156),
  .UNSPECIFIED.,.F.,.F.,(10,8,8,8,8,8,8,10),(7.093165921282,
    7.978422959988,8.421051479341,8.642365739017,8.863679998694,
    9.7489370374,10.191565556753,10.634194076106),.UNSPECIFIED.);
#99 = CARTESIAN_POINT('',(-3.636290303588E-09,-12.25));
#100 = CARTESIAN_POINT('',(-1.229911137343E-02,-12.25000000244));
#101 = CARTESIAN_POINT('',(-2.453717219074E-02,-12.25920853063));
#102 = CARTESIAN_POINT('',(-3.662726782591E-02,-12.2774637777));
#103 = CARTESIAN_POINT('',(-4.849310349665E-02,-12.30441873994));
#104 = CARTESIAN_POINT('',(-6.006886762143E-02,-12.33958155443));
#105 = CARTESIAN_POINT('',(-7.129909154066E-02,-12.38235583674));
#106 = CARTESIAN_POINT('',(-8.213850923734E-02,-12.43208101852));
#107 = CARTESIAN_POINT('',(-9.255191705819E-02,-12.4880726852));
#108 = CARTESIAN_POINT('',(-0.107495091623,-12.58045802785));
#109 = CARTESIAN_POINT('',(-0.112363181878,-12.61265192079));
#110 = CARTESIAN_POINT('',(-0.117115203717,-12.64615814353));
#111 = CARTESIAN_POINT('',(-0.121748503507,-12.68089087706));
#112 = CARTESIAN_POINT('',(-0.126260874461,-12.7167649322));
#113 = CARTESIAN_POINT('',(-0.130650556645,-12.7536957497));
#114 = CARTESIAN_POINT('',(-0.134916236971,-12.79159940018));
#115 = CARTESIAN_POINT('',(-0.139057049201,-12.83039258414));
#116 = CARTESIAN_POINT('',(-0.145080336318,-12.88979265589));
#117 = CARTESIAN_POINT('',(-0.147056703215,-12.90979432631));
#118 = CARTESIAN_POINT('',(-0.149001647704,-12.92998752336));
#119 = CARTESIAN_POINT('',(-0.15091514285,-12.95036212716));
#120 = CARTESIAN_POINT('',(-0.15279716172,-12.97090801784));
#121 = CARTESIAN_POINT('',(-0.154647677381,-12.99161507551));
#122 = CARTESIAN_POINT('',(-0.1564666629,-13.0124731803));
#123 = CARTESIAN_POINT('',(-0.158254091343,-13.03347221234));
#124 = CARTESIAN_POINT('',(-0.161765780211,-13.07573189114));
#125 = CARTESIAN_POINT('',(-0.163490821172,-13.09700173775));
#126 = CARTESIAN_POINT('',(-0.165179627237,-13.11833563452));
#127 = CARTESIAN_POINT('',(-0.166846201435,-13.13989071703));
#128 = CARTESIAN_POINT('',(-0.168482603205,-13.16156658184));
#129 = CARTESIAN_POINT('',(-0.170086506739,-13.18332778519));
#130 = CARTESIAN_POINT('',(-0.171666206666,-13.20526386867));
#131 = CARTESIAN_POINT('',(-0.173215858761,-13.22729983193));
#132 = CARTESIAN_POINT('',(-0.180826665505,-13.3380931506));
#133 = CARTESIAN_POINT('',(-0.186469649105,-13.42862272866));
#134 = CARTESIAN_POINT('',(-0.191683318947,-13.52080405587));
#135 = CARTESIAN_POINT('',(-0.196481588681,-13.61442581025));
#136 = CARTESIAN_POINT('',(-0.200876231091,-13.70930368891));
#137 = CARTESIAN_POINT('',(-0.20487717162,-13.80527557519));
#138 = CARTESIAN_POINT('',(-0.2084927819,-13.90219670577));
#139 = CARTESIAN_POINT('',(-0.211730173274,-13.99993483781));
#140 = CARTESIAN_POINT('',(-0.216028148846,-14.14758070523));
#141 = CARTESIAN_POINT('',(-0.217367783083,-14.19696920136));
#142 = CARTESIAN_POINT('',(-0.218615139192,-14.24651568661));
#143 = CARTESIAN_POINT('',(-0.219770900679,-14.29620546637));
#144 = CARTESIAN_POINT('',(-0.220835688393,-14.34602436937));
#145 = CARTESIAN_POINT('',(-0.221810060524,-14.39595874753));
#146 = CARTESIAN_POINT('',(-0.22269451261,-14.44599547613));
#147 = CARTESIAN_POINT('',(-0.223489477529,-14.49612195368));
#148 = CARTESIAN_POINT('',(-0.224901173484,-14.59653025033));
#149 = CARTESIAN_POINT('',(-0.225517976313,-14.64682934604));
#150 = CARTESIAN_POINT('',(-0.226045539433,-14.69707766194));
#151 = CARTESIAN_POINT('',(-0.226486317275,-14.74773231598));
#152 = CARTESIAN_POINT('',(-0.22683580412,-14.79781442791));
#153 = CARTESIAN_POINT('',(-0.227101016364,-14.84856296618));
#154 = CARTESIAN_POINT('',(-0.227275717846,-14.89900723017));
#155 = CARTESIAN_POINT('',(-0.227363632594,-14.94945732936));
#156 = CARTESIAN_POINT('',(-0.227363677833,-14.99997069198));
#157 = ( GEOMETRIC_REPRESENTATION_CONTEXT(2) 
PARAMETRIC_REPRESENTATION_CONTEXT() REPRESENTATION_CONTEXT('2D SPACE',''
  ) );
#158 = PCURVE('',#159,#196);
#159 = ( BOUNDED_SURFACE() B_SPLINE_SURFACE(2,6,(
    (#160,#161,#162,#163,#164,#165,#166,#167,#168,#169,#170,#171)
    ,(#172,#173,#174,#175,#176,#177,#178,#179,#180,#181,#182,#183)
    ,(#184,#185,#186,#187,#188,#189,#190,#191,#192,#193,#194,#195
)),.UNSPECIFIED.,.F.,.F.,.F.) B_SPLINE_SURFACE_WITH_KNOTS((3,3),(7,5,7),
  (0.,3.541028154823),(7.093165921282,8.687026049524,10.634194076106),
.UNSPECIFIED.) GEOMETRIC_REPRESENTATION_ITEM() RATIONAL_B_SPLINE_SURFACE
((
    (1.,1.,1.,1.,1.,1.,1.,1.,1.,1.,1.,1.)
    ,(0.707106781187,0.70710678145,0.711221234295,0.719292669149
      ,0.728869129328,0.738465581404,0.757952031574,0.767605401003
      ,0.775100041493,0.780208860875,0.782754544235,0.782754698611)
,(1.,1.,1.,1.,1.,1.,1.,1.,1.,1.,1.,1.
))) REPRESENTATION_ITEM('') SURFACE() );
#160 = CARTESIAN_POINT('',(11.7,0.,-2.75));
#161 = CARTESIAN_POINT('',(11.699999998587,0.388625724445,
    -2.749999993406));
#162 = CARTESIAN_POINT('',(11.684536731095,0.77167498311,-2.678403804172
    ));
#163 = CARTESIAN_POINT('',(11.654238831545,1.123621516546,
    -2.538791647757));
#164 = CARTESIAN_POINT('',(11.617365113032,1.429082415742,
    -2.353134025737));
#165 = CARTESIAN_POINT('',(11.579627143794,1.687800570682,
    -2.137257119314));
#166 = CARTESIAN_POINT('',(11.501864671912,2.160188157601,
    -1.625341553074));
#167 = CARTESIAN_POINT('',(11.462496613702,2.35565714813,-1.317502288848
    ));
#168 = CARTESIAN_POINT('',(11.431172148873,2.497895762194,
    -0.996323962427));
#169 = CARTESIAN_POINT('',(11.409633944634,2.590815753378,
    -0.666473355059));
#170 = CARTESIAN_POINT('',(11.398889972436,2.637291678278,
    -0.333320155501));
#171 = CARTESIAN_POINT('',(11.398889185235,2.637295080711,0.));
#172 = CARTESIAN_POINT('',(11.7,-1.554312234475E-15,-2.25));
#173 = CARTESIAN_POINT('',(11.700000000262,0.316518871568,
    -2.249999999914));
#174 = CARTESIAN_POINT('',(11.690216513512,0.629706923436,
    -2.196493791682));
#175 = CARTESIAN_POINT('',(11.671451556494,0.915052830058,
    -2.094358256908));
#176 = CARTESIAN_POINT('',(11.646777934608,1.178654717193,
    -1.951062756263));
#177 = CARTESIAN_POINT('',(11.62055867503,1.403236905844,-1.779419641088
    ));
#178 = CARTESIAN_POINT('',(11.565605910412,1.815724049538,
    -1.366722199707));
#179 = CARTESIAN_POINT('',(11.537215077602,1.989635164127,
    -1.116920472332));
#180 = CARTESIAN_POINT('',(11.513186292413,2.121772754642,
    -0.846871910361));
#181 = CARTESIAN_POINT('',(11.49670443435,2.207218671486,-0.566715924975
    ));
#182 = CARTESIAN_POINT('',(11.488495278486,2.250000036236,
    -0.282465298407));
#183 = CARTESIAN_POINT('',(11.488495408662,2.250000000007,
    9.617515339677E-08));
#184 = CARTESIAN_POINT('',(12.2,-4.133182947122E-16,-2.25));
#185 = CARTESIAN_POINT('',(12.200000000277,0.330386073799,
    -2.250000002052));
#186 = CARTESIAN_POINT('',(12.183912931433,0.660113050228,
    -2.191439475626));
#187 = CARTESIAN_POINT('',(12.152327440864,0.957678579551,-2.0771471769)
  );
#188 = CARTESIAN_POINT('',(12.11384833333,1.219941257178,-1.924724478181
    ));
#189 = CARTESIAN_POINT('',(12.074633419835,1.439571096486,-1.74896368844
    ));
#190 = CARTESIAN_POINT('',(11.993392025954,1.843432647561,
    -1.329227992208));
#191 = CARTESIAN_POINT('',(11.952511305508,2.009013713821,
    -1.078486341976));
#192 = CARTESIAN_POINT('',(11.919652156133,2.131500999038,
    -0.814899797198));
#193 = CARTESIAN_POINT('',(11.897249808852,2.210221247415,
    -0.545291376142));
#194 = CARTESIAN_POINT('',(11.886021136708,2.250000685152,
    -0.272679696993));
#195 = CARTESIAN_POINT('',(11.886021201175,2.25,-5.510910596163E-16));
#196 = DEFINITIONAL_REPRESENTATION('',(#197),#201);
#197 = LINE('',#198,#199);
#198 = CARTESIAN_POINT('',(0.,0.));
#199 = VECTOR('',#200,1.);
#200 = DIRECTION('',(0.,1.));
#201 = ( GEOMETRIC_REPRESENTATION_CONTEXT(2) 
PARAMETRIC_REPRESENTATION_CONTEXT() REPRESENTATION_CONTEXT('2D SPACE',''
  ) );
#202 = ORIENTED_EDGE('',*,*,#203,.T.);
#203 = EDGE_CURVE('',#80,#204,#206,.T.);
#204 = VERTEX_POINT('',#205);
#205 = CARTESIAN_POINT('',(11.7,-2.865673510005E-15,2.75));
#206 = SURFACE_CURVE('',#207,(#246,#342),.PCURVE_S1.);
#207 = ( BOUNDED_CURVE() B_SPLINE_CURVE(13,(#208,#209,#210,#211,#212,
    #213,#214,#215,#216,#217,#218,#219,#220,#221,#222,#223,#224,#225,
    #226,#227,#228,#229,#230,#231,#232,#233,#234,#235,#236,#237,#238,
    #239,#240,#241,#242,#243,#244,#245),.UNSPECIFIED.,.F.,.F.) 
B_SPLINE_CURVE_WITH_KNOTS((14,12,12,14),(10.634194076106,12.509227063485
,13.339815264467,14.170403465449),.UNSPECIFIED.) CURVE() 
GEOMETRIC_REPRESENTATION_ITEM() RATIONAL_B_SPLINE_CURVE((1.,1.,
    0.999999999999,1.000000000004,0.999999999992,1.000000000012,
    0.999999999986,1.000000000014,0.999999999989,1.000000000007,
    0.999999999997,1.000000000001,1.,1.,1.,1.000000000001,0.999999999998
    ,1.000000000003,0.999999999997,1.000000000003,0.999999999998,
    1.000000000001,0.999999999999,1.,1.,1.,1.,1.000000000001,
    0.999999999997,1.000000000004,0.999999999995,1.000000000005,
    0.999999999996,1.000000000002,0.999999999999,1.,1.,1.)) 
REPRESENTATION_ITEM('') );
#208 = CARTESIAN_POINT('',(11.398889185235,2.637295080711,0.));
#209 = CARTESIAN_POINT('',(11.398888835344,2.637296593003,0.148098558841
    ));
#210 = CARTESIAN_POINT('',(11.400803638941,2.629013001824,0.296218790786
    ));
#211 = CARTESIAN_POINT('',(11.404639160255,2.612437987067,0.444136438045
    ));
#212 = CARTESIAN_POINT('',(11.410379628461,2.587518973525,0.591601287488
    ));
#213 = CARTESIAN_POINT('',(11.417990055526,2.554163618993,0.738329431179
    ));
#214 = CARTESIAN_POINT('',(11.427417130069,2.512241703098,0.884016932814
    ));
#215 = CARTESIAN_POINT('',(11.438588887259,2.461582417345,1.02834559214)
  );
#216 = CARTESIAN_POINT('',(11.451413154713,2.401967055729,1.170980807341
    ));
#217 = CARTESIAN_POINT('',(11.465774774413,2.333117106771,1.311561535257
    ));
#218 = CARTESIAN_POINT('',(11.481531600644,2.254677746019,1.449682349734
    ));
#219 = CARTESIAN_POINT('',(11.49850927394,2.166196729929,1.584867597694)
  );
#220 = CARTESIAN_POINT('',(11.516494771053,2.067098690381,1.71653765335)
  );
#221 = CARTESIAN_POINT('',(11.54352736148,1.907731228665,1.900415096444)
  );
#222 = CARTESIAN_POINT('',(11.551998616604,1.856423885805,1.956211318424
    ));
#223 = CARTESIAN_POINT('',(11.560610897781,1.802709877807,2.011209957886
    ));
#224 = CARTESIAN_POINT('',(11.569328120516,1.746573916163,2.065260152976
    ));
#225 = CARTESIAN_POINT('',(11.578110134542,1.688008987768,2.118206872422
    ));
#226 = CARTESIAN_POINT('',(11.586913144032,1.62701699488,2.169891629743)
  );
#227 = CARTESIAN_POINT('',(11.595690127802,1.56360939506,2.220153197373)
  );
#228 = CARTESIAN_POINT('',(11.604391259523,1.49780784114,2.268828320898)
  );
#229 = CARTESIAN_POINT('',(11.612964327928,1.429644821162,2.315752433171
    ));
#230 = CARTESIAN_POINT('',(11.621355157017,1.359164298343,2.36076036854)
  );
#231 = CARTESIAN_POINT('',(11.62950802627,1.286422351017,2.403687076985)
  );
#232 = CARTESIAN_POINT('',(11.637366090847,1.211487812597,2.444368338316
    ));
#233 = CARTESIAN_POINT('',(11.652377512765,1.057398010446,2.520914614361
    ));
#234 = CARTESIAN_POINT('',(11.659531414973,0.978121058701,2.556780570923
    ));
#235 = CARTESIAN_POINT('',(11.666276896153,0.897914360569,2.590078227612
    ));
#236 = CARTESIAN_POINT('',(11.672557446463,0.810844318954,2.620649267372
    ));
#237 = CARTESIAN_POINT('',(11.678317465003,0.736172849707,2.6483394183)
  );
#238 = CARTESIAN_POINT('',(11.683503134934,0.630514980822,2.672999755921
    ));
#239 = CARTESIAN_POINT('',(11.688063347572,0.568226675184,2.694488038365
    ));
#240 = CARTESIAN_POINT('',(11.691950649172,0.451791957337,2.712670045985
    ));
#241 = CARTESIAN_POINT('',(11.695122175991,0.381640902717,2.727420872387
    ));
#242 = CARTESIAN_POINT('',(11.697540530513,0.277439711068,2.738626087083
    ));
#243 = CARTESIAN_POINT('',(11.699174558544,0.189457242938,2.746182713406
    ));
#244 = CARTESIAN_POINT('',(11.7,9.421057764781E-02,2.75));
#245 = CARTESIAN_POINT('',(11.7,0.,2.75));
#246 = PCURVE('',#32,#247);
#247 = DEFINITIONAL_REPRESENTATION('',(#248),#341);
#248 = B_SPLINE_CURVE_WITH_KNOTS('',10,(#249,#250,#251,#252,#253,#254,
    #255,#256,#257,#258,#259,#260,#261,#262,#263,#264,#265,#266,#267,
    #268,#269,#270,#271,#272,#273,#274,#275,#276,#277,#278,#279,#280,
    #281,#282,#283,#284,#285,#286,#287,#288,#289,#290,#291,#292,#293,
    #294,#295,#296,#297,#298,#299,#300,#301,#302,#303,#304,#305,#306,
    #307,#308,#309,#310,#311,#312,#313,#314,#315,#316,#317,#318,#319,
    #320,#321,#322,#323,#324,#325,#326,#327,#328,#329,#330,#331,#332,
    #333,#334,#335,#336,#337,#338,#339,#340),.UNSPECIFIED.,.F.,.F.,(11,9
    ,9,9,9,9,9,9,9,9,11),(10.634194076106,11.076220249774,
    11.518246423442,12.402298770778,12.512805314195,12.623311857612,
    12.844324944445,13.286351118113,13.507364204947,13.728377291781,
    14.170403465449),.UNSPECIFIED.);
#249 = CARTESIAN_POINT('',(-0.227363677833,-14.99997069198));
#250 = CARTESIAN_POINT('',(-0.227363718482,-15.04535787804));
#251 = CARTESIAN_POINT('',(-0.227293868127,-15.0907750322));
#252 = CARTESIAN_POINT('',(-0.227153061361,-15.13631791664));
#253 = CARTESIAN_POINT('',(-0.226944313859,-15.18126078388));
#254 = CARTESIAN_POINT('',(-0.22666297683,-15.22712038029));
#255 = CARTESIAN_POINT('',(-0.226312765165,-15.2720889008));
#256 = CARTESIAN_POINT('',(-0.225891801551,-15.31753669555));
#257 = CARTESIAN_POINT('',(-0.225400054023,-15.3627377794));
#258 = CARTESIAN_POINT('',(-0.224837539194,-15.40793558264));
#259 = CARTESIAN_POINT('',(-0.223570239992,-15.49819546184));
#260 = CARTESIAN_POINT('',(-0.222865467256,-15.54326355617));
#261 = CARTESIAN_POINT('',(-0.22208932621,-15.58826088658));
#262 = CARTESIAN_POINT('',(-0.221241534092,-15.63317830303));
#263 = CARTESIAN_POINT('',(-0.220321770551,-15.67800642412));
#264 = CARTESIAN_POINT('',(-0.21932967765,-15.72273563699));
#265 = CARTESIAN_POINT('',(-0.218264859863,-15.76735609746));
#266 = CARTESIAN_POINT('',(-0.217126884074,-15.8118577299));
#267 = CARTESIAN_POINT('',(-0.215915279584,-15.8562302273));
#268 = CARTESIAN_POINT('',(-0.212058055136,-15.9889286992));
#269 = CARTESIAN_POINT('',(-0.209190036693,-16.07683627846));
#270 = CARTESIAN_POINT('',(-0.206021239984,-16.16409929365));
#271 = CARTESIAN_POINT('',(-0.202546806661,-16.25062898362));
#272 = CARTESIAN_POINT('',(-0.198761059047,-16.33633157182));
#273 = CARTESIAN_POINT('',(-0.194657296366,-16.42110551666));
#274 = CARTESIAN_POINT('',(-0.190227590974,-16.50483876185));
#275 = CARTESIAN_POINT('',(-0.185462584588,-16.5874059868));
#276 = CARTESIAN_POINT('',(-0.180351284516,-16.66866585691));
#277 = CARTESIAN_POINT('',(-0.174197056811,-16.75843232617));
#278 = CARTESIAN_POINT('',(-0.173507675871,-16.76838298939));
#279 = CARTESIAN_POINT('',(-0.172812627353,-16.77831079602));
#280 = CARTESIAN_POINT('',(-0.172111878129,-16.78821552219));
#281 = CARTESIAN_POINT('',(-0.171405428629,-16.79809649079));
#282 = CARTESIAN_POINT('',(-0.170693289805,-16.80795287415));
#283 = CARTESIAN_POINT('',(-0.169975460106,-16.8177839971));
#284 = CARTESIAN_POINT('',(-0.169251902442,-16.8275896396));
#285 = CARTESIAN_POINT('',(-0.168522521155,-16.83737033977));
#286 = CARTESIAN_POINT('',(-0.167051756817,-16.85688505343));
#287 = CARTESIAN_POINT('',(-0.166310130005,-16.86662222722));
#288 = CARTESIAN_POINT('',(-0.165562252459,-16.8763383803));
#289 = CARTESIAN_POINT('',(-0.164808118087,-16.88603267497));
#290 = CARTESIAN_POINT('',(-0.164047720799,-16.89570427357));
#291 = CARTESIAN_POINT('',(-0.163281054502,-16.90535233838));
#292 = CARTESIAN_POINT('',(-0.162508113106,-16.91497603175));
#293 = CARTESIAN_POINT('',(-0.161728890518,-16.92457451598));
#294 = CARTESIAN_POINT('',(-0.160943380648,-16.9341469534));
#295 = CARTESIAN_POINT('',(-0.158567970916,-16.96278361212));
#296 = CARTESIAN_POINT('',(-0.156959205392,-16.98176711113));
#297 = CARTESIAN_POINT('',(-0.155325252007,-17.00063615309));
#298 = CARTESIAN_POINT('',(-0.153666095161,-17.01938383417));
#299 = CARTESIAN_POINT('',(-0.151981732477,-17.03800319699));
#300 = CARTESIAN_POINT('',(-0.1502721748,-17.05648723051));
#301 = CARTESIAN_POINT('',(-0.1485374462,-17.0748288702));
#302 = CARTESIAN_POINT('',(-0.146777583968,-17.09302099785));
#303 = CARTESIAN_POINT('',(-0.14499263862,-17.11105644172));
#304 = CARTESIAN_POINT('',(-0.139562744448,-17.16467104595));
#305 = CARTESIAN_POINT('',(-0.135842768445,-17.19975896368));
#306 = CARTESIAN_POINT('',(-0.132023224985,-17.23413344095));
#307 = CARTESIAN_POINT('',(-0.128104848176,-17.26773602995));
#308 = CARTESIAN_POINT('',(-0.124088627142,-17.30050812368));
#309 = CARTESIAN_POINT('',(-0.119975806014,-17.33239095601));
#310 = CARTESIAN_POINT('',(-0.115767883941,-17.36332560164));
#311 = CARTESIAN_POINT('',(-0.11146661508,-17.39325297614));
#312 = CARTESIAN_POINT('',(-0.107074008602,-17.42211383592));
#313 = CARTESIAN_POINT('',(-0.100351488735,-17.4637162494));
#314 = CARTESIAN_POINT('',(-9.808772186877E-02,-17.47730231772));
#315 = CARTESIAN_POINT('',(-9.580631310181E-02,-17.49059997838));
#316 = CARTESIAN_POINT('',(-9.349149395979E-02,-17.50360030866));
#317 = CARTESIAN_POINT('',(-9.117067605637E-02,-17.51629996472));
#318 = CARTESIAN_POINT('',(-8.882015632538E-02,-17.52868668619));
#319 = CARTESIAN_POINT('',(-8.64492885737E-02,-17.54075777256));
#320 = CARTESIAN_POINT('',(-8.405955339703E-02,-17.55250352767));
#321 = CARTESIAN_POINT('',(-8.164933045374E-02,-17.56391807177));
#322 = CARTESIAN_POINT('',(-7.679037367068E-02,-17.58607043874));
#323 = CARTESIAN_POINT('',(-7.434157788536E-02,-17.59680829512));
#324 = CARTESIAN_POINT('',(-7.187361217627E-02,-17.6072009468));
#325 = CARTESIAN_POINT('',(-6.938680165372E-02,-17.61724160422));
#326 = CARTESIAN_POINT('',(-6.688160112303E-02,-17.62692357459));
#327 = CARTESIAN_POINT('',(-6.435854713881E-02,-17.63624027069));
#328 = CARTESIAN_POINT('',(-6.181821005984E-02,-17.64518521955));
#329 = CARTESIAN_POINT('',(-5.92611461033E-02,-17.65375207124));
#330 = CARTESIAN_POINT('',(-5.668784939961E-02,-17.66193460763));
#331 = CARTESIAN_POINT('',(-4.892041334108E-02,-17.68531103803));
#332 = CARTESIAN_POINT('',(-4.367989907152E-02,-17.69933375267));
#333 = CARTESIAN_POINT('',(-3.83704029897E-02,-17.71174626504));
#334 = CARTESIAN_POINT('',(-3.303994360919E-02,-17.72250221447));
#335 = CARTESIAN_POINT('',(-2.756952388505E-02,-17.73155772606));
#336 = CARTESIAN_POINT('',(-2.223455238684E-02,-17.73887171107));
#337 = CARTESIAN_POINT('',(-1.659786055357E-02,-17.74440610954));
#338 = CARTESIAN_POINT('',(-1.118361948487E-02,-17.74812603536));
#339 = CARTESIAN_POINT('',(-5.570823331045E-03,-17.74999999999));
#340 = CARTESIAN_POINT('',(2.960040960504E-16,-17.75));
#341 = ( GEOMETRIC_REPRESENTATION_CONTEXT(2) 
PARAMETRIC_REPRESENTATION_CONTEXT() REPRESENTATION_CONTEXT('2D SPACE',''
  ) );
#342 = PCURVE('',#343,#458);
#343 = ( BOUNDED_SURFACE() B_SPLINE_SURFACE(2,13,(
    (#344,#345,#346,#347,#348,#349,#350,#351,#352,#353,#354,#355,#356
      ,#357,#358,#359,#360,#361,#362,#363,#364,#365,#366,#367,#368,#369
      ,#370,#371,#372,#373,#374,#375,#376,#377,#378,#379,#380,#381)
    ,(#382,#383,#384,#385,#386,#387,#388,#389,#390,#391,#392,#393,#394
      ,#395,#396,#397,#398,#399,#400,#401,#402,#403,#404,#405,#406,#407
      ,#408,#409,#410,#411,#412,#413,#414,#415,#416,#417,#418,#419)
    ,(#420,#421,#422,#423,#424,#425,#426,#427,#428,#429,#430,#431,#432
      ,#433,#434,#435,#436,#437,#438,#439,#440,#441,#442,#443,#444,#445
      ,#446,#447,#448,#449,#450,#451,#452,#453,#454,#455,#456,#457
)),.UNSPECIFIED.,.F.,.F.,.F.) B_SPLINE_SURFACE_WITH_KNOTS((3,3),(14,12,
    12,14),(0.,3.536209389344),(10.634194076106,12.509227063485,
    13.339815264467,14.170403465449),.UNSPECIFIED.) 
GEOMETRIC_REPRESENTATION_ITEM() RATIONAL_B_SPLINE_SURFACE((
    (1.,1.,0.999999999999,1.000000000004,0.999999999992,1.000000000012
      ,0.999999999986,1.000000000014,0.999999999989,1.000000000007
      ,0.999999999997,1.000000000001,1.,1.,1.,1.000000000001
      ,0.999999999998,1.000000000003,0.999999999997,1.000000000003
      ,0.999999999998,1.000000000001,0.999999999999,1.,1.,1.,1.
      ,1.000000000001,0.999999999997,1.000000000004,0.999999999995
      ,1.000000000005,0.999999999996,1.000000000002,0.999999999999,1.,1.
      ,1.)
    ,(0.782754698611,0.782754767222,0.782300993908,0.781391851114
      ,0.780029724699,0.778220224465,0.775971935731,0.773296612892
      ,0.770209813578,0.76673197514,0.762889931629,0.758718872937
      ,0.754264744796,0.747515017913,0.745392802012,0.743227662412
      ,0.741028142353,0.738804009358,0.736566155823,0.734326499701
      ,0.732097885064,0.729893982796,0.727729191171,0.725618536513
      ,0.723577573809,0.719667000875,0.717797211251,0.71602858847
      ,0.714376952064,0.712858028039,0.711487173077,0.710279071255
      ,0.709247412944,0.708404571084,0.70776129608,0.707326448343
      ,0.707106781187,0.707106781187)
    ,(1.,1.,0.999999999999,1.000000000004,0.999999999992,1.000000000012
      ,0.999999999986,1.000000000014,0.999999999989,1.000000000007
      ,0.999999999997,1.000000000001,1.,1.,1.,1.000000000001
      ,0.999999999998,1.000000000003,0.999999999997,1.000000000003
      ,0.999999999998,1.000000000001,0.999999999999,1.,1.,1.,1.
      ,1.000000000001,0.999999999997,1.000000000004,0.999999999995
      ,1.000000000005,0.999999999996,1.000000000002,0.999999999999,1.,1.
,1.))) REPRESENTATION_ITEM('') SURFACE() );
#344 = CARTESIAN_POINT('',(11.398889185235,2.637295080711,0.));
#345 = CARTESIAN_POINT('',(11.398888835344,2.637296593003,0.148098558841
    ));
#346 = CARTESIAN_POINT('',(11.400803638941,2.629013001824,0.296218790786
    ));
#347 = CARTESIAN_POINT('',(11.404639160255,2.612437987067,0.444136438045
    ));
#348 = CARTESIAN_POINT('',(11.410379628461,2.587518973525,0.591601287488
    ));
#349 = CARTESIAN_POINT('',(11.417990055526,2.554163618993,0.738329431179
    ));
#350 = CARTESIAN_POINT('',(11.427417130069,2.512241703098,0.884016932814
    ));
#351 = CARTESIAN_POINT('',(11.438588887259,2.461582417345,1.02834559214)
  );
#352 = CARTESIAN_POINT('',(11.451413154713,2.401967055729,1.170980807341
    ));
#353 = CARTESIAN_POINT('',(11.465774774413,2.333117106771,1.311561535257
    ));
#354 = CARTESIAN_POINT('',(11.481531600644,2.254677746019,1.449682349734
    ));
#355 = CARTESIAN_POINT('',(11.49850927394,2.166196729929,1.584867597694)
  );
#356 = CARTESIAN_POINT('',(11.516494771053,2.067098690381,1.71653765335)
  );
#357 = CARTESIAN_POINT('',(11.54352736148,1.907731228665,1.900415096444)
  );
#358 = CARTESIAN_POINT('',(11.551998616604,1.856423885805,1.956211318424
    ));
#359 = CARTESIAN_POINT('',(11.560610897781,1.802709877807,2.011209957886
    ));
#360 = CARTESIAN_POINT('',(11.569328120516,1.746573916163,2.065260152976
    ));
#361 = CARTESIAN_POINT('',(11.578110134542,1.688008987768,2.118206872422
    ));
#362 = CARTESIAN_POINT('',(11.586913144032,1.62701699488,2.169891629743)
  );
#363 = CARTESIAN_POINT('',(11.595690127802,1.56360939506,2.220153197373)
  );
#364 = CARTESIAN_POINT('',(11.604391259523,1.49780784114,2.268828320898)
  );
#365 = CARTESIAN_POINT('',(11.612964327928,1.429644821162,2.315752433171
    ));
#366 = CARTESIAN_POINT('',(11.621355157017,1.359164298343,2.36076036854)
  );
#367 = CARTESIAN_POINT('',(11.62950802627,1.286422351017,2.403687076985)
  );
#368 = CARTESIAN_POINT('',(11.637366090847,1.211487812597,2.444368338316
    ));
#369 = CARTESIAN_POINT('',(11.652377512765,1.057398010446,2.520914614361
    ));
#370 = CARTESIAN_POINT('',(11.659531414973,0.978121058701,2.556780570923
    ));
#371 = CARTESIAN_POINT('',(11.666276896153,0.897914360569,2.590078227612
    ));
#372 = CARTESIAN_POINT('',(11.672557446463,0.810844318954,2.620649267372
    ));
#373 = CARTESIAN_POINT('',(11.678317465003,0.736172849707,2.6483394183)
  );
#374 = CARTESIAN_POINT('',(11.683503134934,0.630514980822,2.672999755921
    ));
#375 = CARTESIAN_POINT('',(11.688063347572,0.568226675184,2.694488038365
    ));
#376 = CARTESIAN_POINT('',(11.691950649172,0.451791957337,2.712670045985
    ));
#377 = CARTESIAN_POINT('',(11.695122175991,0.381640902717,2.727420872387
    ));
#378 = CARTESIAN_POINT('',(11.697540530513,0.277439711068,2.738626087083
    ));
#379 = CARTESIAN_POINT('',(11.699174558544,0.189457242938,2.746182713406
    ));
#380 = CARTESIAN_POINT('',(11.7,9.421057764781E-02,2.75));
#381 = CARTESIAN_POINT('',(11.7,0.,2.75));
#382 = CARTESIAN_POINT('',(11.488495408662,2.250000000007,
    9.617515273064E-08));
#383 = CARTESIAN_POINT('',(11.488495466518,2.249999983905,0.125539050388
    ));
#384 = CARTESIAN_POINT('',(11.48995605142,2.242389215692,0.25122993323)
  );
#385 = CARTESIAN_POINT('',(11.492875275928,2.227205036215,0.376736806213
    ));
#386 = CARTESIAN_POINT('',(11.497240732627,2.204391366886,0.501735256592
    ));
#387 = CARTESIAN_POINT('',(11.503022087989,2.173856313593,0.62588864388)
  );
#388 = CARTESIAN_POINT('',(11.510166012791,2.135510046292,0.748833340966
    ));
#389 = CARTESIAN_POINT('',(11.518593418082,2.089283228857,0.870172452352
    ));
#390 = CARTESIAN_POINT('',(11.528198988104,2.035126075134,0.9894776448)
  );
#391 = CARTESIAN_POINT('',(11.538853027448,1.972987918038,1.106298890652
    ));
#392 = CARTESIAN_POINT('',(11.550405669776,1.902777011201,1.220182097415
    ));
#393 = CARTESIAN_POINT('',(11.562693531526,1.824300159424,1.330694779956
    ));
#394 = CARTESIAN_POINT('',(11.575548934315,1.737181737551,1.437460110399
    ));
#395 = CARTESIAN_POINT('',(11.594740021765,1.597664729003,1.586121653264
    ));
#396 = CARTESIAN_POINT('',(11.600747816093,1.552685244343,1.63126014567)
  );
#397 = CARTESIAN_POINT('',(11.606814180505,1.50580154815,1.675526164778)
  );
#398 = CARTESIAN_POINT('',(11.612914459979,1.457006583575,1.718821075541
    ));
#399 = CARTESIAN_POINT('',(11.619020900557,1.406306803914,1.761038453966
    ));
#400 = CARTESIAN_POINT('',(11.625103160357,1.353720950514,1.802065899556
    ));
#401 = CARTESIAN_POINT('',(11.631128841496,1.299278814482,1.841786967502
    ));
#402 = CARTESIAN_POINT('',(11.637064046307,1.243019968817,1.880083229442
    ));
#403 = CARTESIAN_POINT('',(11.642873960978,1.184992457445,1.916836469269
    ));
#404 = CARTESIAN_POINT('',(11.648523468947,1.125251427915,1.951931018357
    ));
#405 = CARTESIAN_POINT('',(11.653977795841,1.063857695269,1.985256230921
    ));
#406 = CARTESIAN_POINT('',(11.659203186666,1.000876225719,2.016709096839
    ));
#407 = CARTESIAN_POINT('',(11.669159019353,0.871522341734,2.075845105577
    ));
#408 = CARTESIAN_POINT('',(11.673884085828,0.805064552848,2.10348977112)
  );
#409 = CARTESIAN_POINT('',(11.678309331088,0.738066561688,2.129028740326
    ));
#410 = CARTESIAN_POINT('',(11.682402621913,0.665737449049,2.152365736307
    ));
#411 = CARTESIAN_POINT('',(11.686133557824,0.603682127666,2.173410595973
    ));
#412 = CARTESIAN_POINT('',(11.689473742584,0.516686079198,2.192078957289
    ));
#413 = CARTESIAN_POINT('',(11.692396947615,0.465162548083,2.208291602742
    ));
#414 = CARTESIAN_POINT('',(11.694879191596,0.36971902877,2.22197360588)
  );
#415 = CARTESIAN_POINT('',(11.696898776689,0.312160406711,2.233053432683
    ));
#416 = CARTESIAN_POINT('',(11.69843632929,0.226908404681,2.241462140709)
  );
#417 = CARTESIAN_POINT('',(11.699474879947,0.154962283998,2.247132774097
    ));
#418 = CARTESIAN_POINT('',(11.7,7.708152967429E-02,2.25));
#419 = CARTESIAN_POINT('',(11.7,-3.552713678801E-15,2.25));
#420 = CARTESIAN_POINT('',(11.886021201175,2.25,0.));
#421 = CARTESIAN_POINT('',(11.886021229826,2.24999969548,0.121197998162)
  );
#422 = CARTESIAN_POINT('',(11.888024356662,2.242901256913,0.242393776727
    ));
#423 = CARTESIAN_POINT('',(11.892026049728,2.228766505482,0.36339047901)
  );
#424 = CARTESIAN_POINT('',(11.898011330031,2.20754199326,0.483998070699)
  );
#425 = CARTESIAN_POINT('',(11.905949186591,2.179113554472,0.604015855418
    ));
#426 = CARTESIAN_POINT('',(11.91578813123,2.143341924362,0.723216094453)
  );
#427 = CARTESIAN_POINT('',(11.927452893148,2.100079425712,0.841334384126
    ));
#428 = CARTESIAN_POINT('',(11.940842253242,2.049167722913,0.958066790828
    ));
#429 = CARTESIAN_POINT('',(11.955828018189,1.99041664373,1.073073743579)
  );
#430 = CARTESIAN_POINT('',(11.9722551343,1.923564068589,1.185990684386)
  );
#431 = CARTESIAN_POINT('',(11.989942941119,1.848216887566,1.296445476034
    ));
#432 = CARTESIAN_POINT('',(12.008687564802,1.763773024917,1.40408256768)
  );
#433 = CARTESIAN_POINT('',(12.036937918112,1.627486438318,1.554889580479
    ));
#434 = CARTESIAN_POINT('',(12.045777148692,1.583683172593,1.600566764628
    ));
#435 = CARTESIAN_POINT('',(12.054755665096,1.537868305345,1.645545490075
    ));
#436 = CARTESIAN_POINT('',(12.06383977373,1.490008628728,1.68973007317)
  );
#437 = CARTESIAN_POINT('',(12.072990230997,1.440083827612,1.733011521276
    ));
#438 = CARTESIAN_POINT('',(12.082162909025,1.388086151391,1.775269927139
    ));
#439 = CARTESIAN_POINT('',(12.091309461373,1.334020085789,1.816376863195
    ));
#440 = CARTESIAN_POINT('',(12.100377988767,1.27790202467,1.856197775964)
  );
#441 = CARTESIAN_POINT('',(12.109313704801,1.219759941845,1.894594380341
    ));
#442 = CARTESIAN_POINT('',(12.118059601669,1.159633062878,1.931427053997
    ));
#443 = CARTESIAN_POINT('',(12.126557115876,1.0975715369,1.966557231678)
  );
#444 = CARTESIAN_POINT('',(12.134746793962,1.033636108407,1.999849799581
    ));
#445 = CARTESIAN_POINT('',(12.150391122467,0.90215946975,2.062501179788)
  );
#446 = CARTESIAN_POINT('',(12.157846104398,0.834514874559,2.091857778459
    ));
#447 = CARTESIAN_POINT('',(12.164874772706,0.766076620474,2.119112293381
    ));
#448 = CARTESIAN_POINT('',(12.171418213691,0.6917846443,2.144134495885)
  );
#449 = CARTESIAN_POINT('',(12.177418588489,0.628070815307,2.166797972751
    ));
#450 = CARTESIAN_POINT('',(12.182820019584,0.537926838806,2.186981041066
    ));
#451 = CARTESIAN_POINT('',(12.187569503107,0.484780168313,2.204567624513
    ));
#452 = CARTESIAN_POINT('',(12.191617841027,0.385446398451,2.219448162513
    ));
#453 = CARTESIAN_POINT('',(12.194920577138,0.325594547985,2.231520573151
    ));
#454 = CARTESIAN_POINT('',(12.197438897657,0.236697186297,2.240691220666
    ));
#455 = CARTESIAN_POINT('',(12.199140445121,0.161634807558,2.246875794087
    ));
#456 = CARTESIAN_POINT('',(12.2,8.037570916887E-02,2.25));
#457 = CARTESIAN_POINT('',(12.2,-8.614279572586E-16,2.25));
#458 = DEFINITIONAL_REPRESENTATION('',(#459),#463);
#459 = LINE('',#460,#461);
#460 = CARTESIAN_POINT('',(0.,0.));
#461 = VECTOR('',#462,1.);
#462 = DIRECTION('',(0.,1.));
#463 = ( GEOMETRIC_REPRESENTATION_CONTEXT(2) 
PARAMETRIC_REPRESENTATION_CONTEXT() REPRESENTATION_CONTEXT('2D SPACE',''
  ) );
#464 = ORIENTED_EDGE('',*,*,#465,.T.);
#465 = EDGE_CURVE('',#204,#466,#468,.T.);
#466 = VERTEX_POINT('',#467);
#467 = CARTESIAN_POINT('',(11.7,0.,15.));
#468 = SEAM_CURVE('',#469,(#473,#480),.PCURVE_S1.);
#469 = LINE('',#470,#471);
#470 = CARTESIAN_POINT('',(11.7,0.,-15.));
#471 = VECTOR('',#472,1.);
#472 = DIRECTION('',(0.,0.,1.));
#473 = PCURVE('',#32,#474);
#474 = DEFINITIONAL_REPRESENTATION('',(#475),#479);
#475 = LINE('',#476,#477);
#476 = CARTESIAN_POINT('',(-6.28318530718,0.));
#477 = VECTOR('',#478,1.);
#478 = DIRECTION('',(-0.,-1.));
#479 = ( GEOMETRIC_REPRESENTATION_CONTEXT(2) 
PARAMETRIC_REPRESENTATION_CONTEXT() REPRESENTATION_CONTEXT('2D SPACE',''
  ) );
#480 = PCURVE('',#32,#481);
#481 = DEFINITIONAL_REPRESENTATION('',(#482),#486);
#482 = LINE('',#483,#484);
#483 = CARTESIAN_POINT('',(-0.,0.));
#484 = VECTOR('',#485,1.);
#485 = DIRECTION('',(-0.,-1.));
#486 = ( GEOMETRIC_REPRESENTATION_CONTEXT(2) 
PARAMETRIC_REPRESENTATION_CONTEXT() REPRESENTATION_CONTEXT('2D SPACE',''
  ) );
#487 = ORIENTED_EDGE('',*,*,#488,.T.);
#488 = EDGE_CURVE('',#466,#466,#489,.T.);
#489 = SURFACE_CURVE('',#490,(#495,#502),.PCURVE_S1.);
#490 = CIRCLE('',#491,11.7);
#491 = AXIS2_PLACEMENT_3D('',#492,#493,#494);
#492 = CARTESIAN_POINT('',(0.,0.,15.));
#493 = DIRECTION('',(0.,0.,1.));
#494 = DIRECTION('',(1.,0.,0.));
#495 = PCURVE('',#32,#496);
#496 = DEFINITIONAL_REPRESENTATION('',(#497),#501);
#497 = LINE('',#498,#499);
#498 = CARTESIAN_POINT('',(-0.,-30.));
#499 = VECTOR('',#500,1.);
#500 = DIRECTION('',(-1.,0.));
#501 = ( GEOMETRIC_REPRESENTATION_CONTEXT(2) 
PARAMETRIC_REPRESENTATION_CONTEXT() REPRESENTATION_CONTEXT('2D SPACE',''
  ) );
#502 = PCURVE('',#503,#508);
#503 = PLANE('',#504);
#504 = AXIS2_PLACEMENT_3D('',#505,#506,#507);
#505 = CARTESIAN_POINT('',(-9.35001800027E-16,4.573895483595E-16,15.));
#506 = DIRECTION('',(0.,0.,1.));
#507 = DIRECTION('',(1.,0.,0.));
#508 = DEFINITIONAL_REPRESENTATION('',(#509),#513);
#509 = CIRCLE('',#510,11.7);
#510 = AXIS2_PLACEMENT_2D('',#511,#512);
#511 = CARTESIAN_POINT('',(9.35001800027E-16,-4.573895483595E-16));
#512 = DIRECTION('',(1.,0.));
#513 = ( GEOMETRIC_REPRESENTATION_CONTEXT(2) 
PARAMETRIC_REPRESENTATION_CONTEXT() REPRESENTATION_CONTEXT('2D SPACE',''
  ) );
#514 = ORIENTED_EDGE('',*,*,#465,.F.);
#515 = ORIENTED_EDGE('',*,*,#516,.T.);
#516 = EDGE_CURVE('',#204,#24,#517,.T.);
#517 = SURFACE_CURVE('',#518,(#541,#567),.PCURVE_S1.);
#518 = ( BOUNDED_CURVE() B_SPLINE_CURVE(6,(#519,#520,#521,#522,#523,#524
    ,#525,#526,#527,#528,#529,#530,#531,#532,#533,#534,#535,#536,#537,
#538,#539,#540),.UNSPECIFIED.,.F.,.F.) B_SPLINE_CURVE_WITH_KNOTS((7,5,5,
    5,7),(1.639107714855E-15,1.66745811707,3.546940190077,5.42641812825,
7.093165921282),.UNSPECIFIED.) CURVE() GEOMETRIC_REPRESENTATION_ITEM() 
RATIONAL_B_SPLINE_CURVE((1.,1.,1.,1.,1.,1.,1.,1.,1.,1.,1.,1.,1.,1.,1.,1.
,1.,1.,1.,1.,1.,1.)) REPRESENTATION_ITEM('') );
#519 = CARTESIAN_POINT('',(11.7,-2.865673510005E-15,2.75));
#520 = CARTESIAN_POINT('',(11.7,-0.40978961234,2.75));
#521 = CARTESIAN_POINT('',(11.682808573553,-0.806665649767,
    2.670403230828));
#522 = CARTESIAN_POINT('',(11.650233795911,-1.169564371258,
    2.520261059503));
#523 = CARTESIAN_POINT('',(11.61075176856,-1.482848018114,2.319672078595
    ));
#524 = CARTESIAN_POINT('',(11.571226194646,-1.744436007135,2.08882448057
    ));
#525 = CARTESIAN_POINT('',(11.494654058947,-2.195858047786,
    1.567975575367));
#526 = CARTESIAN_POINT('',(11.457938324356,-2.376282662092,
    1.269771328396));
#527 = CARTESIAN_POINT('',(11.428821536465,-2.508048205032,
    0.959666156755));
#528 = CARTESIAN_POINT('',(11.408852569707,-2.594194934726,
    0.641783190199));
#529 = CARTESIAN_POINT('',(11.398889261942,-2.637294749167,
    0.320953725561));
#530 = CARTESIAN_POINT('',(11.39888910837,-2.637295412936,
    -0.320947035375));
#531 = CARTESIAN_POINT('',(11.408848698324,-2.594211783246,
    -0.641855706782));
#532 = CARTESIAN_POINT('',(11.428844186421,-2.507953091039,
    -0.959900785507));
#533 = CARTESIAN_POINT('',(11.457941146371,-2.376254891952,
    -1.269755323767));
#534 = CARTESIAN_POINT('',(11.494648757002,-2.195889303182,
    -1.567939546377));
#535 = CARTESIAN_POINT('',(11.571215636951,-1.744498250204,
    -2.088752635341));
#536 = CARTESIAN_POINT('',(11.61077323785,-1.482735358981,
    -2.319760792473));
#537 = CARTESIAN_POINT('',(11.650135126098,-1.170020620317,
    -2.519882031351));
#538 = CARTESIAN_POINT('',(11.683090839447,-0.805796027846,
    -2.671705608427));
#539 = CARTESIAN_POINT('',(11.700000001478,-0.406397599348,
    -2.750000006896));
#540 = CARTESIAN_POINT('',(11.7,-2.865673510005E-15,-2.75));
#541 = PCURVE('',#32,#542);
#542 = DEFINITIONAL_REPRESENTATION('',(#543),#566);
#543 = B_SPLINE_CURVE_WITH_KNOTS('',6,(#544,#545,#546,#547,#548,#549,
    #550,#551,#552,#553,#554,#555,#556,#557,#558,#559,#560,#561,#562,
    #563,#564,#565),.UNSPECIFIED.,.F.,.F.,(7,5,5,5,7),(
    1.639107714855E-15,1.66745811707,3.546940190077,5.42641812825,
    7.093165921282),.UNSPECIFIED.);
#544 = CARTESIAN_POINT('',(-6.28318530718,-17.75));
#545 = CARTESIAN_POINT('',(-6.248160553988,-17.75));
#546 = CARTESIAN_POINT('',(-6.214240236433,-17.67040323082));
#547 = CARTESIAN_POINT('',(-6.183142732575,-17.5202610595));
#548 = CARTESIAN_POINT('',(-6.156165354102,-17.31967207859));
#549 = CARTESIAN_POINT('',(-6.133557795091,-17.08882448057));
#550 = CARTESIAN_POINT('',(-6.094423587097,-16.56797557536));
#551 = CARTESIAN_POINT('',(-6.078694876379,-16.26977132839));
#552 = CARTESIAN_POINT('',(-6.067160207763,-15.95966615675));
#553 = CARTESIAN_POINT('',(-6.059602703949,-15.64178319019));
#554 = CARTESIAN_POINT('',(-6.055821658439,-15.32095372556));
#555 = CARTESIAN_POINT('',(-6.055821600208,-14.67905296462));
#556 = CARTESIAN_POINT('',(-6.059601228246,-14.35814429321));
#557 = CARTESIAN_POINT('',(-6.067168558021,-14.04009921449));
#558 = CARTESIAN_POINT('',(-6.078697252777,-13.73024467623));
#559 = CARTESIAN_POINT('',(-6.094420877533,-13.43206045362));
#560 = CARTESIAN_POINT('',(-6.133552399183,-12.91124736465));
#561 = CARTESIAN_POINT('',(-6.15617482039,-12.68023920752));
#562 = CARTESIAN_POINT('',(-6.183104135752,-12.48011796864));
#563 = CARTESIAN_POINT('',(-6.214314930663,-12.32829439157));
#564 = CARTESIAN_POINT('',(-6.248450469629,-12.2499999931));
#565 = CARTESIAN_POINT('',(-6.283185310816,-12.25));
#566 = ( GEOMETRIC_REPRESENTATION_CONTEXT(2) 
PARAMETRIC_REPRESENTATION_CONTEXT() REPRESENTATION_CONTEXT('2D SPACE',''
  ) );
#567 = PCURVE('',#568,#635);
#568 = ( BOUNDED_SURFACE() B_SPLINE_SURFACE(2,6,(
    (#569,#570,#571,#572,#573,#574,#575,#576,#577,#578,#579,#580,#581
      ,#582,#583,#584,#585,#586,#587,#588,#589,#590)
    ,(#591,#592,#593,#594,#595,#596,#597,#598,#599,#600,#601,#602,#603
      ,#604,#605,#606,#607,#608,#609,#610,#611,#612)
    ,(#613,#614,#615,#616,#617,#618,#619,#620,#621,#622,#623,#624,#625
      ,#626,#627,#628,#629,#630,#631,#632,#633,#634
)),.UNSPECIFIED.,.F.,.F.,.F.) B_SPLINE_SURFACE_WITH_KNOTS((3,3),(7,5,5,5
    ,7),(0.,7.093165921282),(1.639107714855E-15,1.66745811707,
    3.546940190077,5.42641812825,7.093165921282),.UNSPECIFIED.) 
GEOMETRIC_REPRESENTATION_ITEM() RATIONAL_B_SPLINE_SURFACE((
    (1.,1.,1.,1.,1.,1.,1.,1.,1.,1.,1.,1.,1.,1.,1.,1.,1.,1.,1.,1.,1.,1.)
    ,(0.707106781187,0.707106781187,0.71167943561,0.720363408187
      ,0.730582009347,0.740598951917,0.759718104683,0.768695046257
      ,0.775658040655,0.780393825666,0.782754709791,0.782754687419
      ,0.780394474569,0.775653051869,0.768694438018,0.759719432409
      ,0.740601584345,0.730577886693,0.720386044481,0.71160599381
      ,0.707106780911,0.707106781187)
    ,(1.,1.,1.,1.,1.,1.,1.,1.,1.,1.,1.,1.,1.,1.,1.,1.,1.,1.,1.,1.,1.,1.
))) REPRESENTATION_ITEM('') SURFACE() );
#569 = CARTESIAN_POINT('',(11.7,-2.865673510005E-15,2.75));
#570 = CARTESIAN_POINT('',(11.7,-0.40978961234,2.75));
#571 = CARTESIAN_POINT('',(11.682808573553,-0.806665649767,
    2.670403230828));
#572 = CARTESIAN_POINT('',(11.650233795911,-1.169564371258,
    2.520261059503));
#573 = CARTESIAN_POINT('',(11.61075176856,-1.482848018114,2.319672078595
    ));
#574 = CARTESIAN_POINT('',(11.571226194646,-1.744436007135,2.08882448057
    ));
#575 = CARTESIAN_POINT('',(11.494654058947,-2.195858047786,
    1.567975575367));
#576 = CARTESIAN_POINT('',(11.457938324356,-2.376282662092,
    1.269771328396));
#577 = CARTESIAN_POINT('',(11.428821536465,-2.508048205032,
    0.959666156755));
#578 = CARTESIAN_POINT('',(11.408852569707,-2.594194934726,
    0.641783190199));
#579 = CARTESIAN_POINT('',(11.398889261942,-2.637294749167,
    0.320953725561));
#580 = CARTESIAN_POINT('',(11.39888910837,-2.637295412936,
    -0.320947035375));
#581 = CARTESIAN_POINT('',(11.408848698324,-2.594211783246,
    -0.641855706782));
#582 = CARTESIAN_POINT('',(11.428844186421,-2.507953091039,
    -0.959900785507));
#583 = CARTESIAN_POINT('',(11.457941146371,-2.376254891952,
    -1.269755323767));
#584 = CARTESIAN_POINT('',(11.494648757002,-2.195889303182,
    -1.567939546377));
#585 = CARTESIAN_POINT('',(11.571215636951,-1.744498250204,
    -2.088752635341));
#586 = CARTESIAN_POINT('',(11.61077323785,-1.482735358981,
    -2.319760792473));
#587 = CARTESIAN_POINT('',(11.650135126098,-1.170020620317,
    -2.519882031351));
#588 = CARTESIAN_POINT('',(11.683090839447,-0.805796027846,
    -2.671705608427));
#589 = CARTESIAN_POINT('',(11.700000001478,-0.406397599348,
    -2.750000006896));
#590 = CARTESIAN_POINT('',(11.7,-2.865673510005E-15,-2.75));
#591 = CARTESIAN_POINT('',(11.7,-2.442490654175E-15,2.25));
#592 = CARTESIAN_POINT('',(11.7,-0.335283053691,2.25));
#593 = CARTESIAN_POINT('',(11.689091202492,-0.655619226759,
    2.190366281216));
#594 = CARTESIAN_POINT('',(11.669094945241,-0.953497655946,
    2.081410970306));
#595 = CARTESIAN_POINT('',(11.642364552495,-1.223817609562,
    1.925391887701));
#596 = CARTESIAN_POINT('',(11.61476198291,-1.452100551396,1.741226745705
    ));
#597 = CARTESIAN_POINT('',(11.560298176153,-1.848060473162,
    1.319313889158));
#598 = CARTESIAN_POINT('',(11.53370679048,-2.008856204538,1.07651404179)
  );
#599 = CARTESIAN_POINT('',(11.511370893342,-2.131189531217,
    0.815514538835));
#600 = CARTESIAN_POINT('',(11.496106113196,-2.210340567615,
    0.545591387032));
#601 = CARTESIAN_POINT('',(11.48849480644,-2.250002551618,0.271986307863
    ));
#602 = CARTESIAN_POINT('',(11.488496010948,-2.249997448201,
    -0.272027617672));
#603 = CARTESIAN_POINT('',(11.496109917395,-2.210326174017,
    -0.545714245975));
#604 = CARTESIAN_POINT('',(11.511378781909,-2.131141833488,
    -0.815577533683));
#605 = CARTESIAN_POINT('',(11.53370544438,-2.00884991234,-1.076494818198
    ));
#606 = CARTESIAN_POINT('',(11.56029301188,-1.848095972288,
    -1.319276069913));
#607 = CARTESIAN_POINT('',(11.614755637236,-1.452148551553,
    -1.741175593112));
#608 = CARTESIAN_POINT('',(11.642410695721,-1.224029863422,
    -1.925601073461));
#609 = CARTESIAN_POINT('',(11.668944589938,-0.952761170739,
    -2.080727676926));
#610 = CARTESIAN_POINT('',(11.689307925552,-0.657155000221,
    -2.191512100384));
#611 = CARTESIAN_POINT('',(11.699999999726,-0.330993367419,
    -2.25000000009));
#612 = CARTESIAN_POINT('',(11.7,-1.7763568394E-15,-2.25));
#613 = CARTESIAN_POINT('',(12.2,-8.614279572586E-16,2.25));
#614 = CARTESIAN_POINT('',(12.2,-0.349611811372,2.25));
#615 = CARTESIAN_POINT('',(12.182083602545,-0.688233964989,
    2.184735990983));
#616 = CARTESIAN_POINT('',(12.14823325133,-0.997646920552,2.06238538799)
  );
#617 = CARTESIAN_POINT('',(12.106919384883,-1.265637755157,
    1.897132485431));
#618 = CARTESIAN_POINT('',(12.065879555465,-1.487869600691,
    1.709381663673));
#619 = CARTESIAN_POINT('',(11.985868560264,-1.873852207244,
    1.282275179393));
#620 = CARTESIAN_POINT('',(11.947755863722,-2.026629090491,
    1.039462405135));
#621 = CARTESIAN_POINT('',(11.917197525204,-2.140150983025,
    0.784895395091));
#622 = CARTESIAN_POINT('',(11.896434988229,-2.213107576828,
    0.525094644474));
#623 = CARTESIAN_POINT('',(11.886020476795,-2.250002974495,
    0.262564005988));
#624 = CARTESIAN_POINT('',(11.886021925657,-2.249997025223,
    -0.262614404733));
#625 = CARTESIAN_POINT('',(11.896438983762,-2.213088395835,
    -0.525224271575));
#626 = CARTESIAN_POINT('',(11.917209794608,-2.140115761846,
    -0.784927986254));
#627 = CARTESIAN_POINT('',(11.947755381613,-2.026622915239,
    -1.039447650452));
#628 = CARTESIAN_POINT('',(11.985861490927,-1.873887749627,
    -1.28223585116));
#629 = CARTESIAN_POINT('',(12.065869884583,-1.487914974575,
    -1.709331454657));
#630 = CARTESIAN_POINT('',(12.106969770978,-1.265763224087,
    -1.89733666717));
#631 = CARTESIAN_POINT('',(12.148052621169,-0.997218087958,
    -2.061691632149));
#632 = CARTESIAN_POINT('',(12.182408726287,-0.689304568268,
    -2.185954762651));
#633 = CARTESIAN_POINT('',(12.19999999971,-0.345494748986,
    -2.249999997854));
#634 = CARTESIAN_POINT('',(12.2,-4.133182947122E-16,-2.25));
#635 = DEFINITIONAL_REPRESENTATION('',(#636),#640);
#636 = LINE('',#637,#638);
#637 = CARTESIAN_POINT('',(0.,0.));
#638 = VECTOR('',#639,1.);
#639 = DIRECTION('',(0.,1.));
#640 = ( GEOMETRIC_REPRESENTATION_CONTEXT(2) 
PARAMETRIC_REPRESENTATION_CONTEXT() REPRESENTATION_CONTEXT('2D SPACE',''
  ) );
#641 = ADVANCED_FACE('',(#642),#568,.F.);
#642 = FACE_BOUND('',#643,.F.);
#643 = EDGE_LOOP('',(#644,#666,#736,#756));
#644 = ORIENTED_EDGE('',*,*,#645,.T.);
#645 = EDGE_CURVE('',#204,#646,#648,.T.);
#646 = VERTEX_POINT('',#647);
#647 = CARTESIAN_POINT('',(12.2,-8.614279572586E-16,2.25));
#648 = SURFACE_CURVE('',#649,(#653,#660),.PCURVE_S1.);
#649 = ( BOUNDED_CURVE() B_SPLINE_CURVE(2,(#650,#651,#652),
.UNSPECIFIED.,.F.,.F.) B_SPLINE_CURVE_WITH_KNOTS((3,3),(0.,
7.093165921282),.PIECEWISE_BEZIER_KNOTS.) CURVE() 
GEOMETRIC_REPRESENTATION_ITEM() RATIONAL_B_SPLINE_CURVE((1.,
0.707106781187,1.)) REPRESENTATION_ITEM('') );
#650 = CARTESIAN_POINT('',(11.7,-2.865673510005E-15,2.75));
#651 = CARTESIAN_POINT('',(11.7,-2.442490654175E-15,2.25));
#652 = CARTESIAN_POINT('',(12.2,-8.614279572586E-16,2.25));
#653 = PCURVE('',#568,#654);
#654 = DEFINITIONAL_REPRESENTATION('',(#655),#659);
#655 = LINE('',#656,#657);
#656 = CARTESIAN_POINT('',(0.,1.639107714855E-15));
#657 = VECTOR('',#658,1.);
#658 = DIRECTION('',(1.,0.));
#659 = ( GEOMETRIC_REPRESENTATION_CONTEXT(2) 
PARAMETRIC_REPRESENTATION_CONTEXT() REPRESENTATION_CONTEXT('2D SPACE',''
  ) );
#660 = PCURVE('',#343,#661);
#661 = DEFINITIONAL_REPRESENTATION('',(#662),#665);
#662 = B_SPLINE_CURVE_WITH_KNOTS('',1,(#663,#664),.UNSPECIFIED.,.F.,.F.,
  (2,2),(0.,7.093165921282),.PIECEWISE_BEZIER_KNOTS.);
#663 = CARTESIAN_POINT('',(0.,14.170403465449));
#664 = CARTESIAN_POINT('',(3.536209389344,14.170403465449));
#665 = ( GEOMETRIC_REPRESENTATION_CONTEXT(2) 
PARAMETRIC_REPRESENTATION_CONTEXT() REPRESENTATION_CONTEXT('2D SPACE',''
  ) );
#666 = ORIENTED_EDGE('',*,*,#667,.T.);
#667 = EDGE_CURVE('',#646,#668,#670,.T.);
#668 = VERTEX_POINT('',#669);
#669 = CARTESIAN_POINT('',(12.2,-4.133182947122E-16,-2.25));
#670 = SURFACE_CURVE('',#671,(#694,#701),.PCURVE_S1.);
#671 = ( BOUNDED_CURVE() B_SPLINE_CURVE(6,(#672,#673,#674,#675,#676,#677
    ,#678,#679,#680,#681,#682,#683,#684,#685,#686,#687,#688,#689,#690,
#691,#692,#693),.UNSPECIFIED.,.F.,.F.) B_SPLINE_CURVE_WITH_KNOTS((7,5,5,
    5,7),(1.639107714855E-15,1.66745811707,3.546940190077,5.42641812825,
7.093165921282),.UNSPECIFIED.) CURVE() GEOMETRIC_REPRESENTATION_ITEM() 
RATIONAL_B_SPLINE_CURVE((1.,1.,1.,1.,1.,1.,1.,1.,1.,1.,1.,1.,1.,1.,1.,1.
,1.,1.,1.,1.,1.,1.)) REPRESENTATION_ITEM('') );
#672 = CARTESIAN_POINT('',(12.2,-8.614279572586E-16,2.25));
#673 = CARTESIAN_POINT('',(12.2,-0.349611811372,2.25));
#674 = CARTESIAN_POINT('',(12.182083602545,-0.688233964989,
    2.184735990983));
#675 = CARTESIAN_POINT('',(12.14823325133,-0.997646920552,2.06238538799)
  );
#676 = CARTESIAN_POINT('',(12.106919384883,-1.265637755157,
    1.897132485431));
#677 = CARTESIAN_POINT('',(12.065879555465,-1.487869600691,
    1.709381663673));
#678 = CARTESIAN_POINT('',(11.985868560264,-1.873852207244,
    1.282275179393));
#679 = CARTESIAN_POINT('',(11.947755863722,-2.026629090491,
    1.039462405135));
#680 = CARTESIAN_POINT('',(11.917197525204,-2.140150983025,
    0.784895395091));
#681 = CARTESIAN_POINT('',(11.896434988229,-2.213107576828,
    0.525094644474));
#682 = CARTESIAN_POINT('',(11.886020476795,-2.250002974495,
    0.262564005988));
#683 = CARTESIAN_POINT('',(11.886021925657,-2.249997025223,
    -0.262614404733));
#684 = CARTESIAN_POINT('',(11.896438983762,-2.213088395835,
    -0.525224271575));
#685 = CARTESIAN_POINT('',(11.917209794608,-2.140115761846,
    -0.784927986254));
#686 = CARTESIAN_POINT('',(11.947755381613,-2.026622915239,
    -1.039447650452));
#687 = CARTESIAN_POINT('',(11.985861490927,-1.873887749627,
    -1.28223585116));
#688 = CARTESIAN_POINT('',(12.065869884583,-1.487914974575,
    -1.709331454657));
#689 = CARTESIAN_POINT('',(12.106969770978,-1.265763224087,
    -1.89733666717));
#690 = CARTESIAN_POINT('',(12.148052621169,-0.997218087958,
    -2.061691632149));
#691 = CARTESIAN_POINT('',(12.182408726287,-0.689304568268,
    -2.185954762651));
#692 = CARTESIAN_POINT('',(12.19999999971,-0.345494748986,
    -2.249999997854));
#693 = CARTESIAN_POINT('',(12.2,-4.133182947122E-16,-2.25));
#694 = PCURVE('',#568,#695);
#695 = DEFINITIONAL_REPRESENTATION('',(#696),#700);
#696 = LINE('',#697,#698);
#697 = CARTESIAN_POINT('',(7.093165921282,0.));
#698 = VECTOR('',#699,1.);
#699 = DIRECTION('',(0.,1.));
#700 = ( GEOMETRIC_REPRESENTATION_CONTEXT(2) 
PARAMETRIC_REPRESENTATION_CONTEXT() REPRESENTATION_CONTEXT('2D SPACE',''
  ) );
#701 = PCURVE('',#702,#707);
#702 = CYLINDRICAL_SURFACE('',#703,2.25);
#703 = AXIS2_PLACEMENT_3D('',#704,#705,#706);
#704 = CARTESIAN_POINT('',(0.,0.,0.));
#705 = DIRECTION('',(-1.,-0.,-0.));
#706 = DIRECTION('',(0.,1.,0.));
#707 = DEFINITIONAL_REPRESENTATION('',(#708),#735);
#708 = B_SPLINE_CURVE_WITH_KNOTS('',7,(#709,#710,#711,#712,#713,#714,
    #715,#716,#717,#718,#719,#720,#721,#722,#723,#724,#725,#726,#727,
    #728,#729,#730,#731,#732,#733,#734),.UNSPECIFIED.,.F.,.F.,(8,6,6,6,8
    ),(1.639107714855E-15,1.773291480321,3.546582960641,5.319874440962,
    7.093165921282),.UNSPECIFIED.);
#709 = CARTESIAN_POINT('',(-1.570796326795,-12.2));
#710 = CARTESIAN_POINT('',(-1.712435043132,-12.2));
#711 = CARTESIAN_POINT('',(-1.850096685595,-12.18554140043));
#712 = CARTESIAN_POINT('',(-1.983068891888,-12.15789148241));
#713 = CARTESIAN_POINT('',(-2.110060710592,-12.12224349111));
#714 = CARTESIAN_POINT('',(-2.231426665955,-12.08380073953));
#715 = CARTESIAN_POINT('',(-2.344553658487,-12.04738545811));
#716 = CARTESIAN_POINT('',(-2.559609798101,-11.98092801169));
#717 = CARTESIAN_POINT('',(-2.66166145983,-11.95087630319));
#718 = CARTESIAN_POINT('',(-2.760792103448,-11.92549195714));
#719 = CARTESIAN_POINT('',(-2.857613263333,-11.90587977221));
#720 = CARTESIAN_POINT('',(-2.952696182663,-11.89265789111));
#721 = CARTESIAN_POINT('',(-3.047092332947,-11.88602862454));
#722 = CARTESIAN_POINT('',(-3.235849444458,-11.88601378754));
#723 = CARTESIAN_POINT('',(-3.33026683965,-11.89262896154));
#724 = CARTESIAN_POINT('',(-3.425338071389,-11.90584016422));
#725 = CARTESIAN_POINT('',(-3.522132278682,-11.92543699277));
#726 = CARTESIAN_POINT('',(-3.621239382063,-11.95080119141));
#727 = CARTESIAN_POINT('',(-3.72327104556,-11.98083784219));
#728 = CARTESIAN_POINT('',(-3.938320876491,-12.04728567966));
#729 = CARTESIAN_POINT('',(-4.051479872943,-12.08375117484));
#730 = CARTESIAN_POINT('',(-4.172893440492,-12.12211703679));
#731 = CARTESIAN_POINT('',(-4.299959497666,-12.15782482916));
#732 = CARTESIAN_POINT('',(-4.432958872347,-12.18579895117));
#733 = CARTESIAN_POINT('',(-4.572358557154,-12.19999999973));
#734 = CARTESIAN_POINT('',(-4.712388974173,-12.2));
#735 = ( GEOMETRIC_REPRESENTATION_CONTEXT(2) 
PARAMETRIC_REPRESENTATION_CONTEXT() REPRESENTATION_CONTEXT('2D SPACE',''
  ) );
#736 = ORIENTED_EDGE('',*,*,#737,.F.);
#737 = EDGE_CURVE('',#24,#668,#738,.T.);
#738 = SURFACE_CURVE('',#739,(#743,#750),.PCURVE_S1.);
#739 = ( BOUNDED_CURVE() B_SPLINE_CURVE(2,(#740,#741,#742),
.UNSPECIFIED.,.F.,.F.) B_SPLINE_CURVE_WITH_KNOTS((3,3),(0.,
7.093165921282),.PIECEWISE_BEZIER_KNOTS.) CURVE() 
GEOMETRIC_REPRESENTATION_ITEM() RATIONAL_B_SPLINE_CURVE((1.,
0.707106781187,1.)) REPRESENTATION_ITEM('') );
#740 = CARTESIAN_POINT('',(11.7,-2.865673510005E-15,-2.75));
#741 = CARTESIAN_POINT('',(11.7,-1.7763568394E-15,-2.25));
#742 = CARTESIAN_POINT('',(12.2,-4.133182947122E-16,-2.25));
#743 = PCURVE('',#568,#744);
#744 = DEFINITIONAL_REPRESENTATION('',(#745),#749);
#745 = LINE('',#746,#747);
#746 = CARTESIAN_POINT('',(0.,7.093165921282));
#747 = VECTOR('',#748,1.);
#748 = DIRECTION('',(1.,0.));
#749 = ( GEOMETRIC_REPRESENTATION_CONTEXT(2) 
PARAMETRIC_REPRESENTATION_CONTEXT() REPRESENTATION_CONTEXT('2D SPACE',''
  ) );
#750 = PCURVE('',#159,#751);
#751 = DEFINITIONAL_REPRESENTATION('',(#752),#755);
#752 = B_SPLINE_CURVE_WITH_KNOTS('',1,(#753,#754),.UNSPECIFIED.,.F.,.F.,
  (2,2),(0.,7.093165921282),.PIECEWISE_BEZIER_KNOTS.);
#753 = CARTESIAN_POINT('',(0.,7.093165921282));
#754 = CARTESIAN_POINT('',(3.541028154823,7.093165921282));
#755 = ( GEOMETRIC_REPRESENTATION_CONTEXT(2) 
PARAMETRIC_REPRESENTATION_CONTEXT() REPRESENTATION_CONTEXT('2D SPACE',''
  ) );
#756 = ORIENTED_EDGE('',*,*,#516,.F.);
#757 = ADVANCED_FACE('',(#758),#66,.F.);
#758 = FACE_BOUND('',#759,.F.);
#759 = EDGE_LOOP('',(#760));
#760 = ORIENTED_EDGE('',*,*,#51,.T.);
#761 = ADVANCED_FACE('',(#762),#503,.T.);
#762 = FACE_BOUND('',#763,.T.);
#763 = EDGE_LOOP('',(#764));
#764 = ORIENTED_EDGE('',*,*,#488,.T.);
#765 = ADVANCED_FACE('',(#766),#159,.F.);
#766 = FACE_BOUND('',#767,.F.);
#767 = EDGE_LOOP('',(#768,#769,#812,#832));
#768 = ORIENTED_EDGE('',*,*,#737,.T.);
#769 = ORIENTED_EDGE('',*,*,#770,.T.);
#770 = EDGE_CURVE('',#668,#771,#773,.T.);
#771 = VERTEX_POINT('',#772);
#772 = CARTESIAN_POINT('',(11.886021201175,2.25,-5.510910596163E-16));
#773 = SURFACE_CURVE('',#774,(#787,#794),.PCURVE_S1.);
#774 = ( BOUNDED_CURVE() B_SPLINE_CURVE(6,(#775,#776,#777,#778,#779,#780
    ,#781,#782,#783,#784,#785,#786),.UNSPECIFIED.,.F.,.F.) 
B_SPLINE_CURVE_WITH_KNOTS((7,5,7),(7.093165921282,8.687026049524,
10.634194076106),.UNSPECIFIED.) CURVE() GEOMETRIC_REPRESENTATION_ITEM() 
RATIONAL_B_SPLINE_CURVE((1.,1.,1.,1.,1.,1.,1.,1.,1.,1.,1.,1.)) 
REPRESENTATION_ITEM('') );
#775 = CARTESIAN_POINT('',(12.2,-4.133182947122E-16,-2.25));
#776 = CARTESIAN_POINT('',(12.200000000277,0.330386073799,
    -2.250000002052));
#777 = CARTESIAN_POINT('',(12.183912931433,0.660113050228,
    -2.191439475626));
#778 = CARTESIAN_POINT('',(12.152327440864,0.957678579551,-2.0771471769)
  );
#779 = CARTESIAN_POINT('',(12.11384833333,1.219941257178,-1.924724478181
    ));
#780 = CARTESIAN_POINT('',(12.074633419835,1.439571096486,-1.74896368844
    ));
#781 = CARTESIAN_POINT('',(11.993392025954,1.843432647561,
    -1.329227992208));
#782 = CARTESIAN_POINT('',(11.952511305508,2.009013713821,
    -1.078486341976));
#783 = CARTESIAN_POINT('',(11.919652156133,2.131500999038,
    -0.814899797198));
#784 = CARTESIAN_POINT('',(11.897249808852,2.210221247415,
    -0.545291376142));
#785 = CARTESIAN_POINT('',(11.886021136708,2.250000685152,
    -0.272679696993));
#786 = CARTESIAN_POINT('',(11.886021201175,2.25,-5.510910596163E-16));
#787 = PCURVE('',#159,#788);
#788 = DEFINITIONAL_REPRESENTATION('',(#789),#793);
#789 = LINE('',#790,#791);
#790 = CARTESIAN_POINT('',(3.541028154823,0.));
#791 = VECTOR('',#792,1.);
#792 = DIRECTION('',(0.,1.));
#793 = ( GEOMETRIC_REPRESENTATION_CONTEXT(2) 
PARAMETRIC_REPRESENTATION_CONTEXT() REPRESENTATION_CONTEXT('2D SPACE',''
  ) );
#794 = PCURVE('',#702,#795);
#795 = DEFINITIONAL_REPRESENTATION('',(#796),#811);
#796 = B_SPLINE_CURVE_WITH_KNOTS('',7,(#797,#798,#799,#800,#801,#802,
    #803,#804,#805,#806,#807,#808,#809,#810),.UNSPECIFIED.,.F.,.F.,(8,6,
    8),(7.093165921282,8.863679998694,10.634194076106),.UNSPECIFIED.);
#797 = CARTESIAN_POINT('',(-4.712388974173,-12.2));
#798 = CARTESIAN_POINT('',(-4.852200058154,-12.20000000026));
#799 = CARTESIAN_POINT('',(-4.991721626982,-12.1858475383));
#800 = CARTESIAN_POINT('',(-5.124701411384,-12.15782850925));
#801 = CARTESIAN_POINT('',(-5.251759691634,-12.12216501734));
#802 = CARTESIAN_POINT('',(-5.373254384821,-12.08374943664));
#803 = CARTESIAN_POINT('',(-5.485826270395,-12.04749343655));
#804 = CARTESIAN_POINT('',(-5.700742700168,-11.98106245841));
#805 = CARTESIAN_POINT('',(-5.802997827825,-11.9509370739));
#806 = CARTESIAN_POINT('',(-5.90222261471,-11.92552075773));
#807 = CARTESIAN_POINT('',(-5.999099638597,-11.90589304695));
#808 = CARTESIAN_POINT('',(-6.094270766713,-11.89265125088));
#809 = CARTESIAN_POINT('',(-6.188734016616,-11.88602115093));
#810 = CARTESIAN_POINT('',(-6.283187819817,-11.88602120117));
#811 = ( GEOMETRIC_REPRESENTATION_CONTEXT(2) 
PARAMETRIC_REPRESENTATION_CONTEXT() REPRESENTATION_CONTEXT('2D SPACE',''
  ) );
#812 = ORIENTED_EDGE('',*,*,#813,.F.);
#813 = EDGE_CURVE('',#80,#771,#814,.T.);
#814 = SURFACE_CURVE('',#815,(#819,#826),.PCURVE_S1.);
#815 = ( BOUNDED_CURVE() B_SPLINE_CURVE(2,(#816,#817,#818),
.UNSPECIFIED.,.F.,.F.) B_SPLINE_CURVE_WITH_KNOTS((3,3),(0.,
3.541028154823),.PIECEWISE_BEZIER_KNOTS.) CURVE() 
GEOMETRIC_REPRESENTATION_ITEM() RATIONAL_B_SPLINE_CURVE((1.,
0.782754698611,1.)) REPRESENTATION_ITEM('') );
#816 = CARTESIAN_POINT('',(11.398889185235,2.637295080711,0.));
#817 = CARTESIAN_POINT('',(11.488495408662,2.250000000007,
    9.617515339677E-08));
#818 = CARTESIAN_POINT('',(11.886021201175,2.25,-5.510910596163E-16));
#819 = PCURVE('',#159,#820);
#820 = DEFINITIONAL_REPRESENTATION('',(#821),#825);
#821 = LINE('',#822,#823);
#822 = CARTESIAN_POINT('',(0.,10.634194076106));
#823 = VECTOR('',#824,1.);
#824 = DIRECTION('',(1.,0.));
#825 = ( GEOMETRIC_REPRESENTATION_CONTEXT(2) 
PARAMETRIC_REPRESENTATION_CONTEXT() REPRESENTATION_CONTEXT('2D SPACE',''
  ) );
#826 = PCURVE('',#343,#827);
#827 = DEFINITIONAL_REPRESENTATION('',(#828),#831);
#828 = B_SPLINE_CURVE_WITH_KNOTS('',1,(#829,#830),.UNSPECIFIED.,.F.,.F.,
  (2,2),(0.,3.541028154823),.PIECEWISE_BEZIER_KNOTS.);
#829 = CARTESIAN_POINT('',(0.,10.634194076106));
#830 = CARTESIAN_POINT('',(3.536209389344,10.634194076106));
#831 = ( GEOMETRIC_REPRESENTATION_CONTEXT(2) 
PARAMETRIC_REPRESENTATION_CONTEXT() REPRESENTATION_CONTEXT('2D SPACE',''
  ) );
#832 = ORIENTED_EDGE('',*,*,#79,.F.);
#833 = ADVANCED_FACE('',(#834),#343,.F.);
#834 = FACE_BOUND('',#835,.F.);
#835 = EDGE_LOOP('',(#836,#837,#920,#921));
#836 = ORIENTED_EDGE('',*,*,#813,.T.);
#837 = ORIENTED_EDGE('',*,*,#838,.T.);
#838 = EDGE_CURVE('',#771,#646,#839,.T.);
#839 = SURFACE_CURVE('',#840,(#879,#886),.PCURVE_S1.);
#840 = ( BOUNDED_CURVE() B_SPLINE_CURVE(13,(#841,#842,#843,#844,#845,
    #846,#847,#848,#849,#850,#851,#852,#853,#854,#855,#856,#857,#858,
    #859,#860,#861,#862,#863,#864,#865,#866,#867,#868,#869,#870,#871,
    #872,#873,#874,#875,#876,#877,#878),.UNSPECIFIED.,.F.,.F.) 
B_SPLINE_CURVE_WITH_KNOTS((14,12,12,14),(10.634194076106,12.509227063485
,13.339815264467,14.170403465449),.UNSPECIFIED.) CURVE() 
GEOMETRIC_REPRESENTATION_ITEM() RATIONAL_B_SPLINE_CURVE((1.,1.,
    0.999999999999,1.000000000004,0.999999999992,1.000000000012,
    0.999999999986,1.000000000014,0.999999999989,1.000000000007,
    0.999999999997,1.000000000001,1.,1.,1.,1.000000000001,0.999999999998
    ,1.000000000003,0.999999999997,1.000000000003,0.999999999998,
    1.000000000001,0.999999999999,1.,1.,1.,1.,1.000000000001,
    0.999999999997,1.000000000004,0.999999999995,1.000000000005,
    0.999999999996,1.000000000002,0.999999999999,1.,1.,1.)) 
REPRESENTATION_ITEM('') );
#841 = CARTESIAN_POINT('',(11.886021201175,2.25,0.));
#842 = CARTESIAN_POINT('',(11.886021229826,2.24999969548,0.121197998162)
  );
#843 = CARTESIAN_POINT('',(11.888024356662,2.242901256913,0.242393776727
    ));
#844 = CARTESIAN_POINT('',(11.892026049728,2.228766505482,0.36339047901)
  );
#845 = CARTESIAN_POINT('',(11.898011330031,2.20754199326,0.483998070699)
  );
#846 = CARTESIAN_POINT('',(11.905949186591,2.179113554472,0.604015855418
    ));
#847 = CARTESIAN_POINT('',(11.91578813123,2.143341924362,0.723216094453)
  );
#848 = CARTESIAN_POINT('',(11.927452893148,2.100079425712,0.841334384126
    ));
#849 = CARTESIAN_POINT('',(11.940842253242,2.049167722913,0.958066790828
    ));
#850 = CARTESIAN_POINT('',(11.955828018189,1.99041664373,1.073073743579)
  );
#851 = CARTESIAN_POINT('',(11.9722551343,1.923564068589,1.185990684386)
  );
#852 = CARTESIAN_POINT('',(11.989942941119,1.848216887566,1.296445476034
    ));
#853 = CARTESIAN_POINT('',(12.008687564802,1.763773024917,1.40408256768)
  );
#854 = CARTESIAN_POINT('',(12.036937918112,1.627486438318,1.554889580479
    ));
#855 = CARTESIAN_POINT('',(12.045777148692,1.583683172593,1.600566764628
    ));
#856 = CARTESIAN_POINT('',(12.054755665096,1.537868305345,1.645545490075
    ));
#857 = CARTESIAN_POINT('',(12.06383977373,1.490008628728,1.68973007317)
  );
#858 = CARTESIAN_POINT('',(12.072990230997,1.440083827612,1.733011521276
    ));
#859 = CARTESIAN_POINT('',(12.082162909025,1.388086151391,1.775269927139
    ));
#860 = CARTESIAN_POINT('',(12.091309461373,1.334020085789,1.816376863195
    ));
#861 = CARTESIAN_POINT('',(12.100377988767,1.27790202467,1.856197775964)
  );
#862 = CARTESIAN_POINT('',(12.109313704801,1.219759941845,1.894594380341
    ));
#863 = CARTESIAN_POINT('',(12.118059601669,1.159633062878,1.931427053997
    ));
#864 = CARTESIAN_POINT('',(12.126557115876,1.0975715369,1.966557231678)
  );
#865 = CARTESIAN_POINT('',(12.134746793962,1.033636108407,1.999849799581
    ));
#866 = CARTESIAN_POINT('',(12.150391122467,0.90215946975,2.062501179788)
  );
#867 = CARTESIAN_POINT('',(12.157846104398,0.834514874559,2.091857778459
    ));
#868 = CARTESIAN_POINT('',(12.164874772706,0.766076620474,2.119112293381
    ));
#869 = CARTESIAN_POINT('',(12.171418213691,0.6917846443,2.144134495885)
  );
#870 = CARTESIAN_POINT('',(12.177418588489,0.628070815307,2.166797972751
    ));
#871 = CARTESIAN_POINT('',(12.182820019584,0.537926838806,2.186981041066
    ));
#872 = CARTESIAN_POINT('',(12.187569503107,0.484780168313,2.204567624513
    ));
#873 = CARTESIAN_POINT('',(12.191617841027,0.385446398451,2.219448162513
    ));
#874 = CARTESIAN_POINT('',(12.194920577138,0.325594547985,2.231520573151
    ));
#875 = CARTESIAN_POINT('',(12.197438897657,0.236697186297,2.240691220666
    ));
#876 = CARTESIAN_POINT('',(12.199140445121,0.161634807558,2.246875794087
    ));
#877 = CARTESIAN_POINT('',(12.2,8.037570916887E-02,2.25));
#878 = CARTESIAN_POINT('',(12.2,-8.614279572586E-16,2.25));
#879 = PCURVE('',#343,#880);
#880 = DEFINITIONAL_REPRESENTATION('',(#881),#885);
#881 = LINE('',#882,#883);
#882 = CARTESIAN_POINT('',(3.536209389344,0.));
#883 = VECTOR('',#884,1.);
#884 = DIRECTION('',(0.,1.));
#885 = ( GEOMETRIC_REPRESENTATION_CONTEXT(2) 
PARAMETRIC_REPRESENTATION_CONTEXT() REPRESENTATION_CONTEXT('2D SPACE',''
  ) );
#886 = PCURVE('',#702,#887);
#887 = DEFINITIONAL_REPRESENTATION('',(#888),#919);
#888 = B_SPLINE_CURVE_WITH_KNOTS('',8,(#889,#890,#891,#892,#893,#894,
    #895,#896,#897,#898,#899,#900,#901,#902,#903,#904,#905,#906,#907,
    #908,#909,#910,#911,#912,#913,#914,#915,#916,#917,#918),
  .UNSPECIFIED.,.F.,.F.,(9,7,7,7,9),(10.634194076106,12.402298770778,
    13.286351118113,13.728377291781,14.170403465449),.UNSPECIFIED.);
#889 = CARTESIAN_POINT('',(-2.512637607588E-06,-11.88602120117));
#890 = CARTESIAN_POINT('',(-8.254268252992E-02,-11.88602124508));
#891 = CARTESIAN_POINT('',(-0.165070643976,-11.89098075245));
#892 = CARTESIAN_POINT('',(-0.248104961498,-11.90089043056));
#893 = CARTESIAN_POINT('',(-0.332087341757,-11.91563099866));
#894 = CARTESIAN_POINT('',(-0.417570446447,-11.93492447023));
#895 = CARTESIAN_POINT('',(-0.505007704682,-11.95826957514));
#896 = CARTESIAN_POINT('',(-0.59488328282,-11.9849212991));
#897 = CARTESIAN_POINT('',(-0.735938913096,-12.02850112692));
#898 = CARTESIAN_POINT('',(-0.783998786656,-12.04362248425));
#899 = CARTESIAN_POINT('',(-0.83336834989,-12.05927492687));
#900 = CARTESIAN_POINT('',(-0.884065475327,-12.07523985529));
#901 = CARTESIAN_POINT('',(-0.936033387219,-12.09122197507));
#902 = CARTESIAN_POINT('',(-0.989229753211,-12.10689532235));
#903 = CARTESIAN_POINT('',(-1.043629028947,-12.12191707317));
#904 = CARTESIAN_POINT('',(-1.126892568922,-12.14290516821));
#905 = CARTESIAN_POINT('',(-1.154926454378,-12.14964530142));
#906 = CARTESIAN_POINT('',(-1.183232164398,-12.15608236122));
#907 = CARTESIAN_POINT('',(-1.211801761537,-12.16217064511));
#908 = CARTESIAN_POINT('',(-1.240626918478,-12.16786592309));
#909 = CARTESIAN_POINT('',(-1.269698918025,-12.17312543761));
#910 = CARTESIAN_POINT('',(-1.299008653109,-12.17790790359));
#911 = CARTESIAN_POINT('',(-1.358084600457,-12.18643911324));
#912 = CARTESIAN_POINT('',(-1.38780369014,-12.19018875641));
#913 = CARTESIAN_POINT('',(-1.418048271436,-12.19338436988));
#914 = CARTESIAN_POINT('',(-1.447678862365,-12.19599141838));
#915 = CARTESIAN_POINT('',(-1.478829569348,-12.19797899635));
#916 = CARTESIAN_POINT('',(-1.508824031867,-12.19932184435));
#917 = CARTESIAN_POINT('',(-1.539903482637,-12.2));
#918 = CARTESIAN_POINT('',(-1.570796326795,-12.2));
#919 = ( GEOMETRIC_REPRESENTATION_CONTEXT(2) 
PARAMETRIC_REPRESENTATION_CONTEXT() REPRESENTATION_CONTEXT('2D SPACE',''
  ) );
#920 = ORIENTED_EDGE('',*,*,#645,.F.);
#921 = ORIENTED_EDGE('',*,*,#203,.F.);
#922 = ADVANCED_FACE('',(#923),#702,.T.);
#923 = FACE_BOUND('',#924,.F.);
#924 = EDGE_LOOP('',(#925,#948,#949,#950,#951,#952,#1013,#1110));
#925 = ORIENTED_EDGE('',*,*,#926,.F.);
#926 = EDGE_CURVE('',#771,#927,#929,.T.);
#927 = VERTEX_POINT('',#928);
#928 = CARTESIAN_POINT('',(13.311179511974,2.25,0.));
#929 = SEAM_CURVE('',#930,(#934,#941),.PCURVE_S1.);
#930 = LINE('',#931,#932);
#931 = CARTESIAN_POINT('',(0.,2.25,0.));
#932 = VECTOR('',#933,1.);
#933 = DIRECTION('',(1.,0.,0.));
#934 = PCURVE('',#702,#935);
#935 = DEFINITIONAL_REPRESENTATION('',(#936),#940);
#936 = LINE('',#937,#938);
#937 = CARTESIAN_POINT('',(-6.28318530718,0.));
#938 = VECTOR('',#939,1.);
#939 = DIRECTION('',(-0.,-1.));
#940 = ( GEOMETRIC_REPRESENTATION_CONTEXT(2) 
PARAMETRIC_REPRESENTATION_CONTEXT() REPRESENTATION_CONTEXT('2D SPACE',''
  ) );
#941 = PCURVE('',#702,#942);
#942 = DEFINITIONAL_REPRESENTATION('',(#943),#947);
#943 = LINE('',#944,#945);
#944 = CARTESIAN_POINT('',(-0.,0.));
#945 = VECTOR('',#946,1.);
#946 = DIRECTION('',(-0.,-1.));
#947 = ( GEOMETRIC_REPRESENTATION_CONTEXT(2) 
PARAMETRIC_REPRESENTATION_CONTEXT() REPRESENTATION_CONTEXT('2D SPACE',''
  ) );
#948 = ORIENTED_EDGE('',*,*,#770,.F.);
#949 = ORIENTED_EDGE('',*,*,#667,.F.);
#950 = ORIENTED_EDGE('',*,*,#838,.F.);
#951 = ORIENTED_EDGE('',*,*,#926,.T.);
#952 = ORIENTED_EDGE('',*,*,#953,.T.);
#953 = EDGE_CURVE('',#927,#954,#956,.T.);
#954 = VERTEX_POINT('',#955);
#955 = CARTESIAN_POINT('',(13.5,0.,2.25));
#956 = SURFACE_CURVE('',#957,(#972,#990),.PCURVE_S1.);
#957 = B_SPLINE_CURVE_WITH_KNOTS('',7,(#958,#959,#960,#961,#962,#963,
    #964,#965,#966,#967,#968,#969,#970,#971),.UNSPECIFIED.,.F.,.F.,(8,6,
    8),(0.,0.530388284798,1.),.UNSPECIFIED.);
#958 = CARTESIAN_POINT('',(13.311179511974,2.25,-2.755455298082E-16));
#959 = CARTESIAN_POINT('',(13.311179511974,2.25,0.233256893862));
#960 = CARTESIAN_POINT('',(13.315948031156,2.221788779228,0.466265351717
    ));
#961 = CARTESIAN_POINT('',(13.325468027389,2.165469182157,0.696983746242
    ));
#962 = CARTESIAN_POINT('',(13.339455718119,2.080421044764,0.923163232462
    ));
#963 = CARTESIAN_POINT('',(13.357339923375,1.965500949327,1.141977420198
    ));
#964 = CARTESIAN_POINT('',(13.3780765577,1.819232824554,1.349558470007)
  );
#965 = CARTESIAN_POINT('',(13.41939799946,1.48164351878,1.709054567107)
  );
#966 = CARTESIAN_POINT('',(13.440248863747,1.293148614051,1.869155905472
    ));
#967 = CARTESIAN_POINT('',(13.460966834821,1.07536767658,2.010873275719)
  );
#968 = CARTESIAN_POINT('',(13.479317680636,0.83142080916,2.125899748935)
  );
#969 = CARTESIAN_POINT('',(13.492897424764,0.566360938063,2.207385899994
    ));
#970 = CARTESIAN_POINT('',(13.5,0.286679339789,2.25));
#971 = CARTESIAN_POINT('',(13.5,3.444319122602E-16,2.25));
#972 = PCURVE('',#702,#973);
#973 = DEFINITIONAL_REPRESENTATION('',(#974),#989);
#974 = B_SPLINE_CURVE_WITH_KNOTS('',7,(#975,#976,#977,#978,#979,#980,
    #981,#982,#983,#984,#985,#986,#987,#988),.UNSPECIFIED.,.F.,.F.,(8,6,
    8),(0.,0.530388284798,1.),.UNSPECIFIED.);
#975 = CARTESIAN_POINT('',(0.,-13.31117951197));
#976 = CARTESIAN_POINT('',(-0.103669730605,-13.31117951197));
#977 = CARTESIAN_POINT('',(-0.207228797334,-13.31594803115));
#978 = CARTESIAN_POINT('',(-0.311591270162,-13.32546802738));
#979 = CARTESIAN_POINT('',(-0.417555363209,-13.33945571811));
#980 = CARTESIAN_POINT('',(-0.525976604908,-13.35733992337));
#981 = CARTESIAN_POINT('',(-0.637731223727,-13.3780765577));
#982 = CARTESIAN_POINT('',(-0.856912183161,-13.41939799946));
#983 = CARTESIAN_POINT('',(-0.966131206489,-13.44024886374));
#984 = CARTESIAN_POINT('',(-1.080084243054,-13.46096683482));
#985 = CARTESIAN_POINT('',(-1.197896998682,-13.47931768063));
#986 = CARTESIAN_POINT('',(-1.319080494206,-13.49289742476));
#987 = CARTESIAN_POINT('',(-1.443383286888,-13.5));
#988 = CARTESIAN_POINT('',(-1.570796326795,-13.5));
#989 = ( GEOMETRIC_REPRESENTATION_CONTEXT(2) 
PARAMETRIC_REPRESENTATION_CONTEXT() REPRESENTATION_CONTEXT('2D SPACE',''
  ) );
#990 = PCURVE('',#991,#996);
#991 = CYLINDRICAL_SURFACE('',#992,13.5);
#992 = AXIS2_PLACEMENT_3D('',#993,#994,#995);
#993 = CARTESIAN_POINT('',(0.,0.,118.21746909826));
#994 = DIRECTION('',(0.,0.,1.));
#995 = DIRECTION('',(1.,0.,0.));
#996 = DEFINITIONAL_REPRESENTATION('',(#997),#1012);
#997 = B_SPLINE_CURVE_WITH_KNOTS('',7,(#998,#999,#1000,#1001,#1002,#1003
    ,#1004,#1005,#1006,#1007,#1008,#1009,#1010,#1011),.UNSPECIFIED.,.F.,
  .F.,(8,6,8),(0.,0.530388284798,1.),.UNSPECIFIED.);
#998 = CARTESIAN_POINT('',(0.16744807922,-118.2174690982));
#999 = CARTESIAN_POINT('',(0.16744807922,-117.9842122044));
#1000 = CARTESIAN_POINT('',(0.165328717799,-117.7512037465));
#1001 = CARTESIAN_POINT('',(0.16109770935,-117.520485352));
#1002 = CARTESIAN_POINT('',(0.154713292941,-117.2943058658));
#1003 = CARTESIAN_POINT('',(0.146098908923,-117.075491678));
#1004 = CARTESIAN_POINT('',(0.135157873237,-116.8679106282));
#1005 = CARTESIAN_POINT('',(0.109964628239,-116.5084145311));
#1006 = CARTESIAN_POINT('',(9.591784220014E-02,-116.3483131927));
#1007 = CARTESIAN_POINT('',(7.971618717642E-02,-116.2065958225));
#1008 = CARTESIAN_POINT('',(6.160229469272E-02,-116.0915693493));
#1009 = CARTESIAN_POINT('',(4.195267704768E-02,-116.0100831982));
#1010 = CARTESIAN_POINT('',(2.123550665107E-02,-115.9674690982));
#1011 = CARTESIAN_POINT('',(0.,-115.9674690982));
#1012 = ( GEOMETRIC_REPRESENTATION_CONTEXT(2) 
PARAMETRIC_REPRESENTATION_CONTEXT() REPRESENTATION_CONTEXT('2D SPACE',''
  ) );
#1013 = ORIENTED_EDGE('',*,*,#1014,.T.);
#1014 = EDGE_CURVE('',#954,#1015,#1017,.T.);
#1015 = VERTEX_POINT('',#1016);
#1016 = CARTESIAN_POINT('',(13.5,0.,-2.25));
#1017 = SURFACE_CURVE('',#1018,(#1045,#1075),.PCURVE_S1.);
#1018 = B_SPLINE_CURVE_WITH_KNOTS('',7,(#1019,#1020,#1021,#1022,#1023,
    #1024,#1025,#1026,#1027,#1028,#1029,#1030,#1031,#1032,#1033,#1034,
    #1035,#1036,#1037,#1038,#1039,#1040,#1041,#1042,#1043,#1044),
  .UNSPECIFIED.,.F.,.F.,(8,6,6,6,8),(0.,0.234999297593,0.500049866264,
    0.765099460576,1.),.UNSPECIFIED.);
#1019 = CARTESIAN_POINT('',(13.5,-1.33226762955E-15,2.25));
#1020 = CARTESIAN_POINT('',(13.5,-0.287123941066,2.25));
#1021 = CARTESIAN_POINT('',(13.492875370575,-0.566859771196,
    2.207253673578));
#1022 = CARTESIAN_POINT('',(13.479287353468,-0.831711229728,
    2.125717781467));
#1023 = CARTESIAN_POINT('',(13.460958043493,-1.075369089692,
    2.010789324859));
#1024 = CARTESIAN_POINT('',(13.440267628024,-1.292947274588,
    1.869262310271));
#1025 = CARTESIAN_POINT('',(13.419423741667,-1.48143320923,1.70927852403
    ));
#1026 = CARTESIAN_POINT('',(13.378077419729,-1.819225781919,
    1.349565969651));
#1027 = CARTESIAN_POINT('',(13.3573401179,-1.96550116036,1.141981283784)
  );
#1028 = CARTESIAN_POINT('',(13.339455003474,-2.080425188393,
    0.923157989214));
#1029 = CARTESIAN_POINT('',(13.32546760743,-2.165471671847,
    0.696974597191));
#1030 = CARTESIAN_POINT('',(13.315948072111,-2.22178854172,
    0.466260054178));
#1031 = CARTESIAN_POINT('',(13.311179511974,-2.25,0.233257751346));
#1032 = CARTESIAN_POINT('',(13.311179511974,-2.25,-0.233256893862));
#1033 = CARTESIAN_POINT('',(13.315948031156,-2.221788779228,
    -0.466265351717));
#1034 = CARTESIAN_POINT('',(13.325468027389,-2.165469182157,
    -0.696983746242));
#1035 = CARTESIAN_POINT('',(13.339455718119,-2.080421044764,
    -0.923163232463));
#1036 = CARTESIAN_POINT('',(13.357339923374,-1.965500949328,
    -1.141977420198));
#1037 = CARTESIAN_POINT('',(13.3780765577,-1.819232824554,
    -1.349558470007));
#1038 = CARTESIAN_POINT('',(13.419416411282,-1.481493097258,
    -1.709214749758));
#1039 = CARTESIAN_POINT('',(13.440262751084,-1.293000822085,
    -1.869236063533));
#1040 = CARTESIAN_POINT('',(13.460961331869,-1.075360669397,
    -2.010818194001));
#1041 = CARTESIAN_POINT('',(13.479296452189,-0.83161990763,
    -2.125772227988));
#1042 = CARTESIAN_POINT('',(13.492881670276,-0.566712501335,
    -2.207291502663));
#1043 = CARTESIAN_POINT('',(13.5,-0.286996899818,-2.25));
#1044 = CARTESIAN_POINT('',(13.5,-1.7763568394E-15,-2.25));
#1045 = PCURVE('',#702,#1046);
#1046 = DEFINITIONAL_REPRESENTATION('',(#1047),#1074);
#1047 = B_SPLINE_CURVE_WITH_KNOTS('',7,(#1048,#1049,#1050,#1051,#1052,
    #1053,#1054,#1055,#1056,#1057,#1058,#1059,#1060,#1061,#1062,#1063,
    #1064,#1065,#1066,#1067,#1068,#1069,#1070,#1071,#1072,#1073),
  .UNSPECIFIED.,.F.,.F.,(8,6,6,6,8),(0.,0.234999297593,0.500049866264,
    0.765099460576,1.),.UNSPECIFIED.);
#1048 = CARTESIAN_POINT('',(-1.570796326795,-13.5));
#1049 = CARTESIAN_POINT('',(-1.698406967269,-13.5));
#1050 = CARTESIAN_POINT('',(-1.822733888343,-13.49287537057));
#1051 = CARTESIAN_POINT('',(-1.943840296468,-13.47928735346));
#1052 = CARTESIAN_POINT('',(-2.061528711177,-13.46095804349));
#1053 = CARTESIAN_POINT('',(-2.175365768421,-13.44026762802));
#1054 = CARTESIAN_POINT('',(-2.284543926267,-13.41942374166));
#1055 = CARTESIAN_POINT('',(-2.503856857409,-13.37807741972));
#1056 = CARTESIAN_POINT('',(-2.615614856341,-13.3573401179));
#1057 = CARTESIAN_POINT('',(-2.724039971015,-13.33945500347));
#1058 = CARTESIAN_POINT('',(-2.830005469855,-13.32546760743));
#1059 = CARTESIAN_POINT('',(-2.934366195795,-13.31594807211));
#1060 = CARTESIAN_POINT('',(-3.03792254188,-13.31117951197));
#1061 = CARTESIAN_POINT('',(-3.245262384195,-13.31117951197));
#1062 = CARTESIAN_POINT('',(-3.348821450924,-13.31594803115));
#1063 = CARTESIAN_POINT('',(-3.453183923752,-13.32546802738));
#1064 = CARTESIAN_POINT('',(-3.559148016799,-13.33945571811));
#1065 = CARTESIAN_POINT('',(-3.667569258498,-13.35733992337));
#1066 = CARTESIAN_POINT('',(-3.779323877317,-13.3780765577));
#1067 = CARTESIAN_POINT('',(-3.998602498415,-13.41941641128));
#1068 = CARTESIAN_POINT('',(-4.107794754721,-13.44026275108));
#1069 = CARTESIAN_POINT('',(-4.221666434811,-13.46096133186));
#1070 = CARTESIAN_POINT('',(-4.33939004756,-13.47929645218));
#1071 = CARTESIAN_POINT('',(-4.460516883471,-13.49288167027));
#1072 = CARTESIAN_POINT('',(-4.584834802688,-13.5));
#1073 = CARTESIAN_POINT('',(-4.712388980385,-13.5));
#1074 = ( GEOMETRIC_REPRESENTATION_CONTEXT(2) 
PARAMETRIC_REPRESENTATION_CONTEXT() REPRESENTATION_CONTEXT('2D SPACE',''
  ) );
#1075 = PCURVE('',#1076,#1081);
#1076 = CYLINDRICAL_SURFACE('',#1077,13.5);
#1077 = AXIS2_PLACEMENT_3D('',#1078,#1079,#1080);
#1078 = CARTESIAN_POINT('',(0.,0.,118.21746909826));
#1079 = DIRECTION('',(0.,0.,1.));
#1080 = DIRECTION('',(1.,0.,0.));
#1081 = DEFINITIONAL_REPRESENTATION('',(#1082),#1109);
#1082 = B_SPLINE_CURVE_WITH_KNOTS('',7,(#1083,#1084,#1085,#1086,#1087,
    #1088,#1089,#1090,#1091,#1092,#1093,#1094,#1095,#1096,#1097,#1098,
    #1099,#1100,#1101,#1102,#1103,#1104,#1105,#1106,#1107,#1108),
  .UNSPECIFIED.,.F.,.F.,(8,6,6,6,8),(0.,0.234999297593,0.500049866264,
    0.765099460576,1.),.UNSPECIFIED.);
#1083 = CARTESIAN_POINT('',(6.28318530718,-115.9674690982));
#1084 = CARTESIAN_POINT('',(6.261916867101,-115.9674690982));
#1085 = CARTESIAN_POINT('',(6.241195679065,-116.0102154246));
#1086 = CARTESIAN_POINT('',(6.221561424326,-116.0917513168));
#1087 = CARTESIAN_POINT('',(6.203468939416,-116.2066797734));
#1088 = CARTESIAN_POINT('',(6.187282439618,-116.3482067879));
#1089 = CARTESIAN_POINT('',(6.173236373692,-116.5081905742));
#1090 = CARTESIAN_POINT('',(6.148027959513,-116.8679031286));
#1091 = CARTESIAN_POINT('',(6.137086384545,-117.0754878144));
#1092 = CARTESIAN_POINT('',(6.128471703307,-117.294311109));
#1093 = CARTESIAN_POINT('',(6.122087410507,-117.520494501));
#1094 = CARTESIAN_POINT('',(6.117856607322,-117.751209044));
#1095 = CARTESIAN_POINT('',(6.11573722796,-117.9842113469));
#1096 = CARTESIAN_POINT('',(6.11573722796,-118.4507259921));
#1097 = CARTESIAN_POINT('',(6.11785658938,-118.6837344499));
#1098 = CARTESIAN_POINT('',(6.122087597829,-118.9144528445));
#1099 = CARTESIAN_POINT('',(6.128472014239,-119.1406323307));
#1100 = CARTESIAN_POINT('',(6.137086398256,-119.3594465184));
#1101 = CARTESIAN_POINT('',(6.148027433943,-119.5670275682));
#1102 = CARTESIAN_POINT('',(6.173231904433,-119.926683848));
#1103 = CARTESIAN_POINT('',(6.187278458259,-120.0867051618));
#1104 = CARTESIAN_POINT('',(6.203469586636,-120.2282872922));
#1105 = CARTESIAN_POINT('',(6.221568211419,-120.3432413262));
#1106 = CARTESIAN_POINT('',(6.241206587592,-120.4247606009));
#1107 = CARTESIAN_POINT('',(6.261926277563,-120.4674690982));
#1108 = CARTESIAN_POINT('',(6.28318530718,-120.4674690982));
#1109 = ( GEOMETRIC_REPRESENTATION_CONTEXT(2) 
PARAMETRIC_REPRESENTATION_CONTEXT() REPRESENTATION_CONTEXT('2D SPACE',''
  ) );
#1110 = ORIENTED_EDGE('',*,*,#1111,.T.);
#1111 = EDGE_CURVE('',#1015,#927,#1112,.T.);
#1112 = SURFACE_CURVE('',#1113,(#1128,#1146),.PCURVE_S1.);
#1113 = B_SPLINE_CURVE_WITH_KNOTS('',7,(#1114,#1115,#1116,#1117,#1118,
    #1119,#1120,#1121,#1122,#1123,#1124,#1125,#1126,#1127),
  .UNSPECIFIED.,.F.,.F.,(8,6,8),(0.,0.44996207877,1.),.UNSPECIFIED.);
#1114 = CARTESIAN_POINT('',(13.5,-2.066591473561E-16,-2.25));
#1115 = CARTESIAN_POINT('',(13.5,0.274451793905,-2.25));
#1116 = CARTESIAN_POINT('',(13.493490394248,0.542598587109,
    -2.21094353154));
#1117 = CARTESIAN_POINT('',(13.481010603892,0.797665007895,
    -2.136058548014));
#1118 = CARTESIAN_POINT('',(13.464020868073,1.033808881152,-2.029984821)
  );
#1119 = CARTESIAN_POINT('',(13.444598836284,1.246400859996,
    -1.898713212513));
#1120 = CARTESIAN_POINT('',(13.424738595469,1.432440481062,
    -1.749540034278));
#1121 = CARTESIAN_POINT('',(13.382920856671,1.784803011347,
    -1.397177503992));
#1122 = CARTESIAN_POINT('',(13.360833352955,1.942981676389,
    -1.183910439736));
#1123 = CARTESIAN_POINT('',(13.3416441592,2.06709901635,-0.9578807935));
#1124 = CARTESIAN_POINT('',(13.326586389878,2.15885360013,
    -0.723561793629));
#1125 = CARTESIAN_POINT('',(13.316321784799,2.219577440974,
    -0.484170216354));
#1126 = CARTESIAN_POINT('',(13.311179511974,2.25,-0.2422272447));
#1127 = CARTESIAN_POINT('',(13.311179511974,2.25,-4.440892098501E-16));
#1128 = PCURVE('',#702,#1129);
#1129 = DEFINITIONAL_REPRESENTATION('',(#1130),#1145);
#1130 = B_SPLINE_CURVE_WITH_KNOTS('',7,(#1131,#1132,#1133,#1134,#1135,
    #1136,#1137,#1138,#1139,#1140,#1141,#1142,#1143,#1144),
  .UNSPECIFIED.,.F.,.F.,(8,6,8),(0.,0.44996207877,1.),.UNSPECIFIED.);
#1131 = CARTESIAN_POINT('',(-4.712388980385,-13.5));
#1132 = CARTESIAN_POINT('',(-4.834367555454,-13.5));
#1133 = CARTESIAN_POINT('',(-4.953543780905,-13.49349039424));
#1134 = CARTESIAN_POINT('',(-5.069871536118,-13.48101060389));
#1135 = CARTESIAN_POINT('',(-5.183103364525,-13.46402086807));
#1136 = CARTESIAN_POINT('',(-5.292785044935,-13.44459883628));
#1137 = CARTESIAN_POINT('',(-5.398132368498,-13.42473859546));
#1138 = CARTESIAN_POINT('',(-5.619606088143,-13.38292085667));
#1139 = CARTESIAN_POINT('',(-5.736340474259,-13.36083335295));
#1140 = CARTESIAN_POINT('',(-5.849332011153,-13.3416441592));
#1141 = CARTESIAN_POINT('',(-5.959563056386,-13.32658638987));
#1142 = CARTESIAN_POINT('',(-6.067998903178,-13.31632178479));
#1143 = CARTESIAN_POINT('',(-6.17552875398,-13.31117951197));
#1144 = CARTESIAN_POINT('',(-6.28318530718,-13.31117951197));
#1145 = ( GEOMETRIC_REPRESENTATION_CONTEXT(2) 
PARAMETRIC_REPRESENTATION_CONTEXT() REPRESENTATION_CONTEXT('2D SPACE',''
  ) );
#1146 = PCURVE('',#991,#1147);
#1147 = DEFINITIONAL_REPRESENTATION('',(#1148),#1163);
#1148 = B_SPLINE_CURVE_WITH_KNOTS('',7,(#1149,#1150,#1151,#1152,#1153,
    #1154,#1155,#1156,#1157,#1158,#1159,#1160,#1161,#1162),
  .UNSPECIFIED.,.F.,.F.,(8,6,8),(0.,0.44996207877,1.),.UNSPECIFIED.);
#1149 = CARTESIAN_POINT('',(0.,-120.4674690982));
#1150 = CARTESIAN_POINT('',(2.032976251147E-02,-120.4674690982));
#1151 = CARTESIAN_POINT('',(4.019250076414E-02,-120.4284126298));
#1152 = CARTESIAN_POINT('',(5.909996255986E-02,-120.3535276462));
#1153 = CARTESIAN_POINT('',(7.663064196066E-02,-120.2474539192));
#1154 = CARTESIAN_POINT('',(9.244076541164E-02,-120.1161823107));
#1155 = CARTESIAN_POINT('',(0.106298807046,-119.9670091325));
#1156 = CARTESIAN_POINT('',(0.132582901871,-119.6146466022));
#1157 = CARTESIAN_POINT('',(0.144411005977,-119.401379538));
#1158 = CARTESIAN_POINT('',(0.153713263331,-119.1753498917));
#1159 = CARTESIAN_POINT('',(0.160600712762,-118.9410308918));
#1160 = CARTESIAN_POINT('',(0.165162591876,-118.7016393146));
#1161 = CARTESIAN_POINT('',(0.16744807922,-118.4596963429));
#1162 = CARTESIAN_POINT('',(0.16744807922,-118.2174690982));
#1163 = ( GEOMETRIC_REPRESENTATION_CONTEXT(2) 
PARAMETRIC_REPRESENTATION_CONTEXT() REPRESENTATION_CONTEXT('2D SPACE',''
  ) );
#1164 = ADVANCED_FACE('',(#1165),#991,.T.);
#1165 = FACE_BOUND('',#1166,.T.);
#1166 = EDGE_LOOP('',(#1167,#1168,#1189));
#1167 = ORIENTED_EDGE('',*,*,#953,.T.);
#1168 = ORIENTED_EDGE('',*,*,#1169,.T.);
#1169 = EDGE_CURVE('',#954,#1015,#1170,.T.);
#1170 = SURFACE_CURVE('',#1171,(#1175,#1182),.PCURVE_S1.);
#1171 = LINE('',#1172,#1173);
#1172 = CARTESIAN_POINT('',(13.5,0.,118.21746909826));
#1173 = VECTOR('',#1174,1.);
#1174 = DIRECTION('',(-0.,-0.,-1.));
#1175 = PCURVE('',#991,#1176);
#1176 = DEFINITIONAL_REPRESENTATION('',(#1177),#1181);
#1177 = LINE('',#1178,#1179);
#1178 = CARTESIAN_POINT('',(0.,0.));
#1179 = VECTOR('',#1180,1.);
#1180 = DIRECTION('',(0.,-1.));
#1181 = ( GEOMETRIC_REPRESENTATION_CONTEXT(2) 
PARAMETRIC_REPRESENTATION_CONTEXT() REPRESENTATION_CONTEXT('2D SPACE',''
  ) );
#1182 = PCURVE('',#1076,#1183);
#1183 = DEFINITIONAL_REPRESENTATION('',(#1184),#1188);
#1184 = LINE('',#1185,#1186);
#1185 = CARTESIAN_POINT('',(6.28318530718,0.));
#1186 = VECTOR('',#1187,1.);
#1187 = DIRECTION('',(0.,-1.));
#1188 = ( GEOMETRIC_REPRESENTATION_CONTEXT(2) 
PARAMETRIC_REPRESENTATION_CONTEXT() REPRESENTATION_CONTEXT('2D SPACE',''
  ) );
#1189 = ORIENTED_EDGE('',*,*,#1111,.T.);
#1190 = ADVANCED_FACE('',(#1191),#1076,.T.);
#1191 = FACE_BOUND('',#1192,.T.);
#1192 = EDGE_LOOP('',(#1193,#1194));
#1193 = ORIENTED_EDGE('',*,*,#1169,.F.);
#1194 = ORIENTED_EDGE('',*,*,#1014,.T.);
#1195 = ( GEOMETRIC_REPRESENTATION_CONTEXT(3) 
GLOBAL_UNCERTAINTY_ASSIGNED_CONTEXT((#1199)) 
GLOBAL_UNIT_ASSIGNED_CONTEXT((#1196,#1197,#1198)) REPRESENTATION_CONTEXT
('Context #1','3D Context with UNIT and UNCERTAINTY') );
#1196 = ( LENGTH_UNIT() NAMED_UNIT(*) SI_UNIT(.MILLI.,.METRE.) );
#1197 = ( NAMED_UNIT(*) PLANE_ANGLE_UNIT() SI_UNIT($,.RADIAN.) );
#1198 = ( NAMED_UNIT(*) SI_UNIT($,.STERADIAN.) SOLID_ANGLE_UNIT() );
#1199 = UNCERTAINTY_MEASURE_WITH_UNIT(LENGTH_MEASURE(5.E-05),#1196,
  'distance_accuracy_value','confusion accuracy');
#1200 = PRODUCT_RELATED_PRODUCT_CATEGORY('part',$,(#7));
#1201 = MECHANICAL_DESIGN_GEOMETRIC_PRESENTATION_REPRESENTATION('',(
    #1202),#1195);
#1202 = STYLED_ITEM('color',(#1203),#15);
#1203 = PRESENTATION_STYLE_ASSIGNMENT((#1204,#1210));
#1204 = SURFACE_STYLE_USAGE(.BOTH.,#1205);
#1205 = SURFACE_SIDE_STYLE('',(#1206));
#1206 = SURFACE_STYLE_FILL_AREA(#1207);
#1207 = FILL_AREA_STYLE('',(#1208));
#1208 = FILL_AREA_STYLE_COLOUR('',#1209);
#1209 = COLOUR_RGB('',0.800000010877,0.800000010877,0.800000010877);
#1210 = CURVE_STYLE('',#1211,POSITIVE_LENGTH_MEASURE(0.1),#1212);
#1211 = DRAUGHTING_PRE_DEFINED_CURVE_FONT('continuous');
#1212 = COLOUR_RGB('',9.803921802644E-02,9.803921802644E-02,
  9.803921802644E-02);
ENDSEC;
END-ISO-10303-21;
