<?xml version="1.0" encoding="UTF-8" standalone="no"?>
<svg
   width="69.902573mm"
   height="27.351999mm"
   viewBox="0 -13.576 69.902569 27.351999"
   preserveAspectRatio="none"
   version="1.1"
   id="svg6"
   sodipodi:docname="Cornet-Bach_1-1-2C.svg"
   xmlns:inkscape="http://www.inkscape.org/namespaces/inkscape"
   xmlns:sodipodi="http://sodipodi.sourceforge.net/DTD/sodipodi-0.dtd"
   xmlns="http://www.w3.org/2000/svg"
   xmlns:svg="http://www.w3.org/2000/svg">
  <defs
     id="defs10" />
  <sodipodi:namedview
     id="namedview8"
     pagecolor="#ffffff"
     bordercolor="#666666"
     borderopacity="1.0"
     inkscape:pageshadow="2"
     inkscape:pageopacity="0.0"
     inkscape:pagecheckerboard="0"
     inkscape:document-units="mm"
     showgrid="false" />
  <title
     id="title2">Bach 1-1/2C (Cornet)</title>
  <path
     d="m 5.1806132,13.676 c -2.4506,0 -2.7228,0 -3.3323,-0.221 -1.83508607,-0.668 -1.74770007,-2.808 -1.74770007,-3.05 0,-0.13 -0.049035,-1.2833999 0.98070007,-1.7268999 0.2848,-0.1226 0.5347,-0.1834 0.8405,-0.2579 0.2857,-0.0695 0.6201,-0.1508 1.0772,-0.3055 2.0371,-0.6893 3.1048,-2.0961 3.8227,-2.902 2.0856,-2.3411 3.7218998,-2.3451 3.8228998,-2.3614 0.699,-0.1133 1.865,-0.375 1.918,-0.3873 0.357,-0.0842 0.468,-0.1051 0.569,-0.1241 0.086,-0.0162 0.164,-0.0309 0.383,-0.0827 0.121,-0.0285 0.29,-0.0769 0.454,-0.1237 0.232,-0.0661 0.453,-0.1292 0.511,-0.1292 l 0.381,-0.012 0.012,10e-5 h 0.013 l 0.013,10e-5 0.012,10e-5 0.013,10e-5 0.013,10e-5 0.013,10e-5 0.012,10e-5 0.013,10e-5 0.013,10e-5 0.012,10e-5 0.013,2e-4 0.013,10e-5 0.012,10e-5 0.013,2e-4 0.013,10e-5 0.013,2e-4 0.012,10e-5 0.013,2e-4 0.013,10e-5 0.012,10e-5 0.013,2e-4 0.013,10e-5 0.012,2e-4 0.013,10e-5 0.013,10e-5 0.013,1e-4 0.012,2e-4 0.013,10e-5 0.013,10e-5 0.012,10e-5 0.013,10e-5 0.013,10e-5 0.012,10e-5 0.013,10e-5 0.013,10e-5 0.013,10e-5 0.012,10e-5 0.013,10e-5 0.013,10e-5 h 0.012 l 0.013,10e-5 0.013,10e-5 0.012,10e-5 h 0.013 l 0.013,10e-5 0.013,10e-5 h 0.012 l 0.013,10e-5 h 0.013 l 0.012,1e-4 0.013,10e-5 h 0.013 l 0.012,10e-5 0.013,10e-5 h 0.013 l 0.013,10e-5 0.012,10e-5 0.013,10e-5 0.013,10e-5 0.012,10e-5 0.013,10e-5 0.013,10e-5 0.012,10e-5 0.013,2e-4 0.013,10e-5 0.013,10e-5 0.012,2e-4 0.013,2e-4 0.013,1e-4 0.012,2e-4 0.013,2e-4 0.013,2e-4 0.012,2e-4 0.013,2e-4 0.013,3e-4 0.013,2e-4 0.012,2e-4 0.013,3e-4 0.013,2e-4 0.012,3e-4 0.013,2e-4 0.013,3e-4 0.012,2e-4 0.013,3e-4 0.013,3e-4 0.013,3e-4 0.012,3e-4 0.013,3e-4 0.013,3e-4 0.012,3e-4 0.013,3e-4 0.013,4e-4 0.012,3e-4 0.013,4e-4 0.013,4e-4 0.013,4e-4 0.012,4e-4 0.013,5e-4 0.013,5e-4 0.012,5e-4 0.013,5e-4 0.013,5e-4 0.012,6e-4 0.013,5e-4 0.013,6e-4 0.013,6e-4 0.012,6e-4 0.013,6e-4 0.013,6e-4 0.012,6e-4 0.013,7e-4 0.013,6e-4 0.012,6e-4 0.013,6e-4 0.013,6e-4 0.013,6e-4 0.012,6e-4 0.013,5e-4 0.013,6e-4 0.012,6e-4 0.013,5e-4 0.013,6e-4 0.012,5e-4 0.013,6e-4 0.013,5e-4 0.013,6e-4 0.012,5e-4 0.013,5e-4 0.013,6e-4 0.012,6e-4 0.013,5e-4 0.013,6e-4 0.012,6e-4 0.013,6e-4 0.013,6e-4 0.013,5e-4 0.012,7e-4 0.013,6e-4 0.013,6e-4 0.012,6e-4 0.013,6e-4 0.013,6e-4 0.012,6e-4 0.013,6e-4 0.013,6e-4 0.013,6e-4 0.012,6e-4 0.013,6e-4 0.013,6e-4 0.012,5e-4 0.013,6e-4 0.013,5e-4 0.012,5e-4 0.013,5e-4 0.013,5e-4 0.013,5e-4 0.012,5e-4 0.013,4e-4 0.013,4e-4 0.012,5e-4 0.013,4e-4 0.013,3e-4 0.012,4e-4 0.013,4e-4 0.013,3e-4 0.013,3e-4 0.012,4e-4 0.013,3e-4 0.013,3e-4 0.012,3e-4 0.013,2e-4 0.013,3e-4 0.012,3e-4 0.013,3e-4 0.013,3e-4 0.013,2e-4 0.012,3e-4 0.013,3e-4 0.013,2e-4 0.012,3e-4 0.013,3e-4 0.013,2e-4 0.012,3e-4 0.013,3e-4 0.013,2e-4 0.013,3e-4 0.012,3e-4 0.013,2e-4 0.013,3e-4 0.012,3e-4 0.013,2e-4 0.013,3e-4 0.012,3e-4 0.013,3e-4 0.013,3e-4 0.013,3e-4 0.012,3e-4 0.013,4e-4 0.013,3e-4 0.012,4e-4 0.013,3e-4 0.013,4e-4 0.012,4e-4 0.013,5e-4 0.013,4e-4 0.013,5e-4 0.012,5e-4 0.013,5e-4 0.013,5e-4 0.012,5e-4 0.013,5e-4 0.013,6e-4 0.012,5e-4 0.013,6e-4 0.013,5e-4 0.013,6e-4 0.012,6e-4 0.013,5e-4 0.013,6e-4 0.012,5e-4 0.013,6e-4 0.013,6e-4 0.012,5e-4 0.013,6e-4 0.013,5e-4 0.013,5e-4 0.012,6e-4 0.013,5e-4 0.013,5e-4 0.012,5e-4 0.013,5e-4 0.013,5e-4 0.012,5e-4 0.013,5e-4 0.013,6e-4 0.013,5e-4 0.012,5e-4 0.013,5e-4 0.013,5e-4 0.012,5e-4 0.013,5e-4 0.013,5e-4 0.012,6e-4 0.013,5e-4 0.013,6e-4 0.013,5e-4 0.012,6e-4 0.013,5e-4 0.013,6e-4 0.012,6e-4 0.013,6e-4 0.013,6e-4 0.012,6e-4 0.013,6e-4 0.013,6e-4 0.013,7e-4 0.012,6e-4 0.013,6e-4 0.013,7e-4 0.012,6e-4 0.013,6e-4 0.013,7e-4 0.012,6e-4 0.013,6e-4 0.013,7e-4 0.013,6e-4 0.012,6e-4 0.013,6e-4 0.013,6e-4 0.012,6e-4 0.013,6e-4 0.013,6e-4 0.012,6e-4 0.013,6e-4 0.013,5e-4 0.013,6e-4 0.012,5e-4 0.013,6e-4 0.013,5e-4 0.012,6e-4 0.013,5e-4 0.013,5e-4 0.012,5e-4 0.013,5e-4 0.013,5e-4 0.013,5e-4 0.012,5e-4 0.013,4e-4 0.013,5e-4 0.012,5e-4 0.013,4e-4 0.013,5e-4 0.012,4e-4 0.013,5e-4 0.013,5e-4 0.013,4e-4 0.012,5e-4 0.013,4e-4 0.013,5e-4 0.012,4e-4 0.013,5e-4 0.013,5e-4 0.012,4e-4 0.013,5e-4 0.013,5e-4 0.013,5e-4 0.012,5e-4 0.013,5e-4 0.013,5e-4 0.012,5e-4 0.013,6e-4 0.013,5e-4 0.012,5e-4 0.013,6e-4 0.013,5e-4 0.013,6e-4 0.012,5e-4 0.013,6e-4 0.013,6e-4 0.012,5e-4 0.013,6e-4 0.013,6e-4 0.012,6e-4 0.013,6e-4 0.013,6e-4 0.013,6e-4 0.012,5e-4 0.013,6e-4 0.013,6e-4 0.012,6e-4 0.013,6e-4 0.013,6e-4 0.012,6e-4 0.013,6e-4 0.013,5e-4 0.013,6e-4 0.012,6e-4 0.013,6e-4 0.013,6e-4 0.012,5e-4 0.013,6e-4 0.013,6e-4 0.012,5e-4 0.013,6e-4 0.013,6e-4 0.013,6e-4 0.012,5e-4 0.013,6e-4 0.013,6e-4 0.012,5e-4 0.013,6e-4 0.013,6e-4 0.012,5e-4 0.013,6e-4 0.013,6e-4 0.013,5e-4 0.012,6e-4 0.013,6e-4 0.013,6e-4 0.012,5e-4 0.013,6e-4 0.013,6e-4 0.012,5e-4 0.013,6e-4 0.013,5e-4 0.013,6e-4 0.012,6e-4 0.013,5e-4 0.013,6e-4 0.012,5e-4 0.013,6e-4 0.013,5e-4 0.012,5e-4 0.013,6e-4 0.013,5e-4 0.013,5e-4 0.012,6e-4 0.013,5e-4 0.013,5e-4 0.012,5e-4 0.013,5e-4 0.013,5e-4 0.012,5e-4 0.013,5e-4 0.013,5e-4 0.013,5e-4 0.012,5e-4 0.013,4e-4 0.013,5e-4 0.012,5e-4 0.013,5e-4 0.013,5e-4 0.012,4e-4 0.013,5e-4 0.013,5e-4 0.013,5e-4 0.012,4e-4 0.013,5e-4 0.013,5e-4 0.012,4e-4 0.013,5e-4 0.013,5e-4 0.012,5e-4 0.013,4e-4 0.013,5e-4 0.013,5e-4 0.012,4e-4 0.013,5e-4 0.013,5e-4 0.012,5e-4 0.013,4e-4 0.013,5e-4 0.012,5e-4 0.013,4e-4 0.013,5e-4 0.013,5e-4 0.012,5e-4 0.013,4e-4 0.013,5e-4 0.012,4e-4 0.013,5e-4 0.013,5e-4 0.012,4e-4 0.013,5e-4 0.013,4e-4 0.013,5e-4 0.012,4e-4 0.013,5e-4 0.013,4e-4 0.012,4e-4 0.013,5e-4 0.013,4e-4 0.012,4e-4 0.013,5e-4 0.013,4e-4 0.013,4e-4 0.012,4e-4 0.013,5e-4 0.013,4e-4 0.012,4e-4 0.013,4e-4 0.013,5e-4 0.012,4e-4 0.013,4e-4 0.013,5e-4 0.013,4e-4 0.012,5e-4 0.013,4e-4 0.013,5e-4 0.012,6e-4 0.013,5e-4 0.013,5e-4 0.012,6e-4 0.013,5e-4 0.013,6e-4 0.013,6e-4 0.012,6e-4 0.013,6e-4 0.013,6e-4 0.012,6e-4 0.013,6e-4 0.013,6e-4 0.012,6e-4 0.013,6e-4 0.013,7e-4 0.013,6e-4 0.012,6e-4 0.013,7e-4 0.013,6e-4 0.012,6e-4 0.013,7e-4 0.013,6e-4 0.012,7e-4 0.013,6e-4 0.013,6e-4 0.013,6e-4 0.012,7e-4 0.013,6e-4 0.013,6e-4 0.012,6e-4 0.013,6e-4 0.013,6e-4 0.012,6e-4 0.013,6e-4 0.013,6e-4 0.013,6e-4 0.012,6e-4 0.013,5e-4 0.013,6e-4 0.012,6e-4 0.013,5e-4 0.013,6e-4 0.012,6e-4 0.013,5e-4 0.013,6e-4 0.013,5e-4 0.012,6e-4 0.013,5e-4 0.013,5e-4 0.012,6e-4 0.013,5e-4 0.013,6e-4 0.012,5e-4 0.013,5e-4 0.013,5e-4 0.013,6e-4 0.012,5e-4 0.013,5e-4 0.013,5e-4 0.012,5e-4 0.013,5e-4 0.013,6e-4 0.012,5e-4 0.013,5e-4 0.013,5e-4 0.013,5e-4 0.012,5e-4 0.013,5e-4 0.013,5e-4 0.012,4e-4 0.013,5e-4 0.013,5e-4 0.012,5e-4 0.013,5e-4 0.013,5e-4 0.013,5e-4 0.012,5e-4 0.013,5e-4 0.013,5e-4 0.012,4e-4 0.013,5e-4 0.013,5e-4 0.012,5e-4 0.013,5e-4 0.013,5e-4 0.013,5e-4 0.012,5e-4 0.013,5e-4 0.013,5e-4 0.012,5e-4 0.013,5e-4 0.013,5e-4 0.012,5e-4 0.013,5e-4 0.013,5e-4 0.013,5e-4 0.012,5e-4 0.013,5e-4 0.013,5e-4 0.012,6e-4 0.013,5e-4 0.013,5e-4 0.012,5e-4 0.013,5e-4 0.013,5e-4 0.013,5e-4 0.012,5e-4 0.013,5e-4 0.013,5e-4 0.012,6e-4 0.013,5e-4 0.013,5e-4 0.012,5e-4 0.013,5e-4 0.013,6e-4 0.013,5e-4 0.012,5e-4 0.013,5e-4 0.013,6e-4 0.012,5e-4 0.013,5e-4 0.013,6e-4 0.012,5e-4 0.013,6e-4 0.013,5e-4 0.013,6e-4 0.012,5e-4 0.013,6e-4 0.013,5e-4 0.012,6e-4 0.013,5e-4 0.013,6e-4 0.012,6e-4 0.013,5e-4 0.013,6e-4 0.013,5e-4 0.012,6e-4 0.013,5e-4 0.013,6e-4 0.012,5e-4 0.013,6e-4 0.013,5e-4 0.012,6e-4 0.013,5e-4 0.013,6e-4 0.013,5e-4 0.012,5e-4 0.013,6e-4 0.013,5e-4 0.012,5e-4 0.013,6e-4 0.013,5e-4 0.012,5e-4 0.013,5e-4 0.013,5e-4 0.013,6e-4 0.012,5e-4 0.013,5e-4 0.013,5e-4 0.012,5e-4 0.013,5e-4 0.013,5e-4 0.012,5e-4 0.013,5e-4 0.013,5e-4 0.013,5e-4 0.012,5e-4 0.013,6e-4 0.013,5e-4 0.012,5e-4 0.013,5e-4 0.013,5e-4 0.012,5e-4 0.013,5e-4 0.013,5e-4 0.013,5e-4 0.012,5e-4 0.013,6e-4 0.013,5e-4 0.012,5e-4 0.013,5e-4 0.013,5e-4 0.012,5e-4 0.013,5e-4 0.013,5e-4 0.013,5e-4 0.012,6e-4 0.013,5e-4 0.013,5e-4 0.012,5e-4 0.013,5e-4 0.013,5e-4 0.012,5e-4 0.013,5e-4 0.013,5e-4 0.013,5e-4 0.012,5e-4 0.013,5e-4 0.013,5e-4 0.012,5e-4 0.013,5e-4 0.013,5e-4 0.012,5e-4 0.013,5e-4 0.013,5e-4 0.013,5e-4 0.012,5e-4 0.013,5e-4 0.013,5e-4 0.012,5e-4 0.013,5e-4 0.013,5e-4 0.012,5e-4 0.013,5e-4 0.013,5e-4 0.013,5e-4 0.012,5e-4 0.013,5e-4 0.013,5e-4 0.012,6e-4 0.013,5e-4 0.013,5e-4 0.012,5e-4 0.013,6e-4 0.013,5e-4 0.013,5e-4 0.012,5e-4 0.013,6e-4 0.013,5e-4 0.012,5e-4 0.013,6e-4 0.013,5e-4 0.012,6e-4 0.013,5e-4 0.013,6e-4 0.013,5e-4 0.012,6e-4 0.013,5e-4 0.013,6e-4 0.012,5e-4 0.013,6e-4 0.013,5e-4 0.012,6e-4 0.013,6e-4 0.013,5e-4 0.013,6e-4 0.012,5e-4 0.013,6e-4 0.013,6e-4 0.012,5e-4 0.013,6e-4 0.013,5e-4 0.012,6e-4 0.013,5e-4 0.013,6e-4 0.013,5e-4 0.012,6e-4 0.013,5e-4 0.013,6e-4 0.012,5e-4 0.013,5e-4 0.013,6e-4 0.012,5e-4 0.013,5e-4 0.013,6e-4 0.013,5e-4 0.012,5e-4 0.013,6e-4 0.013,5e-4 0.012,5e-4 0.013,6e-4 0.013,5e-4 0.012,5e-4 0.013,6e-4 0.013,5e-4 0.013,5e-4 0.012,5e-4 0.013,6e-4 0.013,5e-4 0.012,5e-4 0.013,6e-4 0.013,5e-4 0.012,5e-4 0.013,6e-4 0.013,5e-4 0.013,5e-4 0.012,5e-4 0.013,6e-4 0.013,5e-4 0.012,5e-4 0.013,6e-4 0.013,5e-4 0.012,5e-4 0.013,6e-4 0.013,5e-4 0.013,5e-4 0.012,6e-4 0.013,5e-4 0.013,5e-4 0.012,6e-4 0.013,5e-4 0.013,5e-4 0.012,6e-4 0.013,5e-4 0.013,6e-4 0.013,5e-4 0.012,5e-4 0.013,5e-4 0.013,6e-4 0.012,5e-4 0.013,5e-4 0.013,6e-4 0.012,5e-4 0.013,5e-4 0.013,5e-4 0.013,6e-4 0.012,5e-4 0.013,5e-4 0.013,5e-4 0.012,5e-4 0.013,6e-4 0.013,5e-4 0.012,5e-4 0.013,5e-4 0.064,0.0027 3.097,0.1651 1.684,0.0889 0.838,0.0381 1.089,0.0508 1.345,0.0508 4.256,0.127 3.329,0.1016 3.135,0.0762 5.165,0.0762 3.991,0.0889 7.29,0.1778 4.499,0.0889 1.924,0.0254 0.954,0.0254 1.151,0.0381 1.386,0.041 M 5.1806132,-13.476 c -2.4506,0 -2.7228,0 -3.3323,0.221 -1.83508607,0.668 -1.74770007,2.808 -1.74770007,3.05 0,0.13 -0.049035,1.2834001 0.98070007,1.7269001 0.2848,0.1226 0.5347,0.1834 0.8405,0.2579 0.2857,0.0695 0.6201,0.1508 1.0772,0.3055 2.0371,0.6893 3.1048,2.0961 3.8227,2.902 2.0856,2.3411 3.7218998,2.3451 3.8228998,2.3614 0.699,0.1133 1.865,0.375 1.918,0.3873 0.357,0.0842 0.468,0.1051 0.569,0.1241 0.086,0.0162 0.164,0.0309 0.383,0.0827 0.121,0.0285 0.29,0.0769 0.454,0.1237 0.232,0.0661 0.453,0.1292 0.511,0.1292 l 0.381,0.012 0.012,-10e-5 h 0.013 l 0.013,-10e-5 0.012,-10e-5 0.013,-10e-5 0.013,-10e-5 0.013,-1e-4 0.012,-10e-5 0.013,-10e-5 0.013,-10e-5 0.012,-10e-5 0.013,-2e-4 0.013,-10e-5 0.012,-10e-5 0.013,-2e-4 0.013,-10e-5 0.013,-2e-4 0.012,-10e-5 0.013,-2e-4 0.013,-10e-5 0.012,-10e-5 0.013,-2e-4 0.013,-10e-5 0.012,-2e-4 0.013,-10e-5 0.013,-10e-5 0.013,-10e-5 0.012,-2e-4 0.013,-10e-5 0.013,-10e-5 0.012,-10e-5 0.013,-10e-5 0.013,-10e-5 0.012,-10e-5 0.013,-10e-5 0.013,-10e-5 0.013,-10e-5 0.012,-10e-5 0.013,-10e-5 0.013,-1e-4 h 0.012 l 0.013,-10e-5 0.013,-10e-5 0.012,-10e-5 h 0.013 l 0.013,-10e-5 0.013,-10e-5 h 0.012 l 0.013,-10e-5 h 0.013 l 0.012,-10e-5 0.013,-10e-5 h 0.013 l 0.012,-10e-5 0.013,-10e-5 h 0.013 l 0.013,-10e-5 0.012,-10e-5 0.013,-10e-5 0.013,-10e-5 0.012,-10e-5 0.013,-10e-5 0.013,-10e-5 0.012,-10e-5 0.013,-2e-4 0.013,-10e-5 0.013,-10e-5 0.012,-2e-4 0.013,-2e-4 0.013,-10e-5 0.012,-2e-4 0.013,-2e-4 0.013,-2e-4 0.012,-2e-4 0.013,-2e-4 0.013,-3e-4 0.013,-2e-4 0.012,-2e-4 0.013,-3e-4 0.013,-2e-4 0.012,-3e-4 0.013,-2e-4 0.013,-3e-4 0.012,-2e-4 0.013,-3e-4 0.013,-3e-4 0.013,-3e-4 0.012,-3e-4 0.013,-3e-4 0.013,-3e-4 0.012,-3e-4 0.013,-3e-4 0.013,-4e-4 0.012,-3e-4 0.013,-4e-4 0.013,-4e-4 0.013,-4e-4 0.012,-4e-4 0.013,-5e-4 0.013,-5e-4 0.012,-5e-4 0.013,-5e-4 0.013,-5e-4 0.012,-6e-4 0.013,-5e-4 0.013,-6e-4 0.013,-6e-4 0.012,-6e-4 0.013,-6e-4 0.013,-6e-4 0.012,-6e-4 0.013,-7e-4 0.013,-6e-4 0.012,-6e-4 0.013,-6e-4 0.013,-6e-4 0.013,-6e-4 0.012,-6e-4 0.013,-5e-4 0.013,-6e-4 0.012,-6e-4 0.013,-5e-4 0.013,-6e-4 0.012,-5e-4 0.013,-6e-4 0.013,-5e-4 0.013,-6e-4 0.012,-5e-4 0.013,-5e-4 0.013,-6e-4 0.012,-6e-4 0.013,-5e-4 0.013,-6e-4 0.012,-6e-4 0.013,-6e-4 0.013,-6e-4 0.013,-5e-4 0.012,-7e-4 0.013,-6e-4 0.013,-6e-4 0.012,-6e-4 0.013,-6e-4 0.013,-6e-4 0.012,-6e-4 0.013,-6e-4 0.013,-6e-4 0.013,-6e-4 0.012,-6e-4 0.013,-6e-4 0.013,-6e-4 0.012,-5e-4 0.013,-6e-4 0.013,-5e-4 0.012,-5e-4 0.013,-5e-4 0.013,-5e-4 0.013,-5e-4 0.012,-5e-4 0.013,-4e-4 0.013,-4e-4 0.012,-5e-4 0.013,-4e-4 0.013,-3e-4 0.012,-4e-4 0.013,-4e-4 0.013,-3e-4 0.013,-3e-4 0.012,-4e-4 0.013,-3e-4 0.013,-3e-4 0.012,-3e-4 0.013,-2e-4 0.013,-3e-4 0.012,-3e-4 0.013,-3e-4 0.013,-3e-4 0.013,-2e-4 0.012,-3e-4 0.013,-3e-4 0.013,-2e-4 0.012,-3e-4 0.013,-3e-4 0.013,-2e-4 0.012,-3e-4 0.013,-3e-4 0.013,-2e-4 0.013,-3e-4 0.012,-3e-4 0.013,-2e-4 0.013,-3e-4 0.012,-3e-4 0.013,-2e-4 0.013,-3e-4 0.012,-3e-4 0.013,-3e-4 0.013,-3e-4 0.013,-3e-4 0.012,-3e-4 0.013,-4e-4 0.013,-3e-4 0.012,-4e-4 0.013,-3e-4 0.013,-4e-4 0.012,-4e-4 0.013,-5e-4 0.013,-4e-4 0.013,-5e-4 0.012,-5e-4 0.013,-5e-4 0.013,-5e-4 0.012,-5e-4 0.013,-5e-4 0.013,-6e-4 0.012,-5e-4 0.013,-6e-4 0.013,-5e-4 0.013,-6e-4 0.012,-6e-4 0.013,-5e-4 0.013,-6e-4 0.012,-5e-4 0.013,-6e-4 0.013,-6e-4 0.012,-5e-4 0.013,-6e-4 0.013,-5e-4 0.013,-5e-4 0.012,-6e-4 0.013,-5e-4 0.013,-5e-4 0.012,-5e-4 0.013,-5e-4 0.013,-5e-4 0.012,-5e-4 0.013,-5e-4 0.013,-6e-4 0.013,-5e-4 0.012,-5e-4 0.013,-5e-4 0.013,-5e-4 0.012,-5e-4 0.013,-5e-4 0.013,-5e-4 0.012,-6e-4 0.013,-5e-4 0.013,-6e-4 0.013,-5e-4 0.012,-6e-4 0.013,-5e-4 0.013,-6e-4 0.012,-6e-4 0.013,-6e-4 0.013,-6e-4 0.012,-6e-4 0.013,-6e-4 0.013,-6e-4 0.013,-7e-4 0.012,-6e-4 0.013,-6e-4 0.013,-7e-4 0.012,-6e-4 0.013,-6e-4 0.013,-7e-4 0.012,-6e-4 0.013,-6e-4 0.013,-7e-4 0.013,-6e-4 0.012,-6e-4 0.013,-6e-4 0.013,-6e-4 0.012,-6e-4 0.013,-6e-4 0.013,-6e-4 0.012,-6e-4 0.013,-6e-4 0.013,-5e-4 0.013,-6e-4 0.012,-5e-4 0.013,-6e-4 0.013,-5e-4 0.012,-6e-4 0.013,-5e-4 0.013,-5e-4 0.012,-5e-4 0.013,-5e-4 0.013,-5e-4 0.013,-5e-4 0.012,-5e-4 0.013,-4e-4 0.013,-5e-4 0.012,-5e-4 0.013,-4e-4 0.013,-5e-4 0.012,-4e-4 0.013,-5e-4 0.013,-5e-4 0.013,-4e-4 0.012,-5e-4 0.013,-4e-4 0.013,-5e-4 0.012,-4e-4 0.013,-5e-4 0.013,-5e-4 0.012,-4e-4 0.013,-5e-4 0.013,-5e-4 0.013,-5e-4 0.012,-5e-4 0.013,-5e-4 0.013,-5e-4 0.012,-5e-4 0.013,-6e-4 0.013,-5e-4 0.012,-5e-4 0.013,-6e-4 0.013,-5e-4 0.013,-6e-4 0.012,-5e-4 0.013,-6e-4 0.013,-6e-4 0.012,-5e-4 0.013,-6e-4 0.013,-6e-4 0.012,-6e-4 0.013,-6e-4 0.013,-6e-4 0.013,-6e-4 0.012,-5e-4 0.013,-6e-4 0.013,-6e-4 0.012,-6e-4 0.013,-6e-4 0.013,-6e-4 0.012,-6e-4 0.013,-6e-4 0.013,-5e-4 0.013,-6e-4 0.012,-6e-4 0.013,-6e-4 0.013,-6e-4 0.012,-5e-4 0.013,-6e-4 0.013,-6e-4 0.012,-5e-4 0.013,-6e-4 0.013,-6e-4 0.013,-6e-4 0.012,-5e-4 0.013,-6e-4 0.013,-6e-4 0.012,-5e-4 0.013,-6e-4 0.013,-6e-4 0.012,-5e-4 0.013,-6e-4 0.013,-6e-4 0.013,-5e-4 0.012,-6e-4 0.013,-6e-4 0.013,-6e-4 0.012,-5e-4 0.013,-6e-4 0.013,-6e-4 0.012,-5e-4 0.013,-6e-4 0.013,-5e-4 0.013,-6e-4 0.012,-6e-4 0.013,-5e-4 0.013,-6e-4 0.012,-5e-4 0.013,-6e-4 0.013,-5e-4 0.012,-5e-4 0.013,-6e-4 0.013,-5e-4 0.013,-5e-4 0.012,-6e-4 0.013,-5e-4 0.013,-5e-4 0.012,-5e-4 0.013,-5e-4 0.013,-5e-4 0.012,-5e-4 0.013,-5e-4 0.013,-5e-4 0.013,-5e-4 0.012,-5e-4 0.013,-4e-4 0.013,-5e-4 0.012,-5e-4 0.013,-5e-4 0.013,-5e-4 0.012,-4e-4 0.013,-5e-4 0.013,-5e-4 0.013,-5e-4 0.012,-4e-4 0.013,-5e-4 0.013,-5e-4 0.012,-4e-4 0.013,-5e-4 0.013,-5e-4 0.012,-5e-4 0.013,-4e-4 0.013,-5e-4 0.013,-5e-4 0.012,-4e-4 0.013,-5e-4 0.013,-5e-4 0.012,-5e-4 0.013,-4e-4 0.013,-5e-4 0.012,-5e-4 0.013,-4e-4 0.013,-5e-4 0.013,-5e-4 0.012,-5e-4 0.013,-4e-4 0.013,-5e-4 0.012,-4e-4 0.013,-5e-4 0.013,-5e-4 0.012,-4e-4 0.013,-5e-4 0.013,-4e-4 0.013,-5e-4 0.012,-4e-4 0.013,-5e-4 0.013,-4e-4 0.012,-4e-4 0.013,-5e-4 0.013,-4e-4 0.012,-4e-4 0.013,-5e-4 0.013,-4e-4 0.013,-4e-4 0.012,-4e-4 0.013,-5e-4 0.013,-4e-4 0.012,-4e-4 0.013,-4e-4 0.013,-5e-4 0.012,-4e-4 0.013,-4e-4 0.013,-5e-4 0.013,-4e-4 0.012,-5e-4 0.013,-4e-4 0.013,-5e-4 0.012,-6e-4 0.013,-5e-4 0.013,-5e-4 0.012,-6e-4 0.013,-5e-4 0.013,-6e-4 0.013,-6e-4 0.012,-6e-4 0.013,-6e-4 0.013,-6e-4 0.012,-6e-4 0.013,-6e-4 0.013,-6e-4 0.012,-6e-4 0.013,-6e-4 0.013,-7e-4 0.013,-6e-4 0.012,-6e-4 0.013,-7e-4 0.013,-6e-4 0.012,-6e-4 0.013,-7e-4 0.013,-6e-4 0.012,-7e-4 0.013,-6e-4 0.013,-6e-4 0.013,-6e-4 0.012,-7e-4 0.013,-6e-4 0.013,-6e-4 0.012,-6e-4 0.013,-6e-4 0.013,-6e-4 0.012,-6e-4 0.013,-6e-4 0.013,-6e-4 0.013,-6e-4 0.012,-6e-4 0.013,-5e-4 0.013,-6e-4 0.012,-6e-4 0.013,-5e-4 0.013,-6e-4 0.012,-6e-4 0.013,-5e-4 0.013,-6e-4 0.013,-5e-4 0.012,-6e-4 0.013,-5e-4 0.013,-5e-4 0.012,-6e-4 0.013,-5e-4 0.013,-6e-4 0.012,-5e-4 0.013,-5e-4 0.013,-5e-4 0.013,-6e-4 0.012,-5e-4 0.013,-5e-4 0.013,-5e-4 0.012,-5e-4 0.013,-5e-4 0.013,-6e-4 0.012,-5e-4 0.013,-5e-4 0.013,-5e-4 0.013,-5e-4 0.012,-5e-4 0.013,-5e-4 0.013,-5e-4 0.012,-4e-4 0.013,-5e-4 0.013,-5e-4 0.012,-5e-4 0.013,-5e-4 0.013,-5e-4 0.013,-5e-4 0.012,-5e-4 0.013,-5e-4 0.013,-5e-4 0.012,-4e-4 0.013,-5e-4 0.013,-5e-4 0.012,-5e-4 0.013,-5e-4 0.013,-5e-4 0.013,-5e-4 0.012,-5e-4 0.013,-5e-4 0.013,-5e-4 0.012,-5e-4 0.013,-5e-4 0.013,-5e-4 0.012,-5e-4 0.013,-5e-4 0.013,-5e-4 0.013,-5e-4 0.012,-5e-4 0.013,-5e-4 0.013,-5e-4 0.012,-6e-4 0.013,-5e-4 0.013,-5e-4 0.012,-5e-4 0.013,-5e-4 0.013,-5e-4 0.013,-5e-4 0.012,-5e-4 0.013,-5e-4 0.013,-5e-4 0.012,-6e-4 0.013,-5e-4 0.013,-5e-4 0.012,-5e-4 0.013,-5e-4 0.013,-6e-4 0.013,-5e-4 0.012,-5e-4 0.013,-5e-4 0.013,-6e-4 0.012,-5e-4 0.013,-5e-4 0.013,-6e-4 0.012,-5e-4 0.013,-6e-4 0.013,-5e-4 0.013,-6e-4 0.012,-5e-4 0.013,-6e-4 0.013,-5e-4 0.012,-6e-4 0.013,-5e-4 0.013,-6e-4 0.012,-6e-4 0.013,-5e-4 0.013,-6e-4 0.013,-5e-4 0.012,-6e-4 0.013,-5e-4 0.013,-6e-4 0.012,-5e-4 0.013,-6e-4 0.013,-5e-4 0.012,-6e-4 0.013,-5e-4 0.013,-6e-4 0.013,-5e-4 0.012,-5e-4 0.013,-6e-4 0.013,-5e-4 0.012,-5e-4 0.013,-6e-4 0.013,-5e-4 0.012,-5e-4 0.013,-5e-4 0.013,-5e-4 0.013,-6e-4 0.012,-5e-4 0.013,-5e-4 0.013,-5e-4 0.012,-5e-4 0.013,-5e-4 0.013,-5e-4 0.012,-5e-4 0.013,-5e-4 0.013,-5e-4 0.013,-5e-4 0.012,-5e-4 0.013,-6e-4 0.013,-5e-4 0.012,-5e-4 0.013,-5e-4 0.013,-5e-4 0.012,-5e-4 0.013,-5e-4 0.013,-5e-4 0.013,-5e-4 0.012,-5e-4 0.013,-6e-4 0.013,-5e-4 0.012,-5e-4 0.013,-5e-4 0.013,-5e-4 0.012,-5e-4 0.013,-5e-4 0.013,-5e-4 0.013,-5e-4 0.012,-6e-4 0.013,-5e-4 0.013,-5e-4 0.012,-5e-4 0.013,-5e-4 0.013,-5e-4 0.012,-5e-4 0.013,-5e-4 0.013,-5e-4 0.013,-5e-4 0.012,-5e-4 0.013,-5e-4 0.013,-5e-4 0.012,-5e-4 0.013,-5e-4 0.013,-5e-4 0.012,-5e-4 0.013,-5e-4 0.013,-5e-4 0.013,-5e-4 0.012,-5e-4 0.013,-5e-4 0.013,-5e-4 0.012,-5e-4 0.013,-5e-4 0.013,-5e-4 0.012,-5e-4 0.013,-5e-4 0.013,-5e-4 0.013,-5e-4 0.012,-5e-4 0.013,-5e-4 0.013,-5e-4 0.012,-6e-4 0.013,-5e-4 0.013,-5e-4 0.012,-5e-4 0.013,-6e-4 0.013,-5e-4 0.013,-5e-4 0.012,-5e-4 0.013,-6e-4 0.013,-5e-4 0.012,-5e-4 0.013,-6e-4 0.013,-5e-4 0.012,-6e-4 0.013,-5e-4 0.013,-6e-4 0.013,-5e-4 0.012,-6e-4 0.013,-5e-4 0.013,-6e-4 0.012,-5e-4 0.013,-6e-4 0.013,-5e-4 0.012,-6e-4 0.013,-6e-4 0.013,-5e-4 0.013,-6e-4 0.012,-5e-4 0.013,-6e-4 0.013,-6e-4 0.012,-5e-4 0.013,-6e-4 0.013,-5e-4 0.012,-6e-4 0.013,-5e-4 0.013,-6e-4 0.013,-5e-4 0.012,-6e-4 0.013,-5e-4 0.013,-6e-4 0.012,-5e-4 0.013,-5e-4 0.013,-6e-4 0.012,-5e-4 0.013,-5e-4 0.013,-6e-4 0.013,-5e-4 0.012,-5e-4 0.013,-6e-4 0.013,-5e-4 0.012,-5e-4 0.013,-6e-4 0.013,-5e-4 0.012,-5e-4 0.013,-6e-4 0.013,-5e-4 0.013,-5e-4 0.012,-5e-4 0.013,-6e-4 0.013,-5e-4 0.012,-5e-4 0.013,-6e-4 0.013,-5e-4 0.012,-5e-4 0.013,-6e-4 0.013,-5e-4 0.013,-5e-4 0.012,-5e-4 0.013,-6e-4 0.013,-5e-4 0.012,-5e-4 0.013,-6e-4 0.013,-5e-4 0.012,-5e-4 0.013,-6e-4 0.013,-5e-4 0.013,-5e-4 0.012,-6e-4 0.013,-5e-4 0.013,-5e-4 0.012,-6e-4 0.013,-5e-4 0.013,-5e-4 0.012,-6e-4 0.013,-5e-4 0.013,-6e-4 0.013,-5e-4 0.012,-5e-4 0.013,-5e-4 0.013,-6e-4 0.012,-5e-4 0.013,-5e-4 0.013,-6e-4 0.012,-5e-4 0.013,-5e-4 0.013,-5e-4 0.013,-6e-4 0.012,-5e-4 0.013,-5e-4 0.013,-5e-4 0.012,-5e-4 0.013,-6e-4 0.013,-5e-4 0.012,-5e-4 0.013,-5e-4 0.064,-0.0027 3.097,-0.1651 1.684,-0.0889 0.838,-0.0381 1.089,-0.0508 1.345,-0.0508 4.256,-0.127 3.329,-0.1016 3.135,-0.0762 5.165,-0.0762 3.991,-0.0889 7.29,-0.1778 4.499,-0.0889 1.924,-0.0254 0.954,-0.0254 1.151,-0.0381 1.386,-0.041"
     fill="none"
     stroke="#00ff00"
     stroke-width="0.2"
     id="path4"
     vector-effect="non-scaling-stroke" />
</svg>
