ISO-10303-21;
HEADER;
FILE_DESCRIPTION(('FreeCAD Model'),'2;1');
FILE_NAME('Open CASCADE Shape Model','2025-04-29T14:20:31',(''),(''),
  'Open CASCADE STEP processor 7.8','FreeCAD','Unknown');
FILE_SCHEMA(('AUTOMOTIVE_DESIGN { 1 0 10303 214 1 1 1 1 }'));
ENDSEC;
DATA;
#1 = APPLICATION_PROTOCOL_DEFINITION('international standard',
  'automotive_design',2000,#2);
#2 = APPLICATION_CONTEXT(
  'core data for automotive mechanical design processes');
#3 = SHAPE_DEFINITION_REPRESENTATION(#4,#10);
#4 = PRODUCT_DEFINITION_SHAPE('','',#5);
#5 = PRODUCT_DEFINITION('design','',#6,#9);
#6 = PRODUCT_DEFINITION_FORMATION('','',#7);
#7 = PRODUCT('Part001','Part001','',(#8));
#8 = PRODUCT_CONTEXT('',#2,'mechanical');
#9 = PRODUCT_DEFINITION_CONTEXT('part definition',#2,'design');
#10 = SHAPE_REPRESENTATION('',(#11,#15),#19);
#11 = AXIS2_PLACEMENT_3D('',#12,#13,#14);
#12 = CARTESIAN_POINT('',(0.,0.,0.));
#13 = DIRECTION('',(0.,0.,1.));
#14 = DIRECTION('',(1.,0.,-0.));
#15 = AXIS2_PLACEMENT_3D('',#16,#17,#18);
#16 = CARTESIAN_POINT('',(0.,0.,0.));
#17 = DIRECTION('',(0.,0.,1.));
#18 = DIRECTION('',(1.,0.,0.));
#19 = ( GEOMETRIC_REPRESENTATION_CONTEXT(3) 
GLOBAL_UNCERTAINTY_ASSIGNED_CONTEXT((#23)) GLOBAL_UNIT_ASSIGNED_CONTEXT(
(#20,#21,#22)) REPRESENTATION_CONTEXT('Context #1',
  '3D Context with UNIT and UNCERTAINTY') );
#20 = ( LENGTH_UNIT() NAMED_UNIT(*) SI_UNIT(.MILLI.,.METRE.) );
#21 = ( NAMED_UNIT(*) PLANE_ANGLE_UNIT() SI_UNIT($,.RADIAN.) );
#22 = ( NAMED_UNIT(*) SI_UNIT($,.STERADIAN.) SOLID_ANGLE_UNIT() );
#23 = UNCERTAINTY_MEASURE_WITH_UNIT(LENGTH_MEASURE(1.E-05),#20,
  'distance_accuracy_value','confusion accuracy');
#24 = PRODUCT_RELATED_PRODUCT_CATEGORY('part',$,(#7));
#25 = SHAPE_DEFINITION_REPRESENTATION(#26,#32);
#26 = PRODUCT_DEFINITION_SHAPE('','',#27);
#27 = PRODUCT_DEFINITION('design','',#28,#31);
#28 = PRODUCT_DEFINITION_FORMATION('','',#29);
#29 = PRODUCT('Body002','Body002','',(#30));
#30 = PRODUCT_CONTEXT('',#2,'mechanical');
#31 = PRODUCT_DEFINITION_CONTEXT('part definition',#2,'design');
#32 = ADVANCED_BREP_SHAPE_REPRESENTATION('',(#11,#33),#505);
#33 = MANIFOLD_SOLID_BREP('',#34);
#34 = CLOSED_SHELL('',(#35,#76,#152,#176,#245,#313,#335,#348,#365,#393,
    #405,#430,#455,#480,#496));
#35 = ADVANCED_FACE('',(#36),#71,.T.);
#36 = FACE_BOUND('',#37,.T.);
#37 = EDGE_LOOP('',(#38,#48,#57,#65));
#38 = ORIENTED_EDGE('',*,*,#39,.F.);
#39 = EDGE_CURVE('',#40,#42,#44,.T.);
#40 = VERTEX_POINT('',#41);
#41 = CARTESIAN_POINT('',(0.,-2.2,6.539877674697));
#42 = VERTEX_POINT('',#43);
#43 = CARTESIAN_POINT('',(0.,-2.2,8.05));
#44 = LINE('',#45,#46);
#45 = CARTESIAN_POINT('',(0.,-2.2,6.539877674697));
#46 = VECTOR('',#47,1.);
#47 = DIRECTION('',(0.,0.,1.));
#48 = ORIENTED_EDGE('',*,*,#49,.T.);
#49 = EDGE_CURVE('',#40,#50,#52,.T.);
#50 = VERTEX_POINT('',#51);
#51 = CARTESIAN_POINT('',(0.,2.2,6.539877674697));
#52 = CIRCLE('',#53,6.9);
#53 = AXIS2_PLACEMENT_3D('',#54,#55,#56);
#54 = CARTESIAN_POINT('',(0.,0.,0.));
#55 = DIRECTION('',(-1.,0.,0.));
#56 = DIRECTION('',(0.,-1.,0.));
#57 = ORIENTED_EDGE('',*,*,#58,.T.);
#58 = EDGE_CURVE('',#50,#59,#61,.T.);
#59 = VERTEX_POINT('',#60);
#60 = CARTESIAN_POINT('',(0.,2.2,8.05));
#61 = LINE('',#62,#63);
#62 = CARTESIAN_POINT('',(0.,2.2,6.539877674697));
#63 = VECTOR('',#64,1.);
#64 = DIRECTION('',(0.,0.,1.));
#65 = ORIENTED_EDGE('',*,*,#66,.F.);
#66 = EDGE_CURVE('',#42,#59,#67,.T.);
#67 = LINE('',#68,#69);
#68 = CARTESIAN_POINT('',(0.,-2.2,8.05));
#69 = VECTOR('',#70,1.);
#70 = DIRECTION('',(0.,1.,0.));
#71 = PLANE('',#72);
#72 = AXIS2_PLACEMENT_3D('',#73,#74,#75);
#73 = CARTESIAN_POINT('',(0.,-3.863567874829E-15,9.53107421998));
#74 = DIRECTION('',(1.,0.,0.));
#75 = DIRECTION('',(0.,0.,1.));
#76 = ADVANCED_FACE('',(#77,#136),#147,.T.);
#77 = FACE_BOUND('',#78,.T.);
#78 = EDGE_LOOP('',(#79,#89,#98,#104,#105,#113,#121,#129));
#79 = ORIENTED_EDGE('',*,*,#80,.F.);
#80 = EDGE_CURVE('',#81,#83,#85,.T.);
#81 = VERTEX_POINT('',#82);
#82 = CARTESIAN_POINT('',(-30.,-2.2,19.539877674708));
#83 = VERTEX_POINT('',#84);
#84 = CARTESIAN_POINT('',(-30.,-2.2,19.45));
#85 = LINE('',#86,#87);
#86 = CARTESIAN_POINT('',(-30.,-2.2,6.539877674697));
#87 = VECTOR('',#88,1.);
#88 = DIRECTION('',(0.,0.,-1.));
#89 = ORIENTED_EDGE('',*,*,#90,.F.);
#90 = EDGE_CURVE('',#91,#81,#93,.T.);
#91 = VERTEX_POINT('',#92);
#92 = CARTESIAN_POINT('',(-42.99999999999,-2.2,6.539877674702));
#93 = CIRCLE('',#94,13.);
#94 = AXIS2_PLACEMENT_3D('',#95,#96,#97);
#95 = CARTESIAN_POINT('',(-43.,-2.2,19.539877674708));
#96 = DIRECTION('',(0.,1.,-2.22044604925E-16));
#97 = DIRECTION('',(1.,0.,0.));
#98 = ORIENTED_EDGE('',*,*,#99,.T.);
#99 = EDGE_CURVE('',#91,#40,#100,.T.);
#100 = LINE('',#101,#102);
#101 = CARTESIAN_POINT('',(-15.,-2.2,6.539877674697));
#102 = VECTOR('',#103,1.);
#103 = DIRECTION('',(1.,0.,0.));
#104 = ORIENTED_EDGE('',*,*,#39,.T.);
#105 = ORIENTED_EDGE('',*,*,#106,.T.);
#106 = EDGE_CURVE('',#42,#107,#109,.T.);
#107 = VERTEX_POINT('',#108);
#108 = CARTESIAN_POINT('',(25.,-2.2,8.05));
#109 = LINE('',#110,#111);
#110 = CARTESIAN_POINT('',(0.,-2.2,8.05));
#111 = VECTOR('',#112,1.);
#112 = DIRECTION('',(1.,0.,0.));
#113 = ORIENTED_EDGE('',*,*,#114,.F.);
#114 = EDGE_CURVE('',#115,#107,#117,.T.);
#115 = VERTEX_POINT('',#116);
#116 = CARTESIAN_POINT('',(25.,-2.2,12.45));
#117 = LINE('',#118,#119);
#118 = CARTESIAN_POINT('',(25.,-2.2,11.232155765197));
#119 = VECTOR('',#120,1.);
#120 = DIRECTION('',(4.440892098501E-16,0.,-1.));
#121 = ORIENTED_EDGE('',*,*,#122,.F.);
#122 = EDGE_CURVE('',#123,#115,#125,.T.);
#123 = VERTEX_POINT('',#124);
#124 = CARTESIAN_POINT('',(-23.,-2.2,12.45));
#125 = LINE('',#126,#127);
#126 = CARTESIAN_POINT('',(0.,-2.2,12.45));
#127 = VECTOR('',#128,1.);
#128 = DIRECTION('',(1.,0.,0.));
#129 = ORIENTED_EDGE('',*,*,#130,.T.);
#130 = EDGE_CURVE('',#123,#83,#131,.T.);
#131 = CIRCLE('',#132,7.);
#132 = AXIS2_PLACEMENT_3D('',#133,#134,#135);
#133 = CARTESIAN_POINT('',(-23.,-2.2,19.45));
#134 = DIRECTION('',(-0.,1.,0.));
#135 = DIRECTION('',(0.,0.,-1.));
#136 = FACE_BOUND('',#137,.T.);
#137 = EDGE_LOOP('',(#138));
#138 = ORIENTED_EDGE('',*,*,#139,.T.);
#139 = EDGE_CURVE('',#140,#140,#142,.T.);
#140 = VERTEX_POINT('',#141);
#141 = CARTESIAN_POINT('',(-31.,-2.2,19.539877674708));
#142 = CIRCLE('',#143,12.);
#143 = AXIS2_PLACEMENT_3D('',#144,#145,#146);
#144 = CARTESIAN_POINT('',(-43.,-2.2,19.539877674708));
#145 = DIRECTION('',(-0.,1.,0.));
#146 = DIRECTION('',(1.,0.,0.));
#147 = PLANE('',#148);
#148 = AXIS2_PLACEMENT_3D('',#149,#150,#151);
#149 = CARTESIAN_POINT('',(-17.25934191564,-2.2,13.29209176062));
#150 = DIRECTION('',(-0.,-1.,-0.));
#151 = DIRECTION('',(0.,0.,-1.));
#152 = ADVANCED_FACE('',(#153),#171,.F.);
#153 = FACE_BOUND('',#154,.F.);
#154 = EDGE_LOOP('',(#155,#156,#157,#165));
#155 = ORIENTED_EDGE('',*,*,#66,.F.);
#156 = ORIENTED_EDGE('',*,*,#106,.T.);
#157 = ORIENTED_EDGE('',*,*,#158,.T.);
#158 = EDGE_CURVE('',#107,#159,#161,.T.);
#159 = VERTEX_POINT('',#160);
#160 = CARTESIAN_POINT('',(25.,2.2,8.05));
#161 = LINE('',#162,#163);
#162 = CARTESIAN_POINT('',(25.,-1.1,8.05));
#163 = VECTOR('',#164,1.);
#164 = DIRECTION('',(2.22044604925E-16,1.,0.));
#165 = ORIENTED_EDGE('',*,*,#166,.F.);
#166 = EDGE_CURVE('',#59,#159,#167,.T.);
#167 = LINE('',#168,#169);
#168 = CARTESIAN_POINT('',(0.,2.2,8.05));
#169 = VECTOR('',#170,1.);
#170 = DIRECTION('',(1.,0.,0.));
#171 = PLANE('',#172);
#172 = AXIS2_PLACEMENT_3D('',#173,#174,#175);
#173 = CARTESIAN_POINT('',(0.,-2.2,8.05));
#174 = DIRECTION('',(0.,0.,1.));
#175 = DIRECTION('',(0.,1.,0.));
#176 = ADVANCED_FACE('',(#177,#229),#240,.T.);
#177 = FACE_BOUND('',#178,.T.);
#178 = EDGE_LOOP('',(#179,#189,#198,#206,#212,#213,#214,#222));
#179 = ORIENTED_EDGE('',*,*,#180,.F.);
#180 = EDGE_CURVE('',#181,#183,#185,.T.);
#181 = VERTEX_POINT('',#182);
#182 = CARTESIAN_POINT('',(-30.,2.2,19.45));
#183 = VERTEX_POINT('',#184);
#184 = CARTESIAN_POINT('',(-30.,2.2,19.539877674708));
#185 = LINE('',#186,#187);
#186 = CARTESIAN_POINT('',(-30.,2.2,9.494938837349));
#187 = VECTOR('',#188,1.);
#188 = DIRECTION('',(0.,0.,1.));
#189 = ORIENTED_EDGE('',*,*,#190,.F.);
#190 = EDGE_CURVE('',#191,#181,#193,.T.);
#191 = VERTEX_POINT('',#192);
#192 = CARTESIAN_POINT('',(-23.,2.2,12.45));
#193 = CIRCLE('',#194,7.);
#194 = AXIS2_PLACEMENT_3D('',#195,#196,#197);
#195 = CARTESIAN_POINT('',(-23.,2.2,19.45));
#196 = DIRECTION('',(-0.,1.,0.));
#197 = DIRECTION('',(0.,0.,-1.));
#198 = ORIENTED_EDGE('',*,*,#199,.T.);
#199 = EDGE_CURVE('',#191,#200,#202,.T.);
#200 = VERTEX_POINT('',#201);
#201 = CARTESIAN_POINT('',(25.,2.2,12.45));
#202 = LINE('',#203,#204);
#203 = CARTESIAN_POINT('',(0.,2.2,12.45));
#204 = VECTOR('',#205,1.);
#205 = DIRECTION('',(1.,0.,0.));
#206 = ORIENTED_EDGE('',*,*,#207,.F.);
#207 = EDGE_CURVE('',#159,#200,#208,.T.);
#208 = LINE('',#209,#210);
#209 = CARTESIAN_POINT('',(25.,2.2,9.032155765197));
#210 = VECTOR('',#211,1.);
#211 = DIRECTION('',(-4.440892098501E-16,0.,1.));
#212 = ORIENTED_EDGE('',*,*,#166,.F.);
#213 = ORIENTED_EDGE('',*,*,#58,.F.);
#214 = ORIENTED_EDGE('',*,*,#215,.T.);
#215 = EDGE_CURVE('',#50,#216,#218,.T.);
#216 = VERTEX_POINT('',#217);
#217 = CARTESIAN_POINT('',(-42.99999999999,2.2,6.539877674702));
#218 = LINE('',#219,#220);
#219 = CARTESIAN_POINT('',(0.,2.2,6.539877674697));
#220 = VECTOR('',#221,1.);
#221 = DIRECTION('',(-1.,0.,0.));
#222 = ORIENTED_EDGE('',*,*,#223,.F.);
#223 = EDGE_CURVE('',#183,#216,#224,.T.);
#224 = CIRCLE('',#225,13.);
#225 = AXIS2_PLACEMENT_3D('',#226,#227,#228);
#226 = CARTESIAN_POINT('',(-43.,2.2,19.539877674708));
#227 = DIRECTION('',(0.,-1.,2.22044604925E-16));
#228 = DIRECTION('',(1.,0.,0.));
#229 = FACE_BOUND('',#230,.T.);
#230 = EDGE_LOOP('',(#231));
#231 = ORIENTED_EDGE('',*,*,#232,.T.);
#232 = EDGE_CURVE('',#233,#233,#235,.T.);
#233 = VERTEX_POINT('',#234);
#234 = CARTESIAN_POINT('',(-31.,2.2,19.539877674708));
#235 = CIRCLE('',#236,12.);
#236 = AXIS2_PLACEMENT_3D('',#237,#238,#239);
#237 = CARTESIAN_POINT('',(-43.,2.2,19.539877674708));
#238 = DIRECTION('',(0.,-1.,0.));
#239 = DIRECTION('',(1.,0.,0.));
#240 = PLANE('',#241);
#241 = AXIS2_PLACEMENT_3D('',#242,#243,#244);
#242 = CARTESIAN_POINT('',(-17.25934191564,2.2,13.29209176062));
#243 = DIRECTION('',(0.,1.,0.));
#244 = DIRECTION('',(0.,0.,1.));
#245 = ADVANCED_FACE('',(#246),#308,.F.);
#246 = FACE_BOUND('',#247,.F.);
#247 = EDGE_LOOP('',(#248,#249,#281,#306,#307));
#248 = ORIENTED_EDGE('',*,*,#215,.T.);
#249 = ORIENTED_EDGE('',*,*,#250,.T.);
#250 = EDGE_CURVE('',#216,#251,#253,.T.);
#251 = VERTEX_POINT('',#252);
#252 = CARTESIAN_POINT('',(-46.03866621536,1.532107773983E-15,6.9));
#253 = B_SPLINE_CURVE_WITH_KNOTS('',6,(#254,#255,#256,#257,#258,#259,
    #260,#261,#262,#263,#264,#265,#266,#267,#268,#269,#270,#271,#272,
    #273,#274,#275,#276,#277,#278,#279,#280),.UNSPECIFIED.,.F.,.F.,(7,5,
    5,5,5,7),(0.,0.470147338368,0.640470048416,0.776240637354,
    0.935212129557,1.),.UNSPECIFIED.);
#254 = CARTESIAN_POINT('',(-42.99999999999,2.199999999967,6.539877674708
    ));
#255 = CARTESIAN_POINT('',(-43.32625022338,2.199999999967,6.539877674708
    ));
#256 = CARTESIAN_POINT('',(-43.65252882929,2.170794296081,6.549703120734
    ));
#257 = CARTESIAN_POINT('',(-43.97549253246,2.112363321597,6.569356046972
    ));
#258 = CARTESIAN_POINT('',(-44.29137704489,2.023334670251,6.598224013095
    ));
#259 = CARTESIAN_POINT('',(-44.59518681732,1.901169924762,6.634939323583
    ));
#260 = CARTESIAN_POINT('',(-44.98131737107,1.68511572717,6.691331040094)
  );
#261 = CARTESIAN_POINT('',(-45.08132295648,1.622882061688,6.706940664982
    ));
#262 = CARTESIAN_POINT('',(-45.17816699454,1.555762811197,6.723000604755
    ));
#263 = CARTESIAN_POINT('',(-45.27132055378,1.483670273521,6.739311606437
    ));
#264 = CARTESIAN_POINT('',(-45.36020706117,1.406537687547,6.755639869566
    ));
#265 = CARTESIAN_POINT('',(-45.51115690858,1.258780884658,6.784536116557
    ));
#266 = CARTESIAN_POINT('',(-45.575009788,1.190004401951,6.797196172225)
  );
#267 = CARTESIAN_POINT('',(-45.63535980291,1.118045931015,6.809548665455
    ));
#268 = CARTESIAN_POINT('',(-45.69181514519,1.042990598077,6.821431986363
    ));
#269 = CARTESIAN_POINT('',(-45.74399214344,0.964953307641,6.832679923905
    ));
#270 = CARTESIAN_POINT('',(-45.84715806371,0.789384542475,6.855362043066
    ));
#271 = CARTESIAN_POINT('',(-45.89644935404,0.690751131259,6.866506249618
    ));
#272 = CARTESIAN_POINT('',(-45.93861906436,0.588663450719,6.876260681337
    ));
#273 = CARTESIAN_POINT('',(-45.97304619122,0.483698763562,6.884355834331
    ));
#274 = CARTESIAN_POINT('',(-45.99926333944,0.376505380696,6.890579255909
    ));
#275 = CARTESIAN_POINT('',(-46.02417473632,0.223471282145,6.896522813287
    ));
#276 = CARTESIAN_POINT('',(-46.02996988485,0.178925276829,6.897910705964
    ));
#277 = CARTESIAN_POINT('',(-46.03432687645,0.134200140063,6.898956797402
    ));
#278 = CARTESIAN_POINT('',(-46.03723206244,8.935436306294E-02,
    6.89965520871));
#279 = CARTESIAN_POINT('',(-46.03867854002,4.444794710378E-02,
    6.900002962887));
#280 = CARTESIAN_POINT('',(-46.03866615225,-4.5759648503E-04,
    6.899999984826));
#281 = ORIENTED_EDGE('',*,*,#282,.T.);
#282 = EDGE_CURVE('',#251,#91,#283,.T.);
#283 = B_SPLINE_CURVE_WITH_KNOTS('',6,(#284,#285,#286,#287,#288,#289,
    #290,#291,#292,#293,#294,#295,#296,#297,#298,#299,#300,#301,#302,
    #303,#304,#305),.UNSPECIFIED.,.F.,.F.,(7,5,5,5,7),(0.,0.222590339051
    ,0.358096960773,0.52779779768,1.),.UNSPECIFIED.);
#284 = CARTESIAN_POINT('',(-46.03866615225,4.575964850329E-04,
    6.899999984826));
#285 = CARTESIAN_POINT('',(-46.03870876471,-0.154012054567,
    6.900010228996));
#286 = CARTESIAN_POINT('',(-46.02148946053,-0.308166129929,
    6.895870839593));
#287 = CARTESIAN_POINT('',(-45.98714341984,-0.459835875867,
    6.887612786836));
#288 = CARTESIAN_POINT('',(-45.93655542548,-0.606924539543,6.87563969529
    ));
#289 = CARTESIAN_POINT('',(-45.87131855254,-0.747575479121,
    6.860688295191));
#290 = CARTESIAN_POINT('',(-45.74647565918,-0.96113286018,6.833217559949
    ));
#291 = CARTESIAN_POINT('',(-45.69458620845,-1.039126967271,
    6.822020794112));
#292 = CARTESIAN_POINT('',(-45.6384225625,-1.114157003122,6.810185584022
    ));
#293 = CARTESIAN_POINT('',(-45.57836659316,-1.186106509384,6.79787736368
    ));
#294 = CARTESIAN_POINT('',(-45.5148088483,-1.254888801706,6.785257203793
    ));
#295 = CARTESIAN_POINT('',(-45.36466821604,-1.402547856169,
    6.756467741277));
#296 = CARTESIAN_POINT('',(-45.27631129093,-1.479603216912,
    6.740204276047));
#297 = CARTESIAN_POINT('',(-45.18369795371,-1.55165555649,6.723949163326
    ));
#298 = CARTESIAN_POINT('',(-45.08740051122,-1.618769243287,6.70793469714
    ));
#299 = CARTESIAN_POINT('',(-44.98794457914,-1.681029726473,
    6.692359155058));
#300 = CARTESIAN_POINT('',(-44.60161362471,-1.898576781749,
    6.635717983489));
#301 = CARTESIAN_POINT('',(-44.29671113022,-2.021832829091,
    6.598711607326));
#302 = CARTESIAN_POINT('',(-43.97956478791,-2.111625268566,6.56960389054
    ));
#303 = CARTESIAN_POINT('',(-43.6552869105,-2.170541531871,6.549788196909
    ));
#304 = CARTESIAN_POINT('',(-43.32765758497,-2.199999999967,
    6.539877674708));
#305 = CARTESIAN_POINT('',(-42.99999999999,-2.199999999967,
    6.539877674708));
#306 = ORIENTED_EDGE('',*,*,#99,.T.);
#307 = ORIENTED_EDGE('',*,*,#49,.T.);
#308 = CYLINDRICAL_SURFACE('',#309,6.9);
#309 = AXIS2_PLACEMENT_3D('',#310,#311,#312);
#310 = CARTESIAN_POINT('',(-30.,0.,0.));
#311 = DIRECTION('',(1.,0.,0.));
#312 = DIRECTION('',(0.,1.,0.));
#313 = ADVANCED_FACE('',(#314),#330,.T.);
#314 = FACE_BOUND('',#315,.T.);
#315 = EDGE_LOOP('',(#316,#322,#323,#329));
#316 = ORIENTED_EDGE('',*,*,#317,.F.);
#317 = EDGE_CURVE('',#181,#83,#318,.T.);
#318 = LINE('',#319,#320);
#319 = CARTESIAN_POINT('',(-30.,2.6645352591E-15,19.45));
#320 = VECTOR('',#321,1.);
#321 = DIRECTION('',(0.,-1.,0.));
#322 = ORIENTED_EDGE('',*,*,#180,.T.);
#323 = ORIENTED_EDGE('',*,*,#324,.F.);
#324 = EDGE_CURVE('',#81,#183,#325,.T.);
#325 = LINE('',#326,#327);
#326 = CARTESIAN_POINT('',(-30.,4.338724418564E-15,19.539877674708));
#327 = VECTOR('',#328,1.);
#328 = DIRECTION('',(0.,1.,0.));
#329 = ORIENTED_EDGE('',*,*,#80,.T.);
#330 = PLANE('',#331);
#331 = AXIS2_PLACEMENT_3D('',#332,#333,#334);
#332 = CARTESIAN_POINT('',(-30.,3.865146476829E-13,19.494938837354));
#333 = DIRECTION('',(1.,0.,0.));
#334 = DIRECTION('',(0.,0.,1.));
#335 = ADVANCED_FACE('',(#336),#343,.T.);
#336 = FACE_BOUND('',#337,.F.);
#337 = EDGE_LOOP('',(#338,#339,#340,#341,#342));
#338 = ORIENTED_EDGE('',*,*,#90,.F.);
#339 = ORIENTED_EDGE('',*,*,#282,.F.);
#340 = ORIENTED_EDGE('',*,*,#250,.F.);
#341 = ORIENTED_EDGE('',*,*,#223,.F.);
#342 = ORIENTED_EDGE('',*,*,#324,.F.);
#343 = CYLINDRICAL_SURFACE('',#344,13.);
#344 = AXIS2_PLACEMENT_3D('',#345,#346,#347);
#345 = CARTESIAN_POINT('',(-43.,4.338724418564E-15,19.539877674708));
#346 = DIRECTION('',(0.,1.,-2.22044604925E-16));
#347 = DIRECTION('',(1.,0.,0.));
#348 = ADVANCED_FACE('',(#349),#360,.T.);
#349 = FACE_BOUND('',#350,.T.);
#350 = EDGE_LOOP('',(#351,#357,#358,#359));
#351 = ORIENTED_EDGE('',*,*,#352,.T.);
#352 = EDGE_CURVE('',#200,#115,#353,.T.);
#353 = LINE('',#354,#355);
#354 = CARTESIAN_POINT('',(25.,1.1,12.45));
#355 = VECTOR('',#356,1.);
#356 = DIRECTION('',(-2.22044604925E-16,-1.,-0.));
#357 = ORIENTED_EDGE('',*,*,#114,.T.);
#358 = ORIENTED_EDGE('',*,*,#158,.T.);
#359 = ORIENTED_EDGE('',*,*,#207,.T.);
#360 = PLANE('',#361);
#361 = AXIS2_PLACEMENT_3D('',#362,#363,#364);
#362 = CARTESIAN_POINT('',(25.,2.375263323484E-14,10.014311530394));
#363 = DIRECTION('',(1.,-2.22044604925E-16,4.440892098501E-16));
#364 = DIRECTION('',(-6.661338147751E-16,4.440892098501E-16,1.));
#365 = ADVANCED_FACE('',(#366,#377),#388,.T.);
#366 = FACE_BOUND('',#367,.T.);
#367 = EDGE_LOOP('',(#368,#374,#375,#376));
#368 = ORIENTED_EDGE('',*,*,#369,.T.);
#369 = EDGE_CURVE('',#191,#123,#370,.T.);
#370 = LINE('',#371,#372);
#371 = CARTESIAN_POINT('',(-23.,2.2,12.45));
#372 = VECTOR('',#373,1.);
#373 = DIRECTION('',(0.,-1.,0.));
#374 = ORIENTED_EDGE('',*,*,#122,.T.);
#375 = ORIENTED_EDGE('',*,*,#352,.F.);
#376 = ORIENTED_EDGE('',*,*,#199,.F.);
#377 = FACE_BOUND('',#378,.T.);
#378 = EDGE_LOOP('',(#379));
#379 = ORIENTED_EDGE('',*,*,#380,.F.);
#380 = EDGE_CURVE('',#381,#381,#383,.T.);
#381 = VERTEX_POINT('',#382);
#382 = CARTESIAN_POINT('',(21.75,0.,12.45));
#383 = CIRCLE('',#384,1.75);
#384 = AXIS2_PLACEMENT_3D('',#385,#386,#387);
#385 = CARTESIAN_POINT('',(20.,0.,12.45));
#386 = DIRECTION('',(0.,0.,1.));
#387 = DIRECTION('',(1.,0.,0.));
#388 = PLANE('',#389);
#389 = AXIS2_PLACEMENT_3D('',#390,#391,#392);
#390 = CARTESIAN_POINT('',(1.,-2.711995174657E-15,12.45));
#391 = DIRECTION('',(3.689900334798E-16,0.,1.));
#392 = DIRECTION('',(1.,0.,-3.689900334798E-16));
#393 = ADVANCED_FACE('',(#394),#400,.F.);
#394 = FACE_BOUND('',#395,.T.);
#395 = EDGE_LOOP('',(#396,#397,#398,#399));
#396 = ORIENTED_EDGE('',*,*,#317,.T.);
#397 = ORIENTED_EDGE('',*,*,#130,.F.);
#398 = ORIENTED_EDGE('',*,*,#369,.F.);
#399 = ORIENTED_EDGE('',*,*,#190,.T.);
#400 = CYLINDRICAL_SURFACE('',#401,7.);
#401 = AXIS2_PLACEMENT_3D('',#402,#403,#404);
#402 = CARTESIAN_POINT('',(-23.,2.6645352591E-15,19.45));
#403 = DIRECTION('',(0.,-1.,0.));
#404 = DIRECTION('',(0.,0.,-1.));
#405 = ADVANCED_FACE('',(#406),#425,.F.);
#406 = FACE_BOUND('',#407,.F.);
#407 = EDGE_LOOP('',(#408,#416,#417,#418));
#408 = ORIENTED_EDGE('',*,*,#409,.F.);
#409 = EDGE_CURVE('',#140,#410,#412,.T.);
#410 = VERTEX_POINT('',#411);
#411 = CARTESIAN_POINT('',(-32.,-0.2,19.539877674708));
#412 = LINE('',#413,#414);
#413 = CARTESIAN_POINT('',(-32.,-0.2,19.539877674708));
#414 = VECTOR('',#415,1.);
#415 = DIRECTION('',(-0.4472135955,0.894427191,0.));
#416 = ORIENTED_EDGE('',*,*,#139,.T.);
#417 = ORIENTED_EDGE('',*,*,#409,.T.);
#418 = ORIENTED_EDGE('',*,*,#419,.F.);
#419 = EDGE_CURVE('',#410,#410,#420,.T.);
#420 = CIRCLE('',#421,11.);
#421 = AXIS2_PLACEMENT_3D('',#422,#423,#424);
#422 = CARTESIAN_POINT('',(-43.,-0.2,19.539877674708));
#423 = DIRECTION('',(-0.,1.,0.));
#424 = DIRECTION('',(1.,0.,0.));
#425 = CONICAL_SURFACE('',#426,11.,0.463647609001);
#426 = AXIS2_PLACEMENT_3D('',#427,#428,#429);
#427 = CARTESIAN_POINT('',(-43.,-0.2,19.539877674708));
#428 = DIRECTION('',(-0.,-1.,-0.));
#429 = DIRECTION('',(1.,0.,0.));
#430 = ADVANCED_FACE('',(#431),#450,.F.);
#431 = FACE_BOUND('',#432,.F.);
#432 = EDGE_LOOP('',(#433,#441,#442,#443));
#433 = ORIENTED_EDGE('',*,*,#434,.F.);
#434 = EDGE_CURVE('',#233,#435,#437,.T.);
#435 = VERTEX_POINT('',#436);
#436 = CARTESIAN_POINT('',(-32.,0.2,19.539877674708));
#437 = LINE('',#438,#439);
#438 = CARTESIAN_POINT('',(-32.,0.2,19.539877674708));
#439 = VECTOR('',#440,1.);
#440 = DIRECTION('',(-0.4472135955,-0.894427191,-0.));
#441 = ORIENTED_EDGE('',*,*,#232,.T.);
#442 = ORIENTED_EDGE('',*,*,#434,.T.);
#443 = ORIENTED_EDGE('',*,*,#444,.F.);
#444 = EDGE_CURVE('',#435,#435,#445,.T.);
#445 = CIRCLE('',#446,11.);
#446 = AXIS2_PLACEMENT_3D('',#447,#448,#449);
#447 = CARTESIAN_POINT('',(-43.,0.2,19.539877674708));
#448 = DIRECTION('',(0.,-1.,0.));
#449 = DIRECTION('',(1.,0.,0.));
#450 = CONICAL_SURFACE('',#451,11.,0.463647609001);
#451 = AXIS2_PLACEMENT_3D('',#452,#453,#454);
#452 = CARTESIAN_POINT('',(-43.,0.2,19.539877674708));
#453 = DIRECTION('',(0.,1.,0.));
#454 = DIRECTION('',(1.,0.,0.));
#455 = ADVANCED_FACE('',(#456),#475,.F.);
#456 = FACE_BOUND('',#457,.F.);
#457 = EDGE_LOOP('',(#458,#466,#473,#474));
#458 = ORIENTED_EDGE('',*,*,#459,.T.);
#459 = EDGE_CURVE('',#381,#460,#462,.T.);
#460 = VERTEX_POINT('',#461);
#461 = CARTESIAN_POINT('',(21.75,0.,11.45));
#462 = LINE('',#463,#464);
#463 = CARTESIAN_POINT('',(21.75,0.,12.45));
#464 = VECTOR('',#465,1.);
#465 = DIRECTION('',(-0.,-0.,-1.));
#466 = ORIENTED_EDGE('',*,*,#467,.T.);
#467 = EDGE_CURVE('',#460,#460,#468,.T.);
#468 = CIRCLE('',#469,1.75);
#469 = AXIS2_PLACEMENT_3D('',#470,#471,#472);
#470 = CARTESIAN_POINT('',(20.,0.,11.45));
#471 = DIRECTION('',(0.,0.,1.));
#472 = DIRECTION('',(1.,0.,0.));
#473 = ORIENTED_EDGE('',*,*,#459,.F.);
#474 = ORIENTED_EDGE('',*,*,#380,.F.);
#475 = CYLINDRICAL_SURFACE('',#476,1.75);
#476 = AXIS2_PLACEMENT_3D('',#477,#478,#479);
#477 = CARTESIAN_POINT('',(20.,0.,12.45));
#478 = DIRECTION('',(0.,0.,1.));
#479 = DIRECTION('',(1.,0.,0.));
#480 = ADVANCED_FACE('',(#481),#491,.F.);
#481 = FACE_BOUND('',#482,.T.);
#482 = EDGE_LOOP('',(#483,#484,#489,#490));
#483 = ORIENTED_EDGE('',*,*,#444,.F.);
#484 = ORIENTED_EDGE('',*,*,#485,.F.);
#485 = EDGE_CURVE('',#410,#435,#486,.T.);
#486 = B_SPLINE_CURVE_WITH_KNOTS('',1,(#487,#488),.UNSPECIFIED.,.F.,.F.,
  (2,2),(-0.2,0.2),.PIECEWISE_BEZIER_KNOTS.);
#487 = CARTESIAN_POINT('',(-32.,-0.2,19.539877674708));
#488 = CARTESIAN_POINT('',(-32.,0.2,19.539877674708));
#489 = ORIENTED_EDGE('',*,*,#419,.F.);
#490 = ORIENTED_EDGE('',*,*,#485,.T.);
#491 = CYLINDRICAL_SURFACE('',#492,11.);
#492 = AXIS2_PLACEMENT_3D('',#493,#494,#495);
#493 = CARTESIAN_POINT('',(-43.,4.338724418564E-15,19.539877674708));
#494 = DIRECTION('',(0.,1.,-2.22044604925E-16));
#495 = DIRECTION('',(1.,0.,0.));
#496 = ADVANCED_FACE('',(#497),#500,.T.);
#497 = FACE_BOUND('',#498,.T.);
#498 = EDGE_LOOP('',(#499));
#499 = ORIENTED_EDGE('',*,*,#467,.T.);
#500 = PLANE('',#501);
#501 = AXIS2_PLACEMENT_3D('',#502,#503,#504);
#502 = CARTESIAN_POINT('',(20.,1.239108604125E-16,11.45));
#503 = DIRECTION('',(0.,0.,1.));
#504 = DIRECTION('',(1.,0.,0.));
#505 = ( GEOMETRIC_REPRESENTATION_CONTEXT(3) 
GLOBAL_UNCERTAINTY_ASSIGNED_CONTEXT((#509)) GLOBAL_UNIT_ASSIGNED_CONTEXT
((#506,#507,#508)) REPRESENTATION_CONTEXT('Context #1',
  '3D Context with UNIT and UNCERTAINTY') );
#506 = ( LENGTH_UNIT() NAMED_UNIT(*) SI_UNIT(.MILLI.,.METRE.) );
#507 = ( NAMED_UNIT(*) PLANE_ANGLE_UNIT() SI_UNIT($,.RADIAN.) );
#508 = ( NAMED_UNIT(*) SI_UNIT($,.STERADIAN.) SOLID_ANGLE_UNIT() );
#509 = UNCERTAINTY_MEASURE_WITH_UNIT(LENGTH_MEASURE(1.E-05),#506,
  'distance_accuracy_value','confusion accuracy');
#510 = CONTEXT_DEPENDENT_SHAPE_REPRESENTATION(#511,#513);
#511 = ( REPRESENTATION_RELATIONSHIP('','',#32,#10) 
REPRESENTATION_RELATIONSHIP_WITH_TRANSFORMATION(#512) 
SHAPE_REPRESENTATION_RELATIONSHIP() );
#512 = ITEM_DEFINED_TRANSFORMATION('','',#11,#15);
#513 = PRODUCT_DEFINITION_SHAPE('Placement','Placement of an item',#514
  );
#514 = NEXT_ASSEMBLY_USAGE_OCCURRENCE('2','Body002','',#5,#27,$);
#515 = PRODUCT_RELATED_PRODUCT_CATEGORY('part',$,(#29));
#516 = MECHANICAL_DESIGN_GEOMETRIC_PRESENTATION_REPRESENTATION('',(#517)
  ,#505);
#517 = STYLED_ITEM('color',(#518),#33);
#518 = PRESENTATION_STYLE_ASSIGNMENT((#519,#525));
#519 = SURFACE_STYLE_USAGE(.BOTH.,#520);
#520 = SURFACE_SIDE_STYLE('',(#521));
#521 = SURFACE_STYLE_FILL_AREA(#522);
#522 = FILL_AREA_STYLE('',(#523));
#523 = FILL_AREA_STYLE_COLOUR('',#524);
#524 = COLOUR_RGB('',0.800000010877,0.800000010877,0.800000010877);
#525 = CURVE_STYLE('',#526,POSITIVE_LENGTH_MEASURE(0.1),#527);
#526 = DRAUGHTING_PRE_DEFINED_CURVE_FONT('continuous');
#527 = COLOUR_RGB('',9.803921802644E-02,9.803921802644E-02,
  9.803921802644E-02);
ENDSEC;
END-ISO-10303-21;
