<?xml version="1.0" encoding="UTF-8" standalone="no"?>
<!DOCTYPE svg PUBLIC "-//W3C//DTD SVG 1.1//EN" "http://www.w3.org/Graphics/SVG/1.1/DTD/svg11.dtd">
<svg width="100%" height="100%" viewBox="0 0 1536 1536" version="1.1" xmlns="http://www.w3.org/2000/svg" xmlns:xlink="http://www.w3.org/1999/xlink" xml:space="preserve" xmlns:serif="http://www.serif.com/" style="fill-rule:evenodd;clip-rule:evenodd;stroke-linejoin:round;stroke-miterlimit:2;">
    <path id="Color-Fill-1" serif:id="Color Fill 1" d="M589.804,1137.09C574.738,1144.37 560.82,1170.82 540,1181C476.781,1211.9 382.388,1185.19 335,1161C318.503,1152.58 272.334,1142.93 267,1127C295.059,1127.9 336.61,1134.5 347,1110C350.814,1096.24 342.837,1089.61 342,1077C347.054,1069.95 363.47,1065.97 365,1057C367.317,1043.43 344.017,1038.91 335,1035C311.069,1024.62 268.155,1016.2 260,991C273.154,992.02 283.605,999.963 297,1003C336.954,1012.06 372.265,984.684 383,963C393.23,942.336 386.081,941.515 403,925C363.092,934.652 332.663,920.068 303,903C238.002,865.599 149.249,768.019 164,677L169,677C175.909,706.062 192.704,718.956 225,724C229.895,724.764 237.239,725.802 241,723C253.006,717.139 254.276,703.385 256,687C261.224,684.66 276.979,683.337 281,679C283.806,676.68 283.923,675.23 284,670C261.916,629.67 231.85,587.472 240,525L243,525C247.327,559.622 281.982,610.874 328,597C341.398,592.961 354.134,581.986 366,579C377.164,576.19 385.313,585.867 395,587C390.206,574.502 374.67,569.789 367,560C361.001,549.668 354.999,539.332 349,529C342.622,515.117 345.607,498.97 343,481C332.744,410.3 365.876,352.17 387,307C396.061,287.624 402.06,267.252 417,254C418,254.667 419,255.333 420,256C404.724,287.028 404.987,332.17 432,351C444.304,349.773 444.424,343.212 460,343C465.35,349.93 470.109,359.79 476,367C515.193,344.875 509.083,276.484 548,255L549,255L534,289C523.922,326.223 541.751,358.104 561,373C569.999,377 579.001,381 588,385C595.333,390.333 602.667,395.667 610,401L610,396C595.229,351.69 626.569,314.229 642,291C689.778,219.076 762.945,156.778 881,157L881,160C854.114,161.446 827.822,179.928 817,200C799.958,231.609 816.725,256.71 851,255C849.565,269.648 850.365,281.714 865,283C908.646,263.269 946.125,231.247 1015,240L1015,243C979.955,248.109 927.468,279.298 936,324C941.556,353.113 959.407,361.851 948,399L950,399C952.262,392.27 959.933,388.138 964,383C1019.75,312.565 1146.26,348.893 1213,379C1229.56,386.468 1275.58,400.957 1281,416L1280,416C1246.3,401.912 1210.89,404.466 1189,429C1188.54,442.804 1190.55,451.963 1192,465C1183.55,467.841 1175.46,469.033 1171,476C1190.6,506.151 1271.28,515.524 1276,547C1266.33,543 1256.67,539 1247,535C1202.39,520.323 1163.74,552.97 1153,580C1151.67,586.333 1150.33,592.667 1149,599C1145.83,603.169 1139.74,602.889 1137,608L1150,608C1183.09,598.803 1226.23,628.692 1244,641C1317.93,692.215 1377.62,760.116 1378,881L1375,881C1373.95,851.254 1328.97,788.427 1293,814C1279.58,823.544 1286.35,835.839 1280,851L1252,857L1252,858C1272.29,911.713 1299.17,938.22 1299,1013C1289.88,1008.73 1287.29,984.562 1282,976C1272.9,961.274 1255.31,946.372 1239,939C1210.96,926.323 1190.94,949.876 1174,954C1158.53,957.767 1146.07,947.263 1137,943C1151.84,967.719 1175.15,980.775 1187,1011C1212.69,1076.54 1175.98,1161.91 1159,1208C1153.4,1223.19 1136.31,1271.2 1124,1276C1123.96,1264.35 1127.3,1259.45 1130,1250C1138.46,1220.41 1121.32,1193.85 1103,1187C1091.26,1182.61 1077.09,1190.25 1069,1192C1069.18,1180.04 1065.98,1174.86 1058,1171C1030.03,1192.56 1020.94,1268.32 991,1277L991,1274C1032.83,1200.22 971.15,1159.64 925,1135C936.382,1174.4 918.185,1204.51 905,1228C874.441,1282.44 832.999,1329.25 772,1353C746.75,1362.83 718.568,1370.63 689,1376C680.927,1377.47 660.633,1379.51 657,1374C686.463,1372.54 710.69,1355.09 721,1334C737.642,1299.96 718.812,1280.26 686,1285C686.539,1268.79 683.797,1257.71 676,1250C644.167,1267.39 613.048,1285.79 573,1296C564.766,1298.1 532.558,1304.01 527,1296C539.106,1295.78 545.5,1287.24 554,1283C580.888,1269.6 610.512,1242.52 597,1200C592.851,1186.94 575.579,1171.4 583,1149L589.804,1137.09C589.869,1137.06 589.934,1137.03 590,1137L590,1136.75L591,1135L590,1135L590,1136.75L589.804,1137.09ZM678,391C661.48,439.698 620.52,462.44 588,495C562.304,520.727 550.492,548.598 535,584C517.664,623.616 511.408,676.852 547,700L547,701C494.232,692.34 481.961,628.102 463,592C457.831,582.157 458.227,572.278 451,565C450,565.667 449,566.333 448,567C449.709,586.539 454.606,615.191 450,638C446.543,655.12 441.726,688.11 446,713C455.502,768.342 471.294,816.941 504,849C511.626,856.475 524.248,868.264 539,875C546.666,875.333 554.334,875.667 562,876C561.333,876.333 560.667,876.667 560,877C529.709,906.059 450.601,872.137 428,860C415.668,857.667 403.332,855.333 391,853C393.712,860.588 431.97,880.123 440,886C450.145,893.424 457.868,905.947 467,917C487.002,941.21 518.4,970.872 553,988C563.296,993.097 588.968,1008.27 600,1006C608.999,1009 618.001,1012 627,1015C633.333,1014.67 639.667,1014.33 646,1014C683.127,1021.25 685.799,1004.68 696,983C697.525,985.286 697.826,984.215 697,987C704.311,1004.24 688.381,1017.06 681,1026C662.998,1047.8 598.514,1067.42 563,1087L563,1090C563.333,1090.33 563.667,1090.67 564,1091C613.958,1075.81 658.375,1097.48 714,1091C743.026,1087.62 776.292,1080.11 801,1067C827.448,1052.96 851.719,1036.98 871,1013C876.806,1005.78 872.229,974.794 878,971C879.825,987.808 893.708,997.88 890,1023C883.658,1065.96 861.365,1097.79 854,1139L856,1139C857,1139.33 858,1139.67 859,1140C888.993,1087.69 929.278,1059.32 967,1020C981.373,1005.02 987.305,980.909 996,961C1005.3,939.699 1026.92,888.997 1012,860C1005.83,848.01 994.888,846.47 988,838L988,837C1040.68,836.663 1057.52,913.689 1074,950C1078.67,957.999 1083.33,966.001 1088,974L1090,974C1090.33,973 1090.67,972 1091,971C1082.07,940.345 1082.37,905.684 1089,871C1091.32,858.868 1095.45,829.864 1091,815C1073.12,755.319 1054.64,687.616 1002,663L968,665C968.333,664.333 968.667,663.667 969,663C1035.77,622.541 1081.61,679.616 1147,682L1147,679C1106.5,672.201 1073.85,623.158 1052,597C1026.37,566.324 989.224,550.69 947,532C913.655,517.24 846.432,509.315 838,553L837,553C837.121,500.328 889.19,488.093 928,470C943.924,462.576 967.647,460.555 972,443L971,443C930.252,457.344 877.424,448.817 825,445C785.77,442.144 732.62,470.246 706,490C680.483,508.935 652.757,523.263 664,565L663,565C634.129,534.05 655.612,477.301 669,447C672.044,440.11 684.706,398.171 678,391Z" style="fill:rgb(167,0,0);"/>
</svg>
