<?xml version="1.0" encoding="UTF-8" standalone="no"?>
<!DOCTYPE svg PUBLIC "-//W3C//DTD SVG 1.1//EN" "http://www.w3.org/Graphics/SVG/1.1/DTD/svg11.dtd">
<svg width="100%" height="100%" viewBox="0 0 1536 1536" version="1.1" xmlns="http://www.w3.org/2000/svg" xmlns:xlink="http://www.w3.org/1999/xlink" xml:space="preserve" xmlns:serif="http://www.serif.com/" style="fill-rule:evenodd;clip-rule:evenodd;stroke-linejoin:round;stroke-miterlimit:2;">
    <path id="Color-Fill-2" serif:id="Color Fill 2" d="M951,0C949.437,35.958 925.163,54.81 896,62L896,63C949.691,63.439 1009.07,55.345 1039,28C1045.67,18.668 1072.33,0 1079,0C1080.47,38.821 1079.99,54.913 1060,80L1039,99C1068.65,97.832 1093.1,82.827 1110,68C1115.03,63.588 1115.12,56.939 1122,54L1122,58C1099.32,113.356 1029.42,122.241 980,150C968.364,156.535 954.719,161.676 948,173L952,173C999.099,150.619 1074.6,135.273 1135,156C1167.1,167.016 1197.72,183.776 1233,190C1251.84,193.323 1266.8,186.467 1282,186C1267.62,226.773 1164.82,202.786 1130,226C1111.3,238.465 1111.32,269.623 1129,283L1130,283C1118.35,222.272 1199.09,234.801 1235,249C1295.97,273.107 1349.39,309.156 1400,344C1421.56,358.841 1450.05,389.389 1491,382C1511.81,378.246 1516.7,364.816 1532,360L1532,363C1519.85,407.353 1485.11,437.89 1424,422C1409,417 1394,411.999 1379,407C1383.79,431.668 1412.57,459.02 1435,467C1443.8,470.132 1474.09,470.395 1478,476C1381.49,494.66 1375.95,422.988 1307,407L1307,408C1308,409.333 1309,410.667 1310,412C1322,422.666 1334,433.334 1346,444C1390.58,479.827 1435.86,516.787 1462,571C1473.77,595.413 1478.75,626.581 1485,656C1487,667.999 1489,680.001 1491,692C1498.63,710.695 1515.49,715.66 1522,727L1512,727C1453.54,707.377 1455.75,635.255 1408,606C1382.38,590.304 1349.02,603.04 1344,629C1344.67,629.333 1345.33,629.667 1346,630C1360.62,620.26 1384.06,614.177 1401,627C1420.69,641.903 1428.65,669.623 1439,694C1457.85,738.39 1489.06,765.376 1500,821C1509.06,867.056 1471.83,870.233 1536,951C1499.22,951.709 1482.27,926.052 1474,899L1473,899C1473.7,949.21 1480.62,995.734 1501,1027C1513.31,1045.89 1535.86,1046.3 1536,1078L1534,1078C1490.83,1099.74 1451.65,1053.15 1434,1037L1434,1041C1442.16,1064.66 1448.43,1087.03 1463,1104C1469.34,1111.39 1484.19,1114.78 1489,1123L1481,1123C1404.63,1096.33 1418.63,988.694 1361,945C1382.59,993.818 1398.85,1067.45 1381,1134C1365.55,1191.59 1337.02,1213.1 1352,1286L1348,1286C1339.43,1266.3 1326.71,1253.44 1322,1226C1315.65,1189 1327.37,1153.58 1310,1130C1298.58,1114.5 1266.49,1110.54 1255,1129L1255,1130C1316.38,1127.21 1302.11,1196.96 1287,1236C1258.56,1309.47 1209.47,1367.85 1170,1430C1164.52,1438.63 1144.72,1487.63 1155,1503C1160.44,1511.14 1171.08,1520.77 1174,1530L1165,1530C1099.31,1510.36 1101.56,1438.38 1129,1379C1128.67,1378.67 1128.33,1378.33 1128,1378C1103.37,1392.16 1076.82,1409.39 1067,1438C1063.05,1449.51 1067.86,1467.1 1064,1478C1063.33,1477.67 1062.67,1477.33 1062,1477C1059,1468 1056,1459 1053,1450C1042.91,1390.82 1118.18,1358.52 1128,1306L1127,1306C1112.62,1326.23 1095.04,1341.7 1079,1360C1045.82,1397.85 1016.96,1434.71 971,1460C934.349,1480.17 887.44,1475.03 846,1490C828.057,1496.48 822.251,1509.48 810,1521L809,1521C804.205,1466.23 895.817,1448.18 924,1416C950.254,1386.02 935.593,1356.09 904,1344C909.699,1355.92 926.224,1371.34 915,1392C901.102,1417.58 870.94,1424.98 844,1438C804.119,1457.27 775.767,1484.04 729,1498C701.792,1506.12 669.389,1498.81 640,1506C618.887,1511.17 599.207,1535.51 587,1536C586.343,1489.5 613.955,1491.61 640,1473C590.977,1475.3 547.772,1479.87 513,1498C489.231,1510.39 492.16,1536.04 455,1536C452.06,1475.69 468.151,1470.4 496,1438C472.303,1438.83 446.747,1449.93 433,1462C426.229,1467.95 421.932,1479.63 413,1483L413,1480C443.244,1405.61 546.132,1417.69 592,1361C560.766,1372.64 530.278,1382.65 492,1390C472.002,1389.33 451.998,1388.67 432,1388C414.335,1383.33 396.665,1378.67 379,1374C350.837,1363.27 313.96,1335.2 269,1346L249,1352C266.985,1305.5 362.801,1336.27 400,1314C420.571,1301.68 427.682,1270.07 406,1253C408.085,1318.95 337.479,1303.49 297,1286C249.222,1265.36 200.954,1238.78 160,1210C137.234,1194 115.651,1175.69 90,1162C65.766,1149.06 20.36,1152.83 8,1174L4,1174L4,1169C29.936,1097.54 88.404,1101.86 157,1129C148.607,1104.82 126.293,1079.52 103,1070C88.001,1067 72.998,1064 58,1061L58,1060C147.36,1028.62 163.202,1119.17 227,1126L223,1121C207.374,1113.8 195.653,1096.8 183,1086C138.129,1047.71 93.496,1012.77 69,954C59.51,931.23 56.441,905.498 51,878C49.333,866.668 47.666,855.332 46,844C37.837,824.59 24.777,820.68 9,809C13.333,808.667 17.667,808.333 22,808C87.682,830.319 77.49,899.656 128,930C154.146,945.708 188.666,933.137 191,904L190,904C163.23,946.861 119.635,892.919 109,872C101.001,854.668 92.999,837.332 85,820C68.493,792.531 51.237,767.988 40,734C36,700.67 32,667.33 28,634C23.19,614.189 0.178,603.137 0,587C33.341,584.588 43.407,603.424 56,624C59.56,629.817 58.758,635.97 64,640C63.333,623.335 62.667,606.665 62,590C57.926,566.817 52.952,543.042 44,524C36.663,508.392 5.904,480.182 5.133,471.602C8.085,469.622 -0.809,464.017 1,457C60.681,451.226 70.2,470.185 102,499L102,495C93.429,472.384 88.152,450.559 74,434C68.154,427.16 55.745,422.258 52,414L57,414C128.546,441.541 124.058,544.797 176,592C165.479,552.243 135.487,508.836 146,449C156.332,390.194 181.483,350.88 191,294C193.781,277.379 186.274,264.986 185,252L188,252C194.979,267.469 207.412,277.976 212,298C223.202,346.891 201.347,400.962 244,418C259.237,424.087 275.949,414.725 284,407L284,406C218.979,409.731 231.816,340.967 249,300C274.058,240.262 309.654,181.044 347,132C362.795,111.258 390.885,80.89 382,38C378.667,21.914 364.084,18.241 359,6C410.728,5.503 438.431,55.746 423,112C418.334,127.332 413.666,142.668 409,158L411,156C448.681,140.42 475.711,107.478 474,55L477,55C478.896,69.751 487.22,86.069 483,106C472.864,153.869 424.361,182.949 405,233C407.212,230.937 406.882,231.618 408,228C417.332,217.334 426.668,206.666 436,196C469.167,162.007 498.42,119.159 538,92C562.224,75.377 593.214,63.257 626,56L691,46C701.635,41.697 714.633,32.836 721,24C724.334,19.373 723.947,13.023 729,10C723.299,82.825 640.473,79.552 608,126C590.453,151.098 601.5,188.455 632,192L632,190C625.041,185.368 622.273,178.54 620,169C611.518,133.403 647.732,117.323 670,108C725.895,84.598 760.861,49.385 827,34C873.022,23.295 900.133,41.845 951,0ZM873,157C861.668,158.333 850.332,159.667 839,161C813.235,167.232 783.945,174.618 760,184C697.842,208.355 636.018,283.29 611,345C604.558,360.889 612.518,386.963 609,402L607,400C559.948,369.636 496.403,339.252 549,256L548,255C545.165,256.11 546.546,255.865 544,256C536.001,267.999 527.999,280.001 520,292C512.001,312.331 503.999,332.669 496,353C492.661,358.189 479.517,368.761 475,366C468.519,358.987 466.329,339.527 452,344C441.22,345.86 438.596,352.062 429,351C407.125,319.161 399.038,296.694 420,255C419,254.667 418,254.333 417,254L416,254C408.667,265.332 401.333,276.668 394,288C370.69,334.328 356.71,371.995 346,432C341.518,457.111 338.353,505.422 349,527C362,553.346 377.031,564.489 395,585L395,587C394.333,587.333 393.667,587.667 393,588C384.952,584.075 379.035,579.373 368,579C311.585,618.86 251.003,589.997 242,525L240,525C238.389,571.773 246.328,601.548 264,632C271.311,644.597 282.892,658.261 285,675C278.342,684.222 260.542,679.664 256,688L256,701C254.973,710.878 248.753,720.555 241,724C199.665,736.125 179.558,702.761 168,677L164,677L164,679C156.512,700.509 172.183,745.236 183,768C217.139,839.846 271.982,899.63 347,926C365.406,932.47 388.822,925.107 402,926C401.333,926.333 400.667,926.667 400,927C394.919,933.091 389.319,939.029 386,947C385,952.666 384,958.334 383,964C363.689,990.787 333.275,1011.26 289,1002C279.334,998.334 269.666,994.666 260,991C269.43,1004.71 287.851,1017.44 304,1024C323.259,1031.82 362.293,1033.61 365,1057C358.394,1066.3 347.492,1068.87 342,1079C361.398,1135.51 317.404,1128.15 267,1127L267,1128C267.333,1129.33 267.667,1130.67 268,1132C282.531,1135 292.096,1145.81 305,1151C355.561,1171.34 443.851,1212.37 519,1188C543.013,1180.21 564.773,1165.83 580,1149C584.2,1144.36 583.695,1139.83 590,1137L590,1138C569.809,1178.38 613.378,1196.55 598,1240C590.075,1262.39 569.069,1277.56 549,1288C542.647,1291.31 531.703,1293.13 528,1299L545,1299C564.941,1294.12 581.424,1294.35 599,1288C627.263,1277.79 651.605,1262.57 676,1249C676.667,1249.33 677.333,1249.67 678,1250C682.774,1260.93 686.873,1271.67 686,1285L689,1285C723.149,1264.11 730.88,1315.86 721,1336C712.863,1352.59 694.681,1364.96 676,1371C669.667,1372.67 663.333,1374.33 657,1376C777.409,1378.11 850.381,1314.32 896,1240C912.608,1212.94 938.746,1181.99 925,1135C956.089,1148.39 1019.67,1182.17 1002,1248C998.334,1257.67 994.666,1267.33 991,1277L992,1277C1016.79,1260.08 1024.12,1221.68 1038,1194C1041.68,1186.66 1050.58,1166.39 1059,1172L1064,1172C1066.03,1176.61 1068.9,1188.58 1071,1191C1103.88,1179.01 1127.43,1195.22 1132,1226C1134.87,1245.34 1120.11,1262.49 1125,1276C1125.67,1275.67 1126.33,1275.33 1127,1275C1154.45,1205.07 1212.34,1131.98 1189,1024C1183.25,997.402 1169.15,979.641 1152,962C1146.56,956.405 1145.06,949.786 1137,946C1137.33,945.333 1137.67,944.667 1138,944C1149.15,945.699 1158.09,957.831 1173,954C1184.92,950.937 1195.17,939.584 1208,936C1254.58,922.993 1290.03,980.984 1296,1013L1298,1013C1301.84,963.677 1286.84,923.13 1269,891C1262.85,879.932 1253.97,870.799 1251,856C1302.55,852.624 1266.29,828.613 1293,813C1300.21,808.788 1314.98,809.538 1323,812C1348.09,819.698 1362.66,838.924 1372,862C1373.67,867.999 1375.33,874.001 1377,880L1377,878C1384.47,859.845 1368.21,809.747 1363,794C1332.01,700.316 1286.25,671.681 1213,622C1205.98,617.24 1172.2,609.167 1174,608C1163.52,605.623 1141.37,612.555 1137,605C1155.91,601.342 1153.86,571.073 1164,560C1192.2,529.219 1233.62,525.275 1276,547L1276,544C1257.81,520.746 1227.36,514.159 1200,500C1190.83,495.255 1171.04,490.672 1173,479C1171.51,475.642 1171.52,476.193 1172,472C1178,470 1184,468 1190,466L1188,430C1198.85,394.425 1254.73,410.694 1281,415L1281,413C1268,405.334 1255,397.666 1242,390C1181.02,358.571 1086.81,325.335 999,354C976.205,361.441 964.579,384.324 952,396C951,394.667 950,393.333 949,392C965.582,377.691 928.764,327.864 938,299C944.331,279.216 965.005,258.353 983,250C991.852,245.891 1010.31,248.056 1015,240C981.663,239.287 950.852,242.169 925,253C904.255,261.691 882.725,285.146 856,282C852.795,275.384 849.436,269.154 851,256C786.555,257.584 811.47,190.033 840,174C847.528,169.769 876.935,162.81 881,157L873,157ZM299,154L302,154C301.35,176.068 266.42,252.068 255,263L254,263C257.883,242.089 260.52,220.539 269,204C278.999,187.335 289.001,170.665 299,154ZM1279,256C1312.35,255.337 1367.59,281.656 1384,301L1384,302L1380,302C1357.54,294.237 1288.11,271.124 1279,256ZM0,653C11.816,660.694 29.833,717.157 33,736L30,736C16.033,704.794 -0.045,703.327 0,653ZM1504,800C1513.87,804.127 1543.86,858.537 1535,880C1534.67,879.333 1534.33,878.667 1534,878C1520.17,855.941 1511.6,827.96 1504,800ZM151,1233C172.864,1235.61 256.718,1268.98 262,1282L257,1282C246.001,1280 234.999,1278 224,1276C208.518,1270.56 156.384,1245.34 151,1233ZM1281,1272C1284.86,1276.61 1279.15,1298.15 1277,1306C1272.55,1322.26 1245.82,1378.67 1234,1384L1234,1379C1246.47,1336.7 1265.54,1308.18 1281,1272ZM732,1504L737,1504C736.667,1505.33 736.333,1506.67 736,1508C715.555,1516.57 685.253,1549.18 649,1535L649,1534C676.664,1524 704.336,1514 732,1504Z" style="fill:rgb(255,120,0);"/>
    <path id="Color-Fill-1" serif:id="Color Fill 1" d="M589.804,1137.09C574.738,1144.37 560.82,1170.82 540,1181C476.781,1211.9 382.388,1185.19 335,1161C318.503,1152.58 272.334,1142.93 267,1127C295.059,1127.9 336.61,1134.5 347,1110C350.814,1096.24 342.837,1089.61 342,1077C347.054,1069.95 363.47,1065.97 365,1057C367.317,1043.43 344.017,1038.91 335,1035C311.069,1024.62 268.155,1016.2 260,991C273.154,992.02 283.605,999.963 297,1003C336.954,1012.06 372.265,984.684 383,963C393.23,942.336 386.081,941.515 403,925C363.092,934.652 332.663,920.068 303,903C238.002,865.599 149.249,768.019 164,677L169,677C175.909,706.062 192.704,718.956 225,724C229.895,724.764 237.239,725.802 241,723C253.006,717.139 254.276,703.385 256,687C261.224,684.66 276.979,683.337 281,679C283.806,676.68 283.923,675.23 284,670C261.916,629.67 231.85,587.472 240,525L243,525C247.327,559.622 281.982,610.874 328,597C341.398,592.961 354.134,581.986 366,579C377.164,576.19 385.313,585.867 395,587C390.206,574.502 374.67,569.789 367,560C361.001,549.668 354.999,539.332 349,529C342.622,515.117 345.607,498.97 343,481C332.744,410.3 365.876,352.17 387,307C396.061,287.624 402.06,267.252 417,254C418,254.667 419,255.333 420,256C404.724,287.028 404.987,332.17 432,351C444.304,349.773 444.424,343.212 460,343C465.35,349.93 470.109,359.79 476,367C515.193,344.875 509.083,276.484 548,255L549,255L534,289C523.922,326.223 541.751,358.104 561,373C569.999,377 579.001,381 588,385C595.333,390.333 602.667,395.667 610,401L610,396C595.229,351.69 626.569,314.229 642,291C689.778,219.076 762.945,156.778 881,157L881,160C854.114,161.446 827.822,179.928 817,200C799.958,231.609 816.725,256.71 851,255C849.565,269.648 850.365,281.714 865,283C908.646,263.269 946.125,231.247 1015,240L1015,243C979.955,248.109 927.468,279.298 936,324C941.556,353.113 959.407,361.851 948,399L950,399C952.262,392.27 959.933,388.138 964,383C1019.75,312.565 1146.26,348.893 1213,379C1229.56,386.468 1275.58,400.957 1281,416L1280,416C1246.3,401.912 1210.89,404.466 1189,429C1188.54,442.804 1190.55,451.963 1192,465C1183.55,467.841 1175.46,469.033 1171,476C1190.6,506.151 1271.28,515.524 1276,547C1266.33,543 1256.67,539 1247,535C1202.39,520.323 1163.74,552.97 1153,580C1151.67,586.333 1150.33,592.667 1149,599C1145.83,603.169 1139.74,602.889 1137,608L1150,608C1183.09,598.803 1226.23,628.692 1244,641C1317.93,692.215 1377.62,760.116 1378,881L1375,881C1373.95,851.254 1328.97,788.427 1293,814C1279.58,823.544 1286.35,835.839 1280,851L1252,857L1252,858C1272.29,911.713 1299.17,938.22 1299,1013C1289.88,1008.73 1287.29,984.562 1282,976C1272.9,961.274 1255.31,946.372 1239,939C1210.96,926.323 1190.94,949.876 1174,954C1158.53,957.767 1146.07,947.263 1137,943C1151.84,967.719 1175.15,980.775 1187,1011C1212.69,1076.54 1175.98,1161.91 1159,1208C1153.4,1223.19 1136.31,1271.2 1124,1276C1123.96,1264.35 1127.3,1259.45 1130,1250C1138.46,1220.41 1121.32,1193.85 1103,1187C1091.26,1182.61 1077.09,1190.25 1069,1192C1069.18,1180.04 1065.98,1174.86 1058,1171C1030.03,1192.56 1020.94,1268.32 991,1277L991,1274C1032.83,1200.22 971.15,1159.64 925,1135C936.382,1174.4 918.185,1204.51 905,1228C874.441,1282.44 832.999,1329.25 772,1353C746.75,1362.83 718.568,1370.63 689,1376C680.927,1377.47 660.633,1379.51 657,1374C686.463,1372.54 710.69,1355.09 721,1334C737.642,1299.96 718.812,1280.26 686,1285C686.539,1268.79 683.797,1257.71 676,1250C644.167,1267.39 613.048,1285.79 573,1296C564.766,1298.1 532.558,1304.01 527,1296C539.106,1295.78 545.5,1287.24 554,1283C580.888,1269.6 610.512,1242.52 597,1200C592.851,1186.94 575.579,1171.4 583,1149L589.804,1137.09C589.869,1137.06 589.934,1137.03 590,1137L590,1136.75L591,1135L590,1135L590,1136.75L589.804,1137.09ZM678,391C661.48,439.698 620.52,462.44 588,495C562.304,520.727 550.492,548.598 535,584C517.664,623.616 511.408,676.852 547,700L547,701C494.232,692.34 481.961,628.102 463,592C457.831,582.157 458.227,572.278 451,565C450,565.667 449,566.333 448,567C449.709,586.539 454.606,615.191 450,638C446.543,655.12 441.726,688.11 446,713C455.502,768.342 471.294,816.941 504,849C511.626,856.475 524.248,868.264 539,875C546.666,875.333 554.334,875.667 562,876C561.333,876.333 560.667,876.667 560,877C529.709,906.059 450.601,872.137 428,860C415.668,857.667 403.332,855.333 391,853C393.712,860.588 431.97,880.123 440,886C450.145,893.424 457.868,905.947 467,917C487.002,941.21 518.4,970.872 553,988C563.296,993.097 588.968,1008.27 600,1006C608.999,1009 618.001,1012 627,1015C633.333,1014.67 639.667,1014.33 646,1014C683.127,1021.25 685.799,1004.68 696,983C697.525,985.286 697.826,984.215 697,987C704.311,1004.24 688.381,1017.06 681,1026C662.998,1047.8 598.514,1067.42 563,1087L563,1090C563.333,1090.33 563.667,1090.67 564,1091C613.958,1075.81 658.375,1097.48 714,1091C743.026,1087.62 776.292,1080.11 801,1067C827.448,1052.96 851.719,1036.98 871,1013C876.806,1005.78 872.229,974.794 878,971C879.825,987.808 893.708,997.88 890,1023C883.658,1065.96 861.365,1097.79 854,1139L856,1139C857,1139.33 858,1139.67 859,1140C888.993,1087.69 929.278,1059.32 967,1020C981.373,1005.02 987.305,980.909 996,961C1005.3,939.699 1026.92,888.997 1012,860C1005.83,848.01 994.888,846.47 988,838L988,837C1040.68,836.663 1057.52,913.689 1074,950C1078.67,957.999 1083.33,966.001 1088,974L1090,974C1090.33,973 1090.67,972 1091,971C1082.07,940.345 1082.37,905.684 1089,871C1091.32,858.868 1095.45,829.864 1091,815C1073.12,755.319 1054.64,687.616 1002,663L968,665C968.333,664.333 968.667,663.667 969,663C1035.77,622.541 1081.61,679.616 1147,682L1147,679C1106.5,672.201 1073.85,623.158 1052,597C1026.37,566.324 989.224,550.69 947,532C913.655,517.24 846.432,509.315 838,553L837,553C837.121,500.328 889.19,488.093 928,470C943.924,462.576 967.647,460.555 972,443L971,443C930.252,457.344 877.424,448.817 825,445C785.77,442.144 732.62,470.246 706,490C680.483,508.935 652.757,523.263 664,565L663,565C634.129,534.05 655.612,477.301 669,447C672.044,440.11 684.706,398.171 678,391ZM946,399C945.667,400.333 945.333,401.667 945,403L946,403L946,399Z" style="fill:rgb(167,0,0);"/>
</svg>
