<?xml version="1.0" encoding="UTF-8" standalone="no"?>
<!DOCTYPE svg PUBLIC "-//W3C//DTD SVG 1.1//EN" "http://www.w3.org/Graphics/SVG/1.1/DTD/svg11.dtd">
<svg width="100%" height="100%" viewBox="0 0 1536 1536" version="1.1" xmlns="http://www.w3.org/2000/svg" xmlns:xlink="http://www.w3.org/1999/xlink" xml:space="preserve" xmlns:serif="http://www.serif.com/" style="fill-rule:evenodd;clip-rule:evenodd;stroke-linejoin:round;stroke-miterlimit:2;">
    <path id="Color-Fill-2" serif:id="Color Fill 2" d="M951,0C949.437,35.958 925.163,54.81 896,62L896,63C949.691,63.439 1009.07,55.345 1039,28C1045.67,18.668 1072.33,0 1079,0C1080.47,38.821 1079.99,54.913 1060,80L1039,99C1068.65,97.832 1093.1,82.827 1110,68C1115.03,63.588 1115.12,56.939 1122,54L1122,58C1099.32,113.356 1029.42,122.241 980,150C968.364,156.535 954.719,161.676 948,173L952,173C999.099,150.619 1074.6,135.273 1135,156C1167.1,167.016 1197.72,183.776 1233,190C1251.84,193.323 1266.8,186.467 1282,186C1267.62,226.773 1164.82,202.786 1130,226C1111.3,238.465 1111.32,269.623 1129,283L1130,283C1118.35,222.272 1199.09,234.801 1235,249C1295.97,273.107 1349.39,309.156 1400,344C1421.56,358.841 1450.05,389.389 1491,382C1511.81,378.246 1516.7,364.816 1532,360L1532,363C1519.85,407.353 1485.11,437.89 1424,422C1409,417 1394,411.999 1379,407C1383.79,431.668 1412.57,459.02 1435,467C1443.8,470.132 1474.09,470.395 1478,476C1381.49,494.66 1375.95,422.988 1307,407L1307,408C1308,409.333 1309,410.667 1310,412C1322,422.666 1334,433.334 1346,444C1390.58,479.827 1435.86,516.787 1462,571C1473.77,595.413 1478.75,626.581 1485,656C1487,667.999 1489,680.001 1491,692C1498.63,710.695 1515.49,715.66 1522,727L1512,727C1453.54,707.377 1455.75,635.255 1408,606C1382.38,590.304 1349.02,603.04 1344,629C1344.67,629.333 1345.33,629.667 1346,630C1360.62,620.26 1384.06,614.177 1401,627C1420.69,641.903 1428.65,669.623 1439,694C1457.85,738.39 1489.06,765.376 1500,821C1509.06,867.056 1471.83,870.233 1536,951C1499.22,951.709 1482.27,926.052 1474,899L1473,899C1473.7,949.21 1480.62,995.734 1501,1027C1513.31,1045.89 1535.86,1046.3 1536,1078L1534,1078C1490.83,1099.74 1451.65,1053.15 1434,1037L1434,1041C1442.16,1064.66 1448.43,1087.03 1463,1104C1469.34,1111.39 1484.19,1114.78 1489,1123L1481,1123C1404.63,1096.33 1418.63,988.694 1361,945C1382.59,993.818 1398.85,1067.45 1381,1134C1365.55,1191.59 1337.02,1213.1 1352,1286L1348,1286C1339.43,1266.3 1326.71,1253.44 1322,1226C1315.65,1189 1327.37,1153.58 1310,1130C1298.58,1114.5 1266.49,1110.54 1255,1129L1255,1130C1316.38,1127.21 1302.11,1196.96 1287,1236C1258.56,1309.47 1209.47,1367.85 1170,1430C1164.52,1438.63 1144.72,1487.63 1155,1503C1160.44,1511.14 1171.08,1520.77 1174,1530L1165,1530C1099.31,1510.36 1101.56,1438.38 1129,1379C1128.67,1378.67 1128.33,1378.33 1128,1378C1103.37,1392.16 1076.82,1409.39 1067,1438C1063.05,1449.51 1067.86,1467.1 1064,1478C1063.33,1477.67 1062.67,1477.33 1062,1477C1059,1468 1056,1459 1053,1450C1042.91,1390.82 1118.18,1358.52 1128,1306L1127,1306C1112.62,1326.23 1095.04,1341.7 1079,1360C1045.82,1397.85 1016.96,1434.71 971,1460C934.349,1480.17 887.44,1475.03 846,1490C828.057,1496.48 822.251,1509.48 810,1521L809,1521C804.205,1466.23 895.817,1448.18 924,1416C950.254,1386.02 935.593,1356.09 904,1344C909.699,1355.92 926.224,1371.34 915,1392C901.102,1417.58 870.94,1424.98 844,1438C804.119,1457.27 775.767,1484.04 729,1498C701.792,1506.12 669.389,1498.81 640,1506C618.887,1511.17 599.207,1535.51 587,1536C586.343,1489.5 613.955,1491.61 640,1473C590.977,1475.3 547.772,1479.87 513,1498C489.231,1510.39 492.16,1536.04 455,1536C452.06,1475.69 468.151,1470.4 496,1438C472.303,1438.83 446.747,1449.93 433,1462C426.229,1467.95 421.932,1479.63 413,1483L413,1480C443.244,1405.61 546.132,1417.69 592,1361C560.766,1372.64 530.278,1382.65 492,1390C472.002,1389.33 451.998,1388.67 432,1388C414.335,1383.33 396.665,1378.67 379,1374C350.837,1363.27 313.96,1335.2 269,1346L249,1352C266.985,1305.5 362.801,1336.27 400,1314C420.571,1301.68 427.682,1270.07 406,1253C408.085,1318.95 337.479,1303.49 297,1286C249.222,1265.36 200.954,1238.78 160,1210C137.234,1194 115.651,1175.69 90,1162C65.766,1149.06 20.36,1152.83 8,1174L4,1174L4,1169C29.936,1097.54 88.404,1101.86 157,1129C148.607,1104.82 126.293,1079.52 103,1070C88.001,1067 72.998,1064 58,1061L58,1060C147.36,1028.62 163.202,1119.17 227,1126L223,1121C207.374,1113.8 195.653,1096.8 183,1086C138.129,1047.71 93.496,1012.77 69,954C59.51,931.23 56.441,905.498 51,878C49.333,866.668 47.666,855.332 46,844C37.837,824.59 24.777,820.68 9,809C13.333,808.667 17.667,808.333 22,808C87.682,830.319 77.49,899.656 128,930C154.146,945.708 188.666,933.137 191,904L190,904C163.23,946.861 119.635,892.919 109,872C101.001,854.668 92.999,837.332 85,820C68.493,792.531 51.237,767.988 40,734C36,700.67 32,667.33 28,634C23.19,614.189 0.178,603.137 0,587C33.341,584.588 43.407,603.424 56,624C59.56,629.817 58.758,635.97 64,640C63.333,623.335 62.667,606.665 62,590C57.926,566.817 52.952,543.042 44,524C36.663,508.392 5.904,480.182 5.133,471.602C8.085,469.622 -0.809,464.017 1,457C60.681,451.226 70.2,470.185 102,499L102,495C93.429,472.384 88.152,450.559 74,434C68.154,427.16 55.745,422.258 52,414L57,414C128.546,441.541 124.058,544.797 176,592C165.479,552.243 135.487,508.836 146,449C156.332,390.194 181.483,350.88 191,294C193.781,277.379 186.274,264.986 185,252L188,252C194.979,267.469 207.412,277.976 212,298C223.202,346.891 201.347,400.962 244,418C259.237,424.087 275.949,414.725 284,407L284,406C218.979,409.731 231.816,340.967 249,300C274.058,240.262 309.654,181.044 347,132C362.795,111.258 390.885,80.89 382,38C378.667,21.914 364.084,18.241 359,6C410.728,5.503 438.431,55.746 423,112C418.334,127.332 413.666,142.668 409,158L411,156C448.681,140.42 475.711,107.478 474,55L477,55C478.896,69.751 487.22,86.069 483,106C472.864,153.869 424.361,182.949 405,233C407.212,230.937 406.882,231.618 408,228C417.332,217.334 426.668,206.666 436,196C469.167,162.007 498.42,119.159 538,92C562.224,75.377 593.214,63.257 626,56L691,46C701.635,41.697 714.633,32.836 721,24C724.334,19.373 723.947,13.023 729,10C723.299,82.825 640.473,79.552 608,126C590.453,151.098 601.5,188.455 632,192L632,190C625.041,185.368 622.273,178.54 620,169C611.518,133.403 647.732,117.323 670,108C725.895,84.598 760.861,49.385 827,34C873.022,23.295 900.133,41.845 951,0ZM873,157C861.668,158.333 850.332,159.667 839,161C813.235,167.232 783.945,174.618 760,184C697.842,208.355 636.018,283.29 611,345C604.558,360.889 612.518,386.963 609,402L607,400C559.948,369.636 496.403,339.252 549,256L548,255C545.165,256.11 546.546,255.865 544,256C536.001,267.999 527.999,280.001 520,292C512.001,312.331 503.999,332.669 496,353C492.661,358.189 479.517,368.761 475,366C468.519,358.987 466.329,339.527 452,344C441.22,345.86 438.596,352.062 429,351C407.125,319.161 399.038,296.694 420,255C419,254.667 418,254.333 417,254L416,254C408.667,265.332 401.333,276.668 394,288C370.69,334.328 356.71,371.995 346,432C341.518,457.111 338.353,505.422 349,527C362,553.346 377.031,564.489 395,585L395,587C394.333,587.333 393.667,587.667 393,588C384.952,584.075 379.035,579.373 368,579C311.585,618.86 251.003,589.997 242,525L240,525C238.389,571.773 246.328,601.548 264,632C271.311,644.597 282.892,658.261 285,675C278.342,684.222 260.542,679.664 256,688L256,701C254.973,710.878 248.753,720.555 241,724C199.665,736.125 179.558,702.761 168,677L164,677L164,679C156.512,700.509 172.183,745.236 183,768C217.139,839.846 271.982,899.63 347,926C365.406,932.47 388.822,925.107 402,926C401.333,926.333 400.667,926.667 400,927C394.919,933.091 389.319,939.029 386,947C385,952.666 384,958.334 383,964C363.689,990.787 333.275,1011.26 289,1002C279.334,998.334 269.666,994.666 260,991C269.43,1004.71 287.851,1017.44 304,1024C323.259,1031.82 362.293,1033.61 365,1057C358.394,1066.3 347.492,1068.87 342,1079C361.398,1135.51 317.404,1128.15 267,1127L267,1128C267.333,1129.33 267.667,1130.67 268,1132C282.531,1135 292.096,1145.81 305,1151C355.561,1171.34 443.851,1212.37 519,1188C543.013,1180.21 564.773,1165.83 580,1149C584.2,1144.36 583.695,1139.83 590,1137L590,1138C569.809,1178.38 613.378,1196.55 598,1240C590.075,1262.39 569.069,1277.56 549,1288C542.647,1291.31 531.703,1293.13 528,1299L545,1299C564.941,1294.12 581.424,1294.35 599,1288C627.263,1277.79 651.605,1262.57 676,1249C676.667,1249.33 677.333,1249.67 678,1250C682.774,1260.93 686.873,1271.67 686,1285L689,1285C723.149,1264.11 730.88,1315.86 721,1336C712.863,1352.59 694.681,1364.96 676,1371C669.667,1372.67 663.333,1374.33 657,1376C777.409,1378.11 850.381,1314.32 896,1240C912.608,1212.94 938.746,1181.99 925,1135C956.089,1148.39 1019.67,1182.17 1002,1248C998.334,1257.67 994.666,1267.33 991,1277L992,1277C1016.79,1260.08 1024.12,1221.68 1038,1194C1041.68,1186.66 1050.58,1166.39 1059,1172L1064,1172C1066.03,1176.61 1068.9,1188.58 1071,1191C1103.88,1179.01 1127.43,1195.22 1132,1226C1134.87,1245.34 1120.11,1262.49 1125,1276C1125.67,1275.67 1126.33,1275.33 1127,1275C1154.45,1205.07 1212.34,1131.98 1189,1024C1183.25,997.402 1169.15,979.641 1152,962C1146.56,956.405 1145.06,949.786 1137,946C1137.33,945.333 1137.67,944.667 1138,944C1149.15,945.699 1158.09,957.831 1173,954C1184.92,950.937 1195.17,939.584 1208,936C1254.58,922.993 1290.03,980.984 1296,1013L1298,1013C1301.84,963.677 1286.84,923.13 1269,891C1262.85,879.932 1253.97,870.799 1251,856C1302.55,852.624 1266.29,828.613 1293,813C1300.21,808.788 1314.98,809.538 1323,812C1348.09,819.698 1362.66,838.924 1372,862C1373.67,867.999 1375.33,874.001 1377,880L1377,878C1384.47,859.845 1368.21,809.747 1363,794C1332.01,700.316 1286.25,671.681 1213,622C1205.98,617.24 1172.2,609.167 1174,608C1163.52,605.623 1141.37,612.555 1137,605C1155.91,601.342 1153.86,571.073 1164,560C1192.2,529.219 1233.62,525.275 1276,547L1276,544C1257.81,520.746 1227.36,514.159 1200,500C1190.83,495.255 1171.04,490.672 1173,479C1171.51,475.642 1171.52,476.193 1172,472C1178,470 1184,468 1190,466L1188,430C1198.85,394.425 1254.73,410.694 1281,415L1281,413C1268,405.334 1255,397.666 1242,390C1181.02,358.571 1086.81,325.335 999,354C976.205,361.441 964.579,384.324 952,396C951,394.667 950,393.333 949,392C965.582,377.691 928.764,327.864 938,299C944.331,279.216 965.005,258.353 983,250C991.852,245.891 1010.31,248.056 1015,240C981.663,239.287 950.852,242.169 925,253C904.255,261.691 882.725,285.146 856,282C852.795,275.384 849.436,269.154 851,256C786.555,257.584 811.47,190.033 840,174C847.528,169.769 876.935,162.81 881,157L873,157Z" style="fill:rgb(255,120,0);"/>
</svg>
