<?xml version="1.0" encoding="UTF-8" standalone="no"?>
<!DOCTYPE svg PUBLIC "-//W3C//DTD SVG 1.1//EN" "http://www.w3.org/Graphics/SVG/1.1/DTD/svg11.dtd">
<svg width="100%" height="100%" viewBox="0 0 2550 3300" version="1.1" xmlns="http://www.w3.org/2000/svg" xmlns:xlink="http://www.w3.org/1999/xlink" xml:space="preserve" xmlns:serif="http://www.serif.com/" style="fill-rule:evenodd;clip-rule:evenodd;stroke-linecap:round;stroke-linejoin:round;stroke-miterlimit:1.5;">
    <g>
        <g>
            <path d="M1275,477.31C1275,477.31 992.033,877.313 992.033,1158.8C992.033,1440.29 1137.43,1650 1275,1650" style="fill:none;stroke:black;stroke-width:25px;"/>
            <g transform="matrix(-1,0,0,1,2550,0)">
                <path d="M1275,477.31C1275,477.31 992.033,877.313 992.033,1158.8C992.033,1440.29 1137.43,1650 1275,1650" style="fill:none;stroke:black;stroke-width:25px;"/>
            </g>
        </g>
        <g transform="matrix(0.5,0.866025,-0.866025,0.5,2066.44,-279.182)">
            <path d="M1275,477.31C1275,477.31 992.033,877.313 992.033,1158.8C992.033,1440.29 1137.43,1650 1275,1650" style="fill:none;stroke:black;stroke-width:25px;"/>
            <g transform="matrix(-1,0,0,1,2550,0)">
                <path d="M1275,477.31C1275,477.31 992.033,877.313 992.033,1158.8C992.033,1440.29 1137.43,1650 1275,1650" style="fill:none;stroke:black;stroke-width:25px;"/>
            </g>
        </g>
        <g transform="matrix(-0.5,0.866025,-0.866025,-0.5,3341.44,1370.82)">
            <path d="M1275,477.31C1275,477.31 992.033,877.313 992.033,1158.8C992.033,1440.29 1137.43,1650 1275,1650" style="fill:none;stroke:black;stroke-width:25px;"/>
            <g transform="matrix(-1,0,0,1,2550,0)">
                <path d="M1275,477.31C1275,477.31 992.033,877.313 992.033,1158.8C992.033,1440.29 1137.43,1650 1275,1650" style="fill:none;stroke:black;stroke-width:25px;"/>
            </g>
        </g>
        <g transform="matrix(-1,1.22465e-16,-1.22465e-16,-1,2550,3300)">
            <path d="M1275,477.31C1275,477.31 992.033,877.313 992.033,1158.8C992.033,1440.29 1137.43,1650 1275,1650" style="fill:none;stroke:black;stroke-width:25px;"/>
            <g transform="matrix(-1,0,0,1,2550,0)">
                <path d="M1275,477.31C1275,477.31 992.033,877.313 992.033,1158.8C992.033,1440.29 1137.43,1650 1275,1650" style="fill:none;stroke:black;stroke-width:25px;"/>
            </g>
        </g>
        <g transform="matrix(-0.5,-0.866025,0.866025,-0.5,483.558,3579.18)">
            <path d="M1275,477.31C1275,477.31 992.033,877.313 992.033,1158.8C992.033,1440.29 1137.43,1650 1275,1650" style="fill:none;stroke:black;stroke-width:25px;"/>
            <g transform="matrix(-1,0,0,1,2550,0)">
                <path d="M1275,477.31C1275,477.31 992.033,877.313 992.033,1158.8C992.033,1440.29 1137.43,1650 1275,1650" style="fill:none;stroke:black;stroke-width:25px;"/>
            </g>
        </g>
        <g transform="matrix(0.5,-0.866025,0.866025,0.5,-791.442,1929.18)">
            <path d="M1275,477.31C1275,477.31 992.033,877.313 992.033,1158.8C992.033,1440.29 1137.43,1650 1275,1650" style="fill:none;stroke:black;stroke-width:25px;"/>
            <g transform="matrix(-1,0,0,1,2550,0)">
                <path d="M1275,477.31C1275,477.31 992.033,877.313 992.033,1158.8C992.033,1440.29 1137.43,1650 1275,1650" style="fill:none;stroke:black;stroke-width:25px;"/>
            </g>
        </g>
    </g>
    <g>
        <g transform="matrix(0.75,0.433013,-0.433013,0.75,1033.22,-139.591)">
            <path d="M1275,477.31C1275,477.31 992.033,877.313 992.033,1158.8C992.033,1440.29 1137.43,1650 1275,1650" style="fill:none;stroke:black;stroke-width:28.87px;"/>
            <g transform="matrix(-1,0,0,1,2550,0)">
                <path d="M1275,477.31C1275,477.31 992.033,877.313 992.033,1158.8C992.033,1440.29 1137.43,1650 1275,1650" style="fill:none;stroke:black;stroke-width:28.87px;"/>
            </g>
        </g>
        <g transform="matrix(5.55112e-17,0.866025,-0.866025,5.55112e-17,2703.94,545.818)">
            <path d="M1275,477.31C1275,477.31 992.033,877.313 992.033,1158.8C992.033,1440.29 1137.43,1650 1275,1650" style="fill:none;stroke:black;stroke-width:28.87px;"/>
            <g transform="matrix(-1,0,0,1,2550,0)">
                <path d="M1275,477.31C1275,477.31 992.033,877.313 992.033,1158.8C992.033,1440.29 1137.43,1650 1275,1650" style="fill:none;stroke:black;stroke-width:28.87px;"/>
            </g>
        </g>
        <g transform="matrix(-0.75,0.433013,-0.433013,-0.75,2945.72,2335.41)">
            <path d="M1275,477.31C1275,477.31 992.033,877.313 992.033,1158.8C992.033,1440.29 1137.43,1650 1275,1650" style="fill:none;stroke:black;stroke-width:28.87px;"/>
            <g transform="matrix(-1,0,0,1,2550,0)">
                <path d="M1275,477.31C1275,477.31 992.033,877.313 992.033,1158.8C992.033,1440.29 1137.43,1650 1275,1650" style="fill:none;stroke:black;stroke-width:28.87px;"/>
            </g>
        </g>
        <g transform="matrix(-0.75,-0.433013,0.433013,-0.75,1516.78,3439.59)">
            <path d="M1275,477.31C1275,477.31 992.033,877.313 992.033,1158.8C992.033,1440.29 1137.43,1650 1275,1650" style="fill:none;stroke:black;stroke-width:28.87px;"/>
            <g transform="matrix(-1,0,0,1,2550,0)">
                <path d="M1275,477.31C1275,477.31 992.033,877.313 992.033,1158.8C992.033,1440.29 1137.43,1650 1275,1650" style="fill:none;stroke:black;stroke-width:28.87px;"/>
            </g>
        </g>
        <g transform="matrix(1.11022e-16,-0.866025,0.866025,1.11022e-16,-153.942,2754.18)">
            <path d="M1275,477.31C1275,477.31 992.033,877.313 992.033,1158.8C992.033,1440.29 1137.43,1650 1275,1650" style="fill:none;stroke:black;stroke-width:28.87px;"/>
            <g transform="matrix(-1,0,0,1,2550,0)">
                <path d="M1275,477.31C1275,477.31 992.033,877.313 992.033,1158.8C992.033,1440.29 1137.43,1650 1275,1650" style="fill:none;stroke:black;stroke-width:28.87px;"/>
            </g>
        </g>
        <g transform="matrix(0.75,-0.433013,0.433013,0.75,-395.721,964.591)">
            <path d="M1275,477.31C1275,477.31 992.033,877.313 992.033,1158.8C992.033,1440.29 1137.43,1650 1275,1650" style="fill:none;stroke:black;stroke-width:28.87px;"/>
            <g transform="matrix(-1,0,0,1,2550,0)">
                <path d="M1275,477.31C1275,477.31 992.033,877.313 992.033,1158.8C992.033,1440.29 1137.43,1650 1275,1650" style="fill:none;stroke:black;stroke-width:28.87px;"/>
            </g>
        </g>
    </g>
</svg>
